<?xml version="1.0" encoding="utf-8" standalone="no"?>
<!DOCTYPE svg PUBLIC "-//W3C//DTD SVG 1.1//EN"
  "http://www.w3.org/Graphics/SVG/1.1/DTD/svg11.dtd">
<svg xmlns:xlink="http://www.w3.org/1999/xlink" width="372.283465pt" height="295.87284pt" viewBox="0 0 372.283465 295.87284" xmlns="http://www.w3.org/2000/svg" version="1.1">
 <metadata>
  <rdf:RDF xmlns:dc="http://purl.org/dc/elements/1.1/" xmlns:cc="http://creativecommons.org/ns#" xmlns:rdf="http://www.w3.org/1999/02/22-rdf-syntax-ns#">
   <cc:Work>
    <dc:type rdf:resource="http://purl.org/dc/dcmitype/StillImage"/>
    <dc:date>2024-07-22T10:58:20.941322</dc:date>
    <dc:format>image/svg+xml</dc:format>
    <dc:creator>
     <cc:Agent>
      <dc:title>Matplotlib v3.9.0, https://matplotlib.org/</dc:title>
     </cc:Agent>
    </dc:creator>
   </cc:Work>
  </rdf:RDF>
 </metadata>
 <defs>
  <style type="text/css">*{stroke-linejoin: round; stroke-linecap: butt}</style>
 </defs>
 <g id="figure_1">
  <g id="patch_1">
   <path d="M 0 295.87284 
L 372.283465 295.87284 
L 372.283465 0 
L 0 0 
z
" style="fill: #ffffff"/>
  </g>
  <g id="axes_1">
   <g id="patch_2">
    <path d="M 0.141732 265.901732 
L 372.141732 265.901732 
L 372.141732 248.301732 
L 0.141732 248.301732 
z
" clip-path="url(#pa52d523416)" style="fill: #005ea8; fill-opacity: 0.05098"/>
   </g>
   <g id="patch_3">
    <path d="M 0.141732 243.901732 
L 372.141732 243.901732 
L 372.141732 226.301732 
L 0.141732 226.301732 
L 0.141732 243.901732 
z
" clip-path="url(#pa52d523416)" style="fill: none"/>
   </g>
   <g id="patch_4">
    <path d="M 0.141732 221.901732 
L 372.141732 221.901732 
L 372.141732 204.301732 
L 0.141732 204.301732 
z
" clip-path="url(#pa52d523416)" style="fill: #005ea8; fill-opacity: 0.05098"/>
   </g>
   <g id="patch_5">
    <path d="M 0.141732 199.901732 
L 372.141732 199.901732 
L 372.141732 182.301732 
L 0.141732 182.301732 
L 0.141732 199.901732 
z
" clip-path="url(#pa52d523416)" style="fill: none"/>
   </g>
   <g id="patch_6">
    <path d="M 0.141732 177.901732 
L 372.141732 177.901732 
L 372.141732 160.301732 
L 0.141732 160.301732 
z
" clip-path="url(#pa52d523416)" style="fill: #005ea8; fill-opacity: 0.05098"/>
   </g>
   <g id="matplotlib.axis_1"/>
   <g id="matplotlib.axis_2">
    <g id="ytick_1"/>
    <g id="ytick_2"/>
    <g id="ytick_3"/>
    <g id="ytick_4"/>
    <g id="ytick_5"/>
   </g>
  </g>
  <g id="axes_2">
   <g id="matplotlib.axis_3">
    <g id="ytick_6">
     <g id="line2d_1"/>
     <g id="text_1">
      <!-- V -->
      <g transform="translate(92.851964 259.381264) scale(0.06 -0.06)">
       <defs>
        <path id="DejaVuSans-56" d="M 1831 0 
L 50 4666 
L 709 4666 
L 2188 738 
L 3669 4666 
L 4325 4666 
L 2547 0 
L 1831 0 
z
" transform="scale(0.015625)"/>
       </defs>
       <use xlink:href="#DejaVuSans-56"/>
      </g>
     </g>
    </g>
    <g id="ytick_7">
     <g id="line2d_2"/>
     <g id="text_2">
      <!-- IV -->
      <g transform="translate(91.081964 237.381264) scale(0.06 -0.06)">
       <defs>
        <path id="DejaVuSans-49" d="M 628 4666 
L 1259 4666 
L 1259 0 
L 628 0 
L 628 4666 
z
" transform="scale(0.015625)"/>
       </defs>
       <use xlink:href="#DejaVuSans-49"/>
       <use xlink:href="#DejaVuSans-56" x="29.492188"/>
      </g>
     </g>
    </g>
    <g id="ytick_8">
     <g id="line2d_3"/>
     <g id="text_3">
      <!-- III -->
      <g transform="translate(91.646339 215.381264) scale(0.06 -0.06)">
       <use xlink:href="#DejaVuSans-49"/>
       <use xlink:href="#DejaVuSans-49" x="29.492188"/>
       <use xlink:href="#DejaVuSans-49" x="58.984375"/>
      </g>
     </g>
    </g>
    <g id="ytick_9">
     <g id="line2d_4"/>
     <g id="text_4">
      <!-- II -->
      <g transform="translate(93.416339 193.381264) scale(0.06 -0.06)">
       <use xlink:href="#DejaVuSans-49"/>
       <use xlink:href="#DejaVuSans-49" x="29.492188"/>
      </g>
     </g>
    </g>
    <g id="ytick_10">
     <g id="line2d_5"/>
     <g id="text_5">
      <!-- I -->
      <g transform="translate(95.186339 171.381264) scale(0.06 -0.06)">
       <use xlink:href="#DejaVuSans-49"/>
      </g>
     </g>
    </g>
   </g>
   <g id="LineCollection_1">
    <path d="M 112.805675 191.101732 
L 112.805675 191.101732 
" clip-path="url(#p6303969c6f)" style="fill: none; stroke: #005ea8; stroke-width: 2"/>
    <path d="M 162.203019 213.101732 
L 162.203019 191.101732 
" clip-path="url(#p6303969c6f)" style="fill: none; stroke: #005ea8; stroke-width: 2"/>
    <path d="M 186.901692 235.101732 
L 186.901692 191.101732 
" clip-path="url(#p6303969c6f)" style="fill: none; stroke: #005ea8; stroke-width: 2"/>
    <path d="M 211.600364 191.101732 
L 211.600364 169.101732 
" clip-path="url(#p6303969c6f)" style="fill: none; stroke: #005ea8; stroke-width: 2"/>
    <path d="M 236.299036 213.101732 
L 236.299036 169.101732 
" clip-path="url(#p6303969c6f)" style="fill: none; stroke: #005ea8; stroke-width: 2"/>
    <path d="M 260.997708 213.101732 
L 260.997708 213.101732 
" clip-path="url(#p6303969c6f)" style="fill: none; stroke: #005ea8; stroke-width: 2"/>
    <path d="M 285.69638 257.101732 
L 285.69638 191.101732 
" clip-path="url(#p6303969c6f)" style="fill: none; stroke: #005ea8; stroke-width: 2"/>
    <path d="M 310.395052 257.101732 
L 310.395052 191.101732 
" clip-path="url(#p6303969c6f)" style="fill: none; stroke: #005ea8; stroke-width: 2"/>
    <path d="M 335.093724 257.101732 
L 335.093724 191.101732 
" clip-path="url(#p6303969c6f)" style="fill: none; stroke: #005ea8; stroke-width: 2"/>
    <path d="M 359.792396 235.101732 
L 359.792396 169.101732 
" clip-path="url(#p6303969c6f)" style="fill: none; stroke: #005ea8; stroke-width: 2"/>
   </g>
   <g id="PathCollection_1">
    <defs>
     <path id="C0_0_6102518e37" d="M 0 5.6 
C 1.485137 5.6 2.909647 5.009949 3.959798 3.959798 
C 5.009949 2.909647 5.6 1.485137 5.6 -0 
C 5.6 -1.485137 5.009949 -2.909647 3.959798 -3.959798 
C 2.909647 -5.009949 1.485137 -5.6 0 -5.6 
C -1.485137 -5.6 -2.909647 -5.009949 -3.959798 -3.959798 
C -5.009949 -2.909647 -5.6 -1.485137 -5.6 0 
C -5.6 1.485137 -5.009949 2.909647 -3.959798 3.959798 
C -2.909647 5.009949 -1.485137 5.6 0 5.6 
z
"/>
    </defs>
    <g clip-path="url(#p6303969c6f)">
     <use xlink:href="#C0_0_6102518e37" x="112.805675" y="257.101732" style="fill: #005ea8; fill-opacity: 0.180392"/>
    </g>
    <g clip-path="url(#p6303969c6f)">
     <use xlink:href="#C0_0_6102518e37" x="112.805675" y="235.101732" style="fill: #005ea8; fill-opacity: 0.180392"/>
    </g>
    <g clip-path="url(#p6303969c6f)">
     <use xlink:href="#C0_0_6102518e37" x="112.805675" y="213.101732" style="fill: #005ea8; fill-opacity: 0.180392"/>
    </g>
    <g clip-path="url(#p6303969c6f)">
     <use xlink:href="#C0_0_6102518e37" x="112.805675" y="191.101732" style="fill: #005ea8; stroke: #005ea8"/>
    </g>
    <g clip-path="url(#p6303969c6f)">
     <use xlink:href="#C0_0_6102518e37" x="112.805675" y="169.101732" style="fill: #005ea8; fill-opacity: 0.180392"/>
    </g>
    <g clip-path="url(#p6303969c6f)">
     <use xlink:href="#C0_0_6102518e37" x="137.504347" y="257.101732" style="fill: #005ea8; fill-opacity: 0.180392"/>
    </g>
    <g clip-path="url(#p6303969c6f)">
     <use xlink:href="#C0_0_6102518e37" x="137.504347" y="235.101732" style="fill: #005ea8; fill-opacity: 0.180392"/>
    </g>
    <g clip-path="url(#p6303969c6f)">
     <use xlink:href="#C0_0_6102518e37" x="137.504347" y="213.101732" style="fill: #005ea8; fill-opacity: 0.180392"/>
    </g>
    <g clip-path="url(#p6303969c6f)">
     <use xlink:href="#C0_0_6102518e37" x="137.504347" y="191.101732" style="fill: #005ea8; fill-opacity: 0.180392"/>
    </g>
    <g clip-path="url(#p6303969c6f)">
     <use xlink:href="#C0_0_6102518e37" x="137.504347" y="169.101732" style="fill: #005ea8; fill-opacity: 0.180392"/>
    </g>
    <g clip-path="url(#p6303969c6f)">
     <use xlink:href="#C0_0_6102518e37" x="162.203019" y="257.101732" style="fill: #005ea8; fill-opacity: 0.180392"/>
    </g>
    <g clip-path="url(#p6303969c6f)">
     <use xlink:href="#C0_0_6102518e37" x="162.203019" y="235.101732" style="fill: #005ea8; fill-opacity: 0.180392"/>
    </g>
    <g clip-path="url(#p6303969c6f)">
     <use xlink:href="#C0_0_6102518e37" x="162.203019" y="213.101732" style="fill: #005ea8; stroke: #005ea8"/>
    </g>
    <g clip-path="url(#p6303969c6f)">
     <use xlink:href="#C0_0_6102518e37" x="162.203019" y="191.101732" style="fill: #005ea8; stroke: #005ea8"/>
    </g>
    <g clip-path="url(#p6303969c6f)">
     <use xlink:href="#C0_0_6102518e37" x="162.203019" y="169.101732" style="fill: #005ea8; fill-opacity: 0.180392"/>
    </g>
    <g clip-path="url(#p6303969c6f)">
     <use xlink:href="#C0_0_6102518e37" x="186.901692" y="257.101732" style="fill: #005ea8; fill-opacity: 0.180392"/>
    </g>
    <g clip-path="url(#p6303969c6f)">
     <use xlink:href="#C0_0_6102518e37" x="186.901692" y="235.101732" style="fill: #005ea8; stroke: #005ea8"/>
    </g>
    <g clip-path="url(#p6303969c6f)">
     <use xlink:href="#C0_0_6102518e37" x="186.901692" y="213.101732" style="fill: #005ea8; stroke: #005ea8"/>
    </g>
    <g clip-path="url(#p6303969c6f)">
     <use xlink:href="#C0_0_6102518e37" x="186.901692" y="191.101732" style="fill: #005ea8; stroke: #005ea8"/>
    </g>
    <g clip-path="url(#p6303969c6f)">
     <use xlink:href="#C0_0_6102518e37" x="186.901692" y="169.101732" style="fill: #005ea8; fill-opacity: 0.180392"/>
    </g>
    <g clip-path="url(#p6303969c6f)">
     <use xlink:href="#C0_0_6102518e37" x="211.600364" y="257.101732" style="fill: #005ea8; fill-opacity: 0.180392"/>
    </g>
    <g clip-path="url(#p6303969c6f)">
     <use xlink:href="#C0_0_6102518e37" x="211.600364" y="235.101732" style="fill: #005ea8; fill-opacity: 0.180392"/>
    </g>
    <g clip-path="url(#p6303969c6f)">
     <use xlink:href="#C0_0_6102518e37" x="211.600364" y="213.101732" style="fill: #005ea8; fill-opacity: 0.180392"/>
    </g>
    <g clip-path="url(#p6303969c6f)">
     <use xlink:href="#C0_0_6102518e37" x="211.600364" y="191.101732" style="fill: #005ea8; stroke: #005ea8"/>
    </g>
    <g clip-path="url(#p6303969c6f)">
     <use xlink:href="#C0_0_6102518e37" x="211.600364" y="169.101732" style="fill: #005ea8; stroke: #005ea8"/>
    </g>
    <g clip-path="url(#p6303969c6f)">
     <use xlink:href="#C0_0_6102518e37" x="236.299036" y="257.101732" style="fill: #005ea8; fill-opacity: 0.180392"/>
    </g>
    <g clip-path="url(#p6303969c6f)">
     <use xlink:href="#C0_0_6102518e37" x="236.299036" y="235.101732" style="fill: #005ea8; fill-opacity: 0.180392"/>
    </g>
    <g clip-path="url(#p6303969c6f)">
     <use xlink:href="#C0_0_6102518e37" x="236.299036" y="213.101732" style="fill: #005ea8; stroke: #005ea8"/>
    </g>
    <g clip-path="url(#p6303969c6f)">
     <use xlink:href="#C0_0_6102518e37" x="236.299036" y="191.101732" style="fill: #005ea8; stroke: #005ea8"/>
    </g>
    <g clip-path="url(#p6303969c6f)">
     <use xlink:href="#C0_0_6102518e37" x="236.299036" y="169.101732" style="fill: #005ea8; stroke: #005ea8"/>
    </g>
    <g clip-path="url(#p6303969c6f)">
     <use xlink:href="#C0_0_6102518e37" x="260.997708" y="257.101732" style="fill: #005ea8; fill-opacity: 0.180392"/>
    </g>
    <g clip-path="url(#p6303969c6f)">
     <use xlink:href="#C0_0_6102518e37" x="260.997708" y="235.101732" style="fill: #005ea8; fill-opacity: 0.180392"/>
    </g>
    <g clip-path="url(#p6303969c6f)">
     <use xlink:href="#C0_0_6102518e37" x="260.997708" y="213.101732" style="fill: #005ea8; stroke: #005ea8"/>
    </g>
    <g clip-path="url(#p6303969c6f)">
     <use xlink:href="#C0_0_6102518e37" x="260.997708" y="191.101732" style="fill: #005ea8; fill-opacity: 0.180392"/>
    </g>
    <g clip-path="url(#p6303969c6f)">
     <use xlink:href="#C0_0_6102518e37" x="260.997708" y="169.101732" style="fill: #005ea8; fill-opacity: 0.180392"/>
    </g>
    <g clip-path="url(#p6303969c6f)">
     <use xlink:href="#C0_0_6102518e37" x="285.69638" y="257.101732" style="fill: #005ea8; stroke: #005ea8"/>
    </g>
    <g clip-path="url(#p6303969c6f)">
     <use xlink:href="#C0_0_6102518e37" x="285.69638" y="235.101732" style="fill: #005ea8; fill-opacity: 0.180392"/>
    </g>
    <g clip-path="url(#p6303969c6f)">
     <use xlink:href="#C0_0_6102518e37" x="285.69638" y="213.101732" style="fill: #005ea8; fill-opacity: 0.180392"/>
    </g>
    <g clip-path="url(#p6303969c6f)">
     <use xlink:href="#C0_0_6102518e37" x="285.69638" y="191.101732" style="fill: #005ea8; stroke: #005ea8"/>
    </g>
    <g clip-path="url(#p6303969c6f)">
     <use xlink:href="#C0_0_6102518e37" x="285.69638" y="169.101732" style="fill: #005ea8; fill-opacity: 0.180392"/>
    </g>
    <g clip-path="url(#p6303969c6f)">
     <use xlink:href="#C0_0_6102518e37" x="310.395052" y="257.101732" style="fill: #005ea8; stroke: #005ea8"/>
    </g>
    <g clip-path="url(#p6303969c6f)">
     <use xlink:href="#C0_0_6102518e37" x="310.395052" y="235.101732" style="fill: #005ea8; stroke: #005ea8"/>
    </g>
    <g clip-path="url(#p6303969c6f)">
     <use xlink:href="#C0_0_6102518e37" x="310.395052" y="213.101732" style="fill: #005ea8; stroke: #005ea8"/>
    </g>
    <g clip-path="url(#p6303969c6f)">
     <use xlink:href="#C0_0_6102518e37" x="310.395052" y="191.101732" style="fill: #005ea8; stroke: #005ea8"/>
    </g>
    <g clip-path="url(#p6303969c6f)">
     <use xlink:href="#C0_0_6102518e37" x="310.395052" y="169.101732" style="fill: #005ea8; fill-opacity: 0.180392"/>
    </g>
    <g clip-path="url(#p6303969c6f)">
     <use xlink:href="#C0_0_6102518e37" x="335.093724" y="257.101732" style="fill: #005ea8; stroke: #005ea8"/>
    </g>
    <g clip-path="url(#p6303969c6f)">
     <use xlink:href="#C0_0_6102518e37" x="335.093724" y="235.101732" style="fill: #005ea8; fill-opacity: 0.180392"/>
    </g>
    <g clip-path="url(#p6303969c6f)">
     <use xlink:href="#C0_0_6102518e37" x="335.093724" y="213.101732" style="fill: #005ea8; stroke: #005ea8"/>
    </g>
    <g clip-path="url(#p6303969c6f)">
     <use xlink:href="#C0_0_6102518e37" x="335.093724" y="191.101732" style="fill: #005ea8; stroke: #005ea8"/>
    </g>
    <g clip-path="url(#p6303969c6f)">
     <use xlink:href="#C0_0_6102518e37" x="335.093724" y="169.101732" style="fill: #005ea8; fill-opacity: 0.180392"/>
    </g>
    <g clip-path="url(#p6303969c6f)">
     <use xlink:href="#C0_0_6102518e37" x="359.792396" y="257.101732" style="fill: #005ea8; fill-opacity: 0.180392"/>
    </g>
    <g clip-path="url(#p6303969c6f)">
     <use xlink:href="#C0_0_6102518e37" x="359.792396" y="235.101732" style="fill: #005ea8; stroke: #005ea8"/>
    </g>
    <g clip-path="url(#p6303969c6f)">
     <use xlink:href="#C0_0_6102518e37" x="359.792396" y="213.101732" style="fill: #005ea8; stroke: #005ea8"/>
    </g>
    <g clip-path="url(#p6303969c6f)">
     <use xlink:href="#C0_0_6102518e37" x="359.792396" y="191.101732" style="fill: #005ea8; stroke: #005ea8"/>
    </g>
    <g clip-path="url(#p6303969c6f)">
     <use xlink:href="#C0_0_6102518e37" x="359.792396" y="169.101732" style="fill: #005ea8; stroke: #005ea8"/>
    </g>
   </g>
  </g>
  <g id="axes_3">
   <g id="patch_7">
    <path d="M 46.11926 262.601732 
L 41.350117 262.601732 
L 41.350117 251.601732 
L 46.11926 251.601732 
z
" clip-path="url(#pd5e9b585b3)" style="fill: #005ea8; stroke: #005ea8; stroke-linejoin: miter"/>
   </g>
   <g id="patch_8">
    <path d="M 46.11926 240.601732 
L 40.381384 240.601732 
L 40.381384 229.601732 
L 46.11926 229.601732 
z
" clip-path="url(#pd5e9b585b3)" style="fill: #005ea8; stroke: #005ea8; stroke-linejoin: miter"/>
   </g>
   <g id="patch_9">
    <path d="M 46.11926 218.601732 
L 26.222988 218.601732 
L 26.222988 207.601732 
L 46.11926 207.601732 
z
" clip-path="url(#pd5e9b585b3)" style="fill: #005ea8; stroke: #005ea8; stroke-linejoin: miter"/>
   </g>
   <g id="patch_10">
    <path d="M 46.11926 196.601732 
L 0.141732 196.601732 
L 0.141732 185.601732 
L 46.11926 185.601732 
z
" clip-path="url(#pd5e9b585b3)" style="fill: #005ea8; stroke: #005ea8; stroke-linejoin: miter"/>
   </g>
   <g id="patch_11">
    <path d="M 46.11926 174.601732 
L 40.083313 174.601732 
L 40.083313 163.601732 
L 46.11926 163.601732 
z
" clip-path="url(#pd5e9b585b3)" style="fill: #005ea8; stroke: #005ea8; stroke-linejoin: miter"/>
   </g>
   <g id="matplotlib.axis_4">
    <g id="xtick_1">
     <g id="line2d_6">
      <path d="M 46.11926 271.181732 
L 46.11926 155.021732 
" clip-path="url(#pd5e9b585b3)" style="fill: none; stroke: #b0b0b0; stroke-width: 0.8; stroke-linecap: square"/>
     </g>
     <g id="line2d_7">
      <defs>
       <path id="m37dcdd7ae6" d="M 0 0 
L 0 3.5 
" style="stroke: #000000; stroke-width: 0.8"/>
      </defs>
      <g>
       <use xlink:href="#m37dcdd7ae6" x="46.11926" y="271.181732" style="stroke: #000000; stroke-width: 0.8"/>
      </g>
     </g>
     <g id="text_6">
      <!-- 0 -->
      <g transform="translate(44.21051 282.740795) scale(0.06 -0.06)">
       <defs>
        <path id="DejaVuSans-30" d="M 2034 4250 
Q 1547 4250 1301 3770 
Q 1056 3291 1056 2328 
Q 1056 1369 1301 889 
Q 1547 409 2034 409 
Q 2525 409 2770 889 
Q 3016 1369 3016 2328 
Q 3016 3291 2770 3770 
Q 2525 4250 2034 4250 
z
M 2034 4750 
Q 2819 4750 3233 4129 
Q 3647 3509 3647 2328 
Q 3647 1150 3233 529 
Q 2819 -91 2034 -91 
Q 1250 -91 836 529 
Q 422 1150 422 2328 
Q 422 3509 836 4129 
Q 1250 4750 2034 4750 
z
" transform="scale(0.015625)"/>
       </defs>
       <use xlink:href="#DejaVuSans-30"/>
      </g>
     </g>
    </g>
    <g id="xtick_2">
     <g id="line2d_8">
      <path d="M 8.860324 271.181732 
L 8.860324 155.021732 
" clip-path="url(#pd5e9b585b3)" style="fill: none; stroke: #b0b0b0; stroke-width: 0.8; stroke-linecap: square"/>
     </g>
     <g id="line2d_9">
      <g>
       <use xlink:href="#m37dcdd7ae6" x="8.860324" y="271.181732" style="stroke: #000000; stroke-width: 0.8"/>
      </g>
     </g>
     <g id="text_7">
      <!-- 500 -->
      <g transform="translate(3.134074 282.740795) scale(0.06 -0.06)">
       <defs>
        <path id="DejaVuSans-35" d="M 691 4666 
L 3169 4666 
L 3169 4134 
L 1269 4134 
L 1269 2991 
Q 1406 3038 1543 3061 
Q 1681 3084 1819 3084 
Q 2600 3084 3056 2656 
Q 3513 2228 3513 1497 
Q 3513 744 3044 326 
Q 2575 -91 1722 -91 
Q 1428 -91 1123 -41 
Q 819 9 494 109 
L 494 744 
Q 775 591 1075 516 
Q 1375 441 1709 441 
Q 2250 441 2565 725 
Q 2881 1009 2881 1497 
Q 2881 1984 2565 2268 
Q 2250 2553 1709 2553 
Q 1456 2553 1204 2497 
Q 953 2441 691 2322 
L 691 4666 
z
" transform="scale(0.015625)"/>
       </defs>
       <use xlink:href="#DejaVuSans-35"/>
       <use xlink:href="#DejaVuSans-30" x="63.623047"/>
       <use xlink:href="#DejaVuSans-30" x="127.246094"/>
      </g>
     </g>
    </g>
    <g id="text_8">
     <!-- Prevalence -->
     <g transform="translate(1.186121 294.067357) scale(0.08 -0.08)">
      <defs>
       <path id="DejaVuSans-50" d="M 1259 4147 
L 1259 2394 
L 2053 2394 
Q 2494 2394 2734 2622 
Q 2975 2850 2975 3272 
Q 2975 3691 2734 3919 
Q 2494 4147 2053 4147 
L 1259 4147 
z
M 628 4666 
L 2053 4666 
Q 2838 4666 3239 4311 
Q 3641 3956 3641 3272 
Q 3641 2581 3239 2228 
Q 2838 1875 2053 1875 
L 1259 1875 
L 1259 0 
L 628 0 
L 628 4666 
z
" transform="scale(0.015625)"/>
       <path id="DejaVuSans-72" d="M 2631 2963 
Q 2534 3019 2420 3045 
Q 2306 3072 2169 3072 
Q 1681 3072 1420 2755 
Q 1159 2438 1159 1844 
L 1159 0 
L 581 0 
L 581 3500 
L 1159 3500 
L 1159 2956 
Q 1341 3275 1631 3429 
Q 1922 3584 2338 3584 
Q 2397 3584 2469 3576 
Q 2541 3569 2628 3553 
L 2631 2963 
z
" transform="scale(0.015625)"/>
       <path id="DejaVuSans-65" d="M 3597 1894 
L 3597 1613 
L 953 1613 
Q 991 1019 1311 708 
Q 1631 397 2203 397 
Q 2534 397 2845 478 
Q 3156 559 3463 722 
L 3463 178 
Q 3153 47 2828 -22 
Q 2503 -91 2169 -91 
Q 1331 -91 842 396 
Q 353 884 353 1716 
Q 353 2575 817 3079 
Q 1281 3584 2069 3584 
Q 2775 3584 3186 3129 
Q 3597 2675 3597 1894 
z
M 3022 2063 
Q 3016 2534 2758 2815 
Q 2500 3097 2075 3097 
Q 1594 3097 1305 2825 
Q 1016 2553 972 2059 
L 3022 2063 
z
" transform="scale(0.015625)"/>
       <path id="DejaVuSans-76" d="M 191 3500 
L 800 3500 
L 1894 563 
L 2988 3500 
L 3597 3500 
L 2284 0 
L 1503 0 
L 191 3500 
z
" transform="scale(0.015625)"/>
       <path id="DejaVuSans-61" d="M 2194 1759 
Q 1497 1759 1228 1600 
Q 959 1441 959 1056 
Q 959 750 1161 570 
Q 1363 391 1709 391 
Q 2188 391 2477 730 
Q 2766 1069 2766 1631 
L 2766 1759 
L 2194 1759 
z
M 3341 1997 
L 3341 0 
L 2766 0 
L 2766 531 
Q 2569 213 2275 61 
Q 1981 -91 1556 -91 
Q 1019 -91 701 211 
Q 384 513 384 1019 
Q 384 1609 779 1909 
Q 1175 2209 1959 2209 
L 2766 2209 
L 2766 2266 
Q 2766 2663 2505 2880 
Q 2244 3097 1772 3097 
Q 1472 3097 1187 3025 
Q 903 2953 641 2809 
L 641 3341 
Q 956 3463 1253 3523 
Q 1550 3584 1831 3584 
Q 2591 3584 2966 3190 
Q 3341 2797 3341 1997 
z
" transform="scale(0.015625)"/>
       <path id="DejaVuSans-6c" d="M 603 4863 
L 1178 4863 
L 1178 0 
L 603 0 
L 603 4863 
z
" transform="scale(0.015625)"/>
       <path id="DejaVuSans-6e" d="M 3513 2113 
L 3513 0 
L 2938 0 
L 2938 2094 
Q 2938 2591 2744 2837 
Q 2550 3084 2163 3084 
Q 1697 3084 1428 2787 
Q 1159 2491 1159 1978 
L 1159 0 
L 581 0 
L 581 3500 
L 1159 3500 
L 1159 2956 
Q 1366 3272 1645 3428 
Q 1925 3584 2291 3584 
Q 2894 3584 3203 3211 
Q 3513 2838 3513 2113 
z
" transform="scale(0.015625)"/>
       <path id="DejaVuSans-63" d="M 3122 3366 
L 3122 2828 
Q 2878 2963 2633 3030 
Q 2388 3097 2138 3097 
Q 1578 3097 1268 2742 
Q 959 2388 959 1747 
Q 959 1106 1268 751 
Q 1578 397 2138 397 
Q 2388 397 2633 464 
Q 2878 531 3122 666 
L 3122 134 
Q 2881 22 2623 -34 
Q 2366 -91 2075 -91 
Q 1284 -91 818 406 
Q 353 903 353 1747 
Q 353 2603 823 3093 
Q 1294 3584 2113 3584 
Q 2378 3584 2631 3529 
Q 2884 3475 3122 3366 
z
" transform="scale(0.015625)"/>
      </defs>
      <use xlink:href="#DejaVuSans-50"/>
      <use xlink:href="#DejaVuSans-72" x="58.552734"/>
      <use xlink:href="#DejaVuSans-65" x="97.416016"/>
      <use xlink:href="#DejaVuSans-76" x="158.939453"/>
      <use xlink:href="#DejaVuSans-61" x="218.119141"/>
      <use xlink:href="#DejaVuSans-6c" x="279.398438"/>
      <use xlink:href="#DejaVuSans-65" x="307.181641"/>
      <use xlink:href="#DejaVuSans-6e" x="368.705078"/>
      <use xlink:href="#DejaVuSans-63" x="432.083984"/>
      <use xlink:href="#DejaVuSans-65" x="487.064453"/>
     </g>
    </g>
   </g>
   <g id="patch_12">
    <path d="M 0.141732 271.181732 
L 46.11926 271.181732 
" style="fill: none; stroke: #000000; stroke-width: 0.8; stroke-linejoin: miter; stroke-linecap: square"/>
   </g>
  </g>
  <g id="axes_4">
   <g id="patch_13">
    <path d="M 100.456339 142.115066 
L 372.141732 142.115066 
L 372.141732 0.141732 
L 100.456339 0.141732 
z
" style="fill: #ffffff"/>
   </g>
   <g id="matplotlib.axis_5">
    <g id="ytick_11">
     <g id="line2d_10">
      <path d="M 100.456339 142.115066 
L 372.141732 142.115066 
" clip-path="url(#pa51726eca5)" style="fill: none; stroke: #b0b0b0; stroke-width: 0.8; stroke-linecap: square"/>
     </g>
     <g id="line2d_11">
      <defs>
       <path id="m7d285df875" d="M 0 0 
L -3.5 0 
" style="stroke: #000000; stroke-width: 0.8"/>
      </defs>
      <g>
       <use xlink:href="#m7d285df875" x="100.456339" y="142.115066" style="stroke: #000000; stroke-width: 0.8"/>
      </g>
     </g>
     <g id="text_9">
      <!-- 0 -->
      <g transform="translate(89.638839 144.394597) scale(0.06 -0.06)">
       <use xlink:href="#DejaVuSans-30"/>
      </g>
     </g>
    </g>
    <g id="ytick_12">
     <g id="line2d_12">
      <path d="M 100.456339 121.248909 
L 372.141732 121.248909 
" clip-path="url(#pa51726eca5)" style="fill: none; stroke: #b0b0b0; stroke-width: 0.8; stroke-linecap: square"/>
     </g>
     <g id="line2d_13">
      <g>
       <use xlink:href="#m7d285df875" x="100.456339" y="121.248909" style="stroke: #000000; stroke-width: 0.8"/>
      </g>
     </g>
     <g id="text_10">
      <!-- 50 -->
      <g transform="translate(85.821339 123.52844) scale(0.06 -0.06)">
       <use xlink:href="#DejaVuSans-35"/>
       <use xlink:href="#DejaVuSans-30" x="63.623047"/>
      </g>
     </g>
    </g>
    <g id="ytick_13">
     <g id="line2d_14">
      <path d="M 100.456339 100.382751 
L 372.141732 100.382751 
" clip-path="url(#pa51726eca5)" style="fill: none; stroke: #b0b0b0; stroke-width: 0.8; stroke-linecap: square"/>
     </g>
     <g id="line2d_15">
      <g>
       <use xlink:href="#m7d285df875" x="100.456339" y="100.382751" style="stroke: #000000; stroke-width: 0.8"/>
      </g>
     </g>
     <g id="text_11">
      <!-- 100 -->
      <g transform="translate(82.003839 102.662283) scale(0.06 -0.06)">
       <defs>
        <path id="DejaVuSans-31" d="M 794 531 
L 1825 531 
L 1825 4091 
L 703 3866 
L 703 4441 
L 1819 4666 
L 2450 4666 
L 2450 531 
L 3481 531 
L 3481 0 
L 794 0 
L 794 531 
z
" transform="scale(0.015625)"/>
       </defs>
       <use xlink:href="#DejaVuSans-31"/>
       <use xlink:href="#DejaVuSans-30" x="63.623047"/>
       <use xlink:href="#DejaVuSans-30" x="127.246094"/>
      </g>
     </g>
    </g>
    <g id="ytick_14">
     <g id="line2d_16">
      <path d="M 100.456339 79.516594 
L 372.141732 79.516594 
" clip-path="url(#pa51726eca5)" style="fill: none; stroke: #b0b0b0; stroke-width: 0.8; stroke-linecap: square"/>
     </g>
     <g id="line2d_17">
      <g>
       <use xlink:href="#m7d285df875" x="100.456339" y="79.516594" style="stroke: #000000; stroke-width: 0.8"/>
      </g>
     </g>
     <g id="text_12">
      <!-- 150 -->
      <g transform="translate(82.003839 81.796125) scale(0.06 -0.06)">
       <use xlink:href="#DejaVuSans-31"/>
       <use xlink:href="#DejaVuSans-35" x="63.623047"/>
       <use xlink:href="#DejaVuSans-30" x="127.246094"/>
      </g>
     </g>
    </g>
    <g id="ytick_15">
     <g id="line2d_18">
      <path d="M 100.456339 58.650437 
L 372.141732 58.650437 
" clip-path="url(#pa51726eca5)" style="fill: none; stroke: #b0b0b0; stroke-width: 0.8; stroke-linecap: square"/>
     </g>
     <g id="line2d_19">
      <g>
       <use xlink:href="#m7d285df875" x="100.456339" y="58.650437" style="stroke: #000000; stroke-width: 0.8"/>
      </g>
     </g>
     <g id="text_13">
      <!-- 200 -->
      <g transform="translate(82.003839 60.929968) scale(0.06 -0.06)">
       <defs>
        <path id="DejaVuSans-32" d="M 1228 531 
L 3431 531 
L 3431 0 
L 469 0 
L 469 531 
Q 828 903 1448 1529 
Q 2069 2156 2228 2338 
Q 2531 2678 2651 2914 
Q 2772 3150 2772 3378 
Q 2772 3750 2511 3984 
Q 2250 4219 1831 4219 
Q 1534 4219 1204 4116 
Q 875 4013 500 3803 
L 500 4441 
Q 881 4594 1212 4672 
Q 1544 4750 1819 4750 
Q 2544 4750 2975 4387 
Q 3406 4025 3406 3419 
Q 3406 3131 3298 2873 
Q 3191 2616 2906 2266 
Q 2828 2175 2409 1742 
Q 1991 1309 1228 531 
z
" transform="scale(0.015625)"/>
       </defs>
       <use xlink:href="#DejaVuSans-32"/>
       <use xlink:href="#DejaVuSans-30" x="63.623047"/>
       <use xlink:href="#DejaVuSans-30" x="127.246094"/>
      </g>
     </g>
    </g>
    <g id="ytick_16">
     <g id="line2d_20">
      <path d="M 100.456339 37.78428 
L 372.141732 37.78428 
" clip-path="url(#pa51726eca5)" style="fill: none; stroke: #b0b0b0; stroke-width: 0.8; stroke-linecap: square"/>
     </g>
     <g id="line2d_21">
      <g>
       <use xlink:href="#m7d285df875" x="100.456339" y="37.78428" style="stroke: #000000; stroke-width: 0.8"/>
      </g>
     </g>
     <g id="text_14">
      <!-- 250 -->
      <g transform="translate(82.003839 40.063811) scale(0.06 -0.06)">
       <use xlink:href="#DejaVuSans-32"/>
       <use xlink:href="#DejaVuSans-35" x="63.623047"/>
       <use xlink:href="#DejaVuSans-30" x="127.246094"/>
      </g>
     </g>
    </g>
    <g id="ytick_17">
     <g id="line2d_22">
      <path d="M 100.456339 16.918123 
L 372.141732 16.918123 
" clip-path="url(#pa51726eca5)" style="fill: none; stroke: #b0b0b0; stroke-width: 0.8; stroke-linecap: square"/>
     </g>
     <g id="line2d_23">
      <g>
       <use xlink:href="#m7d285df875" x="100.456339" y="16.918123" style="stroke: #000000; stroke-width: 0.8"/>
      </g>
     </g>
     <g id="text_15">
      <!-- 300 -->
      <g transform="translate(82.003839 19.197654) scale(0.06 -0.06)">
       <defs>
        <path id="DejaVuSans-33" d="M 2597 2516 
Q 3050 2419 3304 2112 
Q 3559 1806 3559 1356 
Q 3559 666 3084 287 
Q 2609 -91 1734 -91 
Q 1441 -91 1130 -33 
Q 819 25 488 141 
L 488 750 
Q 750 597 1062 519 
Q 1375 441 1716 441 
Q 2309 441 2620 675 
Q 2931 909 2931 1356 
Q 2931 1769 2642 2001 
Q 2353 2234 1838 2234 
L 1294 2234 
L 1294 2753 
L 1863 2753 
Q 2328 2753 2575 2939 
Q 2822 3125 2822 3475 
Q 2822 3834 2567 4026 
Q 2313 4219 1838 4219 
Q 1578 4219 1281 4162 
Q 984 4106 628 3988 
L 628 4550 
Q 988 4650 1302 4700 
Q 1616 4750 1894 4750 
Q 2613 4750 3031 4423 
Q 3450 4097 3450 3541 
Q 3450 3153 3228 2886 
Q 3006 2619 2597 2516 
z
" transform="scale(0.015625)"/>
       </defs>
       <use xlink:href="#DejaVuSans-33"/>
       <use xlink:href="#DejaVuSans-30" x="63.623047"/>
       <use xlink:href="#DejaVuSans-30" x="127.246094"/>
      </g>
     </g>
    </g>
    <g id="text_16">
     <!-- Scenario size -->
     <g transform="translate(76.340089 97.544649) rotate(-90) scale(0.08 -0.08)">
      <defs>
       <path id="DejaVuSans-53" d="M 3425 4513 
L 3425 3897 
Q 3066 4069 2747 4153 
Q 2428 4238 2131 4238 
Q 1616 4238 1336 4038 
Q 1056 3838 1056 3469 
Q 1056 3159 1242 3001 
Q 1428 2844 1947 2747 
L 2328 2669 
Q 3034 2534 3370 2195 
Q 3706 1856 3706 1288 
Q 3706 609 3251 259 
Q 2797 -91 1919 -91 
Q 1588 -91 1214 -16 
Q 841 59 441 206 
L 441 856 
Q 825 641 1194 531 
Q 1563 422 1919 422 
Q 2459 422 2753 634 
Q 3047 847 3047 1241 
Q 3047 1584 2836 1778 
Q 2625 1972 2144 2069 
L 1759 2144 
Q 1053 2284 737 2584 
Q 422 2884 422 3419 
Q 422 4038 858 4394 
Q 1294 4750 2059 4750 
Q 2388 4750 2728 4690 
Q 3069 4631 3425 4513 
z
" transform="scale(0.015625)"/>
       <path id="DejaVuSans-69" d="M 603 3500 
L 1178 3500 
L 1178 0 
L 603 0 
L 603 3500 
z
M 603 4863 
L 1178 4863 
L 1178 4134 
L 603 4134 
L 603 4863 
z
" transform="scale(0.015625)"/>
       <path id="DejaVuSans-6f" d="M 1959 3097 
Q 1497 3097 1228 2736 
Q 959 2375 959 1747 
Q 959 1119 1226 758 
Q 1494 397 1959 397 
Q 2419 397 2687 759 
Q 2956 1122 2956 1747 
Q 2956 2369 2687 2733 
Q 2419 3097 1959 3097 
z
M 1959 3584 
Q 2709 3584 3137 3096 
Q 3566 2609 3566 1747 
Q 3566 888 3137 398 
Q 2709 -91 1959 -91 
Q 1206 -91 779 398 
Q 353 888 353 1747 
Q 353 2609 779 3096 
Q 1206 3584 1959 3584 
z
" transform="scale(0.015625)"/>
       <path id="DejaVuSans-20" transform="scale(0.015625)"/>
       <path id="DejaVuSans-73" d="M 2834 3397 
L 2834 2853 
Q 2591 2978 2328 3040 
Q 2066 3103 1784 3103 
Q 1356 3103 1142 2972 
Q 928 2841 928 2578 
Q 928 2378 1081 2264 
Q 1234 2150 1697 2047 
L 1894 2003 
Q 2506 1872 2764 1633 
Q 3022 1394 3022 966 
Q 3022 478 2636 193 
Q 2250 -91 1575 -91 
Q 1294 -91 989 -36 
Q 684 19 347 128 
L 347 722 
Q 666 556 975 473 
Q 1284 391 1588 391 
Q 1994 391 2212 530 
Q 2431 669 2431 922 
Q 2431 1156 2273 1281 
Q 2116 1406 1581 1522 
L 1381 1569 
Q 847 1681 609 1914 
Q 372 2147 372 2553 
Q 372 3047 722 3315 
Q 1072 3584 1716 3584 
Q 2034 3584 2315 3537 
Q 2597 3491 2834 3397 
z
" transform="scale(0.015625)"/>
       <path id="DejaVuSans-7a" d="M 353 3500 
L 3084 3500 
L 3084 2975 
L 922 459 
L 3084 459 
L 3084 0 
L 275 0 
L 275 525 
L 2438 3041 
L 353 3041 
L 353 3500 
z
" transform="scale(0.015625)"/>
      </defs>
      <use xlink:href="#DejaVuSans-53"/>
      <use xlink:href="#DejaVuSans-63" x="63.476562"/>
      <use xlink:href="#DejaVuSans-65" x="118.457031"/>
      <use xlink:href="#DejaVuSans-6e" x="179.980469"/>
      <use xlink:href="#DejaVuSans-61" x="243.359375"/>
      <use xlink:href="#DejaVuSans-72" x="304.638672"/>
      <use xlink:href="#DejaVuSans-69" x="345.751953"/>
      <use xlink:href="#DejaVuSans-6f" x="373.535156"/>
      <use xlink:href="#DejaVuSans-20" x="434.716797"/>
      <use xlink:href="#DejaVuSans-73" x="466.503906"/>
      <use xlink:href="#DejaVuSans-69" x="518.603516"/>
      <use xlink:href="#DejaVuSans-7a" x="546.386719"/>
      <use xlink:href="#DejaVuSans-65" x="598.876953"/>
     </g>
    </g>
   </g>
   <g id="patch_14">
    <path d="M 100.456339 142.115066 
L 100.456339 0.141732 
" style="fill: none; stroke: #000000; stroke-width: 0.8; stroke-linejoin: miter; stroke-linecap: square"/>
   </g>
   <g id="legend_1">
    <g id="patch_15">
     <path d="M 302.38517 13.748607 
L 367.941732 13.748607 
Q 369.141732 13.748607 369.141732 12.548607 
L 369.141732 4.341732 
Q 369.141732 3.141732 367.941732 3.141732 
L 302.38517 3.141732 
Q 301.18517 3.141732 301.18517 4.341732 
L 301.18517 12.548607 
Q 301.18517 13.748607 302.38517 13.748607 
z
" style="fill: #ffffff; opacity: 0.8; stroke: #cccccc; stroke-linejoin: miter"/>
    </g>
    <g id="patch_16">
     <path d="M 303.58517 10.100795 
L 315.58517 10.100795 
L 315.58517 5.900795 
L 303.58517 5.900795 
z
" style="fill: #00afa5"/>
    </g>
    <g id="text_17">
     <!-- N0 (all healthy) -->
     <g transform="translate(320.38517 10.100795) scale(0.06 -0.06)">
      <defs>
       <path id="DejaVuSans-4e" d="M 628 4666 
L 1478 4666 
L 3547 763 
L 3547 4666 
L 4159 4666 
L 4159 0 
L 3309 0 
L 1241 3903 
L 1241 0 
L 628 0 
L 628 4666 
z
" transform="scale(0.015625)"/>
       <path id="DejaVuSans-28" d="M 1984 4856 
Q 1566 4138 1362 3434 
Q 1159 2731 1159 2009 
Q 1159 1288 1364 580 
Q 1569 -128 1984 -844 
L 1484 -844 
Q 1016 -109 783 600 
Q 550 1309 550 2009 
Q 550 2706 781 3412 
Q 1013 4119 1484 4856 
L 1984 4856 
z
" transform="scale(0.015625)"/>
       <path id="DejaVuSans-68" d="M 3513 2113 
L 3513 0 
L 2938 0 
L 2938 2094 
Q 2938 2591 2744 2837 
Q 2550 3084 2163 3084 
Q 1697 3084 1428 2787 
Q 1159 2491 1159 1978 
L 1159 0 
L 581 0 
L 581 4863 
L 1159 4863 
L 1159 2956 
Q 1366 3272 1645 3428 
Q 1925 3584 2291 3584 
Q 2894 3584 3203 3211 
Q 3513 2838 3513 2113 
z
" transform="scale(0.015625)"/>
       <path id="DejaVuSans-74" d="M 1172 4494 
L 1172 3500 
L 2356 3500 
L 2356 3053 
L 1172 3053 
L 1172 1153 
Q 1172 725 1289 603 
Q 1406 481 1766 481 
L 2356 481 
L 2356 0 
L 1766 0 
Q 1100 0 847 248 
Q 594 497 594 1153 
L 594 3053 
L 172 3053 
L 172 3500 
L 594 3500 
L 594 4494 
L 1172 4494 
z
" transform="scale(0.015625)"/>
       <path id="DejaVuSans-79" d="M 2059 -325 
Q 1816 -950 1584 -1140 
Q 1353 -1331 966 -1331 
L 506 -1331 
L 506 -850 
L 844 -850 
Q 1081 -850 1212 -737 
Q 1344 -625 1503 -206 
L 1606 56 
L 191 3500 
L 800 3500 
L 1894 763 
L 2988 3500 
L 3597 3500 
L 2059 -325 
z
" transform="scale(0.015625)"/>
       <path id="DejaVuSans-29" d="M 513 4856 
L 1013 4856 
Q 1481 4119 1714 3412 
Q 1947 2706 1947 2009 
Q 1947 1309 1714 600 
Q 1481 -109 1013 -844 
L 513 -844 
Q 928 -128 1133 580 
Q 1338 1288 1338 2009 
Q 1338 2731 1133 3434 
Q 928 4138 513 4856 
z
" transform="scale(0.015625)"/>
      </defs>
      <use xlink:href="#DejaVuSans-4e"/>
      <use xlink:href="#DejaVuSans-30" x="74.804688"/>
      <use xlink:href="#DejaVuSans-20" x="138.427734"/>
      <use xlink:href="#DejaVuSans-28" x="170.214844"/>
      <use xlink:href="#DejaVuSans-61" x="209.228516"/>
      <use xlink:href="#DejaVuSans-6c" x="270.507812"/>
      <use xlink:href="#DejaVuSans-6c" x="298.291016"/>
      <use xlink:href="#DejaVuSans-20" x="326.074219"/>
      <use xlink:href="#DejaVuSans-68" x="357.861328"/>
      <use xlink:href="#DejaVuSans-65" x="421.240234"/>
      <use xlink:href="#DejaVuSans-61" x="482.763672"/>
      <use xlink:href="#DejaVuSans-6c" x="544.042969"/>
      <use xlink:href="#DejaVuSans-74" x="571.826172"/>
      <use xlink:href="#DejaVuSans-68" x="611.035156"/>
      <use xlink:href="#DejaVuSans-79" x="674.414062"/>
      <use xlink:href="#DejaVuSans-29" x="733.59375"/>
     </g>
    </g>
   </g>
   <g id="patch_17">
    <path d="M 106.631007 142.115066 
L 118.980343 142.115066 
L 118.980343 6.902367 
L 106.631007 6.902367 
z
" clip-path="url(#pa51726eca5)" style="fill: #005ea8; stroke: #005ea8; stroke-linejoin: miter"/>
   </g>
   <g id="patch_18">
    <path d="M 131.329679 142.115066 
L 143.679015 142.115066 
L 143.679015 71.587454 
L 131.329679 71.587454 
z
" clip-path="url(#pa51726eca5)" style="fill: #00afa5; stroke: #00afa5; stroke-linejoin: miter"/>
   </g>
   <g id="patch_19">
    <path d="M 156.028351 142.115066 
L 168.377687 142.115066 
L 168.377687 86.611088 
L 156.028351 86.611088 
z
" clip-path="url(#pa51726eca5)" style="fill: #005ea8; stroke: #005ea8; stroke-linejoin: miter"/>
   </g>
   <g id="patch_20">
    <path d="M 180.727023 142.115066 
L 193.07636 142.115066 
L 193.07636 128.343402 
L 180.727023 128.343402 
z
" clip-path="url(#pa51726eca5)" style="fill: #005ea8; stroke: #005ea8; stroke-linejoin: miter"/>
   </g>
   <g id="patch_21">
    <path d="M 205.425696 142.115066 
L 217.775032 142.115066 
L 217.775032 130.847341 
L 205.425696 130.847341 
z
" clip-path="url(#pa51726eca5)" style="fill: #005ea8; stroke: #005ea8; stroke-linejoin: miter"/>
   </g>
   <g id="patch_22">
    <path d="M 230.124368 142.115066 
L 242.473704 142.115066 
L 242.473704 131.681987 
L 230.124368 131.681987 
z
" clip-path="url(#pa51726eca5)" style="fill: #005ea8; stroke: #005ea8; stroke-linejoin: miter"/>
   </g>
   <g id="patch_23">
    <path d="M 254.82304 142.115066 
L 267.172376 142.115066 
L 267.172376 131.681987 
L 254.82304 131.681987 
z
" clip-path="url(#pa51726eca5)" style="fill: #005ea8; stroke: #005ea8; stroke-linejoin: miter"/>
   </g>
   <g id="patch_24">
    <path d="M 279.521712 142.115066 
L 291.871048 142.115066 
L 291.871048 135.020572 
L 279.521712 135.020572 
z
" clip-path="url(#pa51726eca5)" style="fill: #005ea8; stroke: #005ea8; stroke-linejoin: miter"/>
   </g>
   <g id="patch_25">
    <path d="M 304.220384 142.115066 
L 316.56972 142.115066 
L 316.56972 136.689865 
L 304.220384 136.689865 
z
" clip-path="url(#pa51726eca5)" style="fill: #005ea8; stroke: #005ea8; stroke-linejoin: miter"/>
   </g>
   <g id="patch_26">
    <path d="M 328.919056 142.115066 
L 341.268392 142.115066 
L 341.268392 136.689865 
L 328.919056 136.689865 
z
" clip-path="url(#pa51726eca5)" style="fill: #005ea8; stroke: #005ea8; stroke-linejoin: miter"/>
   </g>
   <g id="patch_27">
    <path d="M 353.617728 142.115066 
L 365.967064 142.115066 
L 365.967064 137.941834 
L 353.617728 137.941834 
z
" clip-path="url(#pa51726eca5)" style="fill: #005ea8; stroke: #005ea8; stroke-linejoin: miter"/>
   </g>
  </g>
 </g>
 <defs>
  <clipPath id="pa52d523416">
   <rect x="0.141732" y="155.021732" width="372" height="116.16"/>
  </clipPath>
  <clipPath id="p6303969c6f">
   <rect x="100.456339" y="155.021732" width="271.685393" height="116.16"/>
  </clipPath>
  <clipPath id="pd5e9b585b3">
   <rect x="0.141732" y="155.021732" width="45.977528" height="116.16"/>
  </clipPath>
  <clipPath id="pa51726eca5">
   <rect x="100.456339" y="0.141732" width="271.685393" height="141.973333"/>
  </clipPath>
 </defs>
</svg>
