<?xml version="1.0" encoding="utf-8" standalone="no"?>
<!DOCTYPE svg PUBLIC "-//W3C//DTD SVG 1.1//EN"
  "http://www.w3.org/Graphics/SVG/1.1/DTD/svg11.dtd">
<svg xmlns:xlink="http://www.w3.org/1999/xlink" width="223.948477pt" height="131.915672pt" viewBox="0 0 223.948477 131.915672" xmlns="http://www.w3.org/2000/svg" version="1.1">
 <metadata>
  <rdf:RDF xmlns:dc="http://purl.org/dc/elements/1.1/" xmlns:cc="http://creativecommons.org/ns#" xmlns:rdf="http://www.w3.org/1999/02/22-rdf-syntax-ns#">
   <cc:Work>
    <dc:type rdf:resource="http://purl.org/dc/dcmitype/StillImage"/>
    <dc:date>2024-06-26T17:44:36.593987</dc:date>
    <dc:format>image/svg+xml</dc:format>
    <dc:creator>
     <cc:Agent>
      <dc:title>Matplotlib v3.9.0, https://matplotlib.org/</dc:title>
     </cc:Agent>
    </dc:creator>
   </cc:Work>
  </rdf:RDF>
 </metadata>
 <defs>
  <style type="text/css">*{stroke-linejoin: round; stroke-linecap: butt}</style>
 </defs>
 <g id="figure_1">
  <g id="patch_1">
   <path d="M 0 131.915672 
L 223.948477 131.915672 
L 223.948477 0 
L 0 0 
z
" style="fill: #ffffff"/>
  </g>
  <g id="axes_1">
   <g id="patch_2">
    <path d="M 2.050482 107.224564 
L 223.806744 107.224564 
L 223.806744 21.178732 
L 2.050482 21.178732 
z
" style="fill: #ffffff"/>
   </g>
   <g id="patch_3">
    <path d="M 2.050482 107.224564 
L 2.050482 107.224564 
L 6.485608 107.224564 
L 6.485608 107.224564 
L 10.920733 107.224564 
L 10.920733 107.224564 
L 15.355858 107.224564 
L 15.355858 107.224564 
L 19.790983 107.224564 
L 19.790983 107.224564 
L 24.226109 107.224564 
L 24.226109 107.224564 
L 28.661234 107.224564 
L 28.661234 107.224564 
L 33.096359 107.224564 
L 33.096359 107.224564 
L 37.531484 107.224564 
L 37.531484 107.224564 
L 41.96661 107.224564 
L 41.96661 107.224564 
L 46.401735 107.224564 
L 46.401735 107.224564 
L 50.83686 107.224564 
L 50.83686 107.224564 
L 55.271985 107.224564 
L 55.271985 107.224564 
L 59.70711 107.224564 
L 59.70711 107.224564 
L 64.142236 107.224564 
L 64.142236 107.224564 
L 68.577361 107.224564 
L 68.577361 107.224564 
L 73.012486 107.224564 
L 73.012486 107.224564 
L 77.447611 107.224564 
L 77.447611 100.362855 
L 81.882737 100.362855 
L 81.882737 78.920014 
L 86.317862 78.920014 
L 86.317862 52.330892 
L 90.752987 52.330892 
L 90.752987 31.745764 
L 95.188112 31.745764 
L 95.188112 81.493155 
L 99.623238 81.493155 
L 99.623238 102.935996 
L 104.058363 102.935996 
L 104.058363 107.224564 
L 108.493488 107.224564 
L 108.493488 107.224564 
L 112.928613 107.224564 
L 112.928613 107.224564 
L 117.363739 107.224564 
L 117.363739 107.224564 
L 121.798864 107.224564 
L 121.798864 107.224564 
L 126.233989 107.224564 
L 126.233989 107.224564 
L 130.669114 107.224564 
L 130.669114 107.224564 
L 135.10424 107.224564 
L 135.10424 107.224564 
L 139.539365 107.224564 
L 139.539365 107.224564 
L 143.97449 107.224564 
L 143.97449 107.224564 
L 148.409615 107.224564 
L 148.409615 107.224564 
L 152.844741 107.224564 
L 152.844741 107.224564 
L 157.279866 107.224564 
L 157.279866 107.224564 
L 161.714991 107.224564 
L 161.714991 107.224564 
L 166.150116 107.224564 
L 166.150116 107.224564 
L 170.585241 107.224564 
L 170.585241 107.224564 
L 175.020367 107.224564 
L 175.020367 107.224564 
L 179.455492 107.224564 
L 179.455492 107.224564 
L 183.890617 107.224564 
L 183.890617 107.224564 
L 188.325742 107.224564 
L 188.325742 107.224564 
L 192.760868 107.224564 
L 192.760868 107.224564 
L 197.195993 107.224564 
L 197.195993 107.224564 
L 201.631118 107.224564 
L 201.631118 107.224564 
L 206.066243 107.224564 
L 206.066243 107.224564 
L 210.501369 107.224564 
L 210.501369 107.224564 
L 214.936494 107.224564 
L 214.936494 107.224564 
L 219.371619 107.224564 
L 219.371619 107.224564 
L 223.806744 107.224564 
L 223.806744 107.224564 
L 219.371619 107.224564 
L 219.371619 107.224564 
L 214.936494 107.224564 
L 214.936494 107.224564 
L 210.501369 107.224564 
L 210.501369 107.224564 
L 206.066243 107.224564 
L 206.066243 107.224564 
L 201.631118 107.224564 
L 201.631118 107.224564 
L 197.195993 107.224564 
L 197.195993 107.224564 
L 192.760868 107.224564 
L 192.760868 107.224564 
L 188.325742 107.224564 
L 188.325742 107.224564 
L 183.890617 107.224564 
L 183.890617 107.224564 
L 179.455492 107.224564 
L 179.455492 107.224564 
L 175.020367 107.224564 
L 175.020367 107.224564 
L 170.585241 107.224564 
L 170.585241 107.224564 
L 166.150116 107.224564 
L 166.150116 107.224564 
L 161.714991 107.224564 
L 161.714991 107.224564 
L 157.279866 107.224564 
L 157.279866 107.224564 
L 152.844741 107.224564 
L 152.844741 107.224564 
L 148.409615 107.224564 
L 148.409615 107.224564 
L 143.97449 107.224564 
L 143.97449 107.224564 
L 139.539365 107.224564 
L 139.539365 107.224564 
L 135.10424 107.224564 
L 135.10424 107.224564 
L 130.669114 107.224564 
L 130.669114 107.224564 
L 126.233989 107.224564 
L 126.233989 107.224564 
L 121.798864 107.224564 
L 121.798864 107.224564 
L 117.363739 107.224564 
L 117.363739 107.224564 
L 112.928613 107.224564 
L 112.928613 107.224564 
L 108.493488 107.224564 
L 108.493488 107.224564 
L 104.058363 107.224564 
L 104.058363 107.224564 
L 99.623238 107.224564 
L 99.623238 107.224564 
L 95.188112 107.224564 
L 95.188112 107.224564 
L 90.752987 107.224564 
L 90.752987 107.224564 
L 86.317862 107.224564 
L 86.317862 107.224564 
L 81.882737 107.224564 
L 81.882737 107.224564 
L 77.447611 107.224564 
L 77.447611 107.224564 
L 73.012486 107.224564 
L 73.012486 107.224564 
L 68.577361 107.224564 
L 68.577361 107.224564 
L 64.142236 107.224564 
L 64.142236 107.224564 
L 59.70711 107.224564 
L 59.70711 107.224564 
L 55.271985 107.224564 
L 55.271985 107.224564 
L 50.83686 107.224564 
L 50.83686 107.224564 
L 46.401735 107.224564 
L 46.401735 107.224564 
L 41.96661 107.224564 
L 41.96661 107.224564 
L 37.531484 107.224564 
L 37.531484 107.224564 
L 33.096359 107.224564 
L 33.096359 107.224564 
L 28.661234 107.224564 
L 28.661234 107.224564 
L 24.226109 107.224564 
L 24.226109 107.224564 
L 19.790983 107.224564 
L 19.790983 107.224564 
L 15.355858 107.224564 
L 15.355858 107.224564 
L 10.920733 107.224564 
L 10.920733 107.224564 
L 6.485608 107.224564 
L 6.485608 107.224564 
z
" clip-path="url(#pce76347078)" style="fill: #005ea8; opacity: 0.7"/>
   </g>
   <g id="patch_4">
    <path d="M 2.050482 107.224564 
L 2.050482 107.224564 
L 6.485608 107.224564 
L 6.485608 107.224564 
L 10.920733 107.224564 
L 10.920733 107.224564 
L 15.355858 107.224564 
L 15.355858 107.224564 
L 19.790983 107.224564 
L 19.790983 107.224564 
L 24.226109 107.224564 
L 24.226109 107.224564 
L 28.661234 107.224564 
L 28.661234 107.224564 
L 33.096359 107.224564 
L 33.096359 107.224564 
L 37.531484 107.224564 
L 37.531484 107.224564 
L 41.96661 107.224564 
L 41.96661 107.224564 
L 46.401735 107.224564 
L 46.401735 107.224564 
L 50.83686 107.224564 
L 50.83686 107.224564 
L 55.271985 107.224564 
L 55.271985 107.224564 
L 59.70711 107.224564 
L 59.70711 107.224564 
L 64.142236 107.224564 
L 64.142236 107.224564 
L 68.577361 107.224564 
L 68.577361 107.224564 
L 73.012486 107.224564 
L 73.012486 107.224564 
L 77.447611 107.224564 
L 77.447611 107.224564 
L 81.882737 107.224564 
L 81.882737 107.224564 
L 86.317862 107.224564 
L 86.317862 107.224564 
L 90.752987 107.224564 
L 90.752987 107.224564 
L 95.188112 107.224564 
L 95.188112 107.224564 
L 99.623238 107.224564 
L 99.623238 107.224564 
L 104.058363 107.224564 
L 104.058363 107.224564 
L 108.493488 107.224564 
L 108.493488 104.651423 
L 112.928613 104.651423 
L 112.928613 102.078282 
L 117.363739 102.078282 
L 117.363739 81.493155 
L 121.798864 81.493155 
L 121.798864 70.342878 
L 126.233989 70.342878 
L 126.233989 43.753755 
L 130.669114 43.753755 
L 130.669114 64.338882 
L 135.10424 64.338882 
L 135.10424 93.501146 
L 139.539365 93.501146 
L 139.539365 103.79371 
L 143.97449 103.79371 
L 143.97449 105.509137 
L 148.409615 105.509137 
L 148.409615 107.224564 
L 152.844741 107.224564 
L 152.844741 107.224564 
L 157.279866 107.224564 
L 157.279866 107.224564 
L 161.714991 107.224564 
L 161.714991 107.224564 
L 166.150116 107.224564 
L 166.150116 107.224564 
L 170.585241 107.224564 
L 170.585241 107.224564 
L 175.020367 107.224564 
L 175.020367 107.224564 
L 179.455492 107.224564 
L 179.455492 107.224564 
L 183.890617 107.224564 
L 183.890617 107.224564 
L 188.325742 107.224564 
L 188.325742 107.224564 
L 192.760868 107.224564 
L 192.760868 107.224564 
L 197.195993 107.224564 
L 197.195993 107.224564 
L 201.631118 107.224564 
L 201.631118 107.224564 
L 206.066243 107.224564 
L 206.066243 107.224564 
L 210.501369 107.224564 
L 210.501369 107.224564 
L 214.936494 107.224564 
L 214.936494 107.224564 
L 219.371619 107.224564 
L 219.371619 107.224564 
L 223.806744 107.224564 
L 223.806744 107.224564 
L 219.371619 107.224564 
L 219.371619 107.224564 
L 214.936494 107.224564 
L 214.936494 107.224564 
L 210.501369 107.224564 
L 210.501369 107.224564 
L 206.066243 107.224564 
L 206.066243 107.224564 
L 201.631118 107.224564 
L 201.631118 107.224564 
L 197.195993 107.224564 
L 197.195993 107.224564 
L 192.760868 107.224564 
L 192.760868 107.224564 
L 188.325742 107.224564 
L 188.325742 107.224564 
L 183.890617 107.224564 
L 183.890617 107.224564 
L 179.455492 107.224564 
L 179.455492 107.224564 
L 175.020367 107.224564 
L 175.020367 107.224564 
L 170.585241 107.224564 
L 170.585241 107.224564 
L 166.150116 107.224564 
L 166.150116 107.224564 
L 161.714991 107.224564 
L 161.714991 107.224564 
L 157.279866 107.224564 
L 157.279866 107.224564 
L 152.844741 107.224564 
L 152.844741 107.224564 
L 148.409615 107.224564 
L 148.409615 107.224564 
L 143.97449 107.224564 
L 143.97449 107.224564 
L 139.539365 107.224564 
L 139.539365 107.224564 
L 135.10424 107.224564 
L 135.10424 107.224564 
L 130.669114 107.224564 
L 130.669114 107.224564 
L 126.233989 107.224564 
L 126.233989 107.224564 
L 121.798864 107.224564 
L 121.798864 107.224564 
L 117.363739 107.224564 
L 117.363739 107.224564 
L 112.928613 107.224564 
L 112.928613 107.224564 
L 108.493488 107.224564 
L 108.493488 107.224564 
L 104.058363 107.224564 
L 104.058363 107.224564 
L 99.623238 107.224564 
L 99.623238 107.224564 
L 95.188112 107.224564 
L 95.188112 107.224564 
L 90.752987 107.224564 
L 90.752987 107.224564 
L 86.317862 107.224564 
L 86.317862 107.224564 
L 81.882737 107.224564 
L 81.882737 107.224564 
L 77.447611 107.224564 
L 77.447611 107.224564 
L 73.012486 107.224564 
L 73.012486 107.224564 
L 68.577361 107.224564 
L 68.577361 107.224564 
L 64.142236 107.224564 
L 64.142236 107.224564 
L 59.70711 107.224564 
L 59.70711 107.224564 
L 55.271985 107.224564 
L 55.271985 107.224564 
L 50.83686 107.224564 
L 50.83686 107.224564 
L 46.401735 107.224564 
L 46.401735 107.224564 
L 41.96661 107.224564 
L 41.96661 107.224564 
L 37.531484 107.224564 
L 37.531484 107.224564 
L 33.096359 107.224564 
L 33.096359 107.224564 
L 28.661234 107.224564 
L 28.661234 107.224564 
L 24.226109 107.224564 
L 24.226109 107.224564 
L 19.790983 107.224564 
L 19.790983 107.224564 
L 15.355858 107.224564 
L 15.355858 107.224564 
L 10.920733 107.224564 
L 10.920733 107.224564 
L 6.485608 107.224564 
L 6.485608 107.224564 
z
" clip-path="url(#pce76347078)" style="fill: #f17900; opacity: 0.7"/>
   </g>
   <g id="matplotlib.axis_1">
    <g id="xtick_1">
     <g id="line2d_1">
      <defs>
       <path id="mdc809d8ee3" d="M 0 0 
L 0 3.5 
" style="stroke: #000000; stroke-width: 0.8"/>
      </defs>
      <g>
       <use xlink:href="#mdc809d8ee3" x="2.050482" y="107.224564" style="stroke: #000000; stroke-width: 0.8"/>
      </g>
     </g>
     <g id="text_1">
      <!-- 0 -->
      <g transform="translate(0.141732 118.783627) scale(0.06 -0.06)">
       <defs>
        <path id="DejaVuSans-30" d="M 2034 4250 
Q 1547 4250 1301 3770 
Q 1056 3291 1056 2328 
Q 1056 1369 1301 889 
Q 1547 409 2034 409 
Q 2525 409 2770 889 
Q 3016 1369 3016 2328 
Q 3016 3291 2770 3770 
Q 2525 4250 2034 4250 
z
M 2034 4750 
Q 2819 4750 3233 4129 
Q 3647 3509 3647 2328 
Q 3647 1150 3233 529 
Q 2819 -91 2034 -91 
Q 1250 -91 836 529 
Q 422 1150 422 2328 
Q 422 3509 836 4129 
Q 1250 4750 2034 4750 
z
" transform="scale(0.015625)"/>
       </defs>
       <use xlink:href="#DejaVuSans-30"/>
      </g>
     </g>
    </g>
    <g id="xtick_2">
     <g id="line2d_2">
      <g>
       <use xlink:href="#mdc809d8ee3" x="42.369803" y="107.224564" style="stroke: #000000; stroke-width: 0.8"/>
      </g>
     </g>
     <g id="text_2">
      <!-- 10 -->
      <g transform="translate(38.552303 118.783627) scale(0.06 -0.06)">
       <defs>
        <path id="DejaVuSans-31" d="M 794 531 
L 1825 531 
L 1825 4091 
L 703 3866 
L 703 4441 
L 1819 4666 
L 2450 4666 
L 2450 531 
L 3481 531 
L 3481 0 
L 794 0 
L 794 531 
z
" transform="scale(0.015625)"/>
       </defs>
       <use xlink:href="#DejaVuSans-31"/>
       <use xlink:href="#DejaVuSans-30" x="63.623047"/>
      </g>
     </g>
    </g>
    <g id="xtick_3">
     <g id="line2d_3">
      <g>
       <use xlink:href="#mdc809d8ee3" x="82.689123" y="107.224564" style="stroke: #000000; stroke-width: 0.8"/>
      </g>
     </g>
     <g id="text_3">
      <!-- 20 -->
      <g transform="translate(78.871623 118.783627) scale(0.06 -0.06)">
       <defs>
        <path id="DejaVuSans-32" d="M 1228 531 
L 3431 531 
L 3431 0 
L 469 0 
L 469 531 
Q 828 903 1448 1529 
Q 2069 2156 2228 2338 
Q 2531 2678 2651 2914 
Q 2772 3150 2772 3378 
Q 2772 3750 2511 3984 
Q 2250 4219 1831 4219 
Q 1534 4219 1204 4116 
Q 875 4013 500 3803 
L 500 4441 
Q 881 4594 1212 4672 
Q 1544 4750 1819 4750 
Q 2544 4750 2975 4387 
Q 3406 4025 3406 3419 
Q 3406 3131 3298 2873 
Q 3191 2616 2906 2266 
Q 2828 2175 2409 1742 
Q 1991 1309 1228 531 
z
" transform="scale(0.015625)"/>
       </defs>
       <use xlink:href="#DejaVuSans-32"/>
       <use xlink:href="#DejaVuSans-30" x="63.623047"/>
      </g>
     </g>
    </g>
    <g id="xtick_4">
     <g id="line2d_4">
      <g>
       <use xlink:href="#mdc809d8ee3" x="123.008443" y="107.224564" style="stroke: #000000; stroke-width: 0.8"/>
      </g>
     </g>
     <g id="text_4">
      <!-- 30 -->
      <g transform="translate(119.190943 118.783627) scale(0.06 -0.06)">
       <defs>
        <path id="DejaVuSans-33" d="M 2597 2516 
Q 3050 2419 3304 2112 
Q 3559 1806 3559 1356 
Q 3559 666 3084 287 
Q 2609 -91 1734 -91 
Q 1441 -91 1130 -33 
Q 819 25 488 141 
L 488 750 
Q 750 597 1062 519 
Q 1375 441 1716 441 
Q 2309 441 2620 675 
Q 2931 909 2931 1356 
Q 2931 1769 2642 2001 
Q 2353 2234 1838 2234 
L 1294 2234 
L 1294 2753 
L 1863 2753 
Q 2328 2753 2575 2939 
Q 2822 3125 2822 3475 
Q 2822 3834 2567 4026 
Q 2313 4219 1838 4219 
Q 1578 4219 1281 4162 
Q 984 4106 628 3988 
L 628 4550 
Q 988 4650 1302 4700 
Q 1616 4750 1894 4750 
Q 2613 4750 3031 4423 
Q 3450 4097 3450 3541 
Q 3450 3153 3228 2886 
Q 3006 2619 2597 2516 
z
" transform="scale(0.015625)"/>
       </defs>
       <use xlink:href="#DejaVuSans-33"/>
       <use xlink:href="#DejaVuSans-30" x="63.623047"/>
      </g>
     </g>
    </g>
    <g id="xtick_5">
     <g id="line2d_5">
      <g>
       <use xlink:href="#mdc809d8ee3" x="163.327764" y="107.224564" style="stroke: #000000; stroke-width: 0.8"/>
      </g>
     </g>
     <g id="text_5">
      <!-- 40 -->
      <g transform="translate(159.510264 118.783627) scale(0.06 -0.06)">
       <defs>
        <path id="DejaVuSans-34" d="M 2419 4116 
L 825 1625 
L 2419 1625 
L 2419 4116 
z
M 2253 4666 
L 3047 4666 
L 3047 1625 
L 3713 1625 
L 3713 1100 
L 3047 1100 
L 3047 0 
L 2419 0 
L 2419 1100 
L 313 1100 
L 313 1709 
L 2253 4666 
z
" transform="scale(0.015625)"/>
       </defs>
       <use xlink:href="#DejaVuSans-34"/>
       <use xlink:href="#DejaVuSans-30" x="63.623047"/>
      </g>
     </g>
    </g>
    <g id="xtick_6">
     <g id="line2d_6">
      <g>
       <use xlink:href="#mdc809d8ee3" x="203.647084" y="107.224564" style="stroke: #000000; stroke-width: 0.8"/>
      </g>
     </g>
     <g id="text_6">
      <!-- 50 -->
      <g transform="translate(199.829584 118.783627) scale(0.06 -0.06)">
       <defs>
        <path id="DejaVuSans-35" d="M 691 4666 
L 3169 4666 
L 3169 4134 
L 1269 4134 
L 1269 2991 
Q 1406 3038 1543 3061 
Q 1681 3084 1819 3084 
Q 2600 3084 3056 2656 
Q 3513 2228 3513 1497 
Q 3513 744 3044 326 
Q 2575 -91 1722 -91 
Q 1428 -91 1123 -41 
Q 819 9 494 109 
L 494 744 
Q 775 591 1075 516 
Q 1375 441 1709 441 
Q 2250 441 2565 725 
Q 2881 1009 2881 1497 
Q 2881 1984 2565 2268 
Q 2250 2553 1709 2553 
Q 1456 2553 1204 2497 
Q 953 2441 691 2322 
L 691 4666 
z
" transform="scale(0.015625)"/>
       </defs>
       <use xlink:href="#DejaVuSans-35"/>
       <use xlink:href="#DejaVuSans-30" x="63.623047"/>
      </g>
     </g>
    </g>
    <g id="text_7">
     <!-- prevalence [%] -->
     <g transform="translate(82.593613 130.110189) scale(0.08 -0.08)">
      <defs>
       <path id="DejaVuSans-70" d="M 1159 525 
L 1159 -1331 
L 581 -1331 
L 581 3500 
L 1159 3500 
L 1159 2969 
Q 1341 3281 1617 3432 
Q 1894 3584 2278 3584 
Q 2916 3584 3314 3078 
Q 3713 2572 3713 1747 
Q 3713 922 3314 415 
Q 2916 -91 2278 -91 
Q 1894 -91 1617 61 
Q 1341 213 1159 525 
z
M 3116 1747 
Q 3116 2381 2855 2742 
Q 2594 3103 2138 3103 
Q 1681 3103 1420 2742 
Q 1159 2381 1159 1747 
Q 1159 1113 1420 752 
Q 1681 391 2138 391 
Q 2594 391 2855 752 
Q 3116 1113 3116 1747 
z
" transform="scale(0.015625)"/>
       <path id="DejaVuSans-72" d="M 2631 2963 
Q 2534 3019 2420 3045 
Q 2306 3072 2169 3072 
Q 1681 3072 1420 2755 
Q 1159 2438 1159 1844 
L 1159 0 
L 581 0 
L 581 3500 
L 1159 3500 
L 1159 2956 
Q 1341 3275 1631 3429 
Q 1922 3584 2338 3584 
Q 2397 3584 2469 3576 
Q 2541 3569 2628 3553 
L 2631 2963 
z
" transform="scale(0.015625)"/>
       <path id="DejaVuSans-65" d="M 3597 1894 
L 3597 1613 
L 953 1613 
Q 991 1019 1311 708 
Q 1631 397 2203 397 
Q 2534 397 2845 478 
Q 3156 559 3463 722 
L 3463 178 
Q 3153 47 2828 -22 
Q 2503 -91 2169 -91 
Q 1331 -91 842 396 
Q 353 884 353 1716 
Q 353 2575 817 3079 
Q 1281 3584 2069 3584 
Q 2775 3584 3186 3129 
Q 3597 2675 3597 1894 
z
M 3022 2063 
Q 3016 2534 2758 2815 
Q 2500 3097 2075 3097 
Q 1594 3097 1305 2825 
Q 1016 2553 972 2059 
L 3022 2063 
z
" transform="scale(0.015625)"/>
       <path id="DejaVuSans-76" d="M 191 3500 
L 800 3500 
L 1894 563 
L 2988 3500 
L 3597 3500 
L 2284 0 
L 1503 0 
L 191 3500 
z
" transform="scale(0.015625)"/>
       <path id="DejaVuSans-61" d="M 2194 1759 
Q 1497 1759 1228 1600 
Q 959 1441 959 1056 
Q 959 750 1161 570 
Q 1363 391 1709 391 
Q 2188 391 2477 730 
Q 2766 1069 2766 1631 
L 2766 1759 
L 2194 1759 
z
M 3341 1997 
L 3341 0 
L 2766 0 
L 2766 531 
Q 2569 213 2275 61 
Q 1981 -91 1556 -91 
Q 1019 -91 701 211 
Q 384 513 384 1019 
Q 384 1609 779 1909 
Q 1175 2209 1959 2209 
L 2766 2209 
L 2766 2266 
Q 2766 2663 2505 2880 
Q 2244 3097 1772 3097 
Q 1472 3097 1187 3025 
Q 903 2953 641 2809 
L 641 3341 
Q 956 3463 1253 3523 
Q 1550 3584 1831 3584 
Q 2591 3584 2966 3190 
Q 3341 2797 3341 1997 
z
" transform="scale(0.015625)"/>
       <path id="DejaVuSans-6c" d="M 603 4863 
L 1178 4863 
L 1178 0 
L 603 0 
L 603 4863 
z
" transform="scale(0.015625)"/>
       <path id="DejaVuSans-6e" d="M 3513 2113 
L 3513 0 
L 2938 0 
L 2938 2094 
Q 2938 2591 2744 2837 
Q 2550 3084 2163 3084 
Q 1697 3084 1428 2787 
Q 1159 2491 1159 1978 
L 1159 0 
L 581 0 
L 581 3500 
L 1159 3500 
L 1159 2956 
Q 1366 3272 1645 3428 
Q 1925 3584 2291 3584 
Q 2894 3584 3203 3211 
Q 3513 2838 3513 2113 
z
" transform="scale(0.015625)"/>
       <path id="DejaVuSans-63" d="M 3122 3366 
L 3122 2828 
Q 2878 2963 2633 3030 
Q 2388 3097 2138 3097 
Q 1578 3097 1268 2742 
Q 959 2388 959 1747 
Q 959 1106 1268 751 
Q 1578 397 2138 397 
Q 2388 397 2633 464 
Q 2878 531 3122 666 
L 3122 134 
Q 2881 22 2623 -34 
Q 2366 -91 2075 -91 
Q 1284 -91 818 406 
Q 353 903 353 1747 
Q 353 2603 823 3093 
Q 1294 3584 2113 3584 
Q 2378 3584 2631 3529 
Q 2884 3475 3122 3366 
z
" transform="scale(0.015625)"/>
       <path id="DejaVuSans-20" transform="scale(0.015625)"/>
       <path id="DejaVuSans-5b" d="M 550 4863 
L 1875 4863 
L 1875 4416 
L 1125 4416 
L 1125 -397 
L 1875 -397 
L 1875 -844 
L 550 -844 
L 550 4863 
z
" transform="scale(0.015625)"/>
       <path id="DejaVuSans-25" d="M 4653 2053 
Q 4381 2053 4226 1822 
Q 4072 1591 4072 1178 
Q 4072 772 4226 539 
Q 4381 306 4653 306 
Q 4919 306 5073 539 
Q 5228 772 5228 1178 
Q 5228 1588 5073 1820 
Q 4919 2053 4653 2053 
z
M 4653 2450 
Q 5147 2450 5437 2106 
Q 5728 1763 5728 1178 
Q 5728 594 5436 251 
Q 5144 -91 4653 -91 
Q 4153 -91 3862 251 
Q 3572 594 3572 1178 
Q 3572 1766 3864 2108 
Q 4156 2450 4653 2450 
z
M 1428 4353 
Q 1159 4353 1004 4120 
Q 850 3888 850 3481 
Q 850 3069 1003 2837 
Q 1156 2606 1428 2606 
Q 1700 2606 1854 2837 
Q 2009 3069 2009 3481 
Q 2009 3884 1853 4118 
Q 1697 4353 1428 4353 
z
M 4250 4750 
L 4750 4750 
L 1831 -91 
L 1331 -91 
L 4250 4750 
z
M 1428 4750 
Q 1922 4750 2215 4408 
Q 2509 4066 2509 3481 
Q 2509 2891 2217 2550 
Q 1925 2209 1428 2209 
Q 931 2209 642 2551 
Q 353 2894 353 3481 
Q 353 4063 643 4406 
Q 934 4750 1428 4750 
z
" transform="scale(0.015625)"/>
       <path id="DejaVuSans-5d" d="M 1947 4863 
L 1947 -844 
L 622 -844 
L 622 -397 
L 1369 -397 
L 1369 4416 
L 622 4416 
L 622 4863 
L 1947 4863 
z
" transform="scale(0.015625)"/>
      </defs>
      <use xlink:href="#DejaVuSans-70"/>
      <use xlink:href="#DejaVuSans-72" x="63.476562"/>
      <use xlink:href="#DejaVuSans-65" x="102.339844"/>
      <use xlink:href="#DejaVuSans-76" x="163.863281"/>
      <use xlink:href="#DejaVuSans-61" x="223.042969"/>
      <use xlink:href="#DejaVuSans-6c" x="284.322266"/>
      <use xlink:href="#DejaVuSans-65" x="312.105469"/>
      <use xlink:href="#DejaVuSans-6e" x="373.628906"/>
      <use xlink:href="#DejaVuSans-63" x="437.007812"/>
      <use xlink:href="#DejaVuSans-65" x="491.988281"/>
      <use xlink:href="#DejaVuSans-20" x="553.511719"/>
      <use xlink:href="#DejaVuSans-5b" x="585.298828"/>
      <use xlink:href="#DejaVuSans-25" x="624.3125"/>
      <use xlink:href="#DejaVuSans-5d" x="719.332031"/>
     </g>
    </g>
   </g>
   <g id="matplotlib.axis_2"/>
   <g id="line2d_7">
    <path d="M 2.050482 107.224564 
L 15.400358 107.161293 
L 16.883677 106.907826 
L 17.625337 106.592802 
L 18.366997 106.046381 
L 19.108656 105.158145 
L 19.850316 103.798573 
L 20.591976 101.831198 
L 21.333636 99.13073 
L 22.075295 95.605006 
L 22.816955 91.217196 
L 24.300275 80.085996 
L 27.266913 54.365458 
L 28.008573 49.025428 
L 28.750233 44.73729 
L 29.491893 41.714786 
L 30.233552 40.08535 
L 30.975212 39.883872 
L 31.716872 41.056353 
L 32.458532 43.471914 
L 33.200191 46.940701 
L 34.683511 56.109978 
L 38.39181 81.60143 
L 39.875129 89.620937 
L 41.358449 95.730451 
L 42.100108 98.102899 
L 42.841768 100.068629 
L 43.583428 101.673131 
L 44.325087 102.964316 
L 45.066747 103.989428 
L 45.808407 104.792876 
L 46.550067 105.414876 
L 48.033386 106.2507 
L 49.516706 106.719389 
L 51.741685 107.047698 
L 54.708324 107.185587 
L 62.866581 107.224226 
L 223.806744 107.224564 
L 223.806744 107.224564 
" clip-path="url(#pce76347078)" style="fill: none; stroke: #005ea8; stroke-width: 1.5; stroke-linecap: square"/>
   </g>
   <g id="line2d_8">
    <path d="M 2.050482 107.224564 
L 160.024007 107.121083 
L 163.732305 106.906326 
L 166.698944 106.511629 
L 168.923924 105.986311 
L 171.148903 105.16806 
L 172.632222 104.410653 
L 174.115542 103.448866 
L 175.598861 102.255867 
L 177.082181 100.811059 
L 178.5655 99.103698 
L 180.04882 97.136533 
L 182.273799 93.746367 
L 185.240438 88.659779 
L 188.948737 82.294661 
L 190.432056 80.074559 
L 191.915376 78.200482 
L 193.398695 76.766367 
L 194.882015 75.846783 
L 195.623674 75.596333 
L 196.365334 75.49054 
L 197.106994 75.530776 
L 197.848653 75.716414 
L 198.590313 76.044844 
L 199.331973 76.511526 
L 200.815292 77.83254 
L 202.298612 79.609557 
L 203.781931 81.752199 
L 206.006911 85.424197 
L 211.198529 94.323743 
L 213.423508 97.612397 
L 214.906827 99.506112 
L 216.390147 101.141282 
L 217.873466 102.51892 
L 219.356786 103.652287 
L 220.840105 104.563316 
L 222.323425 105.279177 
L 223.806744 105.829255 
L 223.806744 105.829255 
" clip-path="url(#pce76347078)" style="fill: none; stroke: #f17900; stroke-width: 1.5; stroke-linecap: square"/>
   </g>
   <g id="patch_5">
    <path d="M 2.050482 107.224564 
L 2.050482 21.178732 
" style="fill: none; stroke: #000000; stroke-width: 0.8; stroke-linejoin: miter; stroke-linecap: square"/>
   </g>
   <g id="patch_6">
    <path d="M 223.806744 107.224564 
L 223.806744 21.178732 
" style="fill: none; stroke: #000000; stroke-width: 0.8; stroke-linejoin: miter; stroke-linecap: square"/>
   </g>
   <g id="patch_7">
    <path d="M 2.050482 107.224564 
L 223.806744 107.224564 
" style="fill: none; stroke: #000000; stroke-width: 0.8; stroke-linejoin: miter; stroke-linecap: square"/>
   </g>
   <g id="patch_8">
    <path d="M 2.050482 21.178732 
L 223.806744 21.178732 
" style="fill: none; stroke: #000000; stroke-width: 0.8; stroke-linejoin: miter; stroke-linecap: square"/>
   </g>
   <g id="text_8">
    <!-- Observed vs Predicted Prevalence -->
    <g transform="translate(44.697363 6.220482) scale(0.08 -0.08)">
     <defs>
      <path id="DejaVuSans-4f" d="M 2522 4238 
Q 1834 4238 1429 3725 
Q 1025 3213 1025 2328 
Q 1025 1447 1429 934 
Q 1834 422 2522 422 
Q 3209 422 3611 934 
Q 4013 1447 4013 2328 
Q 4013 3213 3611 3725 
Q 3209 4238 2522 4238 
z
M 2522 4750 
Q 3503 4750 4090 4092 
Q 4678 3434 4678 2328 
Q 4678 1225 4090 567 
Q 3503 -91 2522 -91 
Q 1538 -91 948 565 
Q 359 1222 359 2328 
Q 359 3434 948 4092 
Q 1538 4750 2522 4750 
z
" transform="scale(0.015625)"/>
      <path id="DejaVuSans-62" d="M 3116 1747 
Q 3116 2381 2855 2742 
Q 2594 3103 2138 3103 
Q 1681 3103 1420 2742 
Q 1159 2381 1159 1747 
Q 1159 1113 1420 752 
Q 1681 391 2138 391 
Q 2594 391 2855 752 
Q 3116 1113 3116 1747 
z
M 1159 2969 
Q 1341 3281 1617 3432 
Q 1894 3584 2278 3584 
Q 2916 3584 3314 3078 
Q 3713 2572 3713 1747 
Q 3713 922 3314 415 
Q 2916 -91 2278 -91 
Q 1894 -91 1617 61 
Q 1341 213 1159 525 
L 1159 0 
L 581 0 
L 581 4863 
L 1159 4863 
L 1159 2969 
z
" transform="scale(0.015625)"/>
      <path id="DejaVuSans-73" d="M 2834 3397 
L 2834 2853 
Q 2591 2978 2328 3040 
Q 2066 3103 1784 3103 
Q 1356 3103 1142 2972 
Q 928 2841 928 2578 
Q 928 2378 1081 2264 
Q 1234 2150 1697 2047 
L 1894 2003 
Q 2506 1872 2764 1633 
Q 3022 1394 3022 966 
Q 3022 478 2636 193 
Q 2250 -91 1575 -91 
Q 1294 -91 989 -36 
Q 684 19 347 128 
L 347 722 
Q 666 556 975 473 
Q 1284 391 1588 391 
Q 1994 391 2212 530 
Q 2431 669 2431 922 
Q 2431 1156 2273 1281 
Q 2116 1406 1581 1522 
L 1381 1569 
Q 847 1681 609 1914 
Q 372 2147 372 2553 
Q 372 3047 722 3315 
Q 1072 3584 1716 3584 
Q 2034 3584 2315 3537 
Q 2597 3491 2834 3397 
z
" transform="scale(0.015625)"/>
      <path id="DejaVuSans-64" d="M 2906 2969 
L 2906 4863 
L 3481 4863 
L 3481 0 
L 2906 0 
L 2906 525 
Q 2725 213 2448 61 
Q 2172 -91 1784 -91 
Q 1150 -91 751 415 
Q 353 922 353 1747 
Q 353 2572 751 3078 
Q 1150 3584 1784 3584 
Q 2172 3584 2448 3432 
Q 2725 3281 2906 2969 
z
M 947 1747 
Q 947 1113 1208 752 
Q 1469 391 1925 391 
Q 2381 391 2643 752 
Q 2906 1113 2906 1747 
Q 2906 2381 2643 2742 
Q 2381 3103 1925 3103 
Q 1469 3103 1208 2742 
Q 947 2381 947 1747 
z
" transform="scale(0.015625)"/>
      <path id="DejaVuSans-50" d="M 1259 4147 
L 1259 2394 
L 2053 2394 
Q 2494 2394 2734 2622 
Q 2975 2850 2975 3272 
Q 2975 3691 2734 3919 
Q 2494 4147 2053 4147 
L 1259 4147 
z
M 628 4666 
L 2053 4666 
Q 2838 4666 3239 4311 
Q 3641 3956 3641 3272 
Q 3641 2581 3239 2228 
Q 2838 1875 2053 1875 
L 1259 1875 
L 1259 0 
L 628 0 
L 628 4666 
z
" transform="scale(0.015625)"/>
      <path id="DejaVuSans-69" d="M 603 3500 
L 1178 3500 
L 1178 0 
L 603 0 
L 603 3500 
z
M 603 4863 
L 1178 4863 
L 1178 4134 
L 603 4134 
L 603 4863 
z
" transform="scale(0.015625)"/>
      <path id="DejaVuSans-74" d="M 1172 4494 
L 1172 3500 
L 2356 3500 
L 2356 3053 
L 1172 3053 
L 1172 1153 
Q 1172 725 1289 603 
Q 1406 481 1766 481 
L 2356 481 
L 2356 0 
L 1766 0 
Q 1100 0 847 248 
Q 594 497 594 1153 
L 594 3053 
L 172 3053 
L 172 3500 
L 594 3500 
L 594 4494 
L 1172 4494 
z
" transform="scale(0.015625)"/>
     </defs>
     <use xlink:href="#DejaVuSans-4f"/>
     <use xlink:href="#DejaVuSans-62" x="78.710938"/>
     <use xlink:href="#DejaVuSans-73" x="142.1875"/>
     <use xlink:href="#DejaVuSans-65" x="194.287109"/>
     <use xlink:href="#DejaVuSans-72" x="255.810547"/>
     <use xlink:href="#DejaVuSans-76" x="296.923828"/>
     <use xlink:href="#DejaVuSans-65" x="356.103516"/>
     <use xlink:href="#DejaVuSans-64" x="417.626953"/>
     <use xlink:href="#DejaVuSans-20" x="481.103516"/>
     <use xlink:href="#DejaVuSans-76" x="512.890625"/>
     <use xlink:href="#DejaVuSans-73" x="572.070312"/>
     <use xlink:href="#DejaVuSans-20" x="624.169922"/>
     <use xlink:href="#DejaVuSans-50" x="655.957031"/>
     <use xlink:href="#DejaVuSans-72" x="714.509766"/>
     <use xlink:href="#DejaVuSans-65" x="753.373047"/>
     <use xlink:href="#DejaVuSans-64" x="814.896484"/>
     <use xlink:href="#DejaVuSans-69" x="878.373047"/>
     <use xlink:href="#DejaVuSans-63" x="906.15625"/>
     <use xlink:href="#DejaVuSans-74" x="961.136719"/>
     <use xlink:href="#DejaVuSans-65" x="1000.345703"/>
     <use xlink:href="#DejaVuSans-64" x="1061.869141"/>
     <use xlink:href="#DejaVuSans-20" x="1125.345703"/>
     <use xlink:href="#DejaVuSans-50" x="1157.132812"/>
     <use xlink:href="#DejaVuSans-72" x="1215.685547"/>
     <use xlink:href="#DejaVuSans-65" x="1254.548828"/>
     <use xlink:href="#DejaVuSans-76" x="1316.072266"/>
     <use xlink:href="#DejaVuSans-61" x="1375.251953"/>
     <use xlink:href="#DejaVuSans-6c" x="1436.53125"/>
     <use xlink:href="#DejaVuSans-65" x="1464.314453"/>
     <use xlink:href="#DejaVuSans-6e" x="1525.837891"/>
     <use xlink:href="#DejaVuSans-63" x="1589.216797"/>
     <use xlink:href="#DejaVuSans-65" x="1644.197266"/>
    </g>
    <!-- of Midline Extension $\epsilon$ -->
    <g transform="translate(69.128613 15.178732) scale(0.08 -0.08)">
     <defs>
      <path id="DejaVuSans-6f" d="M 1959 3097 
Q 1497 3097 1228 2736 
Q 959 2375 959 1747 
Q 959 1119 1226 758 
Q 1494 397 1959 397 
Q 2419 397 2687 759 
Q 2956 1122 2956 1747 
Q 2956 2369 2687 2733 
Q 2419 3097 1959 3097 
z
M 1959 3584 
Q 2709 3584 3137 3096 
Q 3566 2609 3566 1747 
Q 3566 888 3137 398 
Q 2709 -91 1959 -91 
Q 1206 -91 779 398 
Q 353 888 353 1747 
Q 353 2609 779 3096 
Q 1206 3584 1959 3584 
z
" transform="scale(0.015625)"/>
      <path id="DejaVuSans-66" d="M 2375 4863 
L 2375 4384 
L 1825 4384 
Q 1516 4384 1395 4259 
Q 1275 4134 1275 3809 
L 1275 3500 
L 2222 3500 
L 2222 3053 
L 1275 3053 
L 1275 0 
L 697 0 
L 697 3053 
L 147 3053 
L 147 3500 
L 697 3500 
L 697 3744 
Q 697 4328 969 4595 
Q 1241 4863 1831 4863 
L 2375 4863 
z
" transform="scale(0.015625)"/>
      <path id="DejaVuSans-4d" d="M 628 4666 
L 1569 4666 
L 2759 1491 
L 3956 4666 
L 4897 4666 
L 4897 0 
L 4281 0 
L 4281 4097 
L 3078 897 
L 2444 897 
L 1241 4097 
L 1241 0 
L 628 0 
L 628 4666 
z
" transform="scale(0.015625)"/>
      <path id="DejaVuSans-45" d="M 628 4666 
L 3578 4666 
L 3578 4134 
L 1259 4134 
L 1259 2753 
L 3481 2753 
L 3481 2222 
L 1259 2222 
L 1259 531 
L 3634 531 
L 3634 0 
L 628 0 
L 628 4666 
z
" transform="scale(0.015625)"/>
      <path id="DejaVuSans-78" d="M 3513 3500 
L 2247 1797 
L 3578 0 
L 2900 0 
L 1881 1375 
L 863 0 
L 184 0 
L 1544 1831 
L 300 3500 
L 978 3500 
L 1906 2253 
L 2834 3500 
L 3513 3500 
z
" transform="scale(0.015625)"/>
      <path id="DejaVuSans-Oblique-3b5" d="M 1263 1888 
Q 925 1963 778 2166 
Q 669 2309 669 2503 
Q 669 3034 1175 3344 
Q 1575 3588 2188 3588 
Q 2425 3588 2684 3550 
Q 2944 3513 3234 3438 
L 3134 2916 
Q 2847 3006 2606 3047 
Q 2359 3088 2138 3088 
Q 1766 3088 1522 2944 
Q 1228 2772 1228 2522 
Q 1228 2356 1381 2241 
Q 1563 2103 1925 2103 
L 2409 2103 
L 2319 1628 
L 1856 1628 
Q 1425 1628 1172 1469 
Q 828 1253 828 916 
Q 828 703 1013 563 
Q 1244 388 1716 388 
Q 2006 388 2284 444 
Q 2563 503 2806 619 
L 2700 84 
Q 2403 -3 2131 -47 
Q 1859 -91 1609 -91 
Q 866 -91 516 194 
Q 250 413 250 781 
Q 250 1278 600 1584 
Q 859 1813 1263 1888 
z
" transform="scale(0.015625)"/>
     </defs>
     <use xlink:href="#DejaVuSans-6f" transform="translate(0 0.015625)"/>
     <use xlink:href="#DejaVuSans-66" transform="translate(61.181641 0.015625)"/>
     <use xlink:href="#DejaVuSans-20" transform="translate(96.386719 0.015625)"/>
     <use xlink:href="#DejaVuSans-4d" transform="translate(128.173828 0.015625)"/>
     <use xlink:href="#DejaVuSans-69" transform="translate(214.453125 0.015625)"/>
     <use xlink:href="#DejaVuSans-64" transform="translate(242.236328 0.015625)"/>
     <use xlink:href="#DejaVuSans-6c" transform="translate(305.712891 0.015625)"/>
     <use xlink:href="#DejaVuSans-69" transform="translate(333.496094 0.015625)"/>
     <use xlink:href="#DejaVuSans-6e" transform="translate(361.279297 0.015625)"/>
     <use xlink:href="#DejaVuSans-65" transform="translate(424.658203 0.015625)"/>
     <use xlink:href="#DejaVuSans-20" transform="translate(486.181641 0.015625)"/>
     <use xlink:href="#DejaVuSans-45" transform="translate(517.96875 0.015625)"/>
     <use xlink:href="#DejaVuSans-78" transform="translate(581.152344 0.015625)"/>
     <use xlink:href="#DejaVuSans-74" transform="translate(640.332031 0.015625)"/>
     <use xlink:href="#DejaVuSans-65" transform="translate(679.541016 0.015625)"/>
     <use xlink:href="#DejaVuSans-6e" transform="translate(741.064453 0.015625)"/>
     <use xlink:href="#DejaVuSans-73" transform="translate(804.443359 0.015625)"/>
     <use xlink:href="#DejaVuSans-69" transform="translate(856.542969 0.015625)"/>
     <use xlink:href="#DejaVuSans-6f" transform="translate(884.326172 0.015625)"/>
     <use xlink:href="#DejaVuSans-6e" transform="translate(945.507812 0.015625)"/>
     <use xlink:href="#DejaVuSans-20" transform="translate(1008.886719 0.015625)"/>
     <use xlink:href="#DejaVuSans-Oblique-3b5" transform="translate(1040.673828 0.015625)"/>
    </g>
   </g>
   <g id="legend_1">
    <g id="patch_9">
     <path d="M 17.338295 49.102443 
L 82.666108 49.102443 
Q 83.866108 49.102443 83.866108 47.902443 
L 83.866108 26.239191 
Q 83.866108 25.039191 82.666108 25.039191 
L 17.338295 25.039191 
Q 16.138295 25.039191 16.138295 26.239191 
L 16.138295 47.902443 
Q 16.138295 49.102443 17.338295 49.102443 
z
" style="fill: #ffffff; opacity: 0.8; stroke: #cccccc; stroke-linejoin: miter"/>
    </g>
    <g id="text_9">
     <!-- early T-cat. -->
     <g transform="translate(31.411204 32.502789) scale(0.06664 -0.06664)">
      <defs>
       <path id="DejaVuSans-79" d="M 2059 -325 
Q 1816 -950 1584 -1140 
Q 1353 -1331 966 -1331 
L 506 -1331 
L 506 -850 
L 844 -850 
Q 1081 -850 1212 -737 
Q 1344 -625 1503 -206 
L 1606 56 
L 191 3500 
L 800 3500 
L 1894 763 
L 2988 3500 
L 3597 3500 
L 2059 -325 
z
" transform="scale(0.015625)"/>
       <path id="DejaVuSans-54" d="M -19 4666 
L 3928 4666 
L 3928 4134 
L 2272 4134 
L 2272 0 
L 1638 0 
L 1638 4134 
L -19 4134 
L -19 4666 
z
" transform="scale(0.015625)"/>
       <path id="DejaVuSans-2d" d="M 313 2009 
L 1997 2009 
L 1997 1497 
L 313 1497 
L 313 2009 
z
" transform="scale(0.015625)"/>
       <path id="DejaVuSans-2e" d="M 684 794 
L 1344 794 
L 1344 0 
L 684 0 
L 684 794 
z
" transform="scale(0.015625)"/>
      </defs>
      <use xlink:href="#DejaVuSans-65"/>
      <use xlink:href="#DejaVuSans-61" x="61.523438"/>
      <use xlink:href="#DejaVuSans-72" x="122.802734"/>
      <use xlink:href="#DejaVuSans-6c" x="163.916016"/>
      <use xlink:href="#DejaVuSans-79" x="191.699219"/>
      <use xlink:href="#DejaVuSans-20" x="250.878906"/>
      <use xlink:href="#DejaVuSans-54" x="282.666016"/>
      <use xlink:href="#DejaVuSans-2d" x="334.625"/>
      <use xlink:href="#DejaVuSans-63" x="370.708984"/>
      <use xlink:href="#DejaVuSans-61" x="425.689453"/>
      <use xlink:href="#DejaVuSans-74" x="486.96875"/>
      <use xlink:href="#DejaVuSans-2e" x="526.177734"/>
     </g>
    </g>
    <g id="patch_10">
     <path d="M 18.538295 39.047756 
L 30.538295 39.047756 
L 30.538295 34.847756 
L 18.538295 34.847756 
z
" style="fill: #005ea8; opacity: 0.7"/>
    </g>
    <g id="text_10">
     <!-- prediction -->
     <g transform="translate(35.338295 39.047756) scale(0.06 -0.06)">
      <use xlink:href="#DejaVuSans-70"/>
      <use xlink:href="#DejaVuSans-72" x="63.476562"/>
      <use xlink:href="#DejaVuSans-65" x="102.339844"/>
      <use xlink:href="#DejaVuSans-64" x="163.863281"/>
      <use xlink:href="#DejaVuSans-69" x="227.339844"/>
      <use xlink:href="#DejaVuSans-63" x="255.123047"/>
      <use xlink:href="#DejaVuSans-74" x="310.103516"/>
      <use xlink:href="#DejaVuSans-69" x="349.3125"/>
      <use xlink:href="#DejaVuSans-6f" x="377.095703"/>
      <use xlink:href="#DejaVuSans-6e" x="438.277344"/>
     </g>
    </g>
    <g id="line2d_9">
     <path d="M 18.538295 43.354631 
L 24.538295 43.354631 
L 30.538295 43.354631 
" style="fill: none; stroke: #005ea8; stroke-width: 1.5; stroke-linecap: square"/>
    </g>
    <g id="text_11">
     <!-- data: 29 of 408 -->
     <g transform="translate(35.338295 45.454631) scale(0.06 -0.06)">
      <defs>
       <path id="DejaVuSans-3a" d="M 750 794 
L 1409 794 
L 1409 0 
L 750 0 
L 750 794 
z
M 750 3309 
L 1409 3309 
L 1409 2516 
L 750 2516 
L 750 3309 
z
" transform="scale(0.015625)"/>
       <path id="DejaVuSans-39" d="M 703 97 
L 703 672 
Q 941 559 1184 500 
Q 1428 441 1663 441 
Q 2288 441 2617 861 
Q 2947 1281 2994 2138 
Q 2813 1869 2534 1725 
Q 2256 1581 1919 1581 
Q 1219 1581 811 2004 
Q 403 2428 403 3163 
Q 403 3881 828 4315 
Q 1253 4750 1959 4750 
Q 2769 4750 3195 4129 
Q 3622 3509 3622 2328 
Q 3622 1225 3098 567 
Q 2575 -91 1691 -91 
Q 1453 -91 1209 -44 
Q 966 3 703 97 
z
M 1959 2075 
Q 2384 2075 2632 2365 
Q 2881 2656 2881 3163 
Q 2881 3666 2632 3958 
Q 2384 4250 1959 4250 
Q 1534 4250 1286 3958 
Q 1038 3666 1038 3163 
Q 1038 2656 1286 2365 
Q 1534 2075 1959 2075 
z
" transform="scale(0.015625)"/>
       <path id="DejaVuSans-38" d="M 2034 2216 
Q 1584 2216 1326 1975 
Q 1069 1734 1069 1313 
Q 1069 891 1326 650 
Q 1584 409 2034 409 
Q 2484 409 2743 651 
Q 3003 894 3003 1313 
Q 3003 1734 2745 1975 
Q 2488 2216 2034 2216 
z
M 1403 2484 
Q 997 2584 770 2862 
Q 544 3141 544 3541 
Q 544 4100 942 4425 
Q 1341 4750 2034 4750 
Q 2731 4750 3128 4425 
Q 3525 4100 3525 3541 
Q 3525 3141 3298 2862 
Q 3072 2584 2669 2484 
Q 3125 2378 3379 2068 
Q 3634 1759 3634 1313 
Q 3634 634 3220 271 
Q 2806 -91 2034 -91 
Q 1263 -91 848 271 
Q 434 634 434 1313 
Q 434 1759 690 2068 
Q 947 2378 1403 2484 
z
M 1172 3481 
Q 1172 3119 1398 2916 
Q 1625 2713 2034 2713 
Q 2441 2713 2670 2916 
Q 2900 3119 2900 3481 
Q 2900 3844 2670 4047 
Q 2441 4250 2034 4250 
Q 1625 4250 1398 4047 
Q 1172 3844 1172 3481 
z
" transform="scale(0.015625)"/>
      </defs>
      <use xlink:href="#DejaVuSans-64"/>
      <use xlink:href="#DejaVuSans-61" x="63.476562"/>
      <use xlink:href="#DejaVuSans-74" x="124.755859"/>
      <use xlink:href="#DejaVuSans-61" x="163.964844"/>
      <use xlink:href="#DejaVuSans-3a" x="225.244141"/>
      <use xlink:href="#DejaVuSans-20" x="258.935547"/>
      <use xlink:href="#DejaVuSans-32" x="290.722656"/>
      <use xlink:href="#DejaVuSans-39" x="354.345703"/>
      <use xlink:href="#DejaVuSans-20" x="417.96875"/>
      <use xlink:href="#DejaVuSans-6f" x="449.755859"/>
      <use xlink:href="#DejaVuSans-66" x="510.9375"/>
      <use xlink:href="#DejaVuSans-20" x="546.142578"/>
      <use xlink:href="#DejaVuSans-34" x="577.929688"/>
      <use xlink:href="#DejaVuSans-30" x="641.552734"/>
      <use xlink:href="#DejaVuSans-38" x="705.175781"/>
     </g>
    </g>
   </g>
   <g id="legend_2">
    <g id="patch_11">
     <path d="M 139.30424 49.102443 
L 208.449552 49.102443 
Q 209.649552 49.102443 209.649552 47.902443 
L 209.649552 26.239191 
Q 209.649552 25.039191 208.449552 25.039191 
L 139.30424 25.039191 
Q 138.10424 25.039191 138.10424 26.239191 
L 138.10424 47.902443 
Q 138.10424 49.102443 139.30424 49.102443 
z
" style="fill: #ffffff; opacity: 0.8; stroke: #cccccc; stroke-linejoin: miter"/>
    </g>
    <g id="text_12">
     <!-- late T-cat. -->
     <g transform="translate(157.321541 32.502789) scale(0.06664 -0.06664)">
      <use xlink:href="#DejaVuSans-6c"/>
      <use xlink:href="#DejaVuSans-61" x="27.783203"/>
      <use xlink:href="#DejaVuSans-74" x="89.0625"/>
      <use xlink:href="#DejaVuSans-65" x="128.271484"/>
      <use xlink:href="#DejaVuSans-20" x="189.794922"/>
      <use xlink:href="#DejaVuSans-54" x="221.582031"/>
      <use xlink:href="#DejaVuSans-2d" x="273.541016"/>
      <use xlink:href="#DejaVuSans-63" x="309.625"/>
      <use xlink:href="#DejaVuSans-61" x="364.605469"/>
      <use xlink:href="#DejaVuSans-74" x="425.884766"/>
      <use xlink:href="#DejaVuSans-2e" x="465.09375"/>
     </g>
    </g>
    <g id="patch_12">
     <path d="M 140.50424 39.047756 
L 152.50424 39.047756 
L 152.50424 34.847756 
L 140.50424 34.847756 
z
" style="fill: #f17900; opacity: 0.7"/>
    </g>
    <g id="text_13">
     <!-- prediction -->
     <g transform="translate(157.30424 39.047756) scale(0.06 -0.06)">
      <use xlink:href="#DejaVuSans-70"/>
      <use xlink:href="#DejaVuSans-72" x="63.476562"/>
      <use xlink:href="#DejaVuSans-65" x="102.339844"/>
      <use xlink:href="#DejaVuSans-64" x="163.863281"/>
      <use xlink:href="#DejaVuSans-69" x="227.339844"/>
      <use xlink:href="#DejaVuSans-63" x="255.123047"/>
      <use xlink:href="#DejaVuSans-74" x="310.103516"/>
      <use xlink:href="#DejaVuSans-69" x="349.3125"/>
      <use xlink:href="#DejaVuSans-6f" x="377.095703"/>
      <use xlink:href="#DejaVuSans-6e" x="438.277344"/>
     </g>
    </g>
    <g id="line2d_10">
     <path d="M 140.50424 43.354631 
L 146.50424 43.354631 
L 152.50424 43.354631 
" style="fill: none; stroke: #f17900; stroke-width: 1.5; stroke-linecap: square"/>
    </g>
    <g id="text_14">
     <!-- data: 164 of 340 -->
     <g transform="translate(157.30424 45.454631) scale(0.06 -0.06)">
      <defs>
       <path id="DejaVuSans-36" d="M 2113 2584 
Q 1688 2584 1439 2293 
Q 1191 2003 1191 1497 
Q 1191 994 1439 701 
Q 1688 409 2113 409 
Q 2538 409 2786 701 
Q 3034 994 3034 1497 
Q 3034 2003 2786 2293 
Q 2538 2584 2113 2584 
z
M 3366 4563 
L 3366 3988 
Q 3128 4100 2886 4159 
Q 2644 4219 2406 4219 
Q 1781 4219 1451 3797 
Q 1122 3375 1075 2522 
Q 1259 2794 1537 2939 
Q 1816 3084 2150 3084 
Q 2853 3084 3261 2657 
Q 3669 2231 3669 1497 
Q 3669 778 3244 343 
Q 2819 -91 2113 -91 
Q 1303 -91 875 529 
Q 447 1150 447 2328 
Q 447 3434 972 4092 
Q 1497 4750 2381 4750 
Q 2619 4750 2861 4703 
Q 3103 4656 3366 4563 
z
" transform="scale(0.015625)"/>
      </defs>
      <use xlink:href="#DejaVuSans-64"/>
      <use xlink:href="#DejaVuSans-61" x="63.476562"/>
      <use xlink:href="#DejaVuSans-74" x="124.755859"/>
      <use xlink:href="#DejaVuSans-61" x="163.964844"/>
      <use xlink:href="#DejaVuSans-3a" x="225.244141"/>
      <use xlink:href="#DejaVuSans-20" x="258.935547"/>
      <use xlink:href="#DejaVuSans-31" x="290.722656"/>
      <use xlink:href="#DejaVuSans-36" x="354.345703"/>
      <use xlink:href="#DejaVuSans-34" x="417.96875"/>
      <use xlink:href="#DejaVuSans-20" x="481.591797"/>
      <use xlink:href="#DejaVuSans-6f" x="513.378906"/>
      <use xlink:href="#DejaVuSans-66" x="574.560547"/>
      <use xlink:href="#DejaVuSans-20" x="609.765625"/>
      <use xlink:href="#DejaVuSans-33" x="641.552734"/>
      <use xlink:href="#DejaVuSans-34" x="705.175781"/>
      <use xlink:href="#DejaVuSans-30" x="768.798828"/>
     </g>
    </g>
   </g>
   <g id="legend_3">
    <g id="patch_13">
     <path d="M 139.30424 49.102443 
L 208.449552 49.102443 
Q 209.649552 49.102443 209.649552 47.902443 
L 209.649552 26.239191 
Q 209.649552 25.039191 208.449552 25.039191 
L 139.30424 25.039191 
Q 138.10424 25.039191 138.10424 26.239191 
L 138.10424 47.902443 
Q 138.10424 49.102443 139.30424 49.102443 
z
" style="fill: #ffffff; opacity: 0.8; stroke: #cccccc; stroke-linejoin: miter"/>
    </g>
    <g id="text_15">
     <!-- late T-cat. -->
     <g transform="translate(157.321541 32.502789) scale(0.06664 -0.06664)">
      <use xlink:href="#DejaVuSans-6c"/>
      <use xlink:href="#DejaVuSans-61" x="27.783203"/>
      <use xlink:href="#DejaVuSans-74" x="89.0625"/>
      <use xlink:href="#DejaVuSans-65" x="128.271484"/>
      <use xlink:href="#DejaVuSans-20" x="189.794922"/>
      <use xlink:href="#DejaVuSans-54" x="221.582031"/>
      <use xlink:href="#DejaVuSans-2d" x="273.541016"/>
      <use xlink:href="#DejaVuSans-63" x="309.625"/>
      <use xlink:href="#DejaVuSans-61" x="364.605469"/>
      <use xlink:href="#DejaVuSans-74" x="425.884766"/>
      <use xlink:href="#DejaVuSans-2e" x="465.09375"/>
     </g>
    </g>
    <g id="patch_14">
     <path d="M 140.50424 39.047756 
L 152.50424 39.047756 
L 152.50424 34.847756 
L 140.50424 34.847756 
z
" style="fill: #f17900; opacity: 0.7"/>
    </g>
    <g id="text_16">
     <!-- prediction -->
     <g transform="translate(157.30424 39.047756) scale(0.06 -0.06)">
      <use xlink:href="#DejaVuSans-70"/>
      <use xlink:href="#DejaVuSans-72" x="63.476562"/>
      <use xlink:href="#DejaVuSans-65" x="102.339844"/>
      <use xlink:href="#DejaVuSans-64" x="163.863281"/>
      <use xlink:href="#DejaVuSans-69" x="227.339844"/>
      <use xlink:href="#DejaVuSans-63" x="255.123047"/>
      <use xlink:href="#DejaVuSans-74" x="310.103516"/>
      <use xlink:href="#DejaVuSans-69" x="349.3125"/>
      <use xlink:href="#DejaVuSans-6f" x="377.095703"/>
      <use xlink:href="#DejaVuSans-6e" x="438.277344"/>
     </g>
    </g>
    <g id="line2d_11">
     <path d="M 140.50424 43.354631 
L 146.50424 43.354631 
L 152.50424 43.354631 
" style="fill: none; stroke: #f17900; stroke-width: 1.5; stroke-linecap: square"/>
    </g>
    <g id="text_17">
     <!-- data: 164 of 340 -->
     <g transform="translate(157.30424 45.454631) scale(0.06 -0.06)">
      <use xlink:href="#DejaVuSans-64"/>
      <use xlink:href="#DejaVuSans-61" x="63.476562"/>
      <use xlink:href="#DejaVuSans-74" x="124.755859"/>
      <use xlink:href="#DejaVuSans-61" x="163.964844"/>
      <use xlink:href="#DejaVuSans-3a" x="225.244141"/>
      <use xlink:href="#DejaVuSans-20" x="258.935547"/>
      <use xlink:href="#DejaVuSans-31" x="290.722656"/>
      <use xlink:href="#DejaVuSans-36" x="354.345703"/>
      <use xlink:href="#DejaVuSans-34" x="417.96875"/>
      <use xlink:href="#DejaVuSans-20" x="481.591797"/>
      <use xlink:href="#DejaVuSans-6f" x="513.378906"/>
      <use xlink:href="#DejaVuSans-66" x="574.560547"/>
      <use xlink:href="#DejaVuSans-20" x="609.765625"/>
      <use xlink:href="#DejaVuSans-33" x="641.552734"/>
      <use xlink:href="#DejaVuSans-34" x="705.175781"/>
      <use xlink:href="#DejaVuSans-30" x="768.798828"/>
     </g>
    </g>
   </g>
  </g>
 </g>
 <defs>
  <clipPath id="pce76347078">
   <rect x="2.050482" y="21.178732" width="221.756262" height="86.045832"/>
  </clipPath>
 </defs>
</svg>
