<?xml version="1.0" encoding="utf-8" standalone="no"?>
<!DOCTYPE svg PUBLIC "-//W3C//DTD SVG 1.1//EN"
  "http://www.w3.org/Graphics/SVG/1.1/DTD/svg11.dtd">
<svg xmlns:xlink="http://www.w3.org/1999/xlink" width="229.672852pt" height="131.915672pt" viewBox="0 0 229.672852 131.915672" xmlns="http://www.w3.org/2000/svg" version="1.1">
 <metadata>
  <rdf:RDF xmlns:dc="http://purl.org/dc/elements/1.1/" xmlns:cc="http://creativecommons.org/ns#" xmlns:rdf="http://www.w3.org/1999/02/22-rdf-syntax-ns#">
   <cc:Work>
    <dc:type rdf:resource="http://purl.org/dc/dcmitype/StillImage"/>
    <dc:date>2024-08-19T14:42:03.135614</dc:date>
    <dc:format>image/svg+xml</dc:format>
    <dc:creator>
     <cc:Agent>
      <dc:title>Matplotlib v3.9.0, https://matplotlib.org/</dc:title>
     </cc:Agent>
    </dc:creator>
   </cc:Work>
  </rdf:RDF>
 </metadata>
 <defs>
  <style type="text/css">*{stroke-linejoin: round; stroke-linecap: butt}</style>
 </defs>
 <g id="figure_1">
  <g id="patch_1">
   <path d="M 0 131.915672 
L 229.672852 131.915672 
L 229.672852 0 
L 0 0 
z
" style="fill: #ffffff"/>
  </g>
  <g id="axes_1">
   <g id="patch_2">
    <path d="M 32.243607 118.967064 
L 229.531119 118.967064 
L 229.531119 12.220482 
L 32.243607 12.220482 
z
" style="fill: #ffffff"/>
   </g>
   <g id="matplotlib.axis_1">
    <g id="xtick_1">
     <g id="line2d_1">
      <defs>
       <path id="m0f9a4afa99" d="M 0 0 
L 0 3.5 
" style="stroke: #000000; stroke-width: 0.8"/>
      </defs>
      <g>
       <use xlink:href="#m0f9a4afa99" x="55.852224" y="118.967064" style="stroke: #000000; stroke-width: 0.8"/>
      </g>
     </g>
     <g id="text_1">
      <!-- I -->
      <g transform="translate(54.967224 130.526127) scale(0.06 -0.06)">
       <defs>
        <path id="DejaVuSans-49" d="M 628 4666 
L 1259 4666 
L 1259 0 
L 628 0 
L 628 4666 
z
" transform="scale(0.015625)"/>
       </defs>
       <use xlink:href="#DejaVuSans-49"/>
      </g>
     </g>
    </g>
    <g id="xtick_2">
     <g id="line2d_2">
      <g>
       <use xlink:href="#m0f9a4afa99" x="92.454731" y="118.967064" style="stroke: #000000; stroke-width: 0.8"/>
      </g>
     </g>
     <g id="text_2">
      <!-- II -->
      <g transform="translate(90.684731 130.526127) scale(0.06 -0.06)">
       <use xlink:href="#DejaVuSans-49"/>
       <use xlink:href="#DejaVuSans-49" x="29.492188"/>
      </g>
     </g>
    </g>
    <g id="xtick_3">
     <g id="line2d_3">
      <g>
       <use xlink:href="#m0f9a4afa99" x="129.057238" y="118.967064" style="stroke: #000000; stroke-width: 0.8"/>
      </g>
     </g>
     <g id="text_3">
      <!-- III -->
      <g transform="translate(126.402238 130.526127) scale(0.06 -0.06)">
       <use xlink:href="#DejaVuSans-49"/>
       <use xlink:href="#DejaVuSans-49" x="29.492188"/>
       <use xlink:href="#DejaVuSans-49" x="58.984375"/>
      </g>
     </g>
    </g>
    <g id="xtick_4">
     <g id="line2d_4">
      <g>
       <use xlink:href="#m0f9a4afa99" x="165.659745" y="118.967064" style="stroke: #000000; stroke-width: 0.8"/>
      </g>
     </g>
     <g id="text_4">
      <!-- IV -->
      <g transform="translate(162.722557 130.526127) scale(0.06 -0.06)">
       <defs>
        <path id="DejaVuSans-56" d="M 1831 0 
L 50 4666 
L 709 4666 
L 2188 738 
L 3669 4666 
L 4325 4666 
L 2547 0 
L 1831 0 
z
" transform="scale(0.015625)"/>
       </defs>
       <use xlink:href="#DejaVuSans-49"/>
       <use xlink:href="#DejaVuSans-56" x="29.492188"/>
      </g>
     </g>
    </g>
    <g id="xtick_5">
     <g id="line2d_5">
      <g>
       <use xlink:href="#m0f9a4afa99" x="202.262252" y="118.967064" style="stroke: #000000; stroke-width: 0.8"/>
      </g>
     </g>
     <g id="text_5">
      <!-- V -->
      <g transform="translate(200.210064 130.526127) scale(0.06 -0.06)">
       <use xlink:href="#DejaVuSans-56"/>
      </g>
     </g>
    </g>
   </g>
   <g id="matplotlib.axis_2">
    <g id="ytick_1">
     <g id="line2d_6">
      <path d="M 32.243607 118.967064 
L 229.531119 118.967064 
" clip-path="url(#p4e8d966445)" style="fill: none; stroke: #c5d5db; stroke-width: 0.8; stroke-linecap: square"/>
     </g>
     <g id="line2d_7">
      <defs>
       <path id="mc5161c0d99" d="M 0 0 
L -3.5 0 
" style="stroke: #000000; stroke-width: 0.8"/>
      </defs>
      <g>
       <use xlink:href="#mc5161c0d99" x="32.243607" y="118.967064" style="stroke: #000000; stroke-width: 0.8"/>
      </g>
     </g>
     <g id="text_6">
      <!-- 0.0 -->
      <g transform="translate(15.701732 121.246595) scale(0.06 -0.06)">
       <defs>
        <path id="DejaVuSans-30" d="M 2034 4250 
Q 1547 4250 1301 3770 
Q 1056 3291 1056 2328 
Q 1056 1369 1301 889 
Q 1547 409 2034 409 
Q 2525 409 2770 889 
Q 3016 1369 3016 2328 
Q 3016 3291 2770 3770 
Q 2525 4250 2034 4250 
z
M 2034 4750 
Q 2819 4750 3233 4129 
Q 3647 3509 3647 2328 
Q 3647 1150 3233 529 
Q 2819 -91 2034 -91 
Q 1250 -91 836 529 
Q 422 1150 422 2328 
Q 422 3509 836 4129 
Q 1250 4750 2034 4750 
z
" transform="scale(0.015625)"/>
        <path id="DejaVuSans-2e" d="M 684 794 
L 1344 794 
L 1344 0 
L 684 0 
L 684 794 
z
" transform="scale(0.015625)"/>
       </defs>
       <use xlink:href="#DejaVuSans-30"/>
       <use xlink:href="#DejaVuSans-2e" x="63.623047"/>
       <use xlink:href="#DejaVuSans-30" x="95.410156"/>
      </g>
     </g>
    </g>
    <g id="ytick_2">
     <g id="line2d_8">
      <path d="M 32.243607 102.809843 
L 229.531119 102.809843 
" clip-path="url(#p4e8d966445)" style="fill: none; stroke: #c5d5db; stroke-width: 0.8; stroke-linecap: square"/>
     </g>
     <g id="line2d_9">
      <g>
       <use xlink:href="#mc5161c0d99" x="32.243607" y="102.809843" style="stroke: #000000; stroke-width: 0.8"/>
      </g>
     </g>
     <g id="text_7">
      <!-- 2.5 -->
      <g transform="translate(15.701732 105.089375) scale(0.06 -0.06)">
       <defs>
        <path id="DejaVuSans-32" d="M 1228 531 
L 3431 531 
L 3431 0 
L 469 0 
L 469 531 
Q 828 903 1448 1529 
Q 2069 2156 2228 2338 
Q 2531 2678 2651 2914 
Q 2772 3150 2772 3378 
Q 2772 3750 2511 3984 
Q 2250 4219 1831 4219 
Q 1534 4219 1204 4116 
Q 875 4013 500 3803 
L 500 4441 
Q 881 4594 1212 4672 
Q 1544 4750 1819 4750 
Q 2544 4750 2975 4387 
Q 3406 4025 3406 3419 
Q 3406 3131 3298 2873 
Q 3191 2616 2906 2266 
Q 2828 2175 2409 1742 
Q 1991 1309 1228 531 
z
" transform="scale(0.015625)"/>
        <path id="DejaVuSans-35" d="M 691 4666 
L 3169 4666 
L 3169 4134 
L 1269 4134 
L 1269 2991 
Q 1406 3038 1543 3061 
Q 1681 3084 1819 3084 
Q 2600 3084 3056 2656 
Q 3513 2228 3513 1497 
Q 3513 744 3044 326 
Q 2575 -91 1722 -91 
Q 1428 -91 1123 -41 
Q 819 9 494 109 
L 494 744 
Q 775 591 1075 516 
Q 1375 441 1709 441 
Q 2250 441 2565 725 
Q 2881 1009 2881 1497 
Q 2881 1984 2565 2268 
Q 2250 2553 1709 2553 
Q 1456 2553 1204 2497 
Q 953 2441 691 2322 
L 691 4666 
z
" transform="scale(0.015625)"/>
       </defs>
       <use xlink:href="#DejaVuSans-32"/>
       <use xlink:href="#DejaVuSans-2e" x="63.623047"/>
       <use xlink:href="#DejaVuSans-35" x="95.410156"/>
      </g>
     </g>
    </g>
    <g id="ytick_3">
     <g id="line2d_10">
      <path d="M 32.243607 86.652623 
L 229.531119 86.652623 
" clip-path="url(#p4e8d966445)" style="fill: none; stroke: #c5d5db; stroke-width: 0.8; stroke-linecap: square"/>
     </g>
     <g id="line2d_11">
      <g>
       <use xlink:href="#mc5161c0d99" x="32.243607" y="86.652623" style="stroke: #000000; stroke-width: 0.8"/>
      </g>
     </g>
     <g id="text_8">
      <!-- 5.0 -->
      <g transform="translate(15.701732 88.932154) scale(0.06 -0.06)">
       <use xlink:href="#DejaVuSans-35"/>
       <use xlink:href="#DejaVuSans-2e" x="63.623047"/>
       <use xlink:href="#DejaVuSans-30" x="95.410156"/>
      </g>
     </g>
    </g>
    <g id="ytick_4">
     <g id="line2d_12">
      <path d="M 32.243607 70.495402 
L 229.531119 70.495402 
" clip-path="url(#p4e8d966445)" style="fill: none; stroke: #c5d5db; stroke-width: 0.8; stroke-linecap: square"/>
     </g>
     <g id="line2d_13">
      <g>
       <use xlink:href="#mc5161c0d99" x="32.243607" y="70.495402" style="stroke: #000000; stroke-width: 0.8"/>
      </g>
     </g>
     <g id="text_9">
      <!-- 7.5 -->
      <g transform="translate(15.701732 72.774933) scale(0.06 -0.06)">
       <defs>
        <path id="DejaVuSans-37" d="M 525 4666 
L 3525 4666 
L 3525 4397 
L 1831 0 
L 1172 0 
L 2766 4134 
L 525 4134 
L 525 4666 
z
" transform="scale(0.015625)"/>
       </defs>
       <use xlink:href="#DejaVuSans-37"/>
       <use xlink:href="#DejaVuSans-2e" x="63.623047"/>
       <use xlink:href="#DejaVuSans-35" x="95.410156"/>
      </g>
     </g>
    </g>
    <g id="ytick_5">
     <g id="line2d_14">
      <path d="M 32.243607 54.338181 
L 229.531119 54.338181 
" clip-path="url(#p4e8d966445)" style="fill: none; stroke: #c5d5db; stroke-width: 0.8; stroke-linecap: square"/>
     </g>
     <g id="line2d_15">
      <g>
       <use xlink:href="#mc5161c0d99" x="32.243607" y="54.338181" style="stroke: #000000; stroke-width: 0.8"/>
      </g>
     </g>
     <g id="text_10">
      <!-- 10.0 -->
      <g transform="translate(11.884232 56.617713) scale(0.06 -0.06)">
       <defs>
        <path id="DejaVuSans-31" d="M 794 531 
L 1825 531 
L 1825 4091 
L 703 3866 
L 703 4441 
L 1819 4666 
L 2450 4666 
L 2450 531 
L 3481 531 
L 3481 0 
L 794 0 
L 794 531 
z
" transform="scale(0.015625)"/>
       </defs>
       <use xlink:href="#DejaVuSans-31"/>
       <use xlink:href="#DejaVuSans-30" x="63.623047"/>
       <use xlink:href="#DejaVuSans-2e" x="127.246094"/>
       <use xlink:href="#DejaVuSans-30" x="159.033203"/>
      </g>
     </g>
    </g>
    <g id="ytick_6">
     <g id="line2d_16">
      <path d="M 32.243607 38.180961 
L 229.531119 38.180961 
" clip-path="url(#p4e8d966445)" style="fill: none; stroke: #c5d5db; stroke-width: 0.8; stroke-linecap: square"/>
     </g>
     <g id="line2d_17">
      <g>
       <use xlink:href="#mc5161c0d99" x="32.243607" y="38.180961" style="stroke: #000000; stroke-width: 0.8"/>
      </g>
     </g>
     <g id="text_11">
      <!-- 12.5 -->
      <g transform="translate(11.884232 40.460492) scale(0.06 -0.06)">
       <use xlink:href="#DejaVuSans-31"/>
       <use xlink:href="#DejaVuSans-32" x="63.623047"/>
       <use xlink:href="#DejaVuSans-2e" x="127.246094"/>
       <use xlink:href="#DejaVuSans-35" x="159.033203"/>
      </g>
     </g>
    </g>
    <g id="ytick_7">
     <g id="line2d_18">
      <path d="M 32.243607 22.02374 
L 229.531119 22.02374 
" clip-path="url(#p4e8d966445)" style="fill: none; stroke: #c5d5db; stroke-width: 0.8; stroke-linecap: square"/>
     </g>
     <g id="line2d_19">
      <g>
       <use xlink:href="#mc5161c0d99" x="32.243607" y="22.02374" style="stroke: #000000; stroke-width: 0.8"/>
      </g>
     </g>
     <g id="text_12">
      <!-- 15.0 -->
      <g transform="translate(11.884232 24.303271) scale(0.06 -0.06)">
       <use xlink:href="#DejaVuSans-31"/>
       <use xlink:href="#DejaVuSans-35" x="63.623047"/>
       <use xlink:href="#DejaVuSans-2e" x="127.246094"/>
       <use xlink:href="#DejaVuSans-30" x="159.033203"/>
      </g>
     </g>
    </g>
    <g id="text_13">
     <!-- prevalence [%] -->
     <g transform="translate(6.220482 95.928773) rotate(-90) scale(0.08 -0.08)">
      <defs>
       <path id="DejaVuSans-70" d="M 1159 525 
L 1159 -1331 
L 581 -1331 
L 581 3500 
L 1159 3500 
L 1159 2969 
Q 1341 3281 1617 3432 
Q 1894 3584 2278 3584 
Q 2916 3584 3314 3078 
Q 3713 2572 3713 1747 
Q 3713 922 3314 415 
Q 2916 -91 2278 -91 
Q 1894 -91 1617 61 
Q 1341 213 1159 525 
z
M 3116 1747 
Q 3116 2381 2855 2742 
Q 2594 3103 2138 3103 
Q 1681 3103 1420 2742 
Q 1159 2381 1159 1747 
Q 1159 1113 1420 752 
Q 1681 391 2138 391 
Q 2594 391 2855 752 
Q 3116 1113 3116 1747 
z
" transform="scale(0.015625)"/>
       <path id="DejaVuSans-72" d="M 2631 2963 
Q 2534 3019 2420 3045 
Q 2306 3072 2169 3072 
Q 1681 3072 1420 2755 
Q 1159 2438 1159 1844 
L 1159 0 
L 581 0 
L 581 3500 
L 1159 3500 
L 1159 2956 
Q 1341 3275 1631 3429 
Q 1922 3584 2338 3584 
Q 2397 3584 2469 3576 
Q 2541 3569 2628 3553 
L 2631 2963 
z
" transform="scale(0.015625)"/>
       <path id="DejaVuSans-65" d="M 3597 1894 
L 3597 1613 
L 953 1613 
Q 991 1019 1311 708 
Q 1631 397 2203 397 
Q 2534 397 2845 478 
Q 3156 559 3463 722 
L 3463 178 
Q 3153 47 2828 -22 
Q 2503 -91 2169 -91 
Q 1331 -91 842 396 
Q 353 884 353 1716 
Q 353 2575 817 3079 
Q 1281 3584 2069 3584 
Q 2775 3584 3186 3129 
Q 3597 2675 3597 1894 
z
M 3022 2063 
Q 3016 2534 2758 2815 
Q 2500 3097 2075 3097 
Q 1594 3097 1305 2825 
Q 1016 2553 972 2059 
L 3022 2063 
z
" transform="scale(0.015625)"/>
       <path id="DejaVuSans-76" d="M 191 3500 
L 800 3500 
L 1894 563 
L 2988 3500 
L 3597 3500 
L 2284 0 
L 1503 0 
L 191 3500 
z
" transform="scale(0.015625)"/>
       <path id="DejaVuSans-61" d="M 2194 1759 
Q 1497 1759 1228 1600 
Q 959 1441 959 1056 
Q 959 750 1161 570 
Q 1363 391 1709 391 
Q 2188 391 2477 730 
Q 2766 1069 2766 1631 
L 2766 1759 
L 2194 1759 
z
M 3341 1997 
L 3341 0 
L 2766 0 
L 2766 531 
Q 2569 213 2275 61 
Q 1981 -91 1556 -91 
Q 1019 -91 701 211 
Q 384 513 384 1019 
Q 384 1609 779 1909 
Q 1175 2209 1959 2209 
L 2766 2209 
L 2766 2266 
Q 2766 2663 2505 2880 
Q 2244 3097 1772 3097 
Q 1472 3097 1187 3025 
Q 903 2953 641 2809 
L 641 3341 
Q 956 3463 1253 3523 
Q 1550 3584 1831 3584 
Q 2591 3584 2966 3190 
Q 3341 2797 3341 1997 
z
" transform="scale(0.015625)"/>
       <path id="DejaVuSans-6c" d="M 603 4863 
L 1178 4863 
L 1178 0 
L 603 0 
L 603 4863 
z
" transform="scale(0.015625)"/>
       <path id="DejaVuSans-6e" d="M 3513 2113 
L 3513 0 
L 2938 0 
L 2938 2094 
Q 2938 2591 2744 2837 
Q 2550 3084 2163 3084 
Q 1697 3084 1428 2787 
Q 1159 2491 1159 1978 
L 1159 0 
L 581 0 
L 581 3500 
L 1159 3500 
L 1159 2956 
Q 1366 3272 1645 3428 
Q 1925 3584 2291 3584 
Q 2894 3584 3203 3211 
Q 3513 2838 3513 2113 
z
" transform="scale(0.015625)"/>
       <path id="DejaVuSans-63" d="M 3122 3366 
L 3122 2828 
Q 2878 2963 2633 3030 
Q 2388 3097 2138 3097 
Q 1578 3097 1268 2742 
Q 959 2388 959 1747 
Q 959 1106 1268 751 
Q 1578 397 2138 397 
Q 2388 397 2633 464 
Q 2878 531 3122 666 
L 3122 134 
Q 2881 22 2623 -34 
Q 2366 -91 2075 -91 
Q 1284 -91 818 406 
Q 353 903 353 1747 
Q 353 2603 823 3093 
Q 1294 3584 2113 3584 
Q 2378 3584 2631 3529 
Q 2884 3475 3122 3366 
z
" transform="scale(0.015625)"/>
       <path id="DejaVuSans-20" transform="scale(0.015625)"/>
       <path id="DejaVuSans-5b" d="M 550 4863 
L 1875 4863 
L 1875 4416 
L 1125 4416 
L 1125 -397 
L 1875 -397 
L 1875 -844 
L 550 -844 
L 550 4863 
z
" transform="scale(0.015625)"/>
       <path id="DejaVuSans-25" d="M 4653 2053 
Q 4381 2053 4226 1822 
Q 4072 1591 4072 1178 
Q 4072 772 4226 539 
Q 4381 306 4653 306 
Q 4919 306 5073 539 
Q 5228 772 5228 1178 
Q 5228 1588 5073 1820 
Q 4919 2053 4653 2053 
z
M 4653 2450 
Q 5147 2450 5437 2106 
Q 5728 1763 5728 1178 
Q 5728 594 5436 251 
Q 5144 -91 4653 -91 
Q 4153 -91 3862 251 
Q 3572 594 3572 1178 
Q 3572 1766 3864 2108 
Q 4156 2450 4653 2450 
z
M 1428 4353 
Q 1159 4353 1004 4120 
Q 850 3888 850 3481 
Q 850 3069 1003 2837 
Q 1156 2606 1428 2606 
Q 1700 2606 1854 2837 
Q 2009 3069 2009 3481 
Q 2009 3884 1853 4118 
Q 1697 4353 1428 4353 
z
M 4250 4750 
L 4750 4750 
L 1831 -91 
L 1331 -91 
L 4250 4750 
z
M 1428 4750 
Q 1922 4750 2215 4408 
Q 2509 4066 2509 3481 
Q 2509 2891 2217 2550 
Q 1925 2209 1428 2209 
Q 931 2209 642 2551 
Q 353 2894 353 3481 
Q 353 4063 643 4406 
Q 934 4750 1428 4750 
z
" transform="scale(0.015625)"/>
       <path id="DejaVuSans-5d" d="M 1947 4863 
L 1947 -844 
L 622 -844 
L 622 -397 
L 1369 -397 
L 1369 4416 
L 622 4416 
L 622 4863 
L 1947 4863 
z
" transform="scale(0.015625)"/>
      </defs>
      <use xlink:href="#DejaVuSans-70"/>
      <use xlink:href="#DejaVuSans-72" x="63.476562"/>
      <use xlink:href="#DejaVuSans-65" x="102.339844"/>
      <use xlink:href="#DejaVuSans-76" x="163.863281"/>
      <use xlink:href="#DejaVuSans-61" x="223.042969"/>
      <use xlink:href="#DejaVuSans-6c" x="284.322266"/>
      <use xlink:href="#DejaVuSans-65" x="312.105469"/>
      <use xlink:href="#DejaVuSans-6e" x="373.628906"/>
      <use xlink:href="#DejaVuSans-63" x="437.007812"/>
      <use xlink:href="#DejaVuSans-65" x="491.988281"/>
      <use xlink:href="#DejaVuSans-20" x="553.511719"/>
      <use xlink:href="#DejaVuSans-5b" x="585.298828"/>
      <use xlink:href="#DejaVuSans-25" x="624.3125"/>
      <use xlink:href="#DejaVuSans-5d" x="719.332031"/>
     </g>
    </g>
   </g>
   <g id="patch_3">
    <path d="M 52.191974 118.967064 
L 74.153478 118.967064 
L 74.153478 111.705392 
L 52.191974 111.705392 
z
" clip-path="url(#p4e8d966445)" style="fill: #ae0060"/>
   </g>
   <g id="patch_4">
    <path d="M 88.79448 118.967064 
L 110.755985 118.967064 
L 110.755985 17.303653 
L 88.79448 17.303653 
z
" clip-path="url(#p4e8d966445)" style="fill: #ae0060"/>
   </g>
   <g id="patch_5">
    <path d="M 125.396987 118.967064 
L 147.358491 118.967064 
L 147.358491 97.182047 
L 125.396987 97.182047 
z
" clip-path="url(#p4e8d966445)" style="fill: #ae0060"/>
   </g>
   <g id="patch_6">
    <path d="M 161.999494 118.967064 
L 183.960998 118.967064 
L 183.960998 97.182047 
L 161.999494 97.182047 
z
" clip-path="url(#p4e8d966445)" style="fill: #ae0060"/>
   </g>
   <g id="patch_7">
    <path d="M 198.602001 118.967064 
L 220.563505 118.967064 
L 220.563505 111.705392 
L 198.602001 111.705392 
z
" clip-path="url(#p4e8d966445)" style="fill: #ae0060"/>
   </g>
   <g id="patch_8">
    <path d="M 48.531723 118.967064 
L 70.493227 118.967064 
L 70.493227 99.529806 
L 48.531723 99.529806 
z
" clip-path="url(#p4e8d966445)" style="fill: #f17900"/>
   </g>
   <g id="patch_9">
    <path d="M 85.13423 118.967064 
L 107.095734 118.967064 
L 107.095734 31.499403 
L 85.13423 31.499403 
z
" clip-path="url(#p4e8d966445)" style="fill: #f17900"/>
   </g>
   <g id="patch_10">
    <path d="M 121.736737 118.967064 
L 143.698241 118.967064 
L 143.698241 84.951863 
L 121.736737 84.951863 
z
" clip-path="url(#p4e8d966445)" style="fill: #f17900"/>
   </g>
   <g id="patch_11">
    <path d="M 158.339244 118.967064 
L 180.300748 118.967064 
L 180.300748 99.529806 
L 158.339244 99.529806 
z
" clip-path="url(#p4e8d966445)" style="fill: #f17900"/>
   </g>
   <g id="patch_12">
    <path d="M 194.94175 118.967064 
L 216.903254 118.967064 
L 216.903254 109.248435 
L 194.94175 109.248435 
z
" clip-path="url(#p4e8d966445)" style="fill: #f17900"/>
   </g>
   <g id="patch_13">
    <path d="M 44.871472 118.967064 
L 66.832976 118.967064 
L 66.832976 116.591002 
L 44.871472 116.591002 
z
" clip-path="url(#p4e8d966445)" style="fill: #005ea8"/>
   </g>
   <g id="patch_14">
    <path d="M 81.473979 118.967064 
L 103.435483 118.967064 
L 103.435483 61.941579 
L 81.473979 61.941579 
z
" clip-path="url(#p4e8d966445)" style="fill: #005ea8"/>
   </g>
   <g id="patch_15">
    <path d="M 118.076486 118.967064 
L 140.03799 118.967064 
L 140.03799 107.086755 
L 118.076486 107.086755 
z
" clip-path="url(#p4e8d966445)" style="fill: #005ea8"/>
   </g>
   <g id="patch_16">
    <path d="M 154.678993 118.967064 
L 176.640497 118.967064 
L 176.640497 109.462817 
L 154.678993 109.462817 
z
" clip-path="url(#p4e8d966445)" style="fill: #005ea8"/>
   </g>
   <g id="patch_17">
    <path d="M 191.2815 118.967064 
L 213.243004 118.967064 
L 213.243004 116.591002 
L 191.2815 116.591002 
z
" clip-path="url(#p4e8d966445)" style="fill: #005ea8"/>
   </g>
   <g id="patch_18">
    <path d="M 41.211222 118.967064 
L 63.172726 118.967064 
L 63.172726 118.967064 
L 41.211222 118.967064 
z
" clip-path="url(#p4e8d966445)" style="fill: #00afa5"/>
   </g>
   <g id="patch_19">
    <path d="M 77.813728 118.967064 
L 99.775233 118.967064 
L 99.775233 111.27315 
L 77.813728 111.27315 
z
" clip-path="url(#p4e8d966445)" style="fill: #00afa5"/>
   </g>
   <g id="patch_20">
    <path d="M 114.416235 118.967064 
L 136.377739 118.967064 
L 136.377739 118.967064 
L 114.416235 118.967064 
z
" clip-path="url(#p4e8d966445)" style="fill: #00afa5"/>
   </g>
   <g id="patch_21">
    <path d="M 151.018742 118.967064 
L 172.980246 118.967064 
L 172.980246 118.967064 
L 151.018742 118.967064 
z
" clip-path="url(#p4e8d966445)" style="fill: #00afa5"/>
   </g>
   <g id="patch_22">
    <path d="M 187.621249 118.967064 
L 209.582753 118.967064 
L 209.582753 118.967064 
L 187.621249 118.967064 
z
" clip-path="url(#p4e8d966445)" style="fill: #00afa5"/>
   </g>
   <g id="patch_23">
    <path d="M 32.243607 118.967064 
L 32.243607 12.220482 
" style="fill: none; stroke: #000000; stroke-width: 0.8; stroke-linejoin: miter; stroke-linecap: square"/>
   </g>
   <g id="patch_24">
    <path d="M 229.531119 118.967064 
L 229.531119 12.220482 
" style="fill: none; stroke: #000000; stroke-width: 0.8; stroke-linejoin: miter; stroke-linecap: square"/>
   </g>
   <g id="patch_25">
    <path d="M 32.243607 118.967064 
L 229.531119 118.967064 
" style="fill: none; stroke: #000000; stroke-width: 0.8; stroke-linejoin: miter; stroke-linecap: square"/>
   </g>
   <g id="patch_26">
    <path d="M 32.243607 12.220482 
L 229.531119 12.220482 
" style="fill: none; stroke: #000000; stroke-width: 0.8; stroke-linejoin: miter; stroke-linecap: square"/>
   </g>
   <g id="text_14">
    <!-- Contra involvement for lateralized tumors -->
    <g transform="translate(46.816113 6.220482) scale(0.08 -0.08)">
     <defs>
      <path id="DejaVuSans-43" d="M 4122 4306 
L 4122 3641 
Q 3803 3938 3442 4084 
Q 3081 4231 2675 4231 
Q 1875 4231 1450 3742 
Q 1025 3253 1025 2328 
Q 1025 1406 1450 917 
Q 1875 428 2675 428 
Q 3081 428 3442 575 
Q 3803 722 4122 1019 
L 4122 359 
Q 3791 134 3420 21 
Q 3050 -91 2638 -91 
Q 1578 -91 968 557 
Q 359 1206 359 2328 
Q 359 3453 968 4101 
Q 1578 4750 2638 4750 
Q 3056 4750 3426 4639 
Q 3797 4528 4122 4306 
z
" transform="scale(0.015625)"/>
      <path id="DejaVuSans-6f" d="M 1959 3097 
Q 1497 3097 1228 2736 
Q 959 2375 959 1747 
Q 959 1119 1226 758 
Q 1494 397 1959 397 
Q 2419 397 2687 759 
Q 2956 1122 2956 1747 
Q 2956 2369 2687 2733 
Q 2419 3097 1959 3097 
z
M 1959 3584 
Q 2709 3584 3137 3096 
Q 3566 2609 3566 1747 
Q 3566 888 3137 398 
Q 2709 -91 1959 -91 
Q 1206 -91 779 398 
Q 353 888 353 1747 
Q 353 2609 779 3096 
Q 1206 3584 1959 3584 
z
" transform="scale(0.015625)"/>
      <path id="DejaVuSans-74" d="M 1172 4494 
L 1172 3500 
L 2356 3500 
L 2356 3053 
L 1172 3053 
L 1172 1153 
Q 1172 725 1289 603 
Q 1406 481 1766 481 
L 2356 481 
L 2356 0 
L 1766 0 
Q 1100 0 847 248 
Q 594 497 594 1153 
L 594 3053 
L 172 3053 
L 172 3500 
L 594 3500 
L 594 4494 
L 1172 4494 
z
" transform="scale(0.015625)"/>
      <path id="DejaVuSans-69" d="M 603 3500 
L 1178 3500 
L 1178 0 
L 603 0 
L 603 3500 
z
M 603 4863 
L 1178 4863 
L 1178 4134 
L 603 4134 
L 603 4863 
z
" transform="scale(0.015625)"/>
      <path id="DejaVuSans-6d" d="M 3328 2828 
Q 3544 3216 3844 3400 
Q 4144 3584 4550 3584 
Q 5097 3584 5394 3201 
Q 5691 2819 5691 2113 
L 5691 0 
L 5113 0 
L 5113 2094 
Q 5113 2597 4934 2840 
Q 4756 3084 4391 3084 
Q 3944 3084 3684 2787 
Q 3425 2491 3425 1978 
L 3425 0 
L 2847 0 
L 2847 2094 
Q 2847 2600 2669 2842 
Q 2491 3084 2119 3084 
Q 1678 3084 1418 2786 
Q 1159 2488 1159 1978 
L 1159 0 
L 581 0 
L 581 3500 
L 1159 3500 
L 1159 2956 
Q 1356 3278 1631 3431 
Q 1906 3584 2284 3584 
Q 2666 3584 2933 3390 
Q 3200 3197 3328 2828 
z
" transform="scale(0.015625)"/>
      <path id="DejaVuSans-66" d="M 2375 4863 
L 2375 4384 
L 1825 4384 
Q 1516 4384 1395 4259 
Q 1275 4134 1275 3809 
L 1275 3500 
L 2222 3500 
L 2222 3053 
L 1275 3053 
L 1275 0 
L 697 0 
L 697 3053 
L 147 3053 
L 147 3500 
L 697 3500 
L 697 3744 
Q 697 4328 969 4595 
Q 1241 4863 1831 4863 
L 2375 4863 
z
" transform="scale(0.015625)"/>
      <path id="DejaVuSans-7a" d="M 353 3500 
L 3084 3500 
L 3084 2975 
L 922 459 
L 3084 459 
L 3084 0 
L 275 0 
L 275 525 
L 2438 3041 
L 353 3041 
L 353 3500 
z
" transform="scale(0.015625)"/>
      <path id="DejaVuSans-64" d="M 2906 2969 
L 2906 4863 
L 3481 4863 
L 3481 0 
L 2906 0 
L 2906 525 
Q 2725 213 2448 61 
Q 2172 -91 1784 -91 
Q 1150 -91 751 415 
Q 353 922 353 1747 
Q 353 2572 751 3078 
Q 1150 3584 1784 3584 
Q 2172 3584 2448 3432 
Q 2725 3281 2906 2969 
z
M 947 1747 
Q 947 1113 1208 752 
Q 1469 391 1925 391 
Q 2381 391 2643 752 
Q 2906 1113 2906 1747 
Q 2906 2381 2643 2742 
Q 2381 3103 1925 3103 
Q 1469 3103 1208 2742 
Q 947 2381 947 1747 
z
" transform="scale(0.015625)"/>
      <path id="DejaVuSans-75" d="M 544 1381 
L 544 3500 
L 1119 3500 
L 1119 1403 
Q 1119 906 1312 657 
Q 1506 409 1894 409 
Q 2359 409 2629 706 
Q 2900 1003 2900 1516 
L 2900 3500 
L 3475 3500 
L 3475 0 
L 2900 0 
L 2900 538 
Q 2691 219 2414 64 
Q 2138 -91 1772 -91 
Q 1169 -91 856 284 
Q 544 659 544 1381 
z
M 1991 3584 
L 1991 3584 
z
" transform="scale(0.015625)"/>
      <path id="DejaVuSans-73" d="M 2834 3397 
L 2834 2853 
Q 2591 2978 2328 3040 
Q 2066 3103 1784 3103 
Q 1356 3103 1142 2972 
Q 928 2841 928 2578 
Q 928 2378 1081 2264 
Q 1234 2150 1697 2047 
L 1894 2003 
Q 2506 1872 2764 1633 
Q 3022 1394 3022 966 
Q 3022 478 2636 193 
Q 2250 -91 1575 -91 
Q 1294 -91 989 -36 
Q 684 19 347 128 
L 347 722 
Q 666 556 975 473 
Q 1284 391 1588 391 
Q 1994 391 2212 530 
Q 2431 669 2431 922 
Q 2431 1156 2273 1281 
Q 2116 1406 1581 1522 
L 1381 1569 
Q 847 1681 609 1914 
Q 372 2147 372 2553 
Q 372 3047 722 3315 
Q 1072 3584 1716 3584 
Q 2034 3584 2315 3537 
Q 2597 3491 2834 3397 
z
" transform="scale(0.015625)"/>
     </defs>
     <use xlink:href="#DejaVuSans-43"/>
     <use xlink:href="#DejaVuSans-6f" x="69.824219"/>
     <use xlink:href="#DejaVuSans-6e" x="131.005859"/>
     <use xlink:href="#DejaVuSans-74" x="194.384766"/>
     <use xlink:href="#DejaVuSans-72" x="233.59375"/>
     <use xlink:href="#DejaVuSans-61" x="274.707031"/>
     <use xlink:href="#DejaVuSans-20" x="335.986328"/>
     <use xlink:href="#DejaVuSans-69" x="367.773438"/>
     <use xlink:href="#DejaVuSans-6e" x="395.556641"/>
     <use xlink:href="#DejaVuSans-76" x="458.935547"/>
     <use xlink:href="#DejaVuSans-6f" x="518.115234"/>
     <use xlink:href="#DejaVuSans-6c" x="579.296875"/>
     <use xlink:href="#DejaVuSans-76" x="607.080078"/>
     <use xlink:href="#DejaVuSans-65" x="666.259766"/>
     <use xlink:href="#DejaVuSans-6d" x="727.783203"/>
     <use xlink:href="#DejaVuSans-65" x="825.195312"/>
     <use xlink:href="#DejaVuSans-6e" x="886.71875"/>
     <use xlink:href="#DejaVuSans-74" x="950.097656"/>
     <use xlink:href="#DejaVuSans-20" x="989.306641"/>
     <use xlink:href="#DejaVuSans-66" x="1021.09375"/>
     <use xlink:href="#DejaVuSans-6f" x="1056.298828"/>
     <use xlink:href="#DejaVuSans-72" x="1117.480469"/>
     <use xlink:href="#DejaVuSans-20" x="1158.59375"/>
     <use xlink:href="#DejaVuSans-6c" x="1190.380859"/>
     <use xlink:href="#DejaVuSans-61" x="1218.164062"/>
     <use xlink:href="#DejaVuSans-74" x="1279.443359"/>
     <use xlink:href="#DejaVuSans-65" x="1318.652344"/>
     <use xlink:href="#DejaVuSans-72" x="1380.175781"/>
     <use xlink:href="#DejaVuSans-61" x="1421.289062"/>
     <use xlink:href="#DejaVuSans-6c" x="1482.568359"/>
     <use xlink:href="#DejaVuSans-69" x="1510.351562"/>
     <use xlink:href="#DejaVuSans-7a" x="1538.134766"/>
     <use xlink:href="#DejaVuSans-65" x="1590.625"/>
     <use xlink:href="#DejaVuSans-64" x="1652.148438"/>
     <use xlink:href="#DejaVuSans-20" x="1715.625"/>
     <use xlink:href="#DejaVuSans-74" x="1747.412109"/>
     <use xlink:href="#DejaVuSans-75" x="1786.621094"/>
     <use xlink:href="#DejaVuSans-6d" x="1850"/>
     <use xlink:href="#DejaVuSans-6f" x="1947.412109"/>
     <use xlink:href="#DejaVuSans-72" x="2008.59375"/>
     <use xlink:href="#DejaVuSans-73" x="2049.707031"/>
    </g>
   </g>
   <g id="legend_1">
    <g id="patch_27">
     <path d="M 151.022057 52.247982 
L 225.331119 52.247982 
Q 226.531119 52.247982 226.531119 51.047982 
L 226.531119 16.420482 
Q 226.531119 15.220482 225.331119 15.220482 
L 151.022057 15.220482 
Q 149.822057 15.220482 149.822057 16.420482 
L 149.822057 51.047982 
Q 149.822057 52.247982 151.022057 52.247982 
z
" style="fill: #ffffff; opacity: 0.8; stroke: #cccccc; stroke-linejoin: miter"/>
    </g>
    <g id="patch_28">
     <path d="M 152.222057 22.179545 
L 164.222057 22.179545 
L 164.222057 17.979545 
L 152.222057 17.979545 
z
" style="fill: #ae0060"/>
    </g>
    <g id="text_15">
     <!-- early; ipsi II and III -->
     <g transform="translate(169.022057 22.179545) scale(0.06 -0.06)">
      <defs>
       <path id="DejaVuSans-79" d="M 2059 -325 
Q 1816 -950 1584 -1140 
Q 1353 -1331 966 -1331 
L 506 -1331 
L 506 -850 
L 844 -850 
Q 1081 -850 1212 -737 
Q 1344 -625 1503 -206 
L 1606 56 
L 191 3500 
L 800 3500 
L 1894 763 
L 2988 3500 
L 3597 3500 
L 2059 -325 
z
" transform="scale(0.015625)"/>
       <path id="DejaVuSans-3b" d="M 750 3309 
L 1409 3309 
L 1409 2516 
L 750 2516 
L 750 3309 
z
M 750 794 
L 1409 794 
L 1409 256 
L 897 -744 
L 494 -744 
L 750 256 
L 750 794 
z
" transform="scale(0.015625)"/>
      </defs>
      <use xlink:href="#DejaVuSans-65"/>
      <use xlink:href="#DejaVuSans-61" x="61.523438"/>
      <use xlink:href="#DejaVuSans-72" x="122.802734"/>
      <use xlink:href="#DejaVuSans-6c" x="163.916016"/>
      <use xlink:href="#DejaVuSans-79" x="191.699219"/>
      <use xlink:href="#DejaVuSans-3b" x="250.878906"/>
      <use xlink:href="#DejaVuSans-20" x="284.570312"/>
      <use xlink:href="#DejaVuSans-69" x="316.357422"/>
      <use xlink:href="#DejaVuSans-70" x="344.140625"/>
      <use xlink:href="#DejaVuSans-73" x="407.617188"/>
      <use xlink:href="#DejaVuSans-69" x="459.716797"/>
      <use xlink:href="#DejaVuSans-20" x="487.5"/>
      <use xlink:href="#DejaVuSans-49" x="519.287109"/>
      <use xlink:href="#DejaVuSans-49" x="548.779297"/>
      <use xlink:href="#DejaVuSans-20" x="578.271484"/>
      <use xlink:href="#DejaVuSans-61" x="610.058594"/>
      <use xlink:href="#DejaVuSans-6e" x="671.337891"/>
      <use xlink:href="#DejaVuSans-64" x="734.716797"/>
      <use xlink:href="#DejaVuSans-20" x="798.193359"/>
      <use xlink:href="#DejaVuSans-49" x="829.980469"/>
      <use xlink:href="#DejaVuSans-49" x="859.472656"/>
      <use xlink:href="#DejaVuSans-49" x="888.964844"/>
     </g>
    </g>
    <g id="patch_29">
     <path d="M 152.222057 30.98642 
L 164.222057 30.98642 
L 164.222057 26.78642 
L 152.222057 26.78642 
z
" style="fill: #f17900"/>
    </g>
    <g id="text_16">
     <!-- late; ipsi II -->
     <g transform="translate(169.022057 30.98642) scale(0.06 -0.06)">
      <use xlink:href="#DejaVuSans-6c"/>
      <use xlink:href="#DejaVuSans-61" x="27.783203"/>
      <use xlink:href="#DejaVuSans-74" x="89.0625"/>
      <use xlink:href="#DejaVuSans-65" x="128.271484"/>
      <use xlink:href="#DejaVuSans-3b" x="189.794922"/>
      <use xlink:href="#DejaVuSans-20" x="223.486328"/>
      <use xlink:href="#DejaVuSans-69" x="255.273438"/>
      <use xlink:href="#DejaVuSans-70" x="283.056641"/>
      <use xlink:href="#DejaVuSans-73" x="346.533203"/>
      <use xlink:href="#DejaVuSans-69" x="398.632812"/>
      <use xlink:href="#DejaVuSans-20" x="426.416016"/>
      <use xlink:href="#DejaVuSans-49" x="458.203125"/>
      <use xlink:href="#DejaVuSans-49" x="487.695312"/>
     </g>
    </g>
    <g id="patch_30">
     <path d="M 152.222057 39.793295 
L 164.222057 39.793295 
L 164.222057 35.593295 
L 152.222057 35.593295 
z
" style="fill: #005ea8"/>
    </g>
    <g id="text_17">
     <!-- early; ipsi II -->
     <g transform="translate(169.022057 39.793295) scale(0.06 -0.06)">
      <use xlink:href="#DejaVuSans-65"/>
      <use xlink:href="#DejaVuSans-61" x="61.523438"/>
      <use xlink:href="#DejaVuSans-72" x="122.802734"/>
      <use xlink:href="#DejaVuSans-6c" x="163.916016"/>
      <use xlink:href="#DejaVuSans-79" x="191.699219"/>
      <use xlink:href="#DejaVuSans-3b" x="250.878906"/>
      <use xlink:href="#DejaVuSans-20" x="284.570312"/>
      <use xlink:href="#DejaVuSans-69" x="316.357422"/>
      <use xlink:href="#DejaVuSans-70" x="344.140625"/>
      <use xlink:href="#DejaVuSans-73" x="407.617188"/>
      <use xlink:href="#DejaVuSans-69" x="459.716797"/>
      <use xlink:href="#DejaVuSans-20" x="487.5"/>
      <use xlink:href="#DejaVuSans-49" x="519.287109"/>
      <use xlink:href="#DejaVuSans-49" x="548.779297"/>
     </g>
    </g>
    <g id="patch_31">
     <path d="M 152.222057 48.60017 
L 164.222057 48.60017 
L 164.222057 44.40017 
L 152.222057 44.40017 
z
" style="fill: #00afa5"/>
    </g>
    <g id="text_18">
     <!-- early; ipsi N0 -->
     <g transform="translate(169.022057 48.60017) scale(0.06 -0.06)">
      <defs>
       <path id="DejaVuSans-4e" d="M 628 4666 
L 1478 4666 
L 3547 763 
L 3547 4666 
L 4159 4666 
L 4159 0 
L 3309 0 
L 1241 3903 
L 1241 0 
L 628 0 
L 628 4666 
z
" transform="scale(0.015625)"/>
      </defs>
      <use xlink:href="#DejaVuSans-65"/>
      <use xlink:href="#DejaVuSans-61" x="61.523438"/>
      <use xlink:href="#DejaVuSans-72" x="122.802734"/>
      <use xlink:href="#DejaVuSans-6c" x="163.916016"/>
      <use xlink:href="#DejaVuSans-79" x="191.699219"/>
      <use xlink:href="#DejaVuSans-3b" x="250.878906"/>
      <use xlink:href="#DejaVuSans-20" x="284.570312"/>
      <use xlink:href="#DejaVuSans-69" x="316.357422"/>
      <use xlink:href="#DejaVuSans-70" x="344.140625"/>
      <use xlink:href="#DejaVuSans-73" x="407.617188"/>
      <use xlink:href="#DejaVuSans-69" x="459.716797"/>
      <use xlink:href="#DejaVuSans-20" x="487.5"/>
      <use xlink:href="#DejaVuSans-4e" x="519.287109"/>
      <use xlink:href="#DejaVuSans-30" x="594.091797"/>
     </g>
    </g>
   </g>
  </g>
 </g>
 <defs>
  <clipPath id="p4e8d966445">
   <rect x="32.243607" y="12.220482" width="197.287512" height="106.746582"/>
  </clipPath>
 </defs>
</svg>
