<?xml version="1.0" encoding="utf-8" standalone="no"?>
<!DOCTYPE svg PUBLIC "-//W3C//DTD SVG 1.1//EN"
  "http://www.w3.org/Graphics/SVG/1.1/DTD/svg11.dtd">
<svg xmlns:xlink="http://www.w3.org/1999/xlink" width="464.893489pt" height="116.22387pt" viewBox="0 0 464.893489 116.22387" xmlns="http://www.w3.org/2000/svg" version="1.1">
 <metadata>
  <rdf:RDF xmlns:dc="http://purl.org/dc/elements/1.1/" xmlns:cc="http://creativecommons.org/ns#" xmlns:rdf="http://www.w3.org/1999/02/22-rdf-syntax-ns#">
   <cc:Work>
    <dc:type rdf:resource="http://purl.org/dc/dcmitype/StillImage"/>
    <dc:date>2024-08-20T16:24:58.551617</dc:date>
    <dc:format>image/svg+xml</dc:format>
    <dc:creator>
     <cc:Agent>
      <dc:title>Matplotlib v3.9.0, https://matplotlib.org/</dc:title>
     </cc:Agent>
    </dc:creator>
   </cc:Work>
  </rdf:RDF>
 </metadata>
 <defs>
  <style type="text/css">*{stroke-linejoin: round; stroke-linecap: butt}</style>
 </defs>
 <g id="figure_1">
  <g id="patch_1">
   <path d="M 0 116.22387 
L 464.893489 116.22387 
L 464.893489 0 
L 0 0 
z
" style="fill: #ffffff"/>
  </g>
  <g id="axes_1">
   <g id="patch_2">
    <path d="M 14.776732 91.339637 
L 156.675074 91.339637 
L 156.675074 12.220482 
L 14.776732 12.220482 
z
" style="fill: #ffffff"/>
   </g>
   <g id="matplotlib.axis_1">
    <g id="xtick_1">
     <g id="line2d_1">
      <defs>
       <path id="madfa31fe0b" d="M 0 0 
L 0 3.5 
" style="stroke: #000000; stroke-width: 0.8"/>
      </defs>
      <g>
       <use xlink:href="#madfa31fe0b" x="25.419108" y="91.339637" style="stroke: #000000; stroke-width: 0.8"/>
      </g>
     </g>
     <g id="text_1">
      <!-- I -->
      <g transform="translate(24.534108 102.8987) scale(0.06 -0.06)">
       <defs>
        <path id="DejaVuSans-49" d="M 628 4666 
L 1259 4666 
L 1259 0 
L 628 0 
L 628 4666 
z
" transform="scale(0.015625)"/>
       </defs>
       <use xlink:href="#DejaVuSans-49"/>
      </g>
     </g>
    </g>
    <g id="xtick_2">
     <g id="line2d_2">
      <g>
       <use xlink:href="#madfa31fe0b" x="53.798776" y="91.339637" style="stroke: #000000; stroke-width: 0.8"/>
      </g>
     </g>
     <g id="text_2">
      <!-- II -->
      <g transform="translate(52.028776 102.8987) scale(0.06 -0.06)">
       <use xlink:href="#DejaVuSans-49"/>
       <use xlink:href="#DejaVuSans-49" x="29.492188"/>
      </g>
     </g>
    </g>
    <g id="xtick_3">
     <g id="line2d_3">
      <g>
       <use xlink:href="#madfa31fe0b" x="82.178444" y="91.339637" style="stroke: #000000; stroke-width: 0.8"/>
      </g>
     </g>
     <g id="text_3">
      <!-- III -->
      <g transform="translate(79.523444 102.8987) scale(0.06 -0.06)">
       <use xlink:href="#DejaVuSans-49"/>
       <use xlink:href="#DejaVuSans-49" x="29.492188"/>
       <use xlink:href="#DejaVuSans-49" x="58.984375"/>
      </g>
     </g>
    </g>
    <g id="xtick_4">
     <g id="line2d_4">
      <g>
       <use xlink:href="#madfa31fe0b" x="110.558113" y="91.339637" style="stroke: #000000; stroke-width: 0.8"/>
      </g>
     </g>
     <g id="text_4">
      <!-- IV -->
      <g transform="translate(107.620925 102.8987) scale(0.06 -0.06)">
       <defs>
        <path id="DejaVuSans-56" d="M 1831 0 
L 50 4666 
L 709 4666 
L 2188 738 
L 3669 4666 
L 4325 4666 
L 2547 0 
L 1831 0 
z
" transform="scale(0.015625)"/>
       </defs>
       <use xlink:href="#DejaVuSans-49"/>
       <use xlink:href="#DejaVuSans-56" x="29.492188"/>
      </g>
     </g>
    </g>
    <g id="xtick_5">
     <g id="line2d_5">
      <g>
       <use xlink:href="#madfa31fe0b" x="138.937781" y="91.339637" style="stroke: #000000; stroke-width: 0.8"/>
      </g>
     </g>
     <g id="text_5">
      <!-- V -->
      <g transform="translate(136.885594 102.8987) scale(0.06 -0.06)">
       <use xlink:href="#DejaVuSans-56"/>
      </g>
     </g>
    </g>
   </g>
   <g id="matplotlib.axis_2">
    <g id="ytick_1">
     <g id="line2d_6">
      <path d="M 14.776732 91.339637 
L 156.675074 91.339637 
" clip-path="url(#pb54653599b)" style="fill: none; stroke: #c5d5db; stroke-width: 0.8; stroke-linecap: square"/>
     </g>
     <g id="line2d_7">
      <defs>
       <path id="m2a390b419c" d="M 0 0 
L -3.5 0 
" style="stroke: #000000; stroke-width: 0.8"/>
      </defs>
      <g>
       <use xlink:href="#m2a390b419c" x="14.776732" y="91.339637" style="stroke: #000000; stroke-width: 0.8"/>
      </g>
     </g>
     <g id="text_6">
      <!-- 0 -->
      <g transform="translate(3.959232 93.619169) scale(0.06 -0.06)">
       <defs>
        <path id="DejaVuSans-30" d="M 2034 4250 
Q 1547 4250 1301 3770 
Q 1056 3291 1056 2328 
Q 1056 1369 1301 889 
Q 1547 409 2034 409 
Q 2525 409 2770 889 
Q 3016 1369 3016 2328 
Q 3016 3291 2770 3770 
Q 2525 4250 2034 4250 
z
M 2034 4750 
Q 2819 4750 3233 4129 
Q 3647 3509 3647 2328 
Q 3647 1150 3233 529 
Q 2819 -91 2034 -91 
Q 1250 -91 836 529 
Q 422 1150 422 2328 
Q 422 3509 836 4129 
Q 1250 4750 2034 4750 
z
" transform="scale(0.015625)"/>
       </defs>
       <use xlink:href="#DejaVuSans-30"/>
      </g>
     </g>
    </g>
    <g id="ytick_2">
     <g id="line2d_8">
      <path d="M 14.776732 71.417919 
L 156.675074 71.417919 
" clip-path="url(#pb54653599b)" style="fill: none; stroke: #c5d5db; stroke-width: 0.8; stroke-linecap: square"/>
     </g>
     <g id="line2d_9">
      <g>
       <use xlink:href="#m2a390b419c" x="14.776732" y="71.417919" style="stroke: #000000; stroke-width: 0.8"/>
      </g>
     </g>
     <g id="text_7">
      <!-- 10 -->
      <g transform="translate(0.141732 73.697451) scale(0.06 -0.06)">
       <defs>
        <path id="DejaVuSans-31" d="M 794 531 
L 1825 531 
L 1825 4091 
L 703 3866 
L 703 4441 
L 1819 4666 
L 2450 4666 
L 2450 531 
L 3481 531 
L 3481 0 
L 794 0 
L 794 531 
z
" transform="scale(0.015625)"/>
       </defs>
       <use xlink:href="#DejaVuSans-31"/>
       <use xlink:href="#DejaVuSans-30" x="63.623047"/>
      </g>
     </g>
    </g>
    <g id="ytick_3">
     <g id="line2d_10">
      <path d="M 14.776732 51.496201 
L 156.675074 51.496201 
" clip-path="url(#pb54653599b)" style="fill: none; stroke: #c5d5db; stroke-width: 0.8; stroke-linecap: square"/>
     </g>
     <g id="line2d_11">
      <g>
       <use xlink:href="#m2a390b419c" x="14.776732" y="51.496201" style="stroke: #000000; stroke-width: 0.8"/>
      </g>
     </g>
     <g id="text_8">
      <!-- 20 -->
      <g transform="translate(0.141732 53.775732) scale(0.06 -0.06)">
       <defs>
        <path id="DejaVuSans-32" d="M 1228 531 
L 3431 531 
L 3431 0 
L 469 0 
L 469 531 
Q 828 903 1448 1529 
Q 2069 2156 2228 2338 
Q 2531 2678 2651 2914 
Q 2772 3150 2772 3378 
Q 2772 3750 2511 3984 
Q 2250 4219 1831 4219 
Q 1534 4219 1204 4116 
Q 875 4013 500 3803 
L 500 4441 
Q 881 4594 1212 4672 
Q 1544 4750 1819 4750 
Q 2544 4750 2975 4387 
Q 3406 4025 3406 3419 
Q 3406 3131 3298 2873 
Q 3191 2616 2906 2266 
Q 2828 2175 2409 1742 
Q 1991 1309 1228 531 
z
" transform="scale(0.015625)"/>
       </defs>
       <use xlink:href="#DejaVuSans-32"/>
       <use xlink:href="#DejaVuSans-30" x="63.623047"/>
      </g>
     </g>
    </g>
    <g id="ytick_4">
     <g id="line2d_12">
      <path d="M 14.776732 31.574483 
L 156.675074 31.574483 
" clip-path="url(#pb54653599b)" style="fill: none; stroke: #c5d5db; stroke-width: 0.8; stroke-linecap: square"/>
     </g>
     <g id="line2d_13">
      <g>
       <use xlink:href="#m2a390b419c" x="14.776732" y="31.574483" style="stroke: #000000; stroke-width: 0.8"/>
      </g>
     </g>
     <g id="text_9">
      <!-- 30 -->
      <g transform="translate(0.141732 33.854014) scale(0.06 -0.06)">
       <defs>
        <path id="DejaVuSans-33" d="M 2597 2516 
Q 3050 2419 3304 2112 
Q 3559 1806 3559 1356 
Q 3559 666 3084 287 
Q 2609 -91 1734 -91 
Q 1441 -91 1130 -33 
Q 819 25 488 141 
L 488 750 
Q 750 597 1062 519 
Q 1375 441 1716 441 
Q 2309 441 2620 675 
Q 2931 909 2931 1356 
Q 2931 1769 2642 2001 
Q 2353 2234 1838 2234 
L 1294 2234 
L 1294 2753 
L 1863 2753 
Q 2328 2753 2575 2939 
Q 2822 3125 2822 3475 
Q 2822 3834 2567 4026 
Q 2313 4219 1838 4219 
Q 1578 4219 1281 4162 
Q 984 4106 628 3988 
L 628 4550 
Q 988 4650 1302 4700 
Q 1616 4750 1894 4750 
Q 2613 4750 3031 4423 
Q 3450 4097 3450 3541 
Q 3450 3153 3228 2886 
Q 3006 2619 2597 2516 
z
" transform="scale(0.015625)"/>
       </defs>
       <use xlink:href="#DejaVuSans-33"/>
       <use xlink:href="#DejaVuSans-30" x="63.623047"/>
      </g>
     </g>
    </g>
   </g>
   <g id="patch_3">
    <path d="M 21.871649 91.339637 
L 36.061484 91.339637 
L 36.061484 86.912589 
L 21.871649 86.912589 
z
" clip-path="url(#pb54653599b)" style="fill: #f17900"/>
   </g>
   <g id="patch_4">
    <path d="M 50.251318 91.339637 
L 64.441152 91.339637 
L 64.441152 42.642104 
L 50.251318 42.642104 
z
" clip-path="url(#pb54653599b)" style="fill: #f17900"/>
   </g>
   <g id="patch_5">
    <path d="M 78.630986 91.339637 
L 92.82082 91.339637 
L 92.82082 74.738206 
L 78.630986 74.738206 
z
" clip-path="url(#pb54653599b)" style="fill: #f17900"/>
   </g>
   <g id="patch_6">
    <path d="M 107.010654 91.339637 
L 121.200488 91.339637 
L 121.200488 84.145684 
L 107.010654 84.145684 
z
" clip-path="url(#pb54653599b)" style="fill: #f17900"/>
   </g>
   <g id="patch_7">
    <path d="M 135.390322 91.339637 
L 149.580157 91.339637 
L 149.580157 88.019351 
L 135.390322 88.019351 
z
" clip-path="url(#pb54653599b)" style="fill: #f17900"/>
   </g>
   <g id="patch_8">
    <path d="M 14.776732 91.339637 
L 28.966566 91.339637 
L 28.966566 90.076103 
L 14.776732 90.076103 
z
" clip-path="url(#pb54653599b)" style="fill: #005ea8"/>
   </g>
   <g id="patch_9">
    <path d="M 43.156401 91.339637 
L 57.346235 91.339637 
L 57.346235 74.913696 
L 43.156401 74.913696 
z
" clip-path="url(#pb54653599b)" style="fill: #005ea8"/>
   </g>
   <g id="patch_10">
    <path d="M 71.536069 91.339637 
L 85.725903 91.339637 
L 85.725903 87.127858 
L 71.536069 87.127858 
z
" clip-path="url(#pb54653599b)" style="fill: #005ea8"/>
   </g>
   <g id="patch_11">
    <path d="M 99.915737 91.339637 
L 114.105571 91.339637 
L 114.105571 88.807216 
L 99.915737 88.807216 
z
" clip-path="url(#pb54653599b)" style="fill: #005ea8"/>
   </g>
   <g id="patch_12">
    <path d="M 128.295405 91.339637 
L 142.48524 91.339637 
L 142.48524 90.495497 
L 128.295405 90.495497 
z
" clip-path="url(#pb54653599b)" style="fill: #005ea8"/>
   </g>
   <g id="patch_13">
    <path d="M 14.776732 91.339637 
L 14.776732 12.220482 
" style="fill: none; stroke: #000000; stroke-width: 0.8; stroke-linejoin: miter; stroke-linecap: square"/>
   </g>
   <g id="patch_14">
    <path d="M 156.675074 91.339637 
L 156.675074 12.220482 
" style="fill: none; stroke: #000000; stroke-width: 0.8; stroke-linejoin: miter; stroke-linecap: square"/>
   </g>
   <g id="patch_15">
    <path d="M 14.776732 91.339637 
L 156.675074 91.339637 
" style="fill: none; stroke: #000000; stroke-width: 0.8; stroke-linejoin: miter; stroke-linecap: square"/>
   </g>
   <g id="patch_16">
    <path d="M 14.776732 12.220482 
L 156.675074 12.220482 
" style="fill: none; stroke: #000000; stroke-width: 0.8; stroke-linejoin: miter; stroke-linecap: square"/>
   </g>
   <g id="text_10">
    <!-- T-category -->
    <g transform="translate(64.525903 6.220482) scale(0.08 -0.08)">
     <defs>
      <path id="DejaVuSans-54" d="M -19 4666 
L 3928 4666 
L 3928 4134 
L 2272 4134 
L 2272 0 
L 1638 0 
L 1638 4134 
L -19 4134 
L -19 4666 
z
" transform="scale(0.015625)"/>
      <path id="DejaVuSans-2d" d="M 313 2009 
L 1997 2009 
L 1997 1497 
L 313 1497 
L 313 2009 
z
" transform="scale(0.015625)"/>
      <path id="DejaVuSans-63" d="M 3122 3366 
L 3122 2828 
Q 2878 2963 2633 3030 
Q 2388 3097 2138 3097 
Q 1578 3097 1268 2742 
Q 959 2388 959 1747 
Q 959 1106 1268 751 
Q 1578 397 2138 397 
Q 2388 397 2633 464 
Q 2878 531 3122 666 
L 3122 134 
Q 2881 22 2623 -34 
Q 2366 -91 2075 -91 
Q 1284 -91 818 406 
Q 353 903 353 1747 
Q 353 2603 823 3093 
Q 1294 3584 2113 3584 
Q 2378 3584 2631 3529 
Q 2884 3475 3122 3366 
z
" transform="scale(0.015625)"/>
      <path id="DejaVuSans-61" d="M 2194 1759 
Q 1497 1759 1228 1600 
Q 959 1441 959 1056 
Q 959 750 1161 570 
Q 1363 391 1709 391 
Q 2188 391 2477 730 
Q 2766 1069 2766 1631 
L 2766 1759 
L 2194 1759 
z
M 3341 1997 
L 3341 0 
L 2766 0 
L 2766 531 
Q 2569 213 2275 61 
Q 1981 -91 1556 -91 
Q 1019 -91 701 211 
Q 384 513 384 1019 
Q 384 1609 779 1909 
Q 1175 2209 1959 2209 
L 2766 2209 
L 2766 2266 
Q 2766 2663 2505 2880 
Q 2244 3097 1772 3097 
Q 1472 3097 1187 3025 
Q 903 2953 641 2809 
L 641 3341 
Q 956 3463 1253 3523 
Q 1550 3584 1831 3584 
Q 2591 3584 2966 3190 
Q 3341 2797 3341 1997 
z
" transform="scale(0.015625)"/>
      <path id="DejaVuSans-74" d="M 1172 4494 
L 1172 3500 
L 2356 3500 
L 2356 3053 
L 1172 3053 
L 1172 1153 
Q 1172 725 1289 603 
Q 1406 481 1766 481 
L 2356 481 
L 2356 0 
L 1766 0 
Q 1100 0 847 248 
Q 594 497 594 1153 
L 594 3053 
L 172 3053 
L 172 3500 
L 594 3500 
L 594 4494 
L 1172 4494 
z
" transform="scale(0.015625)"/>
      <path id="DejaVuSans-65" d="M 3597 1894 
L 3597 1613 
L 953 1613 
Q 991 1019 1311 708 
Q 1631 397 2203 397 
Q 2534 397 2845 478 
Q 3156 559 3463 722 
L 3463 178 
Q 3153 47 2828 -22 
Q 2503 -91 2169 -91 
Q 1331 -91 842 396 
Q 353 884 353 1716 
Q 353 2575 817 3079 
Q 1281 3584 2069 3584 
Q 2775 3584 3186 3129 
Q 3597 2675 3597 1894 
z
M 3022 2063 
Q 3016 2534 2758 2815 
Q 2500 3097 2075 3097 
Q 1594 3097 1305 2825 
Q 1016 2553 972 2059 
L 3022 2063 
z
" transform="scale(0.015625)"/>
      <path id="DejaVuSans-67" d="M 2906 1791 
Q 2906 2416 2648 2759 
Q 2391 3103 1925 3103 
Q 1463 3103 1205 2759 
Q 947 2416 947 1791 
Q 947 1169 1205 825 
Q 1463 481 1925 481 
Q 2391 481 2648 825 
Q 2906 1169 2906 1791 
z
M 3481 434 
Q 3481 -459 3084 -895 
Q 2688 -1331 1869 -1331 
Q 1566 -1331 1297 -1286 
Q 1028 -1241 775 -1147 
L 775 -588 
Q 1028 -725 1275 -790 
Q 1522 -856 1778 -856 
Q 2344 -856 2625 -561 
Q 2906 -266 2906 331 
L 2906 616 
Q 2728 306 2450 153 
Q 2172 0 1784 0 
Q 1141 0 747 490 
Q 353 981 353 1791 
Q 353 2603 747 3093 
Q 1141 3584 1784 3584 
Q 2172 3584 2450 3431 
Q 2728 3278 2906 2969 
L 2906 3500 
L 3481 3500 
L 3481 434 
z
" transform="scale(0.015625)"/>
      <path id="DejaVuSans-6f" d="M 1959 3097 
Q 1497 3097 1228 2736 
Q 959 2375 959 1747 
Q 959 1119 1226 758 
Q 1494 397 1959 397 
Q 2419 397 2687 759 
Q 2956 1122 2956 1747 
Q 2956 2369 2687 2733 
Q 2419 3097 1959 3097 
z
M 1959 3584 
Q 2709 3584 3137 3096 
Q 3566 2609 3566 1747 
Q 3566 888 3137 398 
Q 2709 -91 1959 -91 
Q 1206 -91 779 398 
Q 353 888 353 1747 
Q 353 2609 779 3096 
Q 1206 3584 1959 3584 
z
" transform="scale(0.015625)"/>
      <path id="DejaVuSans-72" d="M 2631 2963 
Q 2534 3019 2420 3045 
Q 2306 3072 2169 3072 
Q 1681 3072 1420 2755 
Q 1159 2438 1159 1844 
L 1159 0 
L 581 0 
L 581 3500 
L 1159 3500 
L 1159 2956 
Q 1341 3275 1631 3429 
Q 1922 3584 2338 3584 
Q 2397 3584 2469 3576 
Q 2541 3569 2628 3553 
L 2631 2963 
z
" transform="scale(0.015625)"/>
      <path id="DejaVuSans-79" d="M 2059 -325 
Q 1816 -950 1584 -1140 
Q 1353 -1331 966 -1331 
L 506 -1331 
L 506 -850 
L 844 -850 
Q 1081 -850 1212 -737 
Q 1344 -625 1503 -206 
L 1606 56 
L 191 3500 
L 800 3500 
L 1894 763 
L 2988 3500 
L 3597 3500 
L 2059 -325 
z
" transform="scale(0.015625)"/>
     </defs>
     <use xlink:href="#DejaVuSans-54"/>
     <use xlink:href="#DejaVuSans-2d" x="51.958984"/>
     <use xlink:href="#DejaVuSans-63" x="88.042969"/>
     <use xlink:href="#DejaVuSans-61" x="143.023438"/>
     <use xlink:href="#DejaVuSans-74" x="204.302734"/>
     <use xlink:href="#DejaVuSans-65" x="243.511719"/>
     <use xlink:href="#DejaVuSans-67" x="305.035156"/>
     <use xlink:href="#DejaVuSans-6f" x="368.511719"/>
     <use xlink:href="#DejaVuSans-72" x="429.693359"/>
     <use xlink:href="#DejaVuSans-79" x="470.806641"/>
    </g>
   </g>
   <g id="legend_1">
    <g id="patch_17">
     <path d="M 101.769449 34.634232 
L 152.475074 34.634232 
Q 153.675074 34.634232 153.675074 33.434232 
L 153.675074 16.420482 
Q 153.675074 15.220482 152.475074 15.220482 
L 101.769449 15.220482 
Q 100.569449 15.220482 100.569449 16.420482 
L 100.569449 33.434232 
Q 100.569449 34.634232 101.769449 34.634232 
z
" style="fill: #ffffff; opacity: 0.8; stroke: #cccccc; stroke-linejoin: miter"/>
    </g>
    <g id="patch_18">
     <path d="M 102.969449 22.179545 
L 114.969449 22.179545 
L 114.969449 17.979545 
L 102.969449 17.979545 
z
" style="fill: #005ea8"/>
    </g>
    <g id="text_11">
     <!-- T0-2 (473) -->
     <g transform="translate(119.769449 22.179545) scale(0.06 -0.06)">
      <defs>
       <path id="DejaVuSans-20" transform="scale(0.015625)"/>
       <path id="DejaVuSans-28" d="M 1984 4856 
Q 1566 4138 1362 3434 
Q 1159 2731 1159 2009 
Q 1159 1288 1364 580 
Q 1569 -128 1984 -844 
L 1484 -844 
Q 1016 -109 783 600 
Q 550 1309 550 2009 
Q 550 2706 781 3412 
Q 1013 4119 1484 4856 
L 1984 4856 
z
" transform="scale(0.015625)"/>
       <path id="DejaVuSans-34" d="M 2419 4116 
L 825 1625 
L 2419 1625 
L 2419 4116 
z
M 2253 4666 
L 3047 4666 
L 3047 1625 
L 3713 1625 
L 3713 1100 
L 3047 1100 
L 3047 0 
L 2419 0 
L 2419 1100 
L 313 1100 
L 313 1709 
L 2253 4666 
z
" transform="scale(0.015625)"/>
       <path id="DejaVuSans-37" d="M 525 4666 
L 3525 4666 
L 3525 4397 
L 1831 0 
L 1172 0 
L 2766 4134 
L 525 4134 
L 525 4666 
z
" transform="scale(0.015625)"/>
       <path id="DejaVuSans-29" d="M 513 4856 
L 1013 4856 
Q 1481 4119 1714 3412 
Q 1947 2706 1947 2009 
Q 1947 1309 1714 600 
Q 1481 -109 1013 -844 
L 513 -844 
Q 928 -128 1133 580 
Q 1338 1288 1338 2009 
Q 1338 2731 1133 3434 
Q 928 4138 513 4856 
z
" transform="scale(0.015625)"/>
      </defs>
      <use xlink:href="#DejaVuSans-54"/>
      <use xlink:href="#DejaVuSans-30" x="61.083984"/>
      <use xlink:href="#DejaVuSans-2d" x="124.707031"/>
      <use xlink:href="#DejaVuSans-32" x="160.791016"/>
      <use xlink:href="#DejaVuSans-20" x="224.414062"/>
      <use xlink:href="#DejaVuSans-28" x="256.201172"/>
      <use xlink:href="#DejaVuSans-34" x="295.214844"/>
      <use xlink:href="#DejaVuSans-37" x="358.837891"/>
      <use xlink:href="#DejaVuSans-33" x="422.460938"/>
      <use xlink:href="#DejaVuSans-29" x="486.083984"/>
     </g>
    </g>
    <g id="patch_19">
     <path d="M 102.969449 30.98642 
L 114.969449 30.98642 
L 114.969449 26.78642 
L 102.969449 26.78642 
z
" style="fill: #f17900"/>
    </g>
    <g id="text_12">
     <!-- T3-4 (360) -->
     <g transform="translate(119.769449 30.98642) scale(0.06 -0.06)">
      <defs>
       <path id="DejaVuSans-36" d="M 2113 2584 
Q 1688 2584 1439 2293 
Q 1191 2003 1191 1497 
Q 1191 994 1439 701 
Q 1688 409 2113 409 
Q 2538 409 2786 701 
Q 3034 994 3034 1497 
Q 3034 2003 2786 2293 
Q 2538 2584 2113 2584 
z
M 3366 4563 
L 3366 3988 
Q 3128 4100 2886 4159 
Q 2644 4219 2406 4219 
Q 1781 4219 1451 3797 
Q 1122 3375 1075 2522 
Q 1259 2794 1537 2939 
Q 1816 3084 2150 3084 
Q 2853 3084 3261 2657 
Q 3669 2231 3669 1497 
Q 3669 778 3244 343 
Q 2819 -91 2113 -91 
Q 1303 -91 875 529 
Q 447 1150 447 2328 
Q 447 3434 972 4092 
Q 1497 4750 2381 4750 
Q 2619 4750 2861 4703 
Q 3103 4656 3366 4563 
z
" transform="scale(0.015625)"/>
      </defs>
      <use xlink:href="#DejaVuSans-54"/>
      <use xlink:href="#DejaVuSans-33" x="61.083984"/>
      <use xlink:href="#DejaVuSans-2d" x="124.707031"/>
      <use xlink:href="#DejaVuSans-34" x="160.791016"/>
      <use xlink:href="#DejaVuSans-20" x="224.414062"/>
      <use xlink:href="#DejaVuSans-28" x="256.201172"/>
      <use xlink:href="#DejaVuSans-33" x="295.214844"/>
      <use xlink:href="#DejaVuSans-36" x="358.837891"/>
      <use xlink:href="#DejaVuSans-30" x="422.460938"/>
      <use xlink:href="#DejaVuSans-29" x="486.083984"/>
     </g>
    </g>
   </g>
  </g>
  <g id="axes_2">
   <g id="patch_20">
    <path d="M 168.815074 91.339637 
L 310.713415 91.339637 
L 310.713415 12.220482 
L 168.815074 12.220482 
z
" style="fill: #ffffff"/>
   </g>
   <g id="matplotlib.axis_3">
    <g id="xtick_6">
     <g id="line2d_14">
      <g>
       <use xlink:href="#madfa31fe0b" x="178.274963" y="91.339637" style="stroke: #000000; stroke-width: 0.8"/>
      </g>
     </g>
     <g id="text_13">
      <!-- I -->
      <g transform="translate(177.389963 102.8987) scale(0.06 -0.06)">
       <use xlink:href="#DejaVuSans-49"/>
      </g>
     </g>
    </g>
    <g id="xtick_7">
     <g id="line2d_15">
      <g>
       <use xlink:href="#madfa31fe0b" x="206.654631" y="91.339637" style="stroke: #000000; stroke-width: 0.8"/>
      </g>
     </g>
     <g id="text_14">
      <!-- II -->
      <g transform="translate(204.884631 102.8987) scale(0.06 -0.06)">
       <use xlink:href="#DejaVuSans-49"/>
       <use xlink:href="#DejaVuSans-49" x="29.492188"/>
      </g>
     </g>
    </g>
    <g id="xtick_8">
     <g id="line2d_16">
      <g>
       <use xlink:href="#madfa31fe0b" x="235.0343" y="91.339637" style="stroke: #000000; stroke-width: 0.8"/>
      </g>
     </g>
     <g id="text_15">
      <!-- III -->
      <g transform="translate(232.3793 102.8987) scale(0.06 -0.06)">
       <use xlink:href="#DejaVuSans-49"/>
       <use xlink:href="#DejaVuSans-49" x="29.492188"/>
       <use xlink:href="#DejaVuSans-49" x="58.984375"/>
      </g>
     </g>
    </g>
    <g id="xtick_9">
     <g id="line2d_17">
      <g>
       <use xlink:href="#madfa31fe0b" x="263.413968" y="91.339637" style="stroke: #000000; stroke-width: 0.8"/>
      </g>
     </g>
     <g id="text_16">
      <!-- IV -->
      <g transform="translate(260.47678 102.8987) scale(0.06 -0.06)">
       <use xlink:href="#DejaVuSans-49"/>
       <use xlink:href="#DejaVuSans-56" x="29.492188"/>
      </g>
     </g>
    </g>
    <g id="xtick_10">
     <g id="line2d_18">
      <g>
       <use xlink:href="#madfa31fe0b" x="291.793636" y="91.339637" style="stroke: #000000; stroke-width: 0.8"/>
      </g>
     </g>
     <g id="text_17">
      <!-- V -->
      <g transform="translate(289.741449 102.8987) scale(0.06 -0.06)">
       <use xlink:href="#DejaVuSans-56"/>
      </g>
     </g>
    </g>
   </g>
   <g id="matplotlib.axis_4">
    <g id="ytick_5">
     <g id="line2d_19">
      <path d="M 168.815074 91.339637 
L 310.713415 91.339637 
" clip-path="url(#p067b757dde)" style="fill: none; stroke: #c5d5db; stroke-width: 0.8; stroke-linecap: square"/>
     </g>
     <g id="line2d_20">
      <g>
       <use xlink:href="#m2a390b419c" x="168.815074" y="91.339637" style="stroke: #000000; stroke-width: 0.8"/>
      </g>
     </g>
    </g>
    <g id="ytick_6">
     <g id="line2d_21">
      <path d="M 168.815074 71.417919 
L 310.713415 71.417919 
" clip-path="url(#p067b757dde)" style="fill: none; stroke: #c5d5db; stroke-width: 0.8; stroke-linecap: square"/>
     </g>
     <g id="line2d_22">
      <g>
       <use xlink:href="#m2a390b419c" x="168.815074" y="71.417919" style="stroke: #000000; stroke-width: 0.8"/>
      </g>
     </g>
    </g>
    <g id="ytick_7">
     <g id="line2d_23">
      <path d="M 168.815074 51.496201 
L 310.713415 51.496201 
" clip-path="url(#p067b757dde)" style="fill: none; stroke: #c5d5db; stroke-width: 0.8; stroke-linecap: square"/>
     </g>
     <g id="line2d_24">
      <g>
       <use xlink:href="#m2a390b419c" x="168.815074" y="51.496201" style="stroke: #000000; stroke-width: 0.8"/>
      </g>
     </g>
    </g>
    <g id="ytick_8">
     <g id="line2d_25">
      <path d="M 168.815074 31.574483 
L 310.713415 31.574483 
" clip-path="url(#p067b757dde)" style="fill: none; stroke: #c5d5db; stroke-width: 0.8; stroke-linecap: square"/>
     </g>
     <g id="line2d_26">
      <g>
       <use xlink:href="#m2a390b419c" x="168.815074" y="31.574483" style="stroke: #000000; stroke-width: 0.8"/>
      </g>
     </g>
    </g>
   </g>
   <g id="patch_21">
    <path d="M 175.909991 91.339637 
L 190.099825 91.339637 
L 190.099825 86.009412 
L 175.909991 86.009412 
z
" clip-path="url(#p067b757dde)" style="fill: #ae0060"/>
   </g>
   <g id="patch_22">
    <path d="M 204.289659 91.339637 
L 218.479493 91.339637 
L 218.479493 36.038547 
L 204.289659 36.038547 
z
" clip-path="url(#p067b757dde)" style="fill: #ae0060"/>
   </g>
   <g id="patch_23">
    <path d="M 232.669327 91.339637 
L 246.859161 91.339637 
L 246.859161 70.018735 
L 232.669327 70.018735 
z
" clip-path="url(#p067b757dde)" style="fill: #ae0060"/>
   </g>
   <g id="patch_24">
    <path d="M 261.048996 91.339637 
L 275.23883 91.339637 
L 275.23883 80.679186 
L 261.048996 80.679186 
z
" clip-path="url(#p067b757dde)" style="fill: #ae0060"/>
   </g>
   <g id="patch_25">
    <path d="M 289.428664 91.339637 
L 303.618498 91.339637 
L 303.618498 86.67569 
L 289.428664 86.67569 
z
" clip-path="url(#p067b757dde)" style="fill: #ae0060"/>
   </g>
   <g id="patch_26">
    <path d="M 171.180046 91.339637 
L 185.36988 91.339637 
L 185.36988 89.702236 
L 171.180046 89.702236 
z
" clip-path="url(#p067b757dde)" style="fill: #f17900"/>
   </g>
   <g id="patch_27">
    <path d="M 199.559714 91.339637 
L 213.749548 91.339637 
L 213.749548 71.145019 
L 199.559714 71.145019 
z
" clip-path="url(#p067b757dde)" style="fill: #f17900"/>
   </g>
   <g id="patch_28">
    <path d="M 227.939383 91.339637 
L 242.129217 91.339637 
L 242.129217 87.519034 
L 227.939383 87.519034 
z
" clip-path="url(#p067b757dde)" style="fill: #f17900"/>
   </g>
   <g id="patch_29">
    <path d="M 256.319051 91.339637 
L 270.508885 91.339637 
L 270.508885 89.702236 
L 256.319051 89.702236 
z
" clip-path="url(#p067b757dde)" style="fill: #f17900"/>
   </g>
   <g id="patch_30">
    <path d="M 284.698719 91.339637 
L 298.888553 91.339637 
L 298.888553 90.793837 
L 284.698719 90.793837 
z
" clip-path="url(#p067b757dde)" style="fill: #f17900"/>
   </g>
   <g id="patch_31">
    <path d="M 166.450101 91.339637 
L 180.639935 91.339637 
L 180.639935 91.339637 
L 166.450101 91.339637 
z
" clip-path="url(#p067b757dde)" style="fill: #00afa5"/>
   </g>
   <g id="patch_32">
    <path d="M 194.82977 91.339637 
L 209.019604 91.339637 
L 209.019604 83.088038 
L 194.82977 83.088038 
z
" clip-path="url(#p067b757dde)" style="fill: #00afa5"/>
   </g>
   <g id="patch_33">
    <path d="M 223.209438 91.339637 
L 237.399272 91.339637 
L 237.399272 90.160837 
L 223.209438 90.160837 
z
" clip-path="url(#p067b757dde)" style="fill: #00afa5"/>
   </g>
   <g id="patch_34">
    <path d="M 251.589106 91.339637 
L 265.77894 91.339637 
L 265.77894 91.339637 
L 251.589106 91.339637 
z
" clip-path="url(#p067b757dde)" style="fill: #00afa5"/>
   </g>
   <g id="patch_35">
    <path d="M 279.968774 91.339637 
L 294.158609 91.339637 
L 294.158609 91.339637 
L 279.968774 91.339637 
z
" clip-path="url(#p067b757dde)" style="fill: #00afa5"/>
   </g>
   <g id="patch_36">
    <path d="M 168.815074 91.339637 
L 168.815074 12.220482 
" style="fill: none; stroke: #000000; stroke-width: 0.8; stroke-linejoin: miter; stroke-linecap: square"/>
   </g>
   <g id="patch_37">
    <path d="M 310.713415 91.339637 
L 310.713415 12.220482 
" style="fill: none; stroke: #000000; stroke-width: 0.8; stroke-linejoin: miter; stroke-linecap: square"/>
   </g>
   <g id="patch_38">
    <path d="M 168.815074 91.339637 
L 310.713415 91.339637 
" style="fill: none; stroke: #000000; stroke-width: 0.8; stroke-linejoin: miter; stroke-linecap: square"/>
   </g>
   <g id="patch_39">
    <path d="M 168.815074 12.220482 
L 310.713415 12.220482 
" style="fill: none; stroke: #000000; stroke-width: 0.8; stroke-linejoin: miter; stroke-linecap: square"/>
   </g>
   <g id="text_18">
    <!-- Ipsilateral Involvement -->
    <g transform="translate(193.849244 6.220482) scale(0.08 -0.08)">
     <defs>
      <path id="DejaVuSans-70" d="M 1159 525 
L 1159 -1331 
L 581 -1331 
L 581 3500 
L 1159 3500 
L 1159 2969 
Q 1341 3281 1617 3432 
Q 1894 3584 2278 3584 
Q 2916 3584 3314 3078 
Q 3713 2572 3713 1747 
Q 3713 922 3314 415 
Q 2916 -91 2278 -91 
Q 1894 -91 1617 61 
Q 1341 213 1159 525 
z
M 3116 1747 
Q 3116 2381 2855 2742 
Q 2594 3103 2138 3103 
Q 1681 3103 1420 2742 
Q 1159 2381 1159 1747 
Q 1159 1113 1420 752 
Q 1681 391 2138 391 
Q 2594 391 2855 752 
Q 3116 1113 3116 1747 
z
" transform="scale(0.015625)"/>
      <path id="DejaVuSans-73" d="M 2834 3397 
L 2834 2853 
Q 2591 2978 2328 3040 
Q 2066 3103 1784 3103 
Q 1356 3103 1142 2972 
Q 928 2841 928 2578 
Q 928 2378 1081 2264 
Q 1234 2150 1697 2047 
L 1894 2003 
Q 2506 1872 2764 1633 
Q 3022 1394 3022 966 
Q 3022 478 2636 193 
Q 2250 -91 1575 -91 
Q 1294 -91 989 -36 
Q 684 19 347 128 
L 347 722 
Q 666 556 975 473 
Q 1284 391 1588 391 
Q 1994 391 2212 530 
Q 2431 669 2431 922 
Q 2431 1156 2273 1281 
Q 2116 1406 1581 1522 
L 1381 1569 
Q 847 1681 609 1914 
Q 372 2147 372 2553 
Q 372 3047 722 3315 
Q 1072 3584 1716 3584 
Q 2034 3584 2315 3537 
Q 2597 3491 2834 3397 
z
" transform="scale(0.015625)"/>
      <path id="DejaVuSans-69" d="M 603 3500 
L 1178 3500 
L 1178 0 
L 603 0 
L 603 3500 
z
M 603 4863 
L 1178 4863 
L 1178 4134 
L 603 4134 
L 603 4863 
z
" transform="scale(0.015625)"/>
      <path id="DejaVuSans-6c" d="M 603 4863 
L 1178 4863 
L 1178 0 
L 603 0 
L 603 4863 
z
" transform="scale(0.015625)"/>
      <path id="DejaVuSans-6e" d="M 3513 2113 
L 3513 0 
L 2938 0 
L 2938 2094 
Q 2938 2591 2744 2837 
Q 2550 3084 2163 3084 
Q 1697 3084 1428 2787 
Q 1159 2491 1159 1978 
L 1159 0 
L 581 0 
L 581 3500 
L 1159 3500 
L 1159 2956 
Q 1366 3272 1645 3428 
Q 1925 3584 2291 3584 
Q 2894 3584 3203 3211 
Q 3513 2838 3513 2113 
z
" transform="scale(0.015625)"/>
      <path id="DejaVuSans-76" d="M 191 3500 
L 800 3500 
L 1894 563 
L 2988 3500 
L 3597 3500 
L 2284 0 
L 1503 0 
L 191 3500 
z
" transform="scale(0.015625)"/>
      <path id="DejaVuSans-6d" d="M 3328 2828 
Q 3544 3216 3844 3400 
Q 4144 3584 4550 3584 
Q 5097 3584 5394 3201 
Q 5691 2819 5691 2113 
L 5691 0 
L 5113 0 
L 5113 2094 
Q 5113 2597 4934 2840 
Q 4756 3084 4391 3084 
Q 3944 3084 3684 2787 
Q 3425 2491 3425 1978 
L 3425 0 
L 2847 0 
L 2847 2094 
Q 2847 2600 2669 2842 
Q 2491 3084 2119 3084 
Q 1678 3084 1418 2786 
Q 1159 2488 1159 1978 
L 1159 0 
L 581 0 
L 581 3500 
L 1159 3500 
L 1159 2956 
Q 1356 3278 1631 3431 
Q 1906 3584 2284 3584 
Q 2666 3584 2933 3390 
Q 3200 3197 3328 2828 
z
" transform="scale(0.015625)"/>
     </defs>
     <use xlink:href="#DejaVuSans-49"/>
     <use xlink:href="#DejaVuSans-70" x="29.492188"/>
     <use xlink:href="#DejaVuSans-73" x="92.96875"/>
     <use xlink:href="#DejaVuSans-69" x="145.068359"/>
     <use xlink:href="#DejaVuSans-6c" x="172.851562"/>
     <use xlink:href="#DejaVuSans-61" x="200.634766"/>
     <use xlink:href="#DejaVuSans-74" x="261.914062"/>
     <use xlink:href="#DejaVuSans-65" x="301.123047"/>
     <use xlink:href="#DejaVuSans-72" x="362.646484"/>
     <use xlink:href="#DejaVuSans-61" x="403.759766"/>
     <use xlink:href="#DejaVuSans-6c" x="465.039062"/>
     <use xlink:href="#DejaVuSans-20" x="492.822266"/>
     <use xlink:href="#DejaVuSans-49" x="524.609375"/>
     <use xlink:href="#DejaVuSans-6e" x="554.101562"/>
     <use xlink:href="#DejaVuSans-76" x="617.480469"/>
     <use xlink:href="#DejaVuSans-6f" x="676.660156"/>
     <use xlink:href="#DejaVuSans-6c" x="737.841797"/>
     <use xlink:href="#DejaVuSans-76" x="765.625"/>
     <use xlink:href="#DejaVuSans-65" x="824.804688"/>
     <use xlink:href="#DejaVuSans-6d" x="886.328125"/>
     <use xlink:href="#DejaVuSans-65" x="983.740234"/>
     <use xlink:href="#DejaVuSans-6e" x="1045.263672"/>
     <use xlink:href="#DejaVuSans-74" x="1108.642578"/>
    </g>
   </g>
   <g id="legend_2">
    <g id="patch_40">
     <path d="M 223.024353 43.441107 
L 306.513415 43.441107 
Q 307.713415 43.441107 307.713415 42.241107 
L 307.713415 16.420482 
Q 307.713415 15.220482 306.513415 15.220482 
L 223.024353 15.220482 
Q 221.824353 15.220482 221.824353 16.420482 
L 221.824353 42.241107 
Q 221.824353 43.441107 223.024353 43.441107 
z
" style="fill: #ffffff; opacity: 0.8; stroke: #cccccc; stroke-linejoin: miter"/>
    </g>
    <g id="patch_41">
     <path d="M 224.224353 22.179545 
L 236.224353 22.179545 
L 236.224353 17.979545 
L 224.224353 17.979545 
z
" style="fill: #00afa5"/>
    </g>
    <g id="text_19">
     <!-- ipsi N0 (169) -->
     <g transform="translate(241.024353 22.179545) scale(0.06 -0.06)">
      <defs>
       <path id="DejaVuSans-4e" d="M 628 4666 
L 1478 4666 
L 3547 763 
L 3547 4666 
L 4159 4666 
L 4159 0 
L 3309 0 
L 1241 3903 
L 1241 0 
L 628 0 
L 628 4666 
z
" transform="scale(0.015625)"/>
       <path id="DejaVuSans-39" d="M 703 97 
L 703 672 
Q 941 559 1184 500 
Q 1428 441 1663 441 
Q 2288 441 2617 861 
Q 2947 1281 2994 2138 
Q 2813 1869 2534 1725 
Q 2256 1581 1919 1581 
Q 1219 1581 811 2004 
Q 403 2428 403 3163 
Q 403 3881 828 4315 
Q 1253 4750 1959 4750 
Q 2769 4750 3195 4129 
Q 3622 3509 3622 2328 
Q 3622 1225 3098 567 
Q 2575 -91 1691 -91 
Q 1453 -91 1209 -44 
Q 966 3 703 97 
z
M 1959 2075 
Q 2384 2075 2632 2365 
Q 2881 2656 2881 3163 
Q 2881 3666 2632 3958 
Q 2384 4250 1959 4250 
Q 1534 4250 1286 3958 
Q 1038 3666 1038 3163 
Q 1038 2656 1286 2365 
Q 1534 2075 1959 2075 
z
" transform="scale(0.015625)"/>
      </defs>
      <use xlink:href="#DejaVuSans-69"/>
      <use xlink:href="#DejaVuSans-70" x="27.783203"/>
      <use xlink:href="#DejaVuSans-73" x="91.259766"/>
      <use xlink:href="#DejaVuSans-69" x="143.359375"/>
      <use xlink:href="#DejaVuSans-20" x="171.142578"/>
      <use xlink:href="#DejaVuSans-4e" x="202.929688"/>
      <use xlink:href="#DejaVuSans-30" x="277.734375"/>
      <use xlink:href="#DejaVuSans-20" x="341.357422"/>
      <use xlink:href="#DejaVuSans-28" x="373.144531"/>
      <use xlink:href="#DejaVuSans-31" x="412.158203"/>
      <use xlink:href="#DejaVuSans-36" x="475.78125"/>
      <use xlink:href="#DejaVuSans-39" x="539.404297"/>
      <use xlink:href="#DejaVuSans-29" x="603.027344"/>
     </g>
    </g>
    <g id="patch_42">
     <path d="M 224.224353 30.98642 
L 236.224353 30.98642 
L 236.224353 26.78642 
L 224.224353 26.78642 
z
" style="fill: #f17900"/>
    </g>
    <g id="text_20">
     <!-- one ipsi LNL (365) -->
     <g transform="translate(241.024353 30.98642) scale(0.06 -0.06)">
      <defs>
       <path id="DejaVuSans-4c" d="M 628 4666 
L 1259 4666 
L 1259 531 
L 3531 531 
L 3531 0 
L 628 0 
L 628 4666 
z
" transform="scale(0.015625)"/>
       <path id="DejaVuSans-35" d="M 691 4666 
L 3169 4666 
L 3169 4134 
L 1269 4134 
L 1269 2991 
Q 1406 3038 1543 3061 
Q 1681 3084 1819 3084 
Q 2600 3084 3056 2656 
Q 3513 2228 3513 1497 
Q 3513 744 3044 326 
Q 2575 -91 1722 -91 
Q 1428 -91 1123 -41 
Q 819 9 494 109 
L 494 744 
Q 775 591 1075 516 
Q 1375 441 1709 441 
Q 2250 441 2565 725 
Q 2881 1009 2881 1497 
Q 2881 1984 2565 2268 
Q 2250 2553 1709 2553 
Q 1456 2553 1204 2497 
Q 953 2441 691 2322 
L 691 4666 
z
" transform="scale(0.015625)"/>
      </defs>
      <use xlink:href="#DejaVuSans-6f"/>
      <use xlink:href="#DejaVuSans-6e" x="61.181641"/>
      <use xlink:href="#DejaVuSans-65" x="124.560547"/>
      <use xlink:href="#DejaVuSans-20" x="186.083984"/>
      <use xlink:href="#DejaVuSans-69" x="217.871094"/>
      <use xlink:href="#DejaVuSans-70" x="245.654297"/>
      <use xlink:href="#DejaVuSans-73" x="309.130859"/>
      <use xlink:href="#DejaVuSans-69" x="361.230469"/>
      <use xlink:href="#DejaVuSans-20" x="389.013672"/>
      <use xlink:href="#DejaVuSans-4c" x="420.800781"/>
      <use xlink:href="#DejaVuSans-4e" x="476.513672"/>
      <use xlink:href="#DejaVuSans-4c" x="551.318359"/>
      <use xlink:href="#DejaVuSans-20" x="607.03125"/>
      <use xlink:href="#DejaVuSans-28" x="638.818359"/>
      <use xlink:href="#DejaVuSans-33" x="677.832031"/>
      <use xlink:href="#DejaVuSans-36" x="741.455078"/>
      <use xlink:href="#DejaVuSans-35" x="805.078125"/>
      <use xlink:href="#DejaVuSans-29" x="868.701172"/>
     </g>
    </g>
    <g id="patch_43">
     <path d="M 224.224353 39.793295 
L 236.224353 39.793295 
L 236.224353 35.593295 
L 224.224353 35.593295 
z
" style="fill: #ae0060"/>
    </g>
    <g id="text_21">
     <!-- ≥ two ipsi LNLs (299) -->
     <g transform="translate(241.024353 39.793295) scale(0.06 -0.06)">
      <defs>
       <path id="DejaVuSans-2265" d="M 678 3175 
L 678 3725 
L 4684 2578 
L 4684 2047 
L 678 897 
L 678 1453 
L 3681 2309 
L 678 3175 
z
M 4684 531 
L 4684 0 
L 678 0 
L 678 531 
L 4684 531 
z
" transform="scale(0.015625)"/>
       <path id="DejaVuSans-77" d="M 269 3500 
L 844 3500 
L 1563 769 
L 2278 3500 
L 2956 3500 
L 3675 769 
L 4391 3500 
L 4966 3500 
L 4050 0 
L 3372 0 
L 2619 2869 
L 1863 0 
L 1184 0 
L 269 3500 
z
" transform="scale(0.015625)"/>
      </defs>
      <use xlink:href="#DejaVuSans-2265"/>
      <use xlink:href="#DejaVuSans-20" x="83.789062"/>
      <use xlink:href="#DejaVuSans-74" x="115.576172"/>
      <use xlink:href="#DejaVuSans-77" x="154.785156"/>
      <use xlink:href="#DejaVuSans-6f" x="236.572266"/>
      <use xlink:href="#DejaVuSans-20" x="297.753906"/>
      <use xlink:href="#DejaVuSans-69" x="329.541016"/>
      <use xlink:href="#DejaVuSans-70" x="357.324219"/>
      <use xlink:href="#DejaVuSans-73" x="420.800781"/>
      <use xlink:href="#DejaVuSans-69" x="472.900391"/>
      <use xlink:href="#DejaVuSans-20" x="500.683594"/>
      <use xlink:href="#DejaVuSans-4c" x="532.470703"/>
      <use xlink:href="#DejaVuSans-4e" x="588.183594"/>
      <use xlink:href="#DejaVuSans-4c" x="662.988281"/>
      <use xlink:href="#DejaVuSans-73" x="718.701172"/>
      <use xlink:href="#DejaVuSans-20" x="770.800781"/>
      <use xlink:href="#DejaVuSans-28" x="802.587891"/>
      <use xlink:href="#DejaVuSans-32" x="841.601562"/>
      <use xlink:href="#DejaVuSans-39" x="905.224609"/>
      <use xlink:href="#DejaVuSans-39" x="968.847656"/>
      <use xlink:href="#DejaVuSans-29" x="1032.470703"/>
     </g>
    </g>
   </g>
  </g>
  <g id="axes_3">
   <g id="patch_44">
    <path d="M 322.853415 91.339637 
L 464.751756 91.339637 
L 464.751756 12.220482 
L 322.853415 12.220482 
z
" style="fill: #ffffff"/>
   </g>
   <g id="matplotlib.axis_5">
    <g id="xtick_11">
     <g id="line2d_27">
      <g>
       <use xlink:href="#madfa31fe0b" x="333.495791" y="91.339637" style="stroke: #000000; stroke-width: 0.8"/>
      </g>
     </g>
     <g id="text_22">
      <!-- I -->
      <g transform="translate(332.610791 102.8987) scale(0.06 -0.06)">
       <use xlink:href="#DejaVuSans-49"/>
      </g>
     </g>
    </g>
    <g id="xtick_12">
     <g id="line2d_28">
      <g>
       <use xlink:href="#madfa31fe0b" x="361.875459" y="91.339637" style="stroke: #000000; stroke-width: 0.8"/>
      </g>
     </g>
     <g id="text_23">
      <!-- II -->
      <g transform="translate(360.105459 102.8987) scale(0.06 -0.06)">
       <use xlink:href="#DejaVuSans-49"/>
       <use xlink:href="#DejaVuSans-49" x="29.492188"/>
      </g>
     </g>
    </g>
    <g id="xtick_13">
     <g id="line2d_29">
      <g>
       <use xlink:href="#madfa31fe0b" x="390.255127" y="91.339637" style="stroke: #000000; stroke-width: 0.8"/>
      </g>
     </g>
     <g id="text_24">
      <!-- III -->
      <g transform="translate(387.600127 102.8987) scale(0.06 -0.06)">
       <use xlink:href="#DejaVuSans-49"/>
       <use xlink:href="#DejaVuSans-49" x="29.492188"/>
       <use xlink:href="#DejaVuSans-49" x="58.984375"/>
      </g>
     </g>
    </g>
    <g id="xtick_14">
     <g id="line2d_30">
      <g>
       <use xlink:href="#madfa31fe0b" x="418.634795" y="91.339637" style="stroke: #000000; stroke-width: 0.8"/>
      </g>
     </g>
     <g id="text_25">
      <!-- IV -->
      <g transform="translate(415.697608 102.8987) scale(0.06 -0.06)">
       <use xlink:href="#DejaVuSans-49"/>
       <use xlink:href="#DejaVuSans-56" x="29.492188"/>
      </g>
     </g>
    </g>
    <g id="xtick_15">
     <g id="line2d_31">
      <g>
       <use xlink:href="#madfa31fe0b" x="447.014464" y="91.339637" style="stroke: #000000; stroke-width: 0.8"/>
      </g>
     </g>
     <g id="text_26">
      <!-- V -->
      <g transform="translate(444.962276 102.8987) scale(0.06 -0.06)">
       <use xlink:href="#DejaVuSans-56"/>
      </g>
     </g>
    </g>
   </g>
   <g id="matplotlib.axis_6">
    <g id="ytick_9">
     <g id="line2d_32">
      <path d="M 322.853415 91.339637 
L 464.751756 91.339637 
" clip-path="url(#p3a279a3b56)" style="fill: none; stroke: #c5d5db; stroke-width: 0.8; stroke-linecap: square"/>
     </g>
     <g id="line2d_33">
      <g>
       <use xlink:href="#m2a390b419c" x="322.853415" y="91.339637" style="stroke: #000000; stroke-width: 0.8"/>
      </g>
     </g>
    </g>
    <g id="ytick_10">
     <g id="line2d_34">
      <path d="M 322.853415 71.417919 
L 464.751756 71.417919 
" clip-path="url(#p3a279a3b56)" style="fill: none; stroke: #c5d5db; stroke-width: 0.8; stroke-linecap: square"/>
     </g>
     <g id="line2d_35">
      <g>
       <use xlink:href="#m2a390b419c" x="322.853415" y="71.417919" style="stroke: #000000; stroke-width: 0.8"/>
      </g>
     </g>
    </g>
    <g id="ytick_11">
     <g id="line2d_36">
      <path d="M 322.853415 51.496201 
L 464.751756 51.496201 
" clip-path="url(#p3a279a3b56)" style="fill: none; stroke: #c5d5db; stroke-width: 0.8; stroke-linecap: square"/>
     </g>
     <g id="line2d_37">
      <g>
       <use xlink:href="#m2a390b419c" x="322.853415" y="51.496201" style="stroke: #000000; stroke-width: 0.8"/>
      </g>
     </g>
    </g>
    <g id="ytick_12">
     <g id="line2d_38">
      <path d="M 322.853415 31.574483 
L 464.751756 31.574483 
" clip-path="url(#p3a279a3b56)" style="fill: none; stroke: #c5d5db; stroke-width: 0.8; stroke-linecap: square"/>
     </g>
     <g id="line2d_39">
      <g>
       <use xlink:href="#m2a390b419c" x="322.853415" y="31.574483" style="stroke: #000000; stroke-width: 0.8"/>
      </g>
     </g>
    </g>
   </g>
   <g id="patch_45">
    <path d="M 329.948332 91.339637 
L 344.138166 91.339637 
L 344.138166 86.17857 
L 329.948332 86.17857 
z
" clip-path="url(#p3a279a3b56)" style="fill: #ae0060"/>
   </g>
   <g id="patch_46">
    <path d="M 358.328 91.339637 
L 372.517834 91.339637 
L 372.517834 15.988061 
L 358.328 15.988061 
z
" clip-path="url(#p3a279a3b56)" style="fill: #ae0060"/>
   </g>
   <g id="patch_47">
    <path d="M 386.707669 91.339637 
L 400.897503 91.339637 
L 400.897503 62.437663 
L 386.707669 62.437663 
z
" clip-path="url(#p3a279a3b56)" style="fill: #ae0060"/>
   </g>
   <g id="patch_48">
    <path d="M 415.087337 91.339637 
L 429.277171 91.339637 
L 429.277171 81.017504 
L 415.087337 81.017504 
z
" clip-path="url(#p3a279a3b56)" style="fill: #ae0060"/>
   </g>
   <g id="patch_49">
    <path d="M 443.467005 91.339637 
L 457.656839 91.339637 
L 457.656839 87.210784 
L 443.467005 87.210784 
z
" clip-path="url(#p3a279a3b56)" style="fill: #ae0060"/>
   </g>
   <g id="patch_50">
    <path d="M 322.853415 91.339637 
L 337.043249 91.339637 
L 337.043249 89.185938 
L 322.853415 89.185938 
z
" clip-path="url(#p3a279a3b56)" style="fill: #00afa5"/>
   </g>
   <g id="patch_51">
    <path d="M 351.233083 91.339637 
L 365.422917 91.339637 
L 365.422917 74.110043 
L 351.233083 74.110043 
z
" clip-path="url(#p3a279a3b56)" style="fill: #00afa5"/>
   </g>
   <g id="patch_52">
    <path d="M 379.612752 91.339637 
L 393.802586 91.339637 
L 393.802586 87.032239 
L 379.612752 87.032239 
z
" clip-path="url(#p3a279a3b56)" style="fill: #00afa5"/>
   </g>
   <g id="patch_53">
    <path d="M 407.99242 91.339637 
L 422.182254 91.339637 
L 422.182254 88.462855 
L 407.99242 88.462855 
z
" clip-path="url(#p3a279a3b56)" style="fill: #00afa5"/>
   </g>
   <g id="patch_54">
    <path d="M 436.372088 91.339637 
L 450.561922 91.339637 
L 450.561922 90.260844 
L 436.372088 90.260844 
z
" clip-path="url(#p3a279a3b56)" style="fill: #00afa5"/>
   </g>
   <g id="patch_55">
    <path d="M 322.853415 91.339637 
L 322.853415 12.220482 
" style="fill: none; stroke: #000000; stroke-width: 0.8; stroke-linejoin: miter; stroke-linecap: square"/>
   </g>
   <g id="patch_56">
    <path d="M 464.751756 91.339637 
L 464.751756 12.220482 
" style="fill: none; stroke: #000000; stroke-width: 0.8; stroke-linejoin: miter; stroke-linecap: square"/>
   </g>
   <g id="patch_57">
    <path d="M 322.853415 91.339637 
L 464.751756 91.339637 
" style="fill: none; stroke: #000000; stroke-width: 0.8; stroke-linejoin: miter; stroke-linecap: square"/>
   </g>
   <g id="patch_58">
    <path d="M 322.853415 12.220482 
L 464.751756 12.220482 
" style="fill: none; stroke: #000000; stroke-width: 0.8; stroke-linejoin: miter; stroke-linecap: square"/>
   </g>
   <g id="text_27">
    <!-- Midline Extension -->
    <g transform="translate(358.573836 6.220482) scale(0.08 -0.08)">
     <defs>
      <path id="DejaVuSans-4d" d="M 628 4666 
L 1569 4666 
L 2759 1491 
L 3956 4666 
L 4897 4666 
L 4897 0 
L 4281 0 
L 4281 4097 
L 3078 897 
L 2444 897 
L 1241 4097 
L 1241 0 
L 628 0 
L 628 4666 
z
" transform="scale(0.015625)"/>
      <path id="DejaVuSans-64" d="M 2906 2969 
L 2906 4863 
L 3481 4863 
L 3481 0 
L 2906 0 
L 2906 525 
Q 2725 213 2448 61 
Q 2172 -91 1784 -91 
Q 1150 -91 751 415 
Q 353 922 353 1747 
Q 353 2572 751 3078 
Q 1150 3584 1784 3584 
Q 2172 3584 2448 3432 
Q 2725 3281 2906 2969 
z
M 947 1747 
Q 947 1113 1208 752 
Q 1469 391 1925 391 
Q 2381 391 2643 752 
Q 2906 1113 2906 1747 
Q 2906 2381 2643 2742 
Q 2381 3103 1925 3103 
Q 1469 3103 1208 2742 
Q 947 2381 947 1747 
z
" transform="scale(0.015625)"/>
      <path id="DejaVuSans-45" d="M 628 4666 
L 3578 4666 
L 3578 4134 
L 1259 4134 
L 1259 2753 
L 3481 2753 
L 3481 2222 
L 1259 2222 
L 1259 531 
L 3634 531 
L 3634 0 
L 628 0 
L 628 4666 
z
" transform="scale(0.015625)"/>
      <path id="DejaVuSans-78" d="M 3513 3500 
L 2247 1797 
L 3578 0 
L 2900 0 
L 1881 1375 
L 863 0 
L 184 0 
L 1544 1831 
L 300 3500 
L 978 3500 
L 1906 2253 
L 2834 3500 
L 3513 3500 
z
" transform="scale(0.015625)"/>
     </defs>
     <use xlink:href="#DejaVuSans-4d"/>
     <use xlink:href="#DejaVuSans-69" x="86.279297"/>
     <use xlink:href="#DejaVuSans-64" x="114.0625"/>
     <use xlink:href="#DejaVuSans-6c" x="177.539062"/>
     <use xlink:href="#DejaVuSans-69" x="205.322266"/>
     <use xlink:href="#DejaVuSans-6e" x="233.105469"/>
     <use xlink:href="#DejaVuSans-65" x="296.484375"/>
     <use xlink:href="#DejaVuSans-20" x="358.007812"/>
     <use xlink:href="#DejaVuSans-45" x="389.794922"/>
     <use xlink:href="#DejaVuSans-78" x="452.978516"/>
     <use xlink:href="#DejaVuSans-74" x="512.158203"/>
     <use xlink:href="#DejaVuSans-65" x="551.367188"/>
     <use xlink:href="#DejaVuSans-6e" x="612.890625"/>
     <use xlink:href="#DejaVuSans-73" x="676.269531"/>
     <use xlink:href="#DejaVuSans-69" x="728.369141"/>
     <use xlink:href="#DejaVuSans-6f" x="756.152344"/>
     <use xlink:href="#DejaVuSans-6e" x="817.333984"/>
    </g>
   </g>
   <g id="legend_3">
    <g id="patch_59">
     <path d="M 408.245819 34.634232 
L 460.551756 34.634232 
Q 461.751756 34.634232 461.751756 33.434232 
L 461.751756 16.420482 
Q 461.751756 15.220482 460.551756 15.220482 
L 408.245819 15.220482 
Q 407.045819 15.220482 407.045819 16.420482 
L 407.045819 33.434232 
Q 407.045819 34.634232 408.245819 34.634232 
z
" style="fill: #ffffff; opacity: 0.8; stroke: #cccccc; stroke-linejoin: miter"/>
    </g>
    <g id="patch_60">
     <path d="M 409.445819 22.179545 
L 421.445819 22.179545 
L 421.445819 17.979545 
L 409.445819 17.979545 
z
" style="fill: #00afa5"/>
    </g>
    <g id="text_28">
     <!-- False (555) -->
     <g transform="translate(426.245819 22.179545) scale(0.06 -0.06)">
      <defs>
       <path id="DejaVuSans-46" d="M 628 4666 
L 3309 4666 
L 3309 4134 
L 1259 4134 
L 1259 2759 
L 3109 2759 
L 3109 2228 
L 1259 2228 
L 1259 0 
L 628 0 
L 628 4666 
z
" transform="scale(0.015625)"/>
      </defs>
      <use xlink:href="#DejaVuSans-46"/>
      <use xlink:href="#DejaVuSans-61" x="48.394531"/>
      <use xlink:href="#DejaVuSans-6c" x="109.673828"/>
      <use xlink:href="#DejaVuSans-73" x="137.457031"/>
      <use xlink:href="#DejaVuSans-65" x="189.556641"/>
      <use xlink:href="#DejaVuSans-20" x="251.080078"/>
      <use xlink:href="#DejaVuSans-28" x="282.867188"/>
      <use xlink:href="#DejaVuSans-35" x="321.880859"/>
      <use xlink:href="#DejaVuSans-35" x="385.503906"/>
      <use xlink:href="#DejaVuSans-35" x="449.126953"/>
      <use xlink:href="#DejaVuSans-29" x="512.75"/>
     </g>
    </g>
    <g id="patch_61">
     <path d="M 409.445819 30.98642 
L 421.445819 30.98642 
L 421.445819 26.78642 
L 409.445819 26.78642 
z
" style="fill: #ae0060"/>
    </g>
    <g id="text_29">
     <!-- True (193) -->
     <g transform="translate(426.245819 30.98642) scale(0.06 -0.06)">
      <defs>
       <path id="DejaVuSans-75" d="M 544 1381 
L 544 3500 
L 1119 3500 
L 1119 1403 
Q 1119 906 1312 657 
Q 1506 409 1894 409 
Q 2359 409 2629 706 
Q 2900 1003 2900 1516 
L 2900 3500 
L 3475 3500 
L 3475 0 
L 2900 0 
L 2900 538 
Q 2691 219 2414 64 
Q 2138 -91 1772 -91 
Q 1169 -91 856 284 
Q 544 659 544 1381 
z
M 1991 3584 
L 1991 3584 
z
" transform="scale(0.015625)"/>
      </defs>
      <use xlink:href="#DejaVuSans-54"/>
      <use xlink:href="#DejaVuSans-72" x="46.333984"/>
      <use xlink:href="#DejaVuSans-75" x="87.447266"/>
      <use xlink:href="#DejaVuSans-65" x="150.826172"/>
      <use xlink:href="#DejaVuSans-20" x="212.349609"/>
      <use xlink:href="#DejaVuSans-28" x="244.136719"/>
      <use xlink:href="#DejaVuSans-31" x="283.150391"/>
      <use xlink:href="#DejaVuSans-39" x="346.773438"/>
      <use xlink:href="#DejaVuSans-33" x="410.396484"/>
      <use xlink:href="#DejaVuSans-29" x="474.019531"/>
     </g>
    </g>
   </g>
  </g>
  <g id="axes_4">
   <g id="matplotlib.axis_7">
    <g id="text_30">
     <!-- Lymph Node Level -->
     <g transform="translate(203.019244 114.418387) scale(0.08 -0.08)">
      <defs>
       <path id="DejaVuSans-68" d="M 3513 2113 
L 3513 0 
L 2938 0 
L 2938 2094 
Q 2938 2591 2744 2837 
Q 2550 3084 2163 3084 
Q 1697 3084 1428 2787 
Q 1159 2491 1159 1978 
L 1159 0 
L 581 0 
L 581 4863 
L 1159 4863 
L 1159 2956 
Q 1366 3272 1645 3428 
Q 1925 3584 2291 3584 
Q 2894 3584 3203 3211 
Q 3513 2838 3513 2113 
z
" transform="scale(0.015625)"/>
      </defs>
      <use xlink:href="#DejaVuSans-4c"/>
      <use xlink:href="#DejaVuSans-79" x="46.587891"/>
      <use xlink:href="#DejaVuSans-6d" x="105.767578"/>
      <use xlink:href="#DejaVuSans-70" x="203.179688"/>
      <use xlink:href="#DejaVuSans-68" x="266.65625"/>
      <use xlink:href="#DejaVuSans-20" x="330.035156"/>
      <use xlink:href="#DejaVuSans-4e" x="361.822266"/>
      <use xlink:href="#DejaVuSans-6f" x="436.626953"/>
      <use xlink:href="#DejaVuSans-64" x="497.808594"/>
      <use xlink:href="#DejaVuSans-65" x="561.285156"/>
      <use xlink:href="#DejaVuSans-20" x="622.808594"/>
      <use xlink:href="#DejaVuSans-4c" x="654.595703"/>
      <use xlink:href="#DejaVuSans-65" x="708.558594"/>
      <use xlink:href="#DejaVuSans-76" x="770.082031"/>
      <use xlink:href="#DejaVuSans-65" x="829.261719"/>
      <use xlink:href="#DejaVuSans-6c" x="890.785156"/>
     </g>
    </g>
   </g>
   <g id="matplotlib.axis_8"/>
  </g>
 </g>
 <defs>
  <clipPath id="pb54653599b">
   <rect x="14.776732" y="12.220482" width="141.898341" height="79.119155"/>
  </clipPath>
  <clipPath id="p067b757dde">
   <rect x="168.815074" y="12.220482" width="141.898341" height="79.119155"/>
  </clipPath>
  <clipPath id="p3a279a3b56">
   <rect x="322.853415" y="12.220482" width="141.898341" height="79.119155"/>
  </clipPath>
 </defs>
</svg>
