<?xml version="1.0" encoding="utf-8" standalone="no"?>
<!DOCTYPE svg PUBLIC "-//W3C//DTD SVG 1.1//EN"
  "http://www.w3.org/Graphics/SVG/1.1/DTD/svg11.dtd">
<svg xmlns:xlink="http://www.w3.org/1999/xlink" width="223.948477pt" height="280.827878pt" viewBox="0 0 223.948477 280.827878" xmlns="http://www.w3.org/2000/svg" version="1.1">
 <metadata>
  <rdf:RDF xmlns:dc="http://purl.org/dc/elements/1.1/" xmlns:cc="http://creativecommons.org/ns#" xmlns:rdf="http://www.w3.org/1999/02/22-rdf-syntax-ns#">
   <cc:Work>
    <dc:type rdf:resource="http://purl.org/dc/dcmitype/StillImage"/>
    <dc:date>2024-08-27T14:02:14.903477</dc:date>
    <dc:format>image/svg+xml</dc:format>
    <dc:creator>
     <cc:Agent>
      <dc:title>Matplotlib v3.9.0, https://matplotlib.org/</dc:title>
     </cc:Agent>
    </dc:creator>
   </cc:Work>
  </rdf:RDF>
 </metadata>
 <defs>
  <style type="text/css">*{stroke-linejoin: round; stroke-linecap: butt}</style>
 </defs>
 <g id="figure_1">
  <g id="patch_1">
   <path d="M 0 280.827878 
L 223.948477 280.827878 
L 223.948477 0 
L 0 0 
z
" style="fill: #ffffff"/>
  </g>
  <g id="axes_1">
   <g id="patch_2">
    <path d="M 33.53767 123.29683 
L 219.989244 123.29683 
L 219.989244 2.421264 
L 33.53767 2.421264 
z
" style="fill: #ffffff"/>
   </g>
   <g id="patch_3">
    <path d="M 27.944123 123.29683 
L 33.53767 123.29683 
L 33.53767 119.882394 
L 27.944123 119.882394 
z
" clip-path="url(#p05c4f02da3)" style="fill: #005ea8"/>
   </g>
   <g id="patch_4">
    <path d="M 46.58928 123.29683 
L 52.182827 123.29683 
L 52.182827 108.663535 
L 46.58928 108.663535 
z
" clip-path="url(#p05c4f02da3)" style="fill: #005ea8"/>
   </g>
   <g id="patch_5">
    <path d="M 65.234438 123.29683 
L 70.827985 123.29683 
L 70.827985 95.075475 
L 65.234438 95.075475 
z
" clip-path="url(#p05c4f02da3)" style="fill: #005ea8"/>
   </g>
   <g id="patch_6">
    <path d="M 83.879595 123.29683 
L 89.473142 123.29683 
L 89.473142 91.043852 
L 83.879595 91.043852 
z
" clip-path="url(#p05c4f02da3)" style="fill: #005ea8"/>
   </g>
   <g id="patch_7">
    <path d="M 102.524752 123.29683 
L 108.1183 123.29683 
L 108.1183 99.107097 
L 102.524752 99.107097 
z
" clip-path="url(#p05c4f02da3)" style="fill: #005ea8"/>
   </g>
   <g id="patch_8">
    <path d="M 121.16991 123.29683 
L 126.763457 123.29683 
L 126.763457 110.856396 
L 121.16991 110.856396 
z
" clip-path="url(#p05c4f02da3)" style="fill: #005ea8"/>
   </g>
   <g id="patch_9">
    <path d="M 139.815067 123.29683 
L 145.408615 123.29683 
L 145.408615 118.853818 
L 139.815067 118.853818 
z
" clip-path="url(#p05c4f02da3)" style="fill: #005ea8"/>
   </g>
   <g id="patch_10">
    <path d="M 158.460225 123.29683 
L 164.053772 123.29683 
L 164.053772 122.208745 
L 158.460225 122.208745 
z
" clip-path="url(#p05c4f02da3)" style="fill: #005ea8"/>
   </g>
   <g id="patch_11">
    <path d="M 177.105382 123.29683 
L 182.698929 123.29683 
L 182.698929 123.121959 
L 177.105382 123.121959 
z
" clip-path="url(#p05c4f02da3)" style="fill: #005ea8"/>
   </g>
   <g id="patch_12">
    <path d="M 195.75054 123.29683 
L 201.344087 123.29683 
L 201.344087 123.280175 
L 195.75054 123.280175 
z
" clip-path="url(#p05c4f02da3)" style="fill: #005ea8"/>
   </g>
   <g id="patch_13">
    <path d="M 214.395697 123.29683 
L 219.989244 123.29683 
L 219.989244 123.296116 
L 214.395697 123.296116 
z
" clip-path="url(#p05c4f02da3)" style="fill: #005ea8"/>
   </g>
   <g id="patch_14">
    <path d="M 33.53767 123.29683 
L 39.131217 123.29683 
L 39.131217 123.032285 
L 33.53767 123.032285 
z
" clip-path="url(#p05c4f02da3)" style="fill: #f17900"/>
   </g>
   <g id="patch_15">
    <path d="M 52.182827 123.29683 
L 57.776375 123.29683 
L 57.776375 121.061563 
L 52.182827 121.061563 
z
" clip-path="url(#p05c4f02da3)" style="fill: #f17900"/>
   </g>
   <g id="patch_16">
    <path d="M 70.827985 123.29683 
L 76.421532 123.29683 
L 76.421532 114.797762 
L 70.827985 114.797762 
z
" clip-path="url(#p05c4f02da3)" style="fill: #f17900"/>
   </g>
   <g id="patch_17">
    <path d="M 89.473142 123.29683 
L 95.066689 123.29683 
L 95.066689 104.146803 
L 89.473142 104.146803 
z
" clip-path="url(#p05c4f02da3)" style="fill: #f17900"/>
   </g>
   <g id="patch_18">
    <path d="M 108.1183 123.29683 
L 113.711847 123.29683 
L 113.711847 94.980511 
L 108.1183 94.980511 
z
" clip-path="url(#p05c4f02da3)" style="fill: #f17900"/>
   </g>
   <g id="patch_19">
    <path d="M 126.763457 123.29683 
L 132.357004 123.29683 
L 132.357004 94.58589 
L 126.763457 94.58589 
z
" clip-path="url(#p05c4f02da3)" style="fill: #f17900"/>
   </g>
   <g id="patch_20">
    <path d="M 145.408615 123.29683 
L 151.002162 123.29683 
L 151.002162 103.080815 
L 145.408615 103.080815 
z
" clip-path="url(#p05c4f02da3)" style="fill: #f17900"/>
   </g>
   <g id="patch_21">
    <path d="M 164.053772 123.29683 
L 169.647319 123.29683 
L 169.647319 113.535997 
L 164.053772 113.535997 
z
" clip-path="url(#p05c4f02da3)" style="fill: #f17900"/>
   </g>
   <g id="patch_22">
    <path d="M 182.698929 123.29683 
L 188.292477 123.29683 
L 188.292477 120.204061 
L 182.698929 120.204061 
z
" clip-path="url(#p05c4f02da3)" style="fill: #f17900"/>
   </g>
   <g id="patch_23">
    <path d="M 201.344087 123.29683 
L 206.937634 123.29683 
L 206.937634 122.716113 
L 201.344087 122.716113 
z
" clip-path="url(#p05c4f02da3)" style="fill: #f17900"/>
   </g>
   <g id="patch_24">
    <path d="M 219.989244 123.29683 
L 225.582792 123.29683 
L 225.582792 123.247762 
L 219.989244 123.247762 
z
" clip-path="url(#p05c4f02da3)" style="fill: #f17900"/>
   </g>
   <g id="matplotlib.axis_1">
    <g id="xtick_1"/>
    <g id="xtick_2"/>
    <g id="xtick_3"/>
    <g id="xtick_4"/>
    <g id="xtick_5"/>
    <g id="xtick_6"/>
    <g id="xtick_7"/>
    <g id="xtick_8"/>
    <g id="xtick_9"/>
    <g id="xtick_10"/>
    <g id="xtick_11"/>
   </g>
   <g id="matplotlib.axis_2">
    <g id="ytick_1">
     <g id="line2d_1">
      <path d="M 33.53767 123.29683 
L 219.989244 123.29683 
" clip-path="url(#p05c4f02da3)" style="fill: none; stroke: #c5d5db; stroke-opacity: 0.5; stroke-width: 0.8; stroke-linecap: square"/>
     </g>
     <g id="text_1">
      <!-- 0% -->
      <g transform="translate(19.519232 125.576361) scale(0.06 -0.06)">
       <defs>
        <path id="DejaVuSans-30" d="M 2034 4250 
Q 1547 4250 1301 3770 
Q 1056 3291 1056 2328 
Q 1056 1369 1301 889 
Q 1547 409 2034 409 
Q 2525 409 2770 889 
Q 3016 1369 3016 2328 
Q 3016 3291 2770 3770 
Q 2525 4250 2034 4250 
z
M 2034 4750 
Q 2819 4750 3233 4129 
Q 3647 3509 3647 2328 
Q 3647 1150 3233 529 
Q 2819 -91 2034 -91 
Q 1250 -91 836 529 
Q 422 1150 422 2328 
Q 422 3509 836 4129 
Q 1250 4750 2034 4750 
z
" transform="scale(0.015625)"/>
        <path id="DejaVuSans-25" d="M 4653 2053 
Q 4381 2053 4226 1822 
Q 4072 1591 4072 1178 
Q 4072 772 4226 539 
Q 4381 306 4653 306 
Q 4919 306 5073 539 
Q 5228 772 5228 1178 
Q 5228 1588 5073 1820 
Q 4919 2053 4653 2053 
z
M 4653 2450 
Q 5147 2450 5437 2106 
Q 5728 1763 5728 1178 
Q 5728 594 5436 251 
Q 5144 -91 4653 -91 
Q 4153 -91 3862 251 
Q 3572 594 3572 1178 
Q 3572 1766 3864 2108 
Q 4156 2450 4653 2450 
z
M 1428 4353 
Q 1159 4353 1004 4120 
Q 850 3888 850 3481 
Q 850 3069 1003 2837 
Q 1156 2606 1428 2606 
Q 1700 2606 1854 2837 
Q 2009 3069 2009 3481 
Q 2009 3884 1853 4118 
Q 1697 4353 1428 4353 
z
M 4250 4750 
L 4750 4750 
L 1831 -91 
L 1331 -91 
L 4250 4750 
z
M 1428 4750 
Q 1922 4750 2215 4408 
Q 2509 4066 2509 3481 
Q 2509 2891 2217 2550 
Q 1925 2209 1428 2209 
Q 931 2209 642 2551 
Q 353 2894 353 3481 
Q 353 4063 643 4406 
Q 934 4750 1428 4750 
z
" transform="scale(0.015625)"/>
       </defs>
       <use xlink:href="#DejaVuSans-30"/>
       <use xlink:href="#DejaVuSans-25" x="63.623047"/>
      </g>
     </g>
    </g>
    <g id="ytick_2">
     <g id="line2d_2">
      <path d="M 33.53767 99.121717 
L 219.989244 99.121717 
" clip-path="url(#p05c4f02da3)" style="fill: none; stroke: #c5d5db; stroke-opacity: 0.5; stroke-width: 0.8; stroke-linecap: square"/>
     </g>
     <g id="text_2">
      <!-- 20% -->
      <g transform="translate(15.701732 101.401248) scale(0.06 -0.06)">
       <defs>
        <path id="DejaVuSans-32" d="M 1228 531 
L 3431 531 
L 3431 0 
L 469 0 
L 469 531 
Q 828 903 1448 1529 
Q 2069 2156 2228 2338 
Q 2531 2678 2651 2914 
Q 2772 3150 2772 3378 
Q 2772 3750 2511 3984 
Q 2250 4219 1831 4219 
Q 1534 4219 1204 4116 
Q 875 4013 500 3803 
L 500 4441 
Q 881 4594 1212 4672 
Q 1544 4750 1819 4750 
Q 2544 4750 2975 4387 
Q 3406 4025 3406 3419 
Q 3406 3131 3298 2873 
Q 3191 2616 2906 2266 
Q 2828 2175 2409 1742 
Q 1991 1309 1228 531 
z
" transform="scale(0.015625)"/>
       </defs>
       <use xlink:href="#DejaVuSans-32"/>
       <use xlink:href="#DejaVuSans-30" x="63.623047"/>
       <use xlink:href="#DejaVuSans-25" x="127.246094"/>
      </g>
     </g>
    </g>
    <g id="ytick_3">
     <g id="line2d_3">
      <path d="M 33.53767 74.946603 
L 219.989244 74.946603 
" clip-path="url(#p05c4f02da3)" style="fill: none; stroke: #c5d5db; stroke-opacity: 0.5; stroke-width: 0.8; stroke-linecap: square"/>
     </g>
     <g id="text_3">
      <!-- 40% -->
      <g transform="translate(15.701732 77.226135) scale(0.06 -0.06)">
       <defs>
        <path id="DejaVuSans-34" d="M 2419 4116 
L 825 1625 
L 2419 1625 
L 2419 4116 
z
M 2253 4666 
L 3047 4666 
L 3047 1625 
L 3713 1625 
L 3713 1100 
L 3047 1100 
L 3047 0 
L 2419 0 
L 2419 1100 
L 313 1100 
L 313 1709 
L 2253 4666 
z
" transform="scale(0.015625)"/>
       </defs>
       <use xlink:href="#DejaVuSans-34"/>
       <use xlink:href="#DejaVuSans-30" x="63.623047"/>
       <use xlink:href="#DejaVuSans-25" x="127.246094"/>
      </g>
     </g>
    </g>
    <g id="ytick_4">
     <g id="line2d_4">
      <path d="M 33.53767 50.77149 
L 219.989244 50.77149 
" clip-path="url(#p05c4f02da3)" style="fill: none; stroke: #c5d5db; stroke-opacity: 0.5; stroke-width: 0.8; stroke-linecap: square"/>
     </g>
     <g id="text_4">
      <!-- 60% -->
      <g transform="translate(15.701732 53.051021) scale(0.06 -0.06)">
       <defs>
        <path id="DejaVuSans-36" d="M 2113 2584 
Q 1688 2584 1439 2293 
Q 1191 2003 1191 1497 
Q 1191 994 1439 701 
Q 1688 409 2113 409 
Q 2538 409 2786 701 
Q 3034 994 3034 1497 
Q 3034 2003 2786 2293 
Q 2538 2584 2113 2584 
z
M 3366 4563 
L 3366 3988 
Q 3128 4100 2886 4159 
Q 2644 4219 2406 4219 
Q 1781 4219 1451 3797 
Q 1122 3375 1075 2522 
Q 1259 2794 1537 2939 
Q 1816 3084 2150 3084 
Q 2853 3084 3261 2657 
Q 3669 2231 3669 1497 
Q 3669 778 3244 343 
Q 2819 -91 2113 -91 
Q 1303 -91 875 529 
Q 447 1150 447 2328 
Q 447 3434 972 4092 
Q 1497 4750 2381 4750 
Q 2619 4750 2861 4703 
Q 3103 4656 3366 4563 
z
" transform="scale(0.015625)"/>
       </defs>
       <use xlink:href="#DejaVuSans-36"/>
       <use xlink:href="#DejaVuSans-30" x="63.623047"/>
       <use xlink:href="#DejaVuSans-25" x="127.246094"/>
      </g>
     </g>
    </g>
    <g id="ytick_5">
     <g id="line2d_5">
      <path d="M 33.53767 26.596377 
L 219.989244 26.596377 
" clip-path="url(#p05c4f02da3)" style="fill: none; stroke: #c5d5db; stroke-opacity: 0.5; stroke-width: 0.8; stroke-linecap: square"/>
     </g>
     <g id="text_5">
      <!-- 80% -->
      <g transform="translate(15.701732 28.875908) scale(0.06 -0.06)">
       <defs>
        <path id="DejaVuSans-38" d="M 2034 2216 
Q 1584 2216 1326 1975 
Q 1069 1734 1069 1313 
Q 1069 891 1326 650 
Q 1584 409 2034 409 
Q 2484 409 2743 651 
Q 3003 894 3003 1313 
Q 3003 1734 2745 1975 
Q 2488 2216 2034 2216 
z
M 1403 2484 
Q 997 2584 770 2862 
Q 544 3141 544 3541 
Q 544 4100 942 4425 
Q 1341 4750 2034 4750 
Q 2731 4750 3128 4425 
Q 3525 4100 3525 3541 
Q 3525 3141 3298 2862 
Q 3072 2584 2669 2484 
Q 3125 2378 3379 2068 
Q 3634 1759 3634 1313 
Q 3634 634 3220 271 
Q 2806 -91 2034 -91 
Q 1263 -91 848 271 
Q 434 634 434 1313 
Q 434 1759 690 2068 
Q 947 2378 1403 2484 
z
M 1172 3481 
Q 1172 3119 1398 2916 
Q 1625 2713 2034 2713 
Q 2441 2713 2670 2916 
Q 2900 3119 2900 3481 
Q 2900 3844 2670 4047 
Q 2441 4250 2034 4250 
Q 1625 4250 1398 4047 
Q 1172 3844 1172 3481 
z
" transform="scale(0.015625)"/>
       </defs>
       <use xlink:href="#DejaVuSans-38"/>
       <use xlink:href="#DejaVuSans-30" x="63.623047"/>
       <use xlink:href="#DejaVuSans-25" x="127.246094"/>
      </g>
     </g>
    </g>
    <g id="ytick_6">
     <g id="line2d_6">
      <path d="M 33.53767 2.421264 
L 219.989244 2.421264 
" clip-path="url(#p05c4f02da3)" style="fill: none; stroke: #c5d5db; stroke-opacity: 0.5; stroke-width: 0.8; stroke-linecap: square"/>
     </g>
     <g id="text_6">
      <!-- 100% -->
      <g transform="translate(11.884232 4.700795) scale(0.06 -0.06)">
       <defs>
        <path id="DejaVuSans-31" d="M 794 531 
L 1825 531 
L 1825 4091 
L 703 3866 
L 703 4441 
L 1819 4666 
L 2450 4666 
L 2450 531 
L 3481 531 
L 3481 0 
L 794 0 
L 794 531 
z
" transform="scale(0.015625)"/>
       </defs>
       <use xlink:href="#DejaVuSans-31"/>
       <use xlink:href="#DejaVuSans-30" x="63.623047"/>
       <use xlink:href="#DejaVuSans-30" x="127.246094"/>
       <use xlink:href="#DejaVuSans-25" x="190.869141"/>
      </g>
     </g>
    </g>
    <g id="text_7">
     <!-- probability -->
     <g transform="translate(6.220482 84.199672) rotate(-90) scale(0.08 -0.08)">
      <defs>
       <path id="DejaVuSans-70" d="M 1159 525 
L 1159 -1331 
L 581 -1331 
L 581 3500 
L 1159 3500 
L 1159 2969 
Q 1341 3281 1617 3432 
Q 1894 3584 2278 3584 
Q 2916 3584 3314 3078 
Q 3713 2572 3713 1747 
Q 3713 922 3314 415 
Q 2916 -91 2278 -91 
Q 1894 -91 1617 61 
Q 1341 213 1159 525 
z
M 3116 1747 
Q 3116 2381 2855 2742 
Q 2594 3103 2138 3103 
Q 1681 3103 1420 2742 
Q 1159 2381 1159 1747 
Q 1159 1113 1420 752 
Q 1681 391 2138 391 
Q 2594 391 2855 752 
Q 3116 1113 3116 1747 
z
" transform="scale(0.015625)"/>
       <path id="DejaVuSans-72" d="M 2631 2963 
Q 2534 3019 2420 3045 
Q 2306 3072 2169 3072 
Q 1681 3072 1420 2755 
Q 1159 2438 1159 1844 
L 1159 0 
L 581 0 
L 581 3500 
L 1159 3500 
L 1159 2956 
Q 1341 3275 1631 3429 
Q 1922 3584 2338 3584 
Q 2397 3584 2469 3576 
Q 2541 3569 2628 3553 
L 2631 2963 
z
" transform="scale(0.015625)"/>
       <path id="DejaVuSans-6f" d="M 1959 3097 
Q 1497 3097 1228 2736 
Q 959 2375 959 1747 
Q 959 1119 1226 758 
Q 1494 397 1959 397 
Q 2419 397 2687 759 
Q 2956 1122 2956 1747 
Q 2956 2369 2687 2733 
Q 2419 3097 1959 3097 
z
M 1959 3584 
Q 2709 3584 3137 3096 
Q 3566 2609 3566 1747 
Q 3566 888 3137 398 
Q 2709 -91 1959 -91 
Q 1206 -91 779 398 
Q 353 888 353 1747 
Q 353 2609 779 3096 
Q 1206 3584 1959 3584 
z
" transform="scale(0.015625)"/>
       <path id="DejaVuSans-62" d="M 3116 1747 
Q 3116 2381 2855 2742 
Q 2594 3103 2138 3103 
Q 1681 3103 1420 2742 
Q 1159 2381 1159 1747 
Q 1159 1113 1420 752 
Q 1681 391 2138 391 
Q 2594 391 2855 752 
Q 3116 1113 3116 1747 
z
M 1159 2969 
Q 1341 3281 1617 3432 
Q 1894 3584 2278 3584 
Q 2916 3584 3314 3078 
Q 3713 2572 3713 1747 
Q 3713 922 3314 415 
Q 2916 -91 2278 -91 
Q 1894 -91 1617 61 
Q 1341 213 1159 525 
L 1159 0 
L 581 0 
L 581 4863 
L 1159 4863 
L 1159 2969 
z
" transform="scale(0.015625)"/>
       <path id="DejaVuSans-61" d="M 2194 1759 
Q 1497 1759 1228 1600 
Q 959 1441 959 1056 
Q 959 750 1161 570 
Q 1363 391 1709 391 
Q 2188 391 2477 730 
Q 2766 1069 2766 1631 
L 2766 1759 
L 2194 1759 
z
M 3341 1997 
L 3341 0 
L 2766 0 
L 2766 531 
Q 2569 213 2275 61 
Q 1981 -91 1556 -91 
Q 1019 -91 701 211 
Q 384 513 384 1019 
Q 384 1609 779 1909 
Q 1175 2209 1959 2209 
L 2766 2209 
L 2766 2266 
Q 2766 2663 2505 2880 
Q 2244 3097 1772 3097 
Q 1472 3097 1187 3025 
Q 903 2953 641 2809 
L 641 3341 
Q 956 3463 1253 3523 
Q 1550 3584 1831 3584 
Q 2591 3584 2966 3190 
Q 3341 2797 3341 1997 
z
" transform="scale(0.015625)"/>
       <path id="DejaVuSans-69" d="M 603 3500 
L 1178 3500 
L 1178 0 
L 603 0 
L 603 3500 
z
M 603 4863 
L 1178 4863 
L 1178 4134 
L 603 4134 
L 603 4863 
z
" transform="scale(0.015625)"/>
       <path id="DejaVuSans-6c" d="M 603 4863 
L 1178 4863 
L 1178 0 
L 603 0 
L 603 4863 
z
" transform="scale(0.015625)"/>
       <path id="DejaVuSans-74" d="M 1172 4494 
L 1172 3500 
L 2356 3500 
L 2356 3053 
L 1172 3053 
L 1172 1153 
Q 1172 725 1289 603 
Q 1406 481 1766 481 
L 2356 481 
L 2356 0 
L 1766 0 
Q 1100 0 847 248 
Q 594 497 594 1153 
L 594 3053 
L 172 3053 
L 172 3500 
L 594 3500 
L 594 4494 
L 1172 4494 
z
" transform="scale(0.015625)"/>
       <path id="DejaVuSans-79" d="M 2059 -325 
Q 1816 -950 1584 -1140 
Q 1353 -1331 966 -1331 
L 506 -1331 
L 506 -850 
L 844 -850 
Q 1081 -850 1212 -737 
Q 1344 -625 1503 -206 
L 1606 56 
L 191 3500 
L 800 3500 
L 1894 763 
L 2988 3500 
L 3597 3500 
L 2059 -325 
z
" transform="scale(0.015625)"/>
      </defs>
      <use xlink:href="#DejaVuSans-70"/>
      <use xlink:href="#DejaVuSans-72" x="63.476562"/>
      <use xlink:href="#DejaVuSans-6f" x="102.339844"/>
      <use xlink:href="#DejaVuSans-62" x="163.521484"/>
      <use xlink:href="#DejaVuSans-61" x="226.998047"/>
      <use xlink:href="#DejaVuSans-62" x="288.277344"/>
      <use xlink:href="#DejaVuSans-69" x="351.753906"/>
      <use xlink:href="#DejaVuSans-6c" x="379.537109"/>
      <use xlink:href="#DejaVuSans-69" x="407.320312"/>
      <use xlink:href="#DejaVuSans-74" x="435.103516"/>
      <use xlink:href="#DejaVuSans-79" x="474.3125"/>
     </g>
    </g>
   </g>
   <g id="line2d_7">
    <path d="M 33.53767 2.421264 
L 52.182827 12.105397 
L 70.827985 21.01367 
L 89.473142 29.208244 
L 108.1183 36.746297 
L 126.763457 43.680427 
L 145.408615 50.059018 
L 164.053772 55.926579 
L 182.698929 61.324051 
L 201.344087 66.289096 
L 219.989244 70.856359 
" clip-path="url(#p05c4f02da3)" style="fill: none; stroke: #00afa5; stroke-width: 1.5; stroke-linecap: square"/>
    <defs>
     <path id="mdae06502d1" d="M 0 3 
C 0.795609 3 1.55874 2.683901 2.12132 2.12132 
C 2.683901 1.55874 3 0.795609 3 0 
C 3 -0.795609 2.683901 -1.55874 2.12132 -2.12132 
C 1.55874 -2.683901 0.795609 -3 0 -3 
C -0.795609 -3 -1.55874 -2.683901 -2.12132 -2.12132 
C -2.683901 -1.55874 -3 -0.795609 -3 0 
C -3 0.795609 -2.683901 1.55874 -2.12132 2.12132 
C -1.55874 2.683901 -0.795609 3 0 3 
z
" style="stroke: #00afa5"/>
    </defs>
    <g clip-path="url(#p05c4f02da3)">
     <use xlink:href="#mdae06502d1" x="33.53767" y="2.421264" style="fill: #00afa5; stroke: #00afa5"/>
     <use xlink:href="#mdae06502d1" x="52.182827" y="12.105397" style="fill: #00afa5; stroke: #00afa5"/>
     <use xlink:href="#mdae06502d1" x="70.827985" y="21.01367" style="fill: #00afa5; stroke: #00afa5"/>
     <use xlink:href="#mdae06502d1" x="89.473142" y="29.208244" style="fill: #00afa5; stroke: #00afa5"/>
     <use xlink:href="#mdae06502d1" x="108.1183" y="36.746297" style="fill: #00afa5; stroke: #00afa5"/>
     <use xlink:href="#mdae06502d1" x="126.763457" y="43.680427" style="fill: #00afa5; stroke: #00afa5"/>
     <use xlink:href="#mdae06502d1" x="145.408615" y="50.059018" style="fill: #00afa5; stroke: #00afa5"/>
     <use xlink:href="#mdae06502d1" x="164.053772" y="55.926579" style="fill: #00afa5; stroke: #00afa5"/>
     <use xlink:href="#mdae06502d1" x="182.698929" y="61.324051" style="fill: #00afa5; stroke: #00afa5"/>
     <use xlink:href="#mdae06502d1" x="201.344087" y="66.289096" style="fill: #00afa5; stroke: #00afa5"/>
     <use xlink:href="#mdae06502d1" x="219.989244" y="70.856359" style="fill: #00afa5; stroke: #00afa5"/>
    </g>
   </g>
   <g id="line2d_8">
    <path d="M 33.53767 123.29683 
L 52.182827 113.612697 
L 70.827985 104.704423 
L 89.473142 96.509849 
L 108.1183 88.971797 
L 126.763457 82.037667 
L 145.408615 75.659075 
L 164.053772 69.791515 
L 182.698929 64.394043 
L 201.344087 59.428998 
L 219.989244 54.861735 
" clip-path="url(#p05c4f02da3)" style="fill: none; stroke: #ae0060; stroke-width: 1.5; stroke-linecap: square"/>
    <defs>
     <path id="mc36f735a50" d="M 0 3 
C 0.795609 3 1.55874 2.683901 2.12132 2.12132 
C 2.683901 1.55874 3 0.795609 3 0 
C 3 -0.795609 2.683901 -1.55874 2.12132 -2.12132 
C 1.55874 -2.683901 0.795609 -3 0 -3 
C -0.795609 -3 -1.55874 -2.683901 -2.12132 -2.12132 
C -2.683901 -1.55874 -3 -0.795609 -3 0 
C -3 0.795609 -2.683901 1.55874 -2.12132 2.12132 
C -1.55874 2.683901 -0.795609 3 0 3 
z
" style="stroke: #ae0060"/>
    </defs>
    <g clip-path="url(#p05c4f02da3)">
     <use xlink:href="#mc36f735a50" x="33.53767" y="123.29683" style="fill: #ae0060; stroke: #ae0060"/>
     <use xlink:href="#mc36f735a50" x="52.182827" y="113.612697" style="fill: #ae0060; stroke: #ae0060"/>
     <use xlink:href="#mc36f735a50" x="70.827985" y="104.704423" style="fill: #ae0060; stroke: #ae0060"/>
     <use xlink:href="#mc36f735a50" x="89.473142" y="96.509849" style="fill: #ae0060; stroke: #ae0060"/>
     <use xlink:href="#mc36f735a50" x="108.1183" y="88.971797" style="fill: #ae0060; stroke: #ae0060"/>
     <use xlink:href="#mc36f735a50" x="126.763457" y="82.037667" style="fill: #ae0060; stroke: #ae0060"/>
     <use xlink:href="#mc36f735a50" x="145.408615" y="75.659075" style="fill: #ae0060; stroke: #ae0060"/>
     <use xlink:href="#mc36f735a50" x="164.053772" y="69.791515" style="fill: #ae0060; stroke: #ae0060"/>
     <use xlink:href="#mc36f735a50" x="182.698929" y="64.394043" style="fill: #ae0060; stroke: #ae0060"/>
     <use xlink:href="#mc36f735a50" x="201.344087" y="59.428998" style="fill: #ae0060; stroke: #ae0060"/>
     <use xlink:href="#mc36f735a50" x="219.989244" y="54.861735" style="fill: #ae0060; stroke: #ae0060"/>
    </g>
   </g>
   <g id="patch_25">
    <path d="M 33.53767 123.29683 
L 33.53767 2.421264 
" style="fill: none; stroke: #000000; stroke-width: 0.8; stroke-linejoin: miter; stroke-linecap: square"/>
   </g>
   <g id="patch_26">
    <path d="M 219.989244 123.29683 
L 219.989244 2.421264 
" style="fill: none; stroke: #000000; stroke-width: 0.8; stroke-linejoin: miter; stroke-linecap: square"/>
   </g>
   <g id="patch_27">
    <path d="M 33.53767 123.29683 
L 219.989244 123.29683 
" style="fill: none; stroke: #000000; stroke-width: 0.8; stroke-linejoin: miter; stroke-linecap: square"/>
   </g>
   <g id="patch_28">
    <path d="M 33.53767 2.421264 
L 219.989244 2.421264 
" style="fill: none; stroke: #000000; stroke-width: 0.8; stroke-linejoin: miter; stroke-linecap: square"/>
   </g>
   <g id="legend_1">
    <g id="patch_29">
     <path d="M 118.409244 37.461264 
L 215.789244 37.461264 
Q 216.989244 37.461264 216.989244 36.261264 
L 216.989244 6.621264 
Q 216.989244 5.421264 215.789244 5.421264 
L 118.409244 5.421264 
Q 117.209244 5.421264 117.209244 6.621264 
L 117.209244 36.261264 
Q 117.209244 37.461264 118.409244 37.461264 
z
" style="fill: #ffffff; opacity: 0.8; stroke: #cccccc; stroke-linejoin: miter"/>
    </g>
    <g id="line2d_9">
     <path d="M 119.609244 10.401264 
L 125.609244 10.401264 
L 131.609244 10.401264 
" style="fill: none; stroke: #00afa5; stroke-width: 1.5; stroke-linecap: square"/>
     <g>
      <use xlink:href="#mdae06502d1" x="125.609244" y="10.401264" style="fill: #00afa5; stroke: #00afa5"/>
     </g>
    </g>
    <g id="text_8">
     <!-- cond. prob. $P(\epsilon=False \mid t)$ -->
     <g transform="translate(136.409244 12.501264) scale(0.06 -0.06)">
      <defs>
       <path id="DejaVuSans-63" d="M 3122 3366 
L 3122 2828 
Q 2878 2963 2633 3030 
Q 2388 3097 2138 3097 
Q 1578 3097 1268 2742 
Q 959 2388 959 1747 
Q 959 1106 1268 751 
Q 1578 397 2138 397 
Q 2388 397 2633 464 
Q 2878 531 3122 666 
L 3122 134 
Q 2881 22 2623 -34 
Q 2366 -91 2075 -91 
Q 1284 -91 818 406 
Q 353 903 353 1747 
Q 353 2603 823 3093 
Q 1294 3584 2113 3584 
Q 2378 3584 2631 3529 
Q 2884 3475 3122 3366 
z
" transform="scale(0.015625)"/>
       <path id="DejaVuSans-6e" d="M 3513 2113 
L 3513 0 
L 2938 0 
L 2938 2094 
Q 2938 2591 2744 2837 
Q 2550 3084 2163 3084 
Q 1697 3084 1428 2787 
Q 1159 2491 1159 1978 
L 1159 0 
L 581 0 
L 581 3500 
L 1159 3500 
L 1159 2956 
Q 1366 3272 1645 3428 
Q 1925 3584 2291 3584 
Q 2894 3584 3203 3211 
Q 3513 2838 3513 2113 
z
" transform="scale(0.015625)"/>
       <path id="DejaVuSans-64" d="M 2906 2969 
L 2906 4863 
L 3481 4863 
L 3481 0 
L 2906 0 
L 2906 525 
Q 2725 213 2448 61 
Q 2172 -91 1784 -91 
Q 1150 -91 751 415 
Q 353 922 353 1747 
Q 353 2572 751 3078 
Q 1150 3584 1784 3584 
Q 2172 3584 2448 3432 
Q 2725 3281 2906 2969 
z
M 947 1747 
Q 947 1113 1208 752 
Q 1469 391 1925 391 
Q 2381 391 2643 752 
Q 2906 1113 2906 1747 
Q 2906 2381 2643 2742 
Q 2381 3103 1925 3103 
Q 1469 3103 1208 2742 
Q 947 2381 947 1747 
z
" transform="scale(0.015625)"/>
       <path id="DejaVuSans-2e" d="M 684 794 
L 1344 794 
L 1344 0 
L 684 0 
L 684 794 
z
" transform="scale(0.015625)"/>
       <path id="DejaVuSans-20" transform="scale(0.015625)"/>
       <path id="DejaVuSans-Oblique-50" d="M 1081 4666 
L 2541 4666 
Q 3178 4666 3512 4369 
Q 3847 4072 3847 3500 
Q 3847 2731 3353 2303 
Q 2859 1875 1966 1875 
L 1172 1875 
L 806 0 
L 172 0 
L 1081 4666 
z
M 1613 4147 
L 1275 2394 
L 2069 2394 
Q 2606 2394 2893 2669 
Q 3181 2944 3181 3456 
Q 3181 3784 2986 3965 
Q 2791 4147 2438 4147 
L 1613 4147 
z
" transform="scale(0.015625)"/>
       <path id="DejaVuSans-28" d="M 1984 4856 
Q 1566 4138 1362 3434 
Q 1159 2731 1159 2009 
Q 1159 1288 1364 580 
Q 1569 -128 1984 -844 
L 1484 -844 
Q 1016 -109 783 600 
Q 550 1309 550 2009 
Q 550 2706 781 3412 
Q 1013 4119 1484 4856 
L 1984 4856 
z
" transform="scale(0.015625)"/>
       <path id="DejaVuSans-Oblique-3b5" d="M 1263 1888 
Q 925 1963 778 2166 
Q 669 2309 669 2503 
Q 669 3034 1175 3344 
Q 1575 3588 2188 3588 
Q 2425 3588 2684 3550 
Q 2944 3513 3234 3438 
L 3134 2916 
Q 2847 3006 2606 3047 
Q 2359 3088 2138 3088 
Q 1766 3088 1522 2944 
Q 1228 2772 1228 2522 
Q 1228 2356 1381 2241 
Q 1563 2103 1925 2103 
L 2409 2103 
L 2319 1628 
L 1856 1628 
Q 1425 1628 1172 1469 
Q 828 1253 828 916 
Q 828 703 1013 563 
Q 1244 388 1716 388 
Q 2006 388 2284 444 
Q 2563 503 2806 619 
L 2700 84 
Q 2403 -3 2131 -47 
Q 1859 -91 1609 -91 
Q 866 -91 516 194 
Q 250 413 250 781 
Q 250 1278 600 1584 
Q 859 1813 1263 1888 
z
" transform="scale(0.015625)"/>
       <path id="DejaVuSans-3d" d="M 678 2906 
L 4684 2906 
L 4684 2381 
L 678 2381 
L 678 2906 
z
M 678 1631 
L 4684 1631 
L 4684 1100 
L 678 1100 
L 678 1631 
z
" transform="scale(0.015625)"/>
       <path id="DejaVuSans-Oblique-46" d="M 1081 4666 
L 3756 4666 
L 3653 4134 
L 1606 4134 
L 1338 2759 
L 3188 2759 
L 3084 2228 
L 1234 2228 
L 800 0 
L 172 0 
L 1081 4666 
z
" transform="scale(0.015625)"/>
       <path id="DejaVuSans-Oblique-61" d="M 3438 1997 
L 3047 0 
L 2472 0 
L 2578 531 
Q 2325 219 2001 64 
Q 1678 -91 1281 -91 
Q 834 -91 548 182 
Q 263 456 263 884 
Q 263 1497 752 1853 
Q 1241 2209 2100 2209 
L 2900 2209 
L 2931 2363 
Q 2938 2388 2941 2417 
Q 2944 2447 2944 2509 
Q 2944 2788 2717 2942 
Q 2491 3097 2081 3097 
Q 1800 3097 1504 3025 
Q 1209 2953 897 2809 
L 997 3341 
Q 1322 3463 1633 3523 
Q 1944 3584 2234 3584 
Q 2853 3584 3176 3315 
Q 3500 3047 3500 2534 
Q 3500 2431 3484 2292 
Q 3469 2153 3438 1997 
z
M 2816 1759 
L 2241 1759 
Q 1534 1759 1195 1570 
Q 856 1381 856 984 
Q 856 709 1029 553 
Q 1203 397 1509 397 
Q 1978 397 2328 733 
Q 2678 1069 2791 1631 
L 2816 1759 
z
" transform="scale(0.015625)"/>
       <path id="DejaVuSans-Oblique-6c" d="M 1172 4863 
L 1747 4863 
L 800 0 
L 225 0 
L 1172 4863 
z
" transform="scale(0.015625)"/>
       <path id="DejaVuSans-Oblique-73" d="M 3200 3397 
L 3091 2853 
Q 2863 2978 2609 3040 
Q 2356 3103 2088 3103 
Q 1634 3103 1373 2948 
Q 1113 2794 1113 2528 
Q 1113 2219 1719 2053 
Q 1766 2041 1788 2034 
L 1972 1978 
Q 2547 1819 2739 1644 
Q 2931 1469 2931 1166 
Q 2931 609 2489 259 
Q 2047 -91 1331 -91 
Q 1053 -91 747 -37 
Q 441 16 72 128 
L 184 722 
Q 500 559 806 475 
Q 1113 391 1394 391 
Q 1816 391 2080 572 
Q 2344 753 2344 1031 
Q 2344 1331 1650 1516 
L 1591 1531 
L 1394 1581 
Q 956 1697 753 1886 
Q 550 2075 550 2369 
Q 550 2928 970 3256 
Q 1391 3584 2113 3584 
Q 2397 3584 2667 3537 
Q 2938 3491 3200 3397 
z
" transform="scale(0.015625)"/>
       <path id="DejaVuSans-Oblique-65" d="M 3078 2063 
Q 3088 2113 3092 2166 
Q 3097 2219 3097 2272 
Q 3097 2653 2873 2875 
Q 2650 3097 2266 3097 
Q 1838 3097 1509 2826 
Q 1181 2556 1013 2059 
L 3078 2063 
z
M 3578 1613 
L 903 1613 
Q 884 1494 878 1425 
Q 872 1356 872 1306 
Q 872 872 1139 634 
Q 1406 397 1894 397 
Q 2269 397 2603 481 
Q 2938 566 3225 728 
L 3116 159 
Q 2806 34 2476 -28 
Q 2147 -91 1806 -91 
Q 1078 -91 686 257 
Q 294 606 294 1247 
Q 294 1794 489 2264 
Q 684 2734 1063 3103 
Q 1306 3334 1642 3459 
Q 1978 3584 2356 3584 
Q 2950 3584 3301 3228 
Q 3653 2872 3653 2272 
Q 3653 2128 3634 1964 
Q 3616 1800 3578 1613 
z
" transform="scale(0.015625)"/>
       <path id="DejaVuSans-2223" d="M 1350 4934 
L 1850 4934 
L 1850 -1369 
L 1350 -1369 
L 1350 4934 
z
" transform="scale(0.015625)"/>
       <path id="DejaVuSans-Oblique-74" d="M 2706 3500 
L 2619 3053 
L 1472 3053 
L 1100 1153 
Q 1081 1047 1072 975 
Q 1063 903 1063 863 
Q 1063 663 1183 572 
Q 1303 481 1569 481 
L 2150 481 
L 2053 0 
L 1503 0 
Q 991 0 739 200 
Q 488 400 488 806 
Q 488 878 497 964 
Q 506 1050 525 1153 
L 897 3053 
L 409 3053 
L 500 3500 
L 978 3500 
L 1172 4494 
L 1747 4494 
L 1556 3500 
L 2706 3500 
z
" transform="scale(0.015625)"/>
       <path id="DejaVuSans-29" d="M 513 4856 
L 1013 4856 
Q 1481 4119 1714 3412 
Q 1947 2706 1947 2009 
Q 1947 1309 1714 600 
Q 1481 -109 1013 -844 
L 513 -844 
Q 928 -128 1133 580 
Q 1338 1288 1338 2009 
Q 1338 2731 1133 3434 
Q 928 4138 513 4856 
z
" transform="scale(0.015625)"/>
      </defs>
      <use xlink:href="#DejaVuSans-63" transform="translate(0 0.90625)"/>
      <use xlink:href="#DejaVuSans-6f" transform="translate(54.980469 0.90625)"/>
      <use xlink:href="#DejaVuSans-6e" transform="translate(116.162109 0.90625)"/>
      <use xlink:href="#DejaVuSans-64" transform="translate(179.541016 0.90625)"/>
      <use xlink:href="#DejaVuSans-2e" transform="translate(243.017578 0.90625)"/>
      <use xlink:href="#DejaVuSans-20" transform="translate(274.804688 0.90625)"/>
      <use xlink:href="#DejaVuSans-70" transform="translate(306.591797 0.90625)"/>
      <use xlink:href="#DejaVuSans-72" transform="translate(370.068359 0.90625)"/>
      <use xlink:href="#DejaVuSans-6f" transform="translate(411.181641 0.90625)"/>
      <use xlink:href="#DejaVuSans-62" transform="translate(472.363281 0.90625)"/>
      <use xlink:href="#DejaVuSans-2e" transform="translate(535.839844 0.90625)"/>
      <use xlink:href="#DejaVuSans-20" transform="translate(567.626953 0.90625)"/>
      <use xlink:href="#DejaVuSans-Oblique-50" transform="translate(599.414062 0.90625)"/>
      <use xlink:href="#DejaVuSans-28" transform="translate(659.716797 0.90625)"/>
      <use xlink:href="#DejaVuSans-Oblique-3b5" transform="translate(698.730469 0.90625)"/>
      <use xlink:href="#DejaVuSans-3d" transform="translate(772.265625 0.90625)"/>
      <use xlink:href="#DejaVuSans-Oblique-46" transform="translate(875.537109 0.90625)"/>
      <use xlink:href="#DejaVuSans-Oblique-61" transform="translate(933.056641 0.90625)"/>
      <use xlink:href="#DejaVuSans-Oblique-6c" transform="translate(994.335938 0.90625)"/>
      <use xlink:href="#DejaVuSans-Oblique-73" transform="translate(1022.119141 0.90625)"/>
      <use xlink:href="#DejaVuSans-Oblique-65" transform="translate(1074.21875 0.90625)"/>
      <use xlink:href="#DejaVuSans-2223" transform="translate(1155.224609 0.90625)"/>
      <use xlink:href="#DejaVuSans-Oblique-74" transform="translate(1224.707031 0.90625)"/>
      <use xlink:href="#DejaVuSans-29" transform="translate(1263.916016 0.90625)"/>
     </g>
    </g>
    <g id="line2d_10">
     <path d="M 119.609244 17.601264 
L 125.609244 17.601264 
L 131.609244 17.601264 
" style="fill: none; stroke: #ae0060; stroke-width: 1.5; stroke-linecap: square"/>
     <g>
      <use xlink:href="#mc36f735a50" x="125.609244" y="17.601264" style="fill: #ae0060; stroke: #ae0060"/>
     </g>
    </g>
    <g id="text_9">
     <!-- cond. prob. $P(\epsilon=True \mid t)$ -->
     <g transform="translate(136.409244 19.701264) scale(0.06 -0.06)">
      <defs>
       <path id="DejaVuSans-Oblique-54" d="M 378 4666 
L 4325 4666 
L 4225 4134 
L 2559 4134 
L 1759 0 
L 1125 0 
L 1925 4134 
L 275 4134 
L 378 4666 
z
" transform="scale(0.015625)"/>
       <path id="DejaVuSans-Oblique-72" d="M 2853 2969 
Q 2766 3016 2653 3041 
Q 2541 3066 2413 3066 
Q 1953 3066 1609 2717 
Q 1266 2369 1153 1784 
L 800 0 
L 225 0 
L 909 3500 
L 1484 3500 
L 1375 2956 
Q 1603 3259 1920 3421 
Q 2238 3584 2597 3584 
Q 2691 3584 2781 3573 
Q 2872 3563 2963 3538 
L 2853 2969 
z
" transform="scale(0.015625)"/>
       <path id="DejaVuSans-Oblique-75" d="M 428 1388 
L 838 3500 
L 1416 3500 
L 1006 1409 
Q 975 1256 961 1147 
Q 947 1038 947 966 
Q 947 700 1109 554 
Q 1272 409 1569 409 
Q 2031 409 2368 721 
Q 2706 1034 2809 1563 
L 3194 3500 
L 3769 3500 
L 3091 0 
L 2516 0 
L 2631 550 
Q 2388 244 2052 76 
Q 1716 -91 1338 -91 
Q 878 -91 622 161 
Q 366 413 366 863 
Q 366 956 381 1097 
Q 397 1238 428 1388 
z
" transform="scale(0.015625)"/>
      </defs>
      <use xlink:href="#DejaVuSans-63" transform="translate(0 0.90625)"/>
      <use xlink:href="#DejaVuSans-6f" transform="translate(54.980469 0.90625)"/>
      <use xlink:href="#DejaVuSans-6e" transform="translate(116.162109 0.90625)"/>
      <use xlink:href="#DejaVuSans-64" transform="translate(179.541016 0.90625)"/>
      <use xlink:href="#DejaVuSans-2e" transform="translate(243.017578 0.90625)"/>
      <use xlink:href="#DejaVuSans-20" transform="translate(274.804688 0.90625)"/>
      <use xlink:href="#DejaVuSans-70" transform="translate(306.591797 0.90625)"/>
      <use xlink:href="#DejaVuSans-72" transform="translate(370.068359 0.90625)"/>
      <use xlink:href="#DejaVuSans-6f" transform="translate(411.181641 0.90625)"/>
      <use xlink:href="#DejaVuSans-62" transform="translate(472.363281 0.90625)"/>
      <use xlink:href="#DejaVuSans-2e" transform="translate(535.839844 0.90625)"/>
      <use xlink:href="#DejaVuSans-20" transform="translate(567.626953 0.90625)"/>
      <use xlink:href="#DejaVuSans-Oblique-50" transform="translate(599.414062 0.90625)"/>
      <use xlink:href="#DejaVuSans-28" transform="translate(659.716797 0.90625)"/>
      <use xlink:href="#DejaVuSans-Oblique-3b5" transform="translate(698.730469 0.90625)"/>
      <use xlink:href="#DejaVuSans-3d" transform="translate(772.265625 0.90625)"/>
      <use xlink:href="#DejaVuSans-Oblique-54" transform="translate(875.537109 0.90625)"/>
      <use xlink:href="#DejaVuSans-Oblique-72" transform="translate(936.621094 0.90625)"/>
      <use xlink:href="#DejaVuSans-Oblique-75" transform="translate(977.734375 0.90625)"/>
      <use xlink:href="#DejaVuSans-Oblique-65" transform="translate(1041.113281 0.90625)"/>
      <use xlink:href="#DejaVuSans-2223" transform="translate(1122.119141 0.90625)"/>
      <use xlink:href="#DejaVuSans-Oblique-74" transform="translate(1191.601562 0.90625)"/>
      <use xlink:href="#DejaVuSans-29" transform="translate(1230.810547 0.90625)"/>
     </g>
    </g>
    <g id="patch_30">
     <path d="M 119.609244 26.781264 
L 131.609244 26.781264 
L 131.609244 22.581264 
L 119.609244 22.581264 
z
" style="fill: #005ea8"/>
    </g>
    <g id="text_10">
     <!-- early T-cat. prior $P(t)$ -->
     <g transform="translate(136.409244 26.781264) scale(0.06 -0.06)">
      <defs>
       <path id="DejaVuSans-65" d="M 3597 1894 
L 3597 1613 
L 953 1613 
Q 991 1019 1311 708 
Q 1631 397 2203 397 
Q 2534 397 2845 478 
Q 3156 559 3463 722 
L 3463 178 
Q 3153 47 2828 -22 
Q 2503 -91 2169 -91 
Q 1331 -91 842 396 
Q 353 884 353 1716 
Q 353 2575 817 3079 
Q 1281 3584 2069 3584 
Q 2775 3584 3186 3129 
Q 3597 2675 3597 1894 
z
M 3022 2063 
Q 3016 2534 2758 2815 
Q 2500 3097 2075 3097 
Q 1594 3097 1305 2825 
Q 1016 2553 972 2059 
L 3022 2063 
z
" transform="scale(0.015625)"/>
       <path id="DejaVuSans-54" d="M -19 4666 
L 3928 4666 
L 3928 4134 
L 2272 4134 
L 2272 0 
L 1638 0 
L 1638 4134 
L -19 4134 
L -19 4666 
z
" transform="scale(0.015625)"/>
       <path id="DejaVuSans-2d" d="M 313 2009 
L 1997 2009 
L 1997 1497 
L 313 1497 
L 313 2009 
z
" transform="scale(0.015625)"/>
      </defs>
      <use xlink:href="#DejaVuSans-65" transform="translate(0 0.015625)"/>
      <use xlink:href="#DejaVuSans-61" transform="translate(61.523438 0.015625)"/>
      <use xlink:href="#DejaVuSans-72" transform="translate(122.802734 0.015625)"/>
      <use xlink:href="#DejaVuSans-6c" transform="translate(163.916016 0.015625)"/>
      <use xlink:href="#DejaVuSans-79" transform="translate(191.699219 0.015625)"/>
      <use xlink:href="#DejaVuSans-20" transform="translate(250.878906 0.015625)"/>
      <use xlink:href="#DejaVuSans-54" transform="translate(282.666016 0.015625)"/>
      <use xlink:href="#DejaVuSans-2d" transform="translate(343.75 0.015625)"/>
      <use xlink:href="#DejaVuSans-63" transform="translate(379.833984 0.015625)"/>
      <use xlink:href="#DejaVuSans-61" transform="translate(434.814453 0.015625)"/>
      <use xlink:href="#DejaVuSans-74" transform="translate(496.09375 0.015625)"/>
      <use xlink:href="#DejaVuSans-2e" transform="translate(535.302734 0.015625)"/>
      <use xlink:href="#DejaVuSans-20" transform="translate(567.089844 0.015625)"/>
      <use xlink:href="#DejaVuSans-70" transform="translate(598.876953 0.015625)"/>
      <use xlink:href="#DejaVuSans-72" transform="translate(662.353516 0.015625)"/>
      <use xlink:href="#DejaVuSans-69" transform="translate(703.466797 0.015625)"/>
      <use xlink:href="#DejaVuSans-6f" transform="translate(731.25 0.015625)"/>
      <use xlink:href="#DejaVuSans-72" transform="translate(792.431641 0.015625)"/>
      <use xlink:href="#DejaVuSans-20" transform="translate(833.544922 0.015625)"/>
      <use xlink:href="#DejaVuSans-Oblique-50" transform="translate(865.332031 0.015625)"/>
      <use xlink:href="#DejaVuSans-28" transform="translate(925.634766 0.015625)"/>
      <use xlink:href="#DejaVuSans-Oblique-74" transform="translate(964.648438 0.015625)"/>
      <use xlink:href="#DejaVuSans-29" transform="translate(1003.857422 0.015625)"/>
     </g>
    </g>
    <g id="patch_31">
     <path d="M 119.609244 33.801264 
L 131.609244 33.801264 
L 131.609244 29.601264 
L 119.609244 29.601264 
z
" style="fill: #f17900"/>
    </g>
    <g id="text_11">
     <!-- late T-cat. prior $P(t)$ -->
     <g transform="translate(136.409244 33.801264) scale(0.06 -0.06)">
      <use xlink:href="#DejaVuSans-6c" transform="translate(0 0.015625)"/>
      <use xlink:href="#DejaVuSans-61" transform="translate(27.783203 0.015625)"/>
      <use xlink:href="#DejaVuSans-74" transform="translate(89.0625 0.015625)"/>
      <use xlink:href="#DejaVuSans-65" transform="translate(128.271484 0.015625)"/>
      <use xlink:href="#DejaVuSans-20" transform="translate(189.794922 0.015625)"/>
      <use xlink:href="#DejaVuSans-54" transform="translate(221.582031 0.015625)"/>
      <use xlink:href="#DejaVuSans-2d" transform="translate(282.666016 0.015625)"/>
      <use xlink:href="#DejaVuSans-63" transform="translate(318.75 0.015625)"/>
      <use xlink:href="#DejaVuSans-61" transform="translate(373.730469 0.015625)"/>
      <use xlink:href="#DejaVuSans-74" transform="translate(435.009766 0.015625)"/>
      <use xlink:href="#DejaVuSans-2e" transform="translate(474.21875 0.015625)"/>
      <use xlink:href="#DejaVuSans-20" transform="translate(506.005859 0.015625)"/>
      <use xlink:href="#DejaVuSans-70" transform="translate(537.792969 0.015625)"/>
      <use xlink:href="#DejaVuSans-72" transform="translate(601.269531 0.015625)"/>
      <use xlink:href="#DejaVuSans-69" transform="translate(642.382812 0.015625)"/>
      <use xlink:href="#DejaVuSans-6f" transform="translate(670.166016 0.015625)"/>
      <use xlink:href="#DejaVuSans-72" transform="translate(731.347656 0.015625)"/>
      <use xlink:href="#DejaVuSans-20" transform="translate(772.460938 0.015625)"/>
      <use xlink:href="#DejaVuSans-Oblique-50" transform="translate(804.248047 0.015625)"/>
      <use xlink:href="#DejaVuSans-28" transform="translate(864.550781 0.015625)"/>
      <use xlink:href="#DejaVuSans-Oblique-74" transform="translate(903.564453 0.015625)"/>
      <use xlink:href="#DejaVuSans-29" transform="translate(942.773438 0.015625)"/>
     </g>
    </g>
   </g>
  </g>
  <g id="axes_2">
   <g id="patch_32">
    <path d="M 33.53767 258.619271 
L 219.989244 258.619271 
L 219.989244 137.743705 
L 33.53767 137.743705 
z
" style="fill: #ffffff"/>
   </g>
   <g id="matplotlib.axis_3">
    <g id="xtick_12">
     <g id="text_12">
      <!-- 0 -->
      <g transform="translate(31.62892 267.678334) scale(0.06 -0.06)">
       <use xlink:href="#DejaVuSans-30"/>
      </g>
     </g>
    </g>
    <g id="xtick_13">
     <g id="text_13">
      <!-- 1 -->
      <g transform="translate(50.274077 267.678334) scale(0.06 -0.06)">
       <use xlink:href="#DejaVuSans-31"/>
      </g>
     </g>
    </g>
    <g id="xtick_14">
     <g id="text_14">
      <!-- 2 -->
      <g transform="translate(68.919235 267.678334) scale(0.06 -0.06)">
       <use xlink:href="#DejaVuSans-32"/>
      </g>
     </g>
    </g>
    <g id="xtick_15">
     <g id="text_15">
      <!-- 3 -->
      <g transform="translate(87.564392 267.678334) scale(0.06 -0.06)">
       <defs>
        <path id="DejaVuSans-33" d="M 2597 2516 
Q 3050 2419 3304 2112 
Q 3559 1806 3559 1356 
Q 3559 666 3084 287 
Q 2609 -91 1734 -91 
Q 1441 -91 1130 -33 
Q 819 25 488 141 
L 488 750 
Q 750 597 1062 519 
Q 1375 441 1716 441 
Q 2309 441 2620 675 
Q 2931 909 2931 1356 
Q 2931 1769 2642 2001 
Q 2353 2234 1838 2234 
L 1294 2234 
L 1294 2753 
L 1863 2753 
Q 2328 2753 2575 2939 
Q 2822 3125 2822 3475 
Q 2822 3834 2567 4026 
Q 2313 4219 1838 4219 
Q 1578 4219 1281 4162 
Q 984 4106 628 3988 
L 628 4550 
Q 988 4650 1302 4700 
Q 1616 4750 1894 4750 
Q 2613 4750 3031 4423 
Q 3450 4097 3450 3541 
Q 3450 3153 3228 2886 
Q 3006 2619 2597 2516 
z
" transform="scale(0.015625)"/>
       </defs>
       <use xlink:href="#DejaVuSans-33"/>
      </g>
     </g>
    </g>
    <g id="xtick_16">
     <g id="text_16">
      <!-- 4 -->
      <g transform="translate(106.20955 267.678334) scale(0.06 -0.06)">
       <use xlink:href="#DejaVuSans-34"/>
      </g>
     </g>
    </g>
    <g id="xtick_17">
     <g id="text_17">
      <!-- 5 -->
      <g transform="translate(124.854707 267.678334) scale(0.06 -0.06)">
       <defs>
        <path id="DejaVuSans-35" d="M 691 4666 
L 3169 4666 
L 3169 4134 
L 1269 4134 
L 1269 2991 
Q 1406 3038 1543 3061 
Q 1681 3084 1819 3084 
Q 2600 3084 3056 2656 
Q 3513 2228 3513 1497 
Q 3513 744 3044 326 
Q 2575 -91 1722 -91 
Q 1428 -91 1123 -41 
Q 819 9 494 109 
L 494 744 
Q 775 591 1075 516 
Q 1375 441 1709 441 
Q 2250 441 2565 725 
Q 2881 1009 2881 1497 
Q 2881 1984 2565 2268 
Q 2250 2553 1709 2553 
Q 1456 2553 1204 2497 
Q 953 2441 691 2322 
L 691 4666 
z
" transform="scale(0.015625)"/>
       </defs>
       <use xlink:href="#DejaVuSans-35"/>
      </g>
     </g>
    </g>
    <g id="xtick_18">
     <g id="text_18">
      <!-- 6 -->
      <g transform="translate(143.499865 267.678334) scale(0.06 -0.06)">
       <use xlink:href="#DejaVuSans-36"/>
      </g>
     </g>
    </g>
    <g id="xtick_19">
     <g id="text_19">
      <!-- 7 -->
      <g transform="translate(162.145022 267.678334) scale(0.06 -0.06)">
       <defs>
        <path id="DejaVuSans-37" d="M 525 4666 
L 3525 4666 
L 3525 4397 
L 1831 0 
L 1172 0 
L 2766 4134 
L 525 4134 
L 525 4666 
z
" transform="scale(0.015625)"/>
       </defs>
       <use xlink:href="#DejaVuSans-37"/>
      </g>
     </g>
    </g>
    <g id="xtick_20">
     <g id="text_20">
      <!-- 8 -->
      <g transform="translate(180.790179 267.678334) scale(0.06 -0.06)">
       <use xlink:href="#DejaVuSans-38"/>
      </g>
     </g>
    </g>
    <g id="xtick_21">
     <g id="text_21">
      <!-- 9 -->
      <g transform="translate(199.435337 267.678334) scale(0.06 -0.06)">
       <defs>
        <path id="DejaVuSans-39" d="M 703 97 
L 703 672 
Q 941 559 1184 500 
Q 1428 441 1663 441 
Q 2288 441 2617 861 
Q 2947 1281 2994 2138 
Q 2813 1869 2534 1725 
Q 2256 1581 1919 1581 
Q 1219 1581 811 2004 
Q 403 2428 403 3163 
Q 403 3881 828 4315 
Q 1253 4750 1959 4750 
Q 2769 4750 3195 4129 
Q 3622 3509 3622 2328 
Q 3622 1225 3098 567 
Q 2575 -91 1691 -91 
Q 1453 -91 1209 -44 
Q 966 3 703 97 
z
M 1959 2075 
Q 2384 2075 2632 2365 
Q 2881 2656 2881 3163 
Q 2881 3666 2632 3958 
Q 2384 4250 1959 4250 
Q 1534 4250 1286 3958 
Q 1038 3666 1038 3163 
Q 1038 2656 1286 2365 
Q 1534 2075 1959 2075 
z
" transform="scale(0.015625)"/>
       </defs>
       <use xlink:href="#DejaVuSans-39"/>
      </g>
     </g>
    </g>
    <g id="xtick_22">
     <g id="text_22">
      <!-- 10 -->
      <g transform="translate(216.171744 267.678334) scale(0.06 -0.06)">
       <use xlink:href="#DejaVuSans-31"/>
       <use xlink:href="#DejaVuSans-30" x="63.623047"/>
      </g>
     </g>
    </g>
    <g id="text_23">
     <!-- time-step $t$ -->
     <g transform="translate(104.763457 279.006146) scale(0.08 -0.08)">
      <defs>
       <path id="DejaVuSans-6d" d="M 3328 2828 
Q 3544 3216 3844 3400 
Q 4144 3584 4550 3584 
Q 5097 3584 5394 3201 
Q 5691 2819 5691 2113 
L 5691 0 
L 5113 0 
L 5113 2094 
Q 5113 2597 4934 2840 
Q 4756 3084 4391 3084 
Q 3944 3084 3684 2787 
Q 3425 2491 3425 1978 
L 3425 0 
L 2847 0 
L 2847 2094 
Q 2847 2600 2669 2842 
Q 2491 3084 2119 3084 
Q 1678 3084 1418 2786 
Q 1159 2488 1159 1978 
L 1159 0 
L 581 0 
L 581 3500 
L 1159 3500 
L 1159 2956 
Q 1356 3278 1631 3431 
Q 1906 3584 2284 3584 
Q 2666 3584 2933 3390 
Q 3200 3197 3328 2828 
z
" transform="scale(0.015625)"/>
       <path id="DejaVuSans-73" d="M 2834 3397 
L 2834 2853 
Q 2591 2978 2328 3040 
Q 2066 3103 1784 3103 
Q 1356 3103 1142 2972 
Q 928 2841 928 2578 
Q 928 2378 1081 2264 
Q 1234 2150 1697 2047 
L 1894 2003 
Q 2506 1872 2764 1633 
Q 3022 1394 3022 966 
Q 3022 478 2636 193 
Q 2250 -91 1575 -91 
Q 1294 -91 989 -36 
Q 684 19 347 128 
L 347 722 
Q 666 556 975 473 
Q 1284 391 1588 391 
Q 1994 391 2212 530 
Q 2431 669 2431 922 
Q 2431 1156 2273 1281 
Q 2116 1406 1581 1522 
L 1381 1569 
Q 847 1681 609 1914 
Q 372 2147 372 2553 
Q 372 3047 722 3315 
Q 1072 3584 1716 3584 
Q 2034 3584 2315 3537 
Q 2597 3491 2834 3397 
z
" transform="scale(0.015625)"/>
      </defs>
      <use xlink:href="#DejaVuSans-74" transform="translate(0 0.015625)"/>
      <use xlink:href="#DejaVuSans-69" transform="translate(39.208984 0.015625)"/>
      <use xlink:href="#DejaVuSans-6d" transform="translate(66.992188 0.015625)"/>
      <use xlink:href="#DejaVuSans-65" transform="translate(164.404297 0.015625)"/>
      <use xlink:href="#DejaVuSans-2d" transform="translate(225.927734 0.015625)"/>
      <use xlink:href="#DejaVuSans-73" transform="translate(262.011719 0.015625)"/>
      <use xlink:href="#DejaVuSans-74" transform="translate(314.111328 0.015625)"/>
      <use xlink:href="#DejaVuSans-65" transform="translate(353.320312 0.015625)"/>
      <use xlink:href="#DejaVuSans-70" transform="translate(414.84375 0.015625)"/>
      <use xlink:href="#DejaVuSans-20" transform="translate(478.320312 0.015625)"/>
      <use xlink:href="#DejaVuSans-Oblique-74" transform="translate(510.107422 0.015625)"/>
     </g>
    </g>
   </g>
   <g id="matplotlib.axis_4">
    <g id="ytick_7">
     <g id="line2d_11">
      <path d="M 33.53767 258.619271 
L 219.989244 258.619271 
" clip-path="url(#pf449ec27bf)" style="fill: none; stroke: #c5d5db; stroke-opacity: 0.5; stroke-width: 0.8; stroke-linecap: square"/>
     </g>
     <g id="text_24">
      <!-- 0% -->
      <g transform="translate(19.519232 260.898802) scale(0.06 -0.06)">
       <use xlink:href="#DejaVuSans-30"/>
       <use xlink:href="#DejaVuSans-25" x="63.623047"/>
      </g>
     </g>
    </g>
    <g id="ytick_8">
     <g id="line2d_12">
      <path d="M 33.53767 234.444158 
L 219.989244 234.444158 
" clip-path="url(#pf449ec27bf)" style="fill: none; stroke: #c5d5db; stroke-opacity: 0.5; stroke-width: 0.8; stroke-linecap: square"/>
     </g>
     <g id="text_25">
      <!-- 5% -->
      <g transform="translate(19.519232 236.723689) scale(0.06 -0.06)">
       <use xlink:href="#DejaVuSans-35"/>
       <use xlink:href="#DejaVuSans-25" x="63.623047"/>
      </g>
     </g>
    </g>
    <g id="ytick_9">
     <g id="line2d_13">
      <path d="M 33.53767 210.269045 
L 219.989244 210.269045 
" clip-path="url(#pf449ec27bf)" style="fill: none; stroke: #c5d5db; stroke-opacity: 0.5; stroke-width: 0.8; stroke-linecap: square"/>
     </g>
     <g id="text_26">
      <!-- 10% -->
      <g transform="translate(15.701732 212.548576) scale(0.06 -0.06)">
       <use xlink:href="#DejaVuSans-31"/>
       <use xlink:href="#DejaVuSans-30" x="63.623047"/>
       <use xlink:href="#DejaVuSans-25" x="127.246094"/>
      </g>
     </g>
    </g>
    <g id="ytick_10">
     <g id="line2d_14">
      <path d="M 33.53767 186.093931 
L 219.989244 186.093931 
" clip-path="url(#pf449ec27bf)" style="fill: none; stroke: #c5d5db; stroke-opacity: 0.5; stroke-width: 0.8; stroke-linecap: square"/>
     </g>
     <g id="text_27">
      <!-- 15% -->
      <g transform="translate(15.701732 188.373463) scale(0.06 -0.06)">
       <use xlink:href="#DejaVuSans-31"/>
       <use xlink:href="#DejaVuSans-35" x="63.623047"/>
       <use xlink:href="#DejaVuSans-25" x="127.246094"/>
      </g>
     </g>
    </g>
    <g id="ytick_11">
     <g id="line2d_15">
      <path d="M 33.53767 161.918818 
L 219.989244 161.918818 
" clip-path="url(#pf449ec27bf)" style="fill: none; stroke: #c5d5db; stroke-opacity: 0.5; stroke-width: 0.8; stroke-linecap: square"/>
     </g>
     <g id="text_28">
      <!-- 20% -->
      <g transform="translate(15.701732 164.198349) scale(0.06 -0.06)">
       <use xlink:href="#DejaVuSans-32"/>
       <use xlink:href="#DejaVuSans-30" x="63.623047"/>
       <use xlink:href="#DejaVuSans-25" x="127.246094"/>
      </g>
     </g>
    </g>
    <g id="ytick_12">
     <g id="line2d_16">
      <path d="M 33.53767 137.743705 
L 219.989244 137.743705 
" clip-path="url(#pf449ec27bf)" style="fill: none; stroke: #c5d5db; stroke-opacity: 0.5; stroke-width: 0.8; stroke-linecap: square"/>
     </g>
     <g id="text_29">
      <!-- 25% -->
      <g transform="translate(15.701732 140.023236) scale(0.06 -0.06)">
       <use xlink:href="#DejaVuSans-32"/>
       <use xlink:href="#DejaVuSans-35" x="63.623047"/>
       <use xlink:href="#DejaVuSans-25" x="127.246094"/>
      </g>
     </g>
    </g>
    <g id="text_30">
     <!-- joint probability $P(\epsilon, t)$ -->
     <g transform="translate(10.021732 242.261488) rotate(-90) scale(0.08 -0.08)">
      <defs>
       <path id="DejaVuSans-6a" d="M 603 3500 
L 1178 3500 
L 1178 -63 
Q 1178 -731 923 -1031 
Q 669 -1331 103 -1331 
L -116 -1331 
L -116 -844 
L 38 -844 
Q 366 -844 484 -692 
Q 603 -541 603 -63 
L 603 3500 
z
M 603 4863 
L 1178 4863 
L 1178 4134 
L 603 4134 
L 603 4863 
z
" transform="scale(0.015625)"/>
       <path id="DejaVuSans-2c" d="M 750 794 
L 1409 794 
L 1409 256 
L 897 -744 
L 494 -744 
L 750 256 
L 750 794 
z
" transform="scale(0.015625)"/>
      </defs>
      <use xlink:href="#DejaVuSans-6a" transform="translate(0 0.015625)"/>
      <use xlink:href="#DejaVuSans-6f" transform="translate(27.783203 0.015625)"/>
      <use xlink:href="#DejaVuSans-69" transform="translate(88.964844 0.015625)"/>
      <use xlink:href="#DejaVuSans-6e" transform="translate(116.748047 0.015625)"/>
      <use xlink:href="#DejaVuSans-74" transform="translate(180.126953 0.015625)"/>
      <use xlink:href="#DejaVuSans-20" transform="translate(219.335938 0.015625)"/>
      <use xlink:href="#DejaVuSans-70" transform="translate(251.123047 0.015625)"/>
      <use xlink:href="#DejaVuSans-72" transform="translate(314.599609 0.015625)"/>
      <use xlink:href="#DejaVuSans-6f" transform="translate(355.712891 0.015625)"/>
      <use xlink:href="#DejaVuSans-62" transform="translate(416.894531 0.015625)"/>
      <use xlink:href="#DejaVuSans-61" transform="translate(480.371094 0.015625)"/>
      <use xlink:href="#DejaVuSans-62" transform="translate(541.650391 0.015625)"/>
      <use xlink:href="#DejaVuSans-69" transform="translate(605.126953 0.015625)"/>
      <use xlink:href="#DejaVuSans-6c" transform="translate(632.910156 0.015625)"/>
      <use xlink:href="#DejaVuSans-69" transform="translate(660.693359 0.015625)"/>
      <use xlink:href="#DejaVuSans-74" transform="translate(688.476562 0.015625)"/>
      <use xlink:href="#DejaVuSans-79" transform="translate(727.685547 0.015625)"/>
      <use xlink:href="#DejaVuSans-20" transform="translate(786.865234 0.015625)"/>
      <use xlink:href="#DejaVuSans-Oblique-50" transform="translate(818.652344 0.015625)"/>
      <use xlink:href="#DejaVuSans-28" transform="translate(878.955078 0.015625)"/>
      <use xlink:href="#DejaVuSans-Oblique-3b5" transform="translate(917.96875 0.015625)"/>
      <use xlink:href="#DejaVuSans-2c" transform="translate(972.021484 0.015625)"/>
      <use xlink:href="#DejaVuSans-Oblique-74" transform="translate(1023.291016 0.015625)"/>
      <use xlink:href="#DejaVuSans-29" transform="translate(1062.5 0.015625)"/>
     </g>
    </g>
   </g>
   <g id="line2d_17">
    <path d="M 33.53767 244.961529 
L 52.182827 204.775566 
L 70.827985 163.097257 
L 89.473142 158.19742 
L 108.1183 189.336972 
L 126.763457 225.842999 
L 145.408615 247.851289 
L 164.053772 256.193486 
L 182.698929 258.260647 
L 201.344087 258.587853 
L 219.989244 258.618032 
" clip-path="url(#pf449ec27bf)" style="fill: none; stroke: #00afa5; stroke-width: 1.5; stroke-linecap: square"/>
    <defs>
     <path id="mb18eb378b8" d="M 0 3 
C 0.795609 3 1.55874 2.683901 2.12132 2.12132 
C 2.683901 1.55874 3 0.795609 3 0 
C 3 -0.795609 2.683901 -1.55874 2.12132 -2.12132 
C 1.55874 -2.683901 0.795609 -3 0 -3 
C -0.795609 -3 -1.55874 -2.683901 -2.12132 -2.12132 
C -2.683901 -1.55874 -3 -0.795609 -3 0 
C -3 0.795609 -2.683901 1.55874 -2.12132 2.12132 
C -1.55874 2.683901 -0.795609 3 0 3 
z
" style="stroke: #005ea8"/>
    </defs>
    <g clip-path="url(#pf449ec27bf)">
     <use xlink:href="#mb18eb378b8" x="33.53767" y="244.961529" style="fill: #005ea8; stroke: #005ea8"/>
     <use xlink:href="#mb18eb378b8" x="52.182827" y="204.775566" style="fill: #005ea8; stroke: #005ea8"/>
     <use xlink:href="#mb18eb378b8" x="70.827985" y="163.097257" style="fill: #005ea8; stroke: #005ea8"/>
     <use xlink:href="#mb18eb378b8" x="89.473142" y="158.19742" style="fill: #005ea8; stroke: #005ea8"/>
     <use xlink:href="#mb18eb378b8" x="108.1183" y="189.336972" style="fill: #005ea8; stroke: #005ea8"/>
     <use xlink:href="#mb18eb378b8" x="126.763457" y="225.842999" style="fill: #005ea8; stroke: #005ea8"/>
     <use xlink:href="#mb18eb378b8" x="145.408615" y="247.851289" style="fill: #005ea8; stroke: #005ea8"/>
     <use xlink:href="#mb18eb378b8" x="164.053772" y="256.193486" style="fill: #005ea8; stroke: #005ea8"/>
     <use xlink:href="#mb18eb378b8" x="182.698929" y="258.260647" style="fill: #005ea8; stroke: #005ea8"/>
     <use xlink:href="#mb18eb378b8" x="201.344087" y="258.587853" style="fill: #005ea8; stroke: #005ea8"/>
     <use xlink:href="#mb18eb378b8" x="219.989244" y="258.618032" style="fill: #005ea8; stroke: #005ea8"/>
    </g>
   </g>
   <g id="line2d_18">
    <path d="M 33.53767 257.56109 
L 52.182827 250.394531 
L 70.827985 229.852118 
L 89.473142 198.994353 
L 108.1183 177.517933 
L 126.763457 182.975802 
L 145.408615 209.624202 
L 164.053772 236.858389 
L 182.698929 252.276633 
L 201.344087 257.523753 
L 219.989244 258.534122 
" clip-path="url(#pf449ec27bf)" style="fill: none; stroke: #00afa5; stroke-width: 1.5; stroke-linecap: square"/>
    <defs>
     <path id="m854dfd3931" d="M 0 3 
C 0.795609 3 1.55874 2.683901 2.12132 2.12132 
C 2.683901 1.55874 3 0.795609 3 0 
C 3 -0.795609 2.683901 -1.55874 2.12132 -2.12132 
C 1.55874 -2.683901 0.795609 -3 0 -3 
C -0.795609 -3 -1.55874 -2.683901 -2.12132 -2.12132 
C -2.683901 -1.55874 -3 -0.795609 -3 0 
C -3 0.795609 -2.683901 1.55874 -2.12132 2.12132 
C -1.55874 2.683901 -0.795609 3 0 3 
z
" style="stroke: #f17900"/>
    </defs>
    <g clip-path="url(#pf449ec27bf)">
     <use xlink:href="#m854dfd3931" x="33.53767" y="257.56109" style="fill: #f17900; stroke: #f17900"/>
     <use xlink:href="#m854dfd3931" x="52.182827" y="250.394531" style="fill: #f17900; stroke: #f17900"/>
     <use xlink:href="#m854dfd3931" x="70.827985" y="229.852118" style="fill: #f17900; stroke: #f17900"/>
     <use xlink:href="#m854dfd3931" x="89.473142" y="198.994353" style="fill: #f17900; stroke: #f17900"/>
     <use xlink:href="#m854dfd3931" x="108.1183" y="177.517933" style="fill: #f17900; stroke: #f17900"/>
     <use xlink:href="#m854dfd3931" x="126.763457" y="182.975802" style="fill: #f17900; stroke: #f17900"/>
     <use xlink:href="#m854dfd3931" x="145.408615" y="209.624202" style="fill: #f17900; stroke: #f17900"/>
     <use xlink:href="#m854dfd3931" x="164.053772" y="236.858389" style="fill: #f17900; stroke: #f17900"/>
     <use xlink:href="#m854dfd3931" x="182.698929" y="252.276633" style="fill: #f17900; stroke: #f17900"/>
     <use xlink:href="#m854dfd3931" x="201.344087" y="257.523753" style="fill: #f17900; stroke: #f17900"/>
     <use xlink:href="#m854dfd3931" x="219.989244" y="258.534122" style="fill: #f17900; stroke: #f17900"/>
    </g>
   </g>
   <g id="line2d_19">
    <path d="M 33.53767 258.619271 
L 52.182827 253.929795 
L 70.827985 241.255864 
L 89.473142 230.029213 
L 108.1183 231.142638 
L 126.763457 241.633807 
L 145.408615 251.615205 
L 164.053772 256.692718 
L 182.698929 258.278412 
L 201.344087 258.584072 
L 219.989244 258.617655 
" clip-path="url(#pf449ec27bf)" style="fill: none; stroke: #ae0060; stroke-width: 1.5; stroke-linecap: square"/>
    <g clip-path="url(#pf449ec27bf)">
     <use xlink:href="#mb18eb378b8" x="33.53767" y="258.619271" style="fill: #005ea8; stroke: #005ea8"/>
     <use xlink:href="#mb18eb378b8" x="52.182827" y="253.929795" style="fill: #005ea8; stroke: #005ea8"/>
     <use xlink:href="#mb18eb378b8" x="70.827985" y="241.255864" style="fill: #005ea8; stroke: #005ea8"/>
     <use xlink:href="#mb18eb378b8" x="89.473142" y="230.029213" style="fill: #005ea8; stroke: #005ea8"/>
     <use xlink:href="#mb18eb378b8" x="108.1183" y="231.142638" style="fill: #005ea8; stroke: #005ea8"/>
     <use xlink:href="#mb18eb378b8" x="126.763457" y="241.633807" style="fill: #005ea8; stroke: #005ea8"/>
     <use xlink:href="#mb18eb378b8" x="145.408615" y="251.615205" style="fill: #005ea8; stroke: #005ea8"/>
     <use xlink:href="#mb18eb378b8" x="164.053772" y="256.692718" style="fill: #005ea8; stroke: #005ea8"/>
     <use xlink:href="#mb18eb378b8" x="182.698929" y="258.278412" style="fill: #005ea8; stroke: #005ea8"/>
     <use xlink:href="#mb18eb378b8" x="201.344087" y="258.584072" style="fill: #005ea8; stroke: #005ea8"/>
     <use xlink:href="#mb18eb378b8" x="219.989244" y="258.617655" style="fill: #005ea8; stroke: #005ea8"/>
    </g>
   </g>
   <g id="line2d_20">
    <path d="M 33.53767 258.619271 
L 52.182827 257.902944 
L 70.827985 253.390154 
L 89.473142 241.644082 
L 108.1183 226.455332 
L 126.763457 219.418979 
L 145.408615 226.750282 
L 164.053772 241.336823 
L 182.698929 252.590833 
L 201.344087 257.391922 
L 219.989244 258.508151 
" clip-path="url(#pf449ec27bf)" style="fill: none; stroke: #ae0060; stroke-width: 1.5; stroke-linecap: square"/>
    <g clip-path="url(#pf449ec27bf)">
     <use xlink:href="#m854dfd3931" x="33.53767" y="258.619271" style="fill: #f17900; stroke: #f17900"/>
     <use xlink:href="#m854dfd3931" x="52.182827" y="257.902944" style="fill: #f17900; stroke: #f17900"/>
     <use xlink:href="#m854dfd3931" x="70.827985" y="253.390154" style="fill: #f17900; stroke: #f17900"/>
     <use xlink:href="#m854dfd3931" x="89.473142" y="241.644082" style="fill: #f17900; stroke: #f17900"/>
     <use xlink:href="#m854dfd3931" x="108.1183" y="226.455332" style="fill: #f17900; stroke: #f17900"/>
     <use xlink:href="#m854dfd3931" x="126.763457" y="219.418979" style="fill: #f17900; stroke: #f17900"/>
     <use xlink:href="#m854dfd3931" x="145.408615" y="226.750282" style="fill: #f17900; stroke: #f17900"/>
     <use xlink:href="#m854dfd3931" x="164.053772" y="241.336823" style="fill: #f17900; stroke: #f17900"/>
     <use xlink:href="#m854dfd3931" x="182.698929" y="252.590833" style="fill: #f17900; stroke: #f17900"/>
     <use xlink:href="#m854dfd3931" x="201.344087" y="257.391922" style="fill: #f17900; stroke: #f17900"/>
     <use xlink:href="#m854dfd3931" x="219.989244" y="258.508151" style="fill: #f17900; stroke: #f17900"/>
    </g>
   </g>
   <g id="patch_33">
    <path d="M 33.53767 258.619271 
L 33.53767 137.743705 
" style="fill: none; stroke: #000000; stroke-width: 0.8; stroke-linejoin: miter; stroke-linecap: square"/>
   </g>
   <g id="patch_34">
    <path d="M 219.989244 258.619271 
L 219.989244 137.743705 
" style="fill: none; stroke: #000000; stroke-width: 0.8; stroke-linejoin: miter; stroke-linecap: square"/>
   </g>
   <g id="patch_35">
    <path d="M 33.53767 258.619271 
L 219.989244 258.619271 
" style="fill: none; stroke: #000000; stroke-width: 0.8; stroke-linejoin: miter; stroke-linecap: square"/>
   </g>
   <g id="patch_36">
    <path d="M 33.53767 137.743705 
L 219.989244 137.743705 
" style="fill: none; stroke: #000000; stroke-width: 0.8; stroke-linejoin: miter; stroke-linecap: square"/>
   </g>
   <g id="legend_2">
    <g id="patch_37">
     <path d="M 86.129244 172.397455 
L 215.789244 172.397455 
Q 216.989244 172.397455 216.989244 171.197455 
L 216.989244 141.943705 
Q 216.989244 140.743705 215.789244 140.743705 
L 86.129244 140.743705 
Q 84.929244 140.743705 84.929244 141.943705 
L 84.929244 171.197455 
Q 84.929244 172.397455 86.129244 172.397455 
z
" style="fill: #ffffff; opacity: 0.8; stroke: #cccccc; stroke-linejoin: miter"/>
    </g>
    <g id="line2d_21">
     <path d="M 87.329244 145.603705 
L 93.329244 145.603705 
L 99.329244 145.603705 
" style="fill: none; stroke: #00afa5; stroke-width: 1.5; stroke-linecap: square"/>
     <g>
      <use xlink:href="#mb18eb378b8" x="93.329244" y="145.603705" style="fill: #005ea8; stroke: #005ea8"/>
     </g>
    </g>
    <g id="text_31">
     <!-- lateralized ($\epsilon=False$) for early T-cat. -->
     <g transform="translate(104.129244 147.703705) scale(0.06 -0.06)">
      <defs>
       <path id="DejaVuSans-7a" d="M 353 3500 
L 3084 3500 
L 3084 2975 
L 922 459 
L 3084 459 
L 3084 0 
L 275 0 
L 275 525 
L 2438 3041 
L 353 3041 
L 353 3500 
z
" transform="scale(0.015625)"/>
       <path id="DejaVuSans-66" d="M 2375 4863 
L 2375 4384 
L 1825 4384 
Q 1516 4384 1395 4259 
Q 1275 4134 1275 3809 
L 1275 3500 
L 2222 3500 
L 2222 3053 
L 1275 3053 
L 1275 0 
L 697 0 
L 697 3053 
L 147 3053 
L 147 3500 
L 697 3500 
L 697 3744 
Q 697 4328 969 4595 
Q 1241 4863 1831 4863 
L 2375 4863 
z
" transform="scale(0.015625)"/>
      </defs>
      <use xlink:href="#DejaVuSans-6c" transform="translate(0 0.015625)"/>
      <use xlink:href="#DejaVuSans-61" transform="translate(27.783203 0.015625)"/>
      <use xlink:href="#DejaVuSans-74" transform="translate(89.0625 0.015625)"/>
      <use xlink:href="#DejaVuSans-65" transform="translate(128.271484 0.015625)"/>
      <use xlink:href="#DejaVuSans-72" transform="translate(189.794922 0.015625)"/>
      <use xlink:href="#DejaVuSans-61" transform="translate(230.908203 0.015625)"/>
      <use xlink:href="#DejaVuSans-6c" transform="translate(292.1875 0.015625)"/>
      <use xlink:href="#DejaVuSans-69" transform="translate(319.970703 0.015625)"/>
      <use xlink:href="#DejaVuSans-7a" transform="translate(347.753906 0.015625)"/>
      <use xlink:href="#DejaVuSans-65" transform="translate(400.244141 0.015625)"/>
      <use xlink:href="#DejaVuSans-64" transform="translate(461.767578 0.015625)"/>
      <use xlink:href="#DejaVuSans-20" transform="translate(525.244141 0.015625)"/>
      <use xlink:href="#DejaVuSans-28" transform="translate(557.03125 0.015625)"/>
      <use xlink:href="#DejaVuSans-Oblique-3b5" transform="translate(596.044922 0.015625)"/>
      <use xlink:href="#DejaVuSans-3d" transform="translate(669.580078 0.015625)"/>
      <use xlink:href="#DejaVuSans-Oblique-46" transform="translate(772.851562 0.015625)"/>
      <use xlink:href="#DejaVuSans-Oblique-61" transform="translate(830.371094 0.015625)"/>
      <use xlink:href="#DejaVuSans-Oblique-6c" transform="translate(891.650391 0.015625)"/>
      <use xlink:href="#DejaVuSans-Oblique-73" transform="translate(919.433594 0.015625)"/>
      <use xlink:href="#DejaVuSans-Oblique-65" transform="translate(971.533203 0.015625)"/>
      <use xlink:href="#DejaVuSans-29" transform="translate(1033.056641 0.015625)"/>
      <use xlink:href="#DejaVuSans-20" transform="translate(1072.070312 0.015625)"/>
      <use xlink:href="#DejaVuSans-66" transform="translate(1103.857422 0.015625)"/>
      <use xlink:href="#DejaVuSans-6f" transform="translate(1139.0625 0.015625)"/>
      <use xlink:href="#DejaVuSans-72" transform="translate(1200.244141 0.015625)"/>
      <use xlink:href="#DejaVuSans-20" transform="translate(1241.357422 0.015625)"/>
      <use xlink:href="#DejaVuSans-65" transform="translate(1273.144531 0.015625)"/>
      <use xlink:href="#DejaVuSans-61" transform="translate(1334.667969 0.015625)"/>
      <use xlink:href="#DejaVuSans-72" transform="translate(1395.947266 0.015625)"/>
      <use xlink:href="#DejaVuSans-6c" transform="translate(1437.060547 0.015625)"/>
      <use xlink:href="#DejaVuSans-79" transform="translate(1464.84375 0.015625)"/>
      <use xlink:href="#DejaVuSans-20" transform="translate(1524.023438 0.015625)"/>
      <use xlink:href="#DejaVuSans-54" transform="translate(1555.810547 0.015625)"/>
      <use xlink:href="#DejaVuSans-2d" transform="translate(1616.894531 0.015625)"/>
      <use xlink:href="#DejaVuSans-63" transform="translate(1652.978516 0.015625)"/>
      <use xlink:href="#DejaVuSans-61" transform="translate(1707.958984 0.015625)"/>
      <use xlink:href="#DejaVuSans-74" transform="translate(1769.238281 0.015625)"/>
      <use xlink:href="#DejaVuSans-2e" transform="translate(1808.447266 0.015625)"/>
     </g>
    </g>
    <g id="line2d_22">
     <path d="M 87.329244 152.622767 
L 93.329244 152.622767 
L 99.329244 152.622767 
" style="fill: none; stroke: #00afa5; stroke-width: 1.5; stroke-linecap: square"/>
     <g>
      <use xlink:href="#m854dfd3931" x="93.329244" y="152.622767" style="fill: #f17900; stroke: #f17900"/>
     </g>
    </g>
    <g id="text_32">
     <!-- lateralized ($\epsilon=False$) for late T-cat. -->
     <g transform="translate(104.129244 154.722767) scale(0.06 -0.06)">
      <use xlink:href="#DejaVuSans-6c" transform="translate(0 0.015625)"/>
      <use xlink:href="#DejaVuSans-61" transform="translate(27.783203 0.015625)"/>
      <use xlink:href="#DejaVuSans-74" transform="translate(89.0625 0.015625)"/>
      <use xlink:href="#DejaVuSans-65" transform="translate(128.271484 0.015625)"/>
      <use xlink:href="#DejaVuSans-72" transform="translate(189.794922 0.015625)"/>
      <use xlink:href="#DejaVuSans-61" transform="translate(230.908203 0.015625)"/>
      <use xlink:href="#DejaVuSans-6c" transform="translate(292.1875 0.015625)"/>
      <use xlink:href="#DejaVuSans-69" transform="translate(319.970703 0.015625)"/>
      <use xlink:href="#DejaVuSans-7a" transform="translate(347.753906 0.015625)"/>
      <use xlink:href="#DejaVuSans-65" transform="translate(400.244141 0.015625)"/>
      <use xlink:href="#DejaVuSans-64" transform="translate(461.767578 0.015625)"/>
      <use xlink:href="#DejaVuSans-20" transform="translate(525.244141 0.015625)"/>
      <use xlink:href="#DejaVuSans-28" transform="translate(557.03125 0.015625)"/>
      <use xlink:href="#DejaVuSans-Oblique-3b5" transform="translate(596.044922 0.015625)"/>
      <use xlink:href="#DejaVuSans-3d" transform="translate(669.580078 0.015625)"/>
      <use xlink:href="#DejaVuSans-Oblique-46" transform="translate(772.851562 0.015625)"/>
      <use xlink:href="#DejaVuSans-Oblique-61" transform="translate(830.371094 0.015625)"/>
      <use xlink:href="#DejaVuSans-Oblique-6c" transform="translate(891.650391 0.015625)"/>
      <use xlink:href="#DejaVuSans-Oblique-73" transform="translate(919.433594 0.015625)"/>
      <use xlink:href="#DejaVuSans-Oblique-65" transform="translate(971.533203 0.015625)"/>
      <use xlink:href="#DejaVuSans-29" transform="translate(1033.056641 0.015625)"/>
      <use xlink:href="#DejaVuSans-20" transform="translate(1072.070312 0.015625)"/>
      <use xlink:href="#DejaVuSans-66" transform="translate(1103.857422 0.015625)"/>
      <use xlink:href="#DejaVuSans-6f" transform="translate(1139.0625 0.015625)"/>
      <use xlink:href="#DejaVuSans-72" transform="translate(1200.244141 0.015625)"/>
      <use xlink:href="#DejaVuSans-20" transform="translate(1241.357422 0.015625)"/>
      <use xlink:href="#DejaVuSans-6c" transform="translate(1273.144531 0.015625)"/>
      <use xlink:href="#DejaVuSans-61" transform="translate(1300.927734 0.015625)"/>
      <use xlink:href="#DejaVuSans-74" transform="translate(1362.207031 0.015625)"/>
      <use xlink:href="#DejaVuSans-65" transform="translate(1401.416016 0.015625)"/>
      <use xlink:href="#DejaVuSans-20" transform="translate(1462.939453 0.015625)"/>
      <use xlink:href="#DejaVuSans-54" transform="translate(1494.726562 0.015625)"/>
      <use xlink:href="#DejaVuSans-2d" transform="translate(1555.810547 0.015625)"/>
      <use xlink:href="#DejaVuSans-63" transform="translate(1591.894531 0.015625)"/>
      <use xlink:href="#DejaVuSans-61" transform="translate(1646.875 0.015625)"/>
      <use xlink:href="#DejaVuSans-74" transform="translate(1708.154297 0.015625)"/>
      <use xlink:href="#DejaVuSans-2e" transform="translate(1747.363281 0.015625)"/>
     </g>
    </g>
    <g id="line2d_23">
     <path d="M 87.329244 159.63058 
L 93.329244 159.63058 
L 99.329244 159.63058 
" style="fill: none; stroke: #ae0060; stroke-width: 1.5; stroke-linecap: square"/>
     <g>
      <use xlink:href="#mb18eb378b8" x="93.329244" y="159.63058" style="fill: #005ea8; stroke: #005ea8"/>
     </g>
    </g>
    <g id="text_33">
     <!-- extension ($\epsilon=True$) for early T-cat. -->
     <g transform="translate(104.129244 161.73058) scale(0.06 -0.06)">
      <defs>
       <path id="DejaVuSans-78" d="M 3513 3500 
L 2247 1797 
L 3578 0 
L 2900 0 
L 1881 1375 
L 863 0 
L 184 0 
L 1544 1831 
L 300 3500 
L 978 3500 
L 1906 2253 
L 2834 3500 
L 3513 3500 
z
" transform="scale(0.015625)"/>
      </defs>
      <use xlink:href="#DejaVuSans-65" transform="translate(0 0.015625)"/>
      <use xlink:href="#DejaVuSans-78" transform="translate(61.523438 0.015625)"/>
      <use xlink:href="#DejaVuSans-74" transform="translate(120.703125 0.015625)"/>
      <use xlink:href="#DejaVuSans-65" transform="translate(159.912109 0.015625)"/>
      <use xlink:href="#DejaVuSans-6e" transform="translate(221.435547 0.015625)"/>
      <use xlink:href="#DejaVuSans-73" transform="translate(284.814453 0.015625)"/>
      <use xlink:href="#DejaVuSans-69" transform="translate(336.914062 0.015625)"/>
      <use xlink:href="#DejaVuSans-6f" transform="translate(364.697266 0.015625)"/>
      <use xlink:href="#DejaVuSans-6e" transform="translate(425.878906 0.015625)"/>
      <use xlink:href="#DejaVuSans-20" transform="translate(489.257812 0.015625)"/>
      <use xlink:href="#DejaVuSans-28" transform="translate(521.044922 0.015625)"/>
      <use xlink:href="#DejaVuSans-Oblique-3b5" transform="translate(560.058594 0.015625)"/>
      <use xlink:href="#DejaVuSans-3d" transform="translate(633.59375 0.015625)"/>
      <use xlink:href="#DejaVuSans-Oblique-54" transform="translate(736.865234 0.015625)"/>
      <use xlink:href="#DejaVuSans-Oblique-72" transform="translate(797.949219 0.015625)"/>
      <use xlink:href="#DejaVuSans-Oblique-75" transform="translate(839.0625 0.015625)"/>
      <use xlink:href="#DejaVuSans-Oblique-65" transform="translate(902.441406 0.015625)"/>
      <use xlink:href="#DejaVuSans-29" transform="translate(963.964844 0.015625)"/>
      <use xlink:href="#DejaVuSans-20" transform="translate(1002.978516 0.015625)"/>
      <use xlink:href="#DejaVuSans-66" transform="translate(1034.765625 0.015625)"/>
      <use xlink:href="#DejaVuSans-6f" transform="translate(1069.970703 0.015625)"/>
      <use xlink:href="#DejaVuSans-72" transform="translate(1131.152344 0.015625)"/>
      <use xlink:href="#DejaVuSans-20" transform="translate(1172.265625 0.015625)"/>
      <use xlink:href="#DejaVuSans-65" transform="translate(1204.052734 0.015625)"/>
      <use xlink:href="#DejaVuSans-61" transform="translate(1265.576172 0.015625)"/>
      <use xlink:href="#DejaVuSans-72" transform="translate(1326.855469 0.015625)"/>
      <use xlink:href="#DejaVuSans-6c" transform="translate(1367.96875 0.015625)"/>
      <use xlink:href="#DejaVuSans-79" transform="translate(1395.751953 0.015625)"/>
      <use xlink:href="#DejaVuSans-20" transform="translate(1454.931641 0.015625)"/>
      <use xlink:href="#DejaVuSans-54" transform="translate(1486.71875 0.015625)"/>
      <use xlink:href="#DejaVuSans-2d" transform="translate(1547.802734 0.015625)"/>
      <use xlink:href="#DejaVuSans-63" transform="translate(1583.886719 0.015625)"/>
      <use xlink:href="#DejaVuSans-61" transform="translate(1638.867188 0.015625)"/>
      <use xlink:href="#DejaVuSans-74" transform="translate(1700.146484 0.015625)"/>
      <use xlink:href="#DejaVuSans-2e" transform="translate(1739.355469 0.015625)"/>
     </g>
    </g>
    <g id="line2d_24">
     <path d="M 87.329244 166.649642 
L 93.329244 166.649642 
L 99.329244 166.649642 
" style="fill: none; stroke: #ae0060; stroke-width: 1.5; stroke-linecap: square"/>
     <g>
      <use xlink:href="#m854dfd3931" x="93.329244" y="166.649642" style="fill: #f17900; stroke: #f17900"/>
     </g>
    </g>
    <g id="text_34">
     <!-- extension ($\epsilon=True$) for late T-cat. -->
     <g transform="translate(104.129244 168.749642) scale(0.06 -0.06)">
      <use xlink:href="#DejaVuSans-65" transform="translate(0 0.015625)"/>
      <use xlink:href="#DejaVuSans-78" transform="translate(61.523438 0.015625)"/>
      <use xlink:href="#DejaVuSans-74" transform="translate(120.703125 0.015625)"/>
      <use xlink:href="#DejaVuSans-65" transform="translate(159.912109 0.015625)"/>
      <use xlink:href="#DejaVuSans-6e" transform="translate(221.435547 0.015625)"/>
      <use xlink:href="#DejaVuSans-73" transform="translate(284.814453 0.015625)"/>
      <use xlink:href="#DejaVuSans-69" transform="translate(336.914062 0.015625)"/>
      <use xlink:href="#DejaVuSans-6f" transform="translate(364.697266 0.015625)"/>
      <use xlink:href="#DejaVuSans-6e" transform="translate(425.878906 0.015625)"/>
      <use xlink:href="#DejaVuSans-20" transform="translate(489.257812 0.015625)"/>
      <use xlink:href="#DejaVuSans-28" transform="translate(521.044922 0.015625)"/>
      <use xlink:href="#DejaVuSans-Oblique-3b5" transform="translate(560.058594 0.015625)"/>
      <use xlink:href="#DejaVuSans-3d" transform="translate(633.59375 0.015625)"/>
      <use xlink:href="#DejaVuSans-Oblique-54" transform="translate(736.865234 0.015625)"/>
      <use xlink:href="#DejaVuSans-Oblique-72" transform="translate(797.949219 0.015625)"/>
      <use xlink:href="#DejaVuSans-Oblique-75" transform="translate(839.0625 0.015625)"/>
      <use xlink:href="#DejaVuSans-Oblique-65" transform="translate(902.441406 0.015625)"/>
      <use xlink:href="#DejaVuSans-29" transform="translate(963.964844 0.015625)"/>
      <use xlink:href="#DejaVuSans-20" transform="translate(1002.978516 0.015625)"/>
      <use xlink:href="#DejaVuSans-66" transform="translate(1034.765625 0.015625)"/>
      <use xlink:href="#DejaVuSans-6f" transform="translate(1069.970703 0.015625)"/>
      <use xlink:href="#DejaVuSans-72" transform="translate(1131.152344 0.015625)"/>
      <use xlink:href="#DejaVuSans-20" transform="translate(1172.265625 0.015625)"/>
      <use xlink:href="#DejaVuSans-6c" transform="translate(1204.052734 0.015625)"/>
      <use xlink:href="#DejaVuSans-61" transform="translate(1231.835938 0.015625)"/>
      <use xlink:href="#DejaVuSans-74" transform="translate(1293.115234 0.015625)"/>
      <use xlink:href="#DejaVuSans-65" transform="translate(1332.324219 0.015625)"/>
      <use xlink:href="#DejaVuSans-20" transform="translate(1393.847656 0.015625)"/>
      <use xlink:href="#DejaVuSans-54" transform="translate(1425.634766 0.015625)"/>
      <use xlink:href="#DejaVuSans-2d" transform="translate(1486.71875 0.015625)"/>
      <use xlink:href="#DejaVuSans-63" transform="translate(1522.802734 0.015625)"/>
      <use xlink:href="#DejaVuSans-61" transform="translate(1577.783203 0.015625)"/>
      <use xlink:href="#DejaVuSans-74" transform="translate(1639.0625 0.015625)"/>
      <use xlink:href="#DejaVuSans-2e" transform="translate(1678.271484 0.015625)"/>
     </g>
    </g>
   </g>
  </g>
 </g>
 <defs>
  <clipPath id="p05c4f02da3">
   <rect x="33.53767" y="2.421264" width="186.451574" height="120.875566"/>
  </clipPath>
  <clipPath id="pf449ec27bf">
   <rect x="33.53767" y="137.743705" width="186.451574" height="120.875566"/>
  </clipPath>
 </defs>
</svg>
