<svg width="1284" height="1302" xmlns="http://www.w3.org/2000/svg" xmlns:xlink="http://www.w3.org/1999/xlink" xml:space="preserve" overflow="hidden"><defs><clipPath id="clip0"><rect x="427" y="306" width="1284" height="1302"/></clipPath></defs><g clip-path="url(#clip0)" transform="translate(-427 -306)"><rect x="1486" y="1205" width="225" height="224" fill="#FFE4C9"/><path d="M1542.47 1277.27 1593.28 1277.27 1592.47 1280.82 1547.41 1344.19 1561.05 1344.19C1563.06 1344.19 1564.66 1343.9 1565.86 1343.31 1567.06 1342.72 1568.45 1341.31 1570.05 1339.09 1571.64 1336.87 1573.08 1334.06 1574.37 1330.66L1581.41 1330.66 1577.11 1350.59 1525.87 1350.59 1526.62 1347.04 1571.69 1283.66 1558.58 1283.66C1557.08 1283.66 1555.93 1283.77 1555.14 1283.98 1554.36 1284.2 1553.63 1284.53 1552.97 1284.98 1552.31 1285.43 1551.54 1286.13 1550.69 1287.1 1549.83 1288.07 1548.87 1289.45 1547.81 1291.26 1546.76 1293.07 1545.94 1294.69 1545.37 1296.12L1538.33 1296.12Z" fill="#FFFFFF" fill-rule="evenodd"/><text fill="#000000" fill-opacity="0" font-family="Arial,Arial_MSFontService,sans-serif" font-size="73.3154" x="1525.87" y="1341.42">洧누</text><path d="M1633.95 1323.48 1654.15 1323.48 1653.56 1326.06C1652.42 1326.14 1651.53 1326.43 1650.89 1326.92 1650.25 1327.41 1649.79 1328.08 1649.52 1328.91 1649.25 1329.75 1649.11 1331 1649.11 1332.66L1649.11 1334.34C1649.11 1334.91 1649.12 1335.53 1649.15 1336.18L1649.42 1349.89C1649.53 1355.12 1649.58 1359.9 1649.58 1364.22L1650.05 1364.22 1662.66 1340.55C1664.7 1336.75 1665.94 1334.19 1666.4 1332.88 1666.85 1331.56 1667.08 1330.37 1667.08 1329.3 1667.08 1327.43 1665.97 1326.35 1663.76 1326.06L1664.34 1323.48 1680.98 1323.48 1680.4 1326.06C1679.46 1326.27 1678.65 1326.63 1677.96 1327.13 1677.27 1327.64 1676.62 1328.31 1676.02 1329.13 1675.43 1329.95 1674.54 1331.4 1673.37 1333.48L1649.11 1377.08 1639.31 1377.08 1637.63 1335.32C1637.57 1333.83 1637.47 1332.5 1637.31 1331.31 1637.16 1330.13 1636.91 1329.16 1636.57 1328.4 1636.23 1327.65 1635.81 1327.1 1635.3 1326.74 1634.79 1326.39 1634.15 1326.16 1633.37 1326.06ZM1607.63 1323.48 1627.27 1323.48 1626.73 1326.06C1625.24 1326.48 1624.15 1327.21 1623.45 1328.25 1622.74 1329.29 1622.08 1331.22 1621.45 1334.03L1614.34 1366.26C1614.16 1367.09 1614.03 1367.81 1613.95 1368.42 1613.88 1369.04 1613.84 1369.84 1613.84 1370.83 1613.84 1371.92 1614.09 1372.72 1614.6 1373.23 1615.11 1373.74 1615.93 1374.07 1617.08 1374.22L1616.53 1376.8 1596.88 1376.8 1597.43 1374.22C1598.91 1373.81 1600.01 1373.08 1600.71 1372.04 1601.41 1371 1602.08 1369.07 1602.7 1366.26L1609.81 1334.03C1610.15 1332.49 1610.32 1330.97 1610.32 1329.46 1610.32 1328.37 1610.07 1327.56 1609.56 1327.06 1609.05 1326.55 1608.22 1326.22 1607.08 1326.06Z" fill="#FFFFFF" fill-rule="evenodd"/><text fill="#000000" fill-opacity="0" font-family="Arial,Arial_MSFontService,sans-serif" font-size="53.5938" x="1596.88" y="1370.38">洧놇洧놓</text><path d="M1622.63 1267.19C1624.37 1267.19 1626.26 1267.32 1628.29 1267.6 1630.32 1267.87 1632.12 1268.26 1633.68 1268.75L1631.49 1278.28 1624.46 1278.28C1624.51 1277.74 1624.54 1277.18 1624.54 1276.6 1624.54 1274.73 1624.25 1273.37 1623.68 1272.52 1623.11 1271.67 1622.26 1271.25 1621.14 1271.25 1619.21 1271.25 1617.38 1272.36 1615.63 1274.57 1613.89 1276.78 1612.43 1279.86 1611.26 1283.79 1610.09 1287.72 1609.5 1291.17 1609.5 1294.14 1609.5 1299.04 1611.28 1301.49 1614.85 1301.49 1616.65 1301.49 1618.35 1301.08 1619.95 1300.27 1621.55 1299.47 1623.37 1298.11 1625.4 1296.21L1628.56 1299.61C1625.83 1302.34 1623.09 1304.29 1620.36 1305.45 1617.63 1306.61 1614.62 1307.19 1611.34 1307.19 1607.35 1307.19 1604.26 1305.94 1602.06 1303.46 1599.86 1300.97 1598.76 1297.51 1598.76 1293.09 1598.76 1288.95 1599.69 1284.73 1601.55 1280.43 1603.41 1276.13 1606.17 1272.85 1609.81 1270.59 1613.46 1268.32 1617.73 1267.19 1622.63 1267.19Z" fill="#FFFFFF" fill-rule="evenodd"/><text fill="#000000" fill-opacity="0" font-family="Arial,Arial_MSFontService,sans-serif" font-size="40" x="1598.76" y="1302.19">洧눇</text><rect x="1486" y="306" width="225" height="225" fill="#FFE4C9"/><path d="M1551.06 378.811 1601.87 378.811 1601.07 382.356 1556 445.735 1569.65 445.735C1571.65 445.735 1573.25 445.44 1574.45 444.849 1575.65 444.258 1577.05 442.853 1578.64 440.633 1580.24 438.413 1581.68 435.602 1582.97 432.2L1590 432.2 1585.71 452.127 1534.46 452.127 1535.22 448.582 1580.28 385.203 1567.17 385.203C1565.67 385.203 1564.53 385.31 1563.74 385.525 1562.95 385.74 1562.22 386.071 1561.56 386.519 1560.9 386.967 1560.14 387.674 1559.28 388.641 1558.42 389.607 1557.46 390.995 1556.41 392.803 1555.35 394.611 1554.53 396.232 1553.96 397.664L1546.93 397.664Z" fill="#FFFFFF" fill-rule="evenodd"/><text fill="#000000" fill-opacity="0" font-family="Arial,Arial_MSFontService,sans-serif" font-size="73.3154" x="1534.46" y="442.962">洧누</text><path d="M1651.22 425.023 1670.87 425.023 1670.32 427.601C1668.84 428.018 1667.74 428.747 1667.04 429.789 1666.34 430.831 1665.67 432.758 1665.05 435.57L1657.94 467.797C1657.76 468.63 1657.63 469.353 1657.55 469.965 1657.47 470.577 1657.43 471.377 1657.43 472.367 1657.43 473.461 1657.68 474.262 1658.19 474.769 1658.7 475.277 1659.53 475.609 1660.67 475.765L1660.13 478.344 1640.48 478.344 1641.02 475.765C1642.51 475.349 1643.6 474.62 1644.31 473.578 1645.01 472.536 1645.67 470.609 1646.3 467.797L1653.41 435.57C1653.75 434.034 1653.91 432.51 1653.91 431 1653.91 429.906 1653.66 429.105 1653.15 428.597 1652.65 428.09 1651.82 427.758 1650.67 427.601ZM1616.22 425.023 1635.87 425.023 1635.32 427.601C1633.84 428.018 1632.74 428.747 1632.04 429.789 1631.34 430.831 1630.67 432.758 1630.05 435.57L1622.94 467.797C1622.76 468.63 1622.63 469.353 1622.55 469.965 1622.47 470.577 1622.43 471.377 1622.43 472.367 1622.43 473.461 1622.68 474.262 1623.19 474.769 1623.7 475.277 1624.53 475.609 1625.67 475.765L1625.13 478.344 1605.48 478.344 1606.02 475.765C1607.51 475.349 1608.6 474.62 1609.31 473.578 1610.01 472.536 1610.67 470.609 1611.3 467.797L1618.41 435.57C1618.75 434.034 1618.91 432.51 1618.91 431 1618.91 429.906 1618.66 429.105 1618.15 428.597 1617.65 428.09 1616.82 427.758 1615.67 427.601Z" fill="#FFFFFF" fill-rule="evenodd"/><text fill="#000000" fill-opacity="0" font-family="Arial,Arial_MSFontService,sans-serif" font-size="53.3203" x="1605.48" y="471.678">洧놇洧놇</text><path d="M1631.22 368.729C1632.96 368.729 1634.85 368.866 1636.88 369.139 1638.91 369.413 1640.71 369.797 1642.27 370.291L1640.09 379.823 1633.06 379.823C1633.11 379.276 1633.13 378.716 1633.13 378.143 1633.13 376.268 1632.85 374.907 1632.27 374.061 1631.7 373.215 1630.85 372.791 1629.74 372.791 1627.81 372.791 1625.97 373.898 1624.23 376.112 1622.48 378.325 1621.02 381.398 1619.85 385.331 1618.68 389.263 1618.09 392.713 1618.09 395.682 1618.09 400.578 1619.88 403.026 1623.45 403.026 1625.24 403.026 1626.94 402.622 1628.54 401.815 1630.15 401.008 1631.96 399.653 1633.99 397.752L1637.16 401.151C1634.42 403.885 1631.69 405.832 1628.95 406.991 1626.22 408.15 1623.21 408.729 1619.93 408.729 1615.95 408.729 1612.85 407.485 1610.65 404.998 1608.45 402.512 1607.35 399.054 1607.35 394.627 1607.35 390.487 1608.28 386.268 1610.15 381.971 1612.01 377.674 1614.76 374.393 1618.41 372.127 1622.05 369.862 1626.32 368.729 1631.22 368.729Z" fill="#FFFFFF" fill-rule="evenodd"/><text fill="#000000" fill-opacity="0" font-family="Arial,Arial_MSFontService,sans-serif" font-size="40" x="1607.35" y="403.729">洧눇</text><rect x="1486" y="756" width="225" height="224" fill="#FFE4C9"/><path d="M1533.59 828.041 1584.4 828.041 1583.59 831.586 1538.53 894.965 1552.17 894.965C1554.18 894.965 1555.78 894.67 1556.98 894.079 1558.18 893.488 1559.57 892.083 1561.17 889.863 1562.76 887.643 1564.2 884.832 1565.49 881.43L1572.53 881.43 1568.23 901.357 1516.99 901.357 1517.74 897.812 1562.81 834.433 1549.7 834.433C1548.2 834.433 1547.05 834.54 1546.26 834.755 1545.48 834.97 1544.75 835.301 1544.09 835.749 1543.43 836.196 1542.66 836.904 1541.81 837.87 1540.95 838.837 1539.99 840.225 1538.93 842.033 1537.88 843.841 1537.06 845.461 1536.49 846.894L1529.45 846.894Z" fill="#FFFFFF" fill-rule="evenodd"/><text fill="#000000" fill-opacity="0" font-family="Arial,Arial_MSFontService,sans-serif" font-size="73.3154" x="1516.99" y="892.192">洧누</text><path d="M1668.75 874.253 1688.39 874.253 1687.85 876.831C1686.36 877.248 1685.27 877.977 1684.57 879.019 1683.86 880.06 1683.2 881.987 1682.57 884.8L1675.46 917.026C1675.28 917.86 1675.15 918.582 1675.07 919.194 1675 919.806 1674.96 920.607 1674.96 921.597 1674.96 922.69 1675.21 923.491 1675.72 923.999 1676.23 924.507 1677.05 924.839 1678.2 924.995L1677.65 927.573 1658 927.573 1658.55 924.995C1660.03 924.578 1661.13 923.849 1661.83 922.808 1662.53 921.766 1663.2 919.839 1663.82 917.026L1670.93 884.8C1671.27 883.263 1671.44 881.74 1671.44 880.23 1671.44 879.136 1671.19 878.335 1670.68 877.827 1670.17 877.319 1669.34 876.987 1668.2 876.831ZM1633.75 874.253 1653.39 874.253 1652.85 876.831C1651.36 877.248 1650.27 877.977 1649.57 879.019 1648.86 880.06 1648.2 881.987 1647.57 884.8L1640.46 917.026C1640.28 917.86 1640.15 918.582 1640.07 919.194 1640 919.806 1639.96 920.607 1639.96 921.597 1639.96 922.69 1640.21 923.491 1640.72 923.999 1641.23 924.507 1642.05 924.839 1643.2 924.995L1642.65 927.573 1623 927.573 1623.55 924.995C1625.03 924.578 1626.13 923.849 1626.83 922.808 1627.53 921.766 1628.2 919.839 1628.82 917.026L1635.93 884.8C1636.27 883.263 1636.44 881.74 1636.44 880.23 1636.44 879.136 1636.19 878.335 1635.68 877.827 1635.17 877.319 1634.34 876.987 1633.2 876.831ZM1598.75 874.253 1618.39 874.253 1617.85 876.831C1616.36 877.248 1615.27 877.977 1614.57 879.019 1613.86 880.06 1613.2 881.987 1612.57 884.8L1605.46 917.026C1605.28 917.86 1605.15 918.582 1605.07 919.194 1605 919.806 1604.96 920.607 1604.96 921.597 1604.96 922.69 1605.21 923.491 1605.72 923.999 1606.23 924.507 1607.05 924.839 1608.2 924.995L1607.65 927.573 1588 927.573 1588.55 924.995C1590.03 924.578 1591.13 923.849 1591.83 922.808 1592.53 921.766 1593.2 919.839 1593.82 917.026L1600.93 884.8C1601.27 883.263 1601.44 881.74 1601.44 880.23 1601.44 879.136 1601.19 878.335 1600.68 877.827 1600.17 877.319 1599.34 876.987 1598.2 876.831Z" fill="#FFFFFF" fill-rule="evenodd"/><text fill="#000000" fill-opacity="0" font-family="Arial,Arial_MSFontService,sans-serif" font-size="53.3203" x="1588" y="920.908">洧놇洧놇洧놇</text><path d="M1613.75 817.959C1615.49 817.959 1617.38 818.095 1619.41 818.369 1621.44 818.642 1623.24 819.026 1624.8 819.521L1622.61 829.052 1615.58 829.052C1615.63 828.506 1615.66 827.946 1615.66 827.373 1615.66 825.498 1615.37 824.137 1614.8 823.291 1614.23 822.444 1613.38 822.021 1612.26 822.021 1610.33 822.021 1608.5 823.128 1606.75 825.342 1605.01 827.555 1603.55 830.628 1602.38 834.56 1601.21 838.493 1600.62 841.943 1600.62 844.912 1600.62 849.808 1602.4 852.256 1605.97 852.256 1607.77 852.256 1609.47 851.852 1611.07 851.045 1612.67 850.237 1614.49 848.883 1616.52 846.982L1619.68 850.381C1616.95 853.115 1614.21 855.062 1611.48 856.22 1608.75 857.379 1605.74 857.959 1602.46 857.959 1598.47 857.959 1595.38 856.715 1593.18 854.228 1590.98 851.741 1589.88 848.284 1589.88 843.857 1589.88 839.717 1590.81 835.498 1592.67 831.201 1594.53 826.904 1597.29 823.623 1600.93 821.357 1604.58 819.092 1608.85 817.959 1613.75 817.959Z" fill="#FFFFFF" fill-rule="evenodd"/><text fill="#000000" fill-opacity="0" font-family="Arial,Arial_MSFontService,sans-serif" font-size="40" x="1589.88" y="852.959">洧눇</text><rect x="1389" y="1250" width="224" height="224" fill="#FFAF5E"/><path d="M1445.09 1326.86 1495.9 1326.86 1495.1 1330.4 1450.04 1393.78 1463.68 1393.78C1465.68 1393.78 1467.29 1393.48 1468.49 1392.89 1469.68 1392.3 1471.08 1390.9 1472.67 1388.68 1474.27 1386.46 1475.71 1383.65 1477 1380.24L1484.03 1380.24 1479.74 1400.17 1428.5 1400.17 1429.25 1396.63 1474.31 1333.25 1461.21 1333.25C1459.7 1333.25 1458.56 1333.36 1457.77 1333.57 1456.98 1333.78 1456.26 1334.12 1455.59 1334.56 1454.93 1335.01 1454.17 1335.72 1453.31 1336.69 1452.45 1337.65 1451.49 1339.04 1450.44 1340.85 1449.38 1342.66 1448.57 1344.28 1447.99 1345.71L1440.96 1345.71Z" fill="#FFFFFF" fill-rule="evenodd"/><text fill="#000000" fill-opacity="0" font-family="Arial,Arial_MSFontService,sans-serif" font-size="73.3154" x="1428.5" y="1391.01">洧누</text><path d="M1536.58 1373.07 1556.78 1373.07 1556.19 1375.65C1555.04 1375.72 1554.15 1376.01 1553.51 1376.51 1552.88 1377 1552.42 1377.66 1552.15 1378.5 1551.87 1379.33 1551.74 1380.58 1551.74 1382.25L1551.74 1383.93C1551.74 1384.5 1551.75 1385.11 1551.78 1385.76L1552.05 1399.47C1552.15 1404.71 1552.2 1409.49 1552.2 1413.81L1552.67 1413.81 1565.29 1390.14C1567.32 1386.34 1568.57 1383.78 1569.02 1382.46 1569.48 1381.15 1569.7 1379.96 1569.7 1378.89 1569.7 1377.01 1568.6 1375.93 1566.38 1375.65L1566.97 1373.07 1583.61 1373.07 1583.03 1375.65C1582.09 1375.85 1581.27 1376.21 1580.58 1376.72 1579.89 1377.23 1579.25 1377.89 1578.65 1378.71 1578.05 1379.53 1577.17 1380.98 1575.99 1383.07L1551.74 1426.66 1541.93 1426.66 1540.25 1384.9C1540.2 1383.42 1540.1 1382.08 1539.94 1380.9 1539.78 1379.72 1539.54 1378.75 1539.2 1377.99 1538.86 1377.23 1538.44 1376.68 1537.93 1376.33 1537.42 1375.98 1536.78 1375.75 1535.99 1375.65ZM1510.25 1373.07 1529.9 1373.07 1529.35 1375.65C1527.87 1376.06 1526.78 1376.79 1526.07 1377.83 1525.37 1378.88 1524.7 1380.8 1524.08 1383.61L1516.97 1415.84C1516.79 1416.67 1516.66 1417.4 1516.58 1418.01 1516.5 1418.62 1516.46 1419.42 1516.46 1420.41 1516.46 1421.51 1516.72 1422.31 1517.22 1422.81 1517.73 1423.32 1518.56 1423.65 1519.7 1423.81L1519.16 1426.39 1499.51 1426.39 1500.06 1423.81C1501.54 1423.39 1502.63 1422.66 1503.34 1421.62 1504.04 1420.58 1504.7 1418.65 1505.33 1415.84L1512.44 1383.61C1512.78 1382.08 1512.95 1380.55 1512.95 1379.04 1512.95 1377.95 1512.69 1377.15 1512.19 1376.64 1511.68 1376.13 1510.85 1375.8 1509.7 1375.65Z" fill="#FFFFFF" fill-rule="evenodd"/><text fill="#000000" fill-opacity="0" font-family="Arial,Arial_MSFontService,sans-serif" font-size="53.5938" x="1499.51" y="1419.96">洧놇洧놓</text><path d="M1527.67 1322.52C1525.95 1322.52 1524.2 1323.36 1522.42 1325.04 1520.64 1326.72 1519.21 1328.66 1518.14 1330.88 1517.07 1333.09 1516.1 1336.21 1515.21 1340.25L1514.9 1341.7C1514.48 1343.62 1514.28 1345.51 1514.28 1347.36 1514.28 1349.26 1514.59 1350.63 1515.23 1351.46 1515.87 1352.29 1516.94 1352.71 1518.45 1352.71 1519.76 1352.71 1520.94 1352.42 1522.01 1351.83 1523.08 1351.25 1524.09 1350.29 1525.04 1348.96 1525.99 1347.63 1526.91 1345.92 1527.81 1343.82 1528.71 1341.73 1529.48 1339.22 1530.13 1336.3 1530.79 1333.39 1531.11 1330.68 1531.11 1328.18 1531.11 1326.25 1530.83 1324.83 1530.27 1323.9 1529.71 1322.98 1528.85 1322.52 1527.67 1322.52ZM1519.78 1300.21 1524.35 1300.21 1518.38 1324.12 1518.88 1324.27C1521.15 1321.62 1523.28 1319.7 1525.27 1318.53 1527.26 1317.36 1529.64 1316.77 1532.4 1316.77 1535.37 1316.77 1537.67 1317.84 1539.29 1319.98 1540.92 1322.11 1541.74 1325.2 1541.74 1329.23 1541.74 1331.53 1541.46 1334.05 1540.92 1336.79 1540.37 1339.54 1539.6 1341.98 1538.61 1344.1 1537.62 1346.22 1536.44 1348.08 1535.06 1349.66 1533.68 1351.25 1532.13 1352.57 1530.43 1353.61 1528.72 1354.65 1526.88 1355.44 1524.9 1355.97 1522.92 1356.51 1520.8 1356.77 1518.53 1356.77 1516.81 1356.77 1515.17 1356.57 1513.61 1356.15 1512.05 1355.73 1510.43 1355 1508.77 1353.96L1505.13 1356.77 1500.88 1356.15 1510.76 1312.01C1511.31 1309.56 1511.58 1307.7 1511.58 1306.42 1511.58 1305.61 1511.46 1305.03 1511.21 1304.66 1510.96 1304.3 1510.63 1304.04 1510.21 1303.88 1509.8 1303.73 1508.95 1303.56 1507.67 1303.38L1508.3 1300.84Z" fill="#FFFFFF" fill-rule="evenodd"/><text fill="#000000" fill-opacity="0" font-family="Arial,Arial_MSFontService,sans-serif" font-size="56.5625" x="1500.88" y="1349.7">洧눆</text><rect x="1389" y="351" width="224" height="225" fill="#FFAF5E"/><path d="M1453.69 428.534 1504.5 428.534 1503.69 432.079 1458.63 495.458 1472.27 495.458C1474.28 495.458 1475.88 495.163 1477.08 494.572 1478.28 493.981 1479.68 492.576 1481.27 490.356 1482.86 488.136 1484.3 485.325 1485.59 481.923L1492.63 481.923 1488.33 501.85 1437.09 501.85 1437.84 498.305 1482.91 434.926 1469.8 434.926C1468.3 434.926 1467.15 435.033 1466.36 435.248 1465.58 435.463 1464.85 435.794 1464.19 436.242 1463.53 436.69 1462.77 437.397 1461.91 438.364 1461.05 439.33 1460.09 440.718 1459.03 442.526 1457.98 444.334 1457.16 445.955 1456.59 447.387L1449.55 447.387Z" fill="#FFFFFF" fill-rule="evenodd"/><text fill="#000000" fill-opacity="0" font-family="Arial,Arial_MSFontService,sans-serif" font-size="73.3154" x="1437.09" y="492.685">洧누</text><path d="M1553.85 474.746 1573.49 474.746 1572.95 477.324C1571.46 477.741 1570.37 478.47 1569.67 479.512 1568.96 480.553 1568.3 482.481 1567.67 485.293L1560.56 517.52C1560.38 518.353 1560.25 519.076 1560.17 519.688 1560.1 520.3 1560.06 521.1 1560.06 522.09 1560.06 523.184 1560.31 523.984 1560.82 524.492 1561.33 525 1562.15 525.332 1563.3 525.488L1562.75 528.067 1543.1 528.067 1543.65 525.488C1545.13 525.072 1546.23 524.343 1546.93 523.301 1547.63 522.259 1548.3 520.332 1548.92 517.52L1556.03 485.293C1556.37 483.757 1556.54 482.233 1556.54 480.723 1556.54 479.629 1556.29 478.828 1555.78 478.32 1555.27 477.813 1554.44 477.481 1553.3 477.324ZM1518.85 474.746 1538.49 474.746 1537.95 477.324C1536.46 477.741 1535.37 478.47 1534.67 479.512 1533.96 480.553 1533.3 482.481 1532.67 485.293L1525.56 517.52C1525.38 518.353 1525.25 519.076 1525.17 519.688 1525.1 520.3 1525.06 521.1 1525.06 522.09 1525.06 523.184 1525.31 523.984 1525.82 524.492 1526.33 525 1527.15 525.332 1528.3 525.488L1527.75 528.067 1508.1 528.067 1508.65 525.488C1510.13 525.072 1511.23 524.343 1511.93 523.301 1512.63 522.259 1513.3 520.332 1513.92 517.52L1521.03 485.293C1521.37 483.757 1521.54 482.233 1521.54 480.723 1521.54 479.629 1521.29 478.828 1520.78 478.32 1520.27 477.813 1519.44 477.481 1518.3 477.324Z" fill="#FFFFFF" fill-rule="evenodd"/><text fill="#000000" fill-opacity="0" font-family="Arial,Arial_MSFontService,sans-serif" font-size="53.3203" x="1508.1" y="521.401">洧놇洧놇</text><path d="M1536.27 424.194C1534.55 424.194 1532.8 425.034 1531.01 426.714 1529.23 428.393 1527.8 430.34 1526.74 432.554 1525.67 434.767 1524.69 437.892 1523.81 441.929L1523.49 443.374C1523.08 445.301 1522.87 447.189 1522.87 449.038 1522.87 450.939 1523.19 452.306 1523.83 453.139 1524.46 453.973 1525.54 454.389 1527.05 454.389 1528.35 454.389 1529.54 454.096 1530.6 453.511 1531.67 452.925 1532.68 451.968 1533.63 450.639 1534.58 449.311 1535.51 447.599 1536.4 445.503 1537.3 443.406 1538.08 440.9 1538.73 437.983 1539.38 435.067 1539.71 432.358 1539.71 429.858 1539.71 427.931 1539.43 426.505 1538.87 425.581 1538.31 424.656 1537.44 424.194 1536.27 424.194ZM1528.38 401.889 1532.95 401.889 1526.97 425.796 1527.48 425.952C1529.74 423.296 1531.87 421.382 1533.87 420.21 1535.86 419.038 1538.23 418.452 1540.99 418.452 1543.96 418.452 1546.26 419.52 1547.89 421.655 1549.52 423.791 1550.33 426.876 1550.33 430.913 1550.33 433.205 1550.06 435.724 1549.51 438.471 1548.96 441.219 1548.19 443.654 1547.21 445.776 1546.22 447.899 1545.03 449.754 1543.65 451.343 1542.27 452.931 1540.73 454.246 1539.02 455.288 1537.32 456.33 1535.47 457.117 1533.49 457.651 1531.52 458.185 1529.39 458.452 1527.13 458.452 1525.41 458.452 1523.77 458.244 1522.21 457.827 1520.64 457.41 1519.03 456.681 1517.36 455.639L1513.73 458.452 1509.47 457.827 1519.35 413.686C1519.9 411.238 1520.17 409.376 1520.17 408.1 1520.17 407.293 1520.05 406.707 1519.8 406.343 1519.56 405.978 1519.22 405.718 1518.81 405.561 1518.39 405.405 1517.54 405.236 1516.27 405.054L1516.89 402.514Z" fill="#FFFFFF" fill-rule="evenodd"/><text fill="#000000" fill-opacity="0" font-family="Arial,Arial_MSFontService,sans-serif" font-size="56.5625" x="1509.47" y="451.382">洧눆</text><rect x="1389" y="801" width="224" height="224" fill="#FFAF5E"/><path d="M1436.21 877.764 1487.02 877.764 1486.22 881.309 1441.16 944.688 1454.8 944.688C1456.8 944.688 1458.41 944.393 1459.6 943.802 1460.8 943.211 1462.2 941.806 1463.79 939.586 1465.39 937.366 1466.83 934.555 1468.12 931.153L1475.15 931.153 1470.86 951.08 1419.62 951.08 1420.37 947.535 1465.43 884.156 1452.33 884.156C1450.82 884.156 1449.68 884.263 1448.89 884.478 1448.1 884.693 1447.38 885.024 1446.71 885.472 1446.05 885.919 1445.29 886.627 1444.43 887.593 1443.57 888.56 1442.61 889.948 1441.56 891.756 1440.5 893.564 1439.69 895.185 1439.11 896.617L1432.08 896.617Z" fill="#FFFFFF" fill-rule="evenodd"/><text fill="#000000" fill-opacity="0" font-family="Arial,Arial_MSFontService,sans-serif" font-size="73.3154" x="1419.62" y="941.915">洧누</text><path d="M1571.37 923.976 1591.02 923.976 1590.47 926.554C1588.99 926.971 1587.9 927.7 1587.19 928.742 1586.49 929.783 1585.82 931.71 1585.2 934.523L1578.09 966.749C1577.91 967.583 1577.78 968.305 1577.7 968.917 1577.62 969.529 1577.58 970.33 1577.58 971.32 1577.58 972.414 1577.84 973.214 1578.34 973.722 1578.85 974.23 1579.68 974.562 1580.82 974.718L1580.28 977.296 1560.63 977.296 1561.18 974.718C1562.66 974.302 1563.75 973.572 1564.46 972.531 1565.16 971.489 1565.82 969.562 1566.45 966.749L1573.56 934.523C1573.9 932.986 1574.07 931.463 1574.07 929.953 1574.07 928.859 1573.81 928.058 1573.31 927.55 1572.8 927.042 1571.97 926.71 1570.82 926.554ZM1536.37 923.976 1556.02 923.976 1555.47 926.554C1553.99 926.971 1552.9 927.7 1552.19 928.742 1551.49 929.783 1550.82 931.71 1550.2 934.523L1543.09 966.749C1542.91 967.583 1542.78 968.305 1542.7 968.917 1542.62 969.529 1542.58 970.33 1542.58 971.32 1542.58 972.414 1542.84 973.214 1543.34 973.722 1543.85 974.23 1544.68 974.562 1545.82 974.718L1545.28 977.296 1525.63 977.296 1526.18 974.718C1527.66 974.302 1528.75 973.572 1529.46 972.531 1530.16 971.489 1530.82 969.562 1531.45 966.749L1538.56 934.523C1538.9 932.986 1539.07 931.463 1539.07 929.953 1539.07 928.859 1538.81 928.058 1538.31 927.55 1537.8 927.042 1536.97 926.71 1535.82 926.554ZM1501.37 923.976 1521.02 923.976 1520.47 926.554C1518.99 926.971 1517.9 927.7 1517.19 928.742 1516.49 929.783 1515.82 931.71 1515.2 934.523L1508.09 966.749C1507.91 967.583 1507.78 968.305 1507.7 968.917 1507.62 969.529 1507.58 970.33 1507.58 971.32 1507.58 972.414 1507.84 973.214 1508.34 973.722 1508.85 974.23 1509.68 974.562 1510.82 974.718L1510.28 977.296 1490.63 977.296 1491.18 974.718C1492.66 974.302 1493.75 973.572 1494.46 972.531 1495.16 971.489 1495.82 969.562 1496.45 966.749L1503.56 934.523C1503.9 932.986 1504.07 931.463 1504.07 929.953 1504.07 928.859 1503.81 928.058 1503.31 927.55 1502.8 927.042 1501.97 926.71 1500.82 926.554Z" fill="#FFFFFF" fill-rule="evenodd"/><text fill="#000000" fill-opacity="0" font-family="Arial,Arial_MSFontService,sans-serif" font-size="53.3203" x="1490.63" y="970.631">洧놇洧놇洧놇</text><path d="M1518.79 873.424C1517.07 873.424 1515.32 874.264 1513.54 875.943 1511.76 877.623 1510.33 879.57 1509.26 881.783 1508.19 883.997 1507.22 887.122 1506.33 891.158L1506.02 892.604C1505.6 894.531 1505.4 896.419 1505.4 898.268 1505.4 900.169 1505.71 901.536 1506.35 902.369 1506.99 903.203 1508.06 903.619 1509.57 903.619 1510.88 903.619 1512.06 903.326 1513.13 902.74 1514.2 902.154 1515.21 901.197 1516.16 899.869 1517.11 898.541 1518.03 896.829 1518.93 894.733 1519.83 892.636 1520.6 890.13 1521.25 887.213 1521.91 884.296 1522.23 881.588 1522.23 879.088 1522.23 877.161 1521.95 875.735 1521.39 874.811 1520.83 873.886 1519.97 873.424 1518.79 873.424ZM1510.9 851.119 1515.47 851.119 1509.5 875.026 1510 875.182C1512.27 872.526 1514.4 870.611 1516.39 869.44 1518.38 868.268 1520.76 867.682 1523.52 867.682 1526.49 867.682 1528.79 868.749 1530.41 870.885 1532.04 873.02 1532.86 876.106 1532.86 880.143 1532.86 882.434 1532.58 884.954 1532.04 887.701 1531.49 890.449 1530.72 892.884 1529.73 895.006 1528.74 897.128 1527.56 898.984 1526.18 900.572 1524.8 902.161 1523.25 903.476 1521.55 904.518 1519.84 905.559 1518 906.347 1516.02 906.881 1514.04 907.415 1511.92 907.682 1509.65 907.682 1507.93 907.682 1506.29 907.473 1504.73 907.057 1503.17 906.64 1501.55 905.911 1499.89 904.869L1496.25 907.682 1492 907.057 1501.88 862.916C1502.43 860.468 1502.7 858.606 1502.7 857.33 1502.7 856.523 1502.58 855.937 1502.33 855.572 1502.08 855.208 1501.75 854.947 1501.33 854.791 1500.92 854.635 1500.07 854.466 1498.79 854.283L1499.42 851.744Z" fill="#FFFFFF" fill-rule="evenodd"/><text fill="#000000" fill-opacity="0" font-family="Arial,Arial_MSFontService,sans-serif" font-size="56.5625" x="1492" y="900.611">洧눆</text><path d="M978.958 619.5 978.959 822.855C978.959 829.184 973.829 834.314 967.501 834.314 961.172 834.314 956.042 829.184 956.042 822.855L956.042 619.5C956.042 613.172 961.172 608.042 967.5 608.042 973.828 608.042 978.958 613.172 978.958 619.5ZM1005.86 783.095 967.501 844.475 929.138 783.095C925.784 777.729 927.415 770.659 932.782 767.305 938.148 763.951 945.217 765.583 948.571 770.949L977.217 816.782 957.784 816.782 986.43 770.949C989.784 765.583 996.853 763.951 1002.22 767.305 1007.59 770.659 1009.22 777.728 1005.86 783.095Z" fill="#005EA8"/><path d="M978.958 1068.5 978.959 1271.85C978.959 1278.18 973.829 1283.31 967.501 1283.31 961.172 1283.31 956.042 1278.18 956.042 1271.85L956.042 1068.5C956.042 1062.17 961.172 1057.04 967.5 1057.04 973.828 1057.04 978.958 1062.17 978.958 1068.5ZM1005.86 1232.09 967.501 1293.47 929.138 1232.09C925.784 1226.73 927.415 1219.66 932.782 1216.3 938.148 1212.95 945.217 1214.58 948.571 1219.95L977.217 1265.78 957.784 1265.78 986.43 1219.95C989.784 1214.58 996.853 1212.95 1002.22 1216.3 1007.59 1219.66 1009.22 1226.73 1005.86 1232.09Z" fill="#005EA8"/><path d="M652.5 945.042 834.393 945.042C840.721 945.042 845.851 950.172 845.851 956.501 845.851 962.829 840.721 967.959 834.393 967.959L652.5 967.958C646.172 967.958 641.042 962.828 641.042 956.5 641.042 950.172 646.172 945.042 652.5 945.042ZM794.633 918.138 856.012 956.501 794.632 994.863C789.266 998.217 782.197 996.586 778.843 991.219 775.489 985.853 777.12 978.784 782.487 975.43L828.32 946.784 828.32 966.217 782.487 937.571C777.12 934.217 775.489 927.148 778.843 921.782 782.197 916.415 789.266 914.784 794.633 918.138Z" fill="#AE0060"/><path d="M627.907 1028.71 882.409 1303.51C886.709 1308.15 886.431 1315.4 881.788 1319.7 877.146 1324 869.896 1323.73 865.596 1319.08L611.093 1044.29C606.793 1039.64 607.071 1032.39 611.714 1028.09 616.357 1023.79 623.607 1024.07 627.907 1028.71ZM875.131 1256.06 888.693 1327.16 818.84 1308.19C812.733 1306.53 809.126 1300.24 810.784 1294.13 812.442 1288.03 818.737 1284.42 824.845 1286.08L877.005 1300.24 862.747 1313.44 852.621 1260.35C851.435 1254.14 855.513 1248.14 861.729 1246.95 867.945 1245.76 873.946 1249.84 875.131 1256.06Z" fill="#AE0060"/><path d="M8.40675-7.78588 262.909 267.012C267.209 271.654 266.931 278.904 262.288 283.204 257.645 287.504 250.396 287.226 246.096 282.583L-8.40675 7.78588C-12.7068 3.14296-12.4288-4.10673-7.78588-8.40675-3.14296-12.7068 4.10673-12.4288 8.40675-7.78588ZM255.632 219.559 269.193 290.66 199.34 271.693C193.233 270.035 189.626 263.74 191.284 257.633 192.943 251.526 199.238 247.919 205.345 249.577L257.505 263.74 243.247 276.945 233.121 223.853C231.935 217.637 236.013 211.636 242.229 210.451 248.445 209.265 254.446 213.343 255.632 219.559Z" fill="#AE0060" transform="matrix(1 0 0 -1 619.5 877.102)"/><path d="M427 956C427 894.144 477.368 844 539.5 844 601.632 844 652 894.144 652 956 652 1017.86 601.632 1068 539.5 1068 477.368 1068 427 1017.86 427 956Z" fill="#AE0060" fill-rule="evenodd"/><text fill="#FFFFFF" font-family="Arial,Arial_MSFontService,sans-serif" font-weight="700" font-size="110" transform="matrix(1 0 0 1 505.875 997)">T</text><path d="M1079.5 1394.04 1261.39 1394.04 1261.39 1416.96 1079.5 1416.96ZM1221.63 1367.14 1283.01 1405.5 1221.63 1443.86C1216.27 1447.22 1209.2 1445.59 1205.84 1440.22 1202.49 1434.85 1204.12 1427.78 1209.49 1424.43L1255.32 1395.78 1255.32 1415.22 1209.49 1386.57C1204.12 1383.22 1202.49 1376.15 1205.84 1370.78 1209.2 1365.42 1216.27 1363.78 1221.63 1367.14Z" fill="#F17900"/><rect x="1283" y="1293" width="224" height="225" fill="#F17900"/><path d="M1339.03 1365.63 1389.84 1365.63 1389.04 1369.17 1343.97 1432.55 1357.62 1432.55C1359.62 1432.55 1361.22 1432.25 1362.42 1431.66 1363.62 1431.07 1365.02 1429.67 1366.61 1427.45 1368.21 1425.23 1369.65 1422.42 1370.94 1419.02L1377.97 1419.02 1373.68 1438.94 1322.44 1438.94 1323.19 1435.4 1368.25 1372.02 1355.15 1372.02C1353.64 1372.02 1352.5 1372.13 1351.71 1372.34 1350.92 1372.56 1350.2 1372.89 1349.53 1373.33 1348.87 1373.78 1348.11 1374.49 1347.25 1375.46 1346.39 1376.42 1345.43 1377.81 1344.38 1379.62 1343.32 1381.43 1342.51 1383.05 1341.93 1384.48L1334.9 1384.48Z" fill="#FFFFFF" fill-rule="evenodd"/><text fill="#000000" fill-opacity="0" font-family="Arial,Arial_MSFontService,sans-serif" font-size="73.3154" x="1322.44" y="1429.78">洧누</text><path d="M1430.52 1411.84 1450.71 1411.84 1450.13 1414.42C1448.98 1414.49 1448.09 1414.78 1447.45 1415.28 1446.81 1415.77 1446.36 1416.43 1446.09 1417.27 1445.81 1418.1 1445.68 1419.35 1445.68 1421.02L1445.68 1422.7C1445.68 1423.27 1445.69 1423.88 1445.71 1424.53L1445.99 1438.24C1446.09 1443.48 1446.14 1448.26 1446.14 1452.58L1446.61 1452.58 1459.23 1428.91C1461.26 1425.11 1462.5 1422.55 1462.96 1421.23 1463.42 1419.92 1463.64 1418.73 1463.64 1417.66 1463.64 1415.78 1462.54 1414.7 1460.32 1414.42L1460.91 1411.84 1477.55 1411.84 1476.96 1414.42C1476.03 1414.62 1475.21 1414.98 1474.52 1415.49 1473.83 1416 1473.19 1416.66 1472.59 1417.48 1471.99 1418.3 1471.1 1419.75 1469.93 1421.84L1445.68 1465.43 1435.87 1465.43 1434.19 1423.67C1434.14 1422.19 1434.03 1420.86 1433.88 1419.67 1433.72 1418.49 1433.47 1417.52 1433.14 1416.76 1432.8 1416 1432.37 1415.45 1431.87 1415.1 1431.36 1414.75 1430.71 1414.52 1429.93 1414.42ZM1404.19 1411.84 1423.84 1411.84 1423.29 1414.42C1421.81 1414.83 1420.71 1415.56 1420.01 1416.6 1419.31 1417.65 1418.64 1419.57 1418.02 1422.39L1410.91 1454.61C1410.73 1455.45 1410.6 1456.17 1410.52 1456.78 1410.44 1457.39 1410.4 1458.19 1410.4 1459.18 1410.4 1460.28 1410.66 1461.08 1411.16 1461.58 1411.67 1462.09 1412.5 1462.42 1413.64 1462.58L1413.1 1465.16 1393.45 1465.16 1394 1462.58C1395.48 1462.16 1396.57 1461.43 1397.28 1460.39 1397.98 1459.35 1398.64 1457.42 1399.27 1454.61L1406.38 1422.39C1406.72 1420.85 1406.89 1419.33 1406.89 1417.81 1406.89 1416.72 1406.63 1415.92 1406.12 1415.41 1405.62 1414.9 1404.79 1414.57 1403.64 1414.42Z" fill="#FFFFFF" fill-rule="evenodd"/><text fill="#000000" fill-opacity="0" font-family="Arial,Arial_MSFontService,sans-serif" font-size="53.5938" x="1393.45" y="1458.73">洧놇洧놓</text><path d="M1418.64 1359.61C1416.22 1359.61 1414.07 1360.82 1412.2 1363.26 1410.32 1365.69 1408.81 1368.97 1407.67 1373.08 1406.52 1377.2 1405.95 1380.88 1405.95 1384.14 1405.95 1386.04 1406.23 1387.46 1406.79 1388.4 1407.35 1389.33 1408.21 1389.8 1409.39 1389.8 1411.1 1389.8 1412.86 1388.96 1414.64 1387.28 1416.42 1385.6 1417.86 1383.63 1418.96 1381.36 1420.05 1379.1 1421.03 1376 1421.89 1372.07L1422.2 1370.62C1422.62 1368.7 1422.82 1366.77 1422.82 1364.84 1422.82 1363.12 1422.5 1361.82 1421.85 1360.93 1421.2 1360.05 1420.13 1359.61 1418.64 1359.61ZM1418.18 1355.54C1422.06 1355.54 1425.36 1356.48 1428.1 1358.36L1431.89 1355.54 1436.26 1356.17 1429.93 1382.73C1429.54 1384.37 1429.35 1385.86 1429.35 1387.18 1429.35 1388.04 1429.49 1388.71 1429.78 1389.18 1430.06 1389.65 1430.56 1389.88 1431.26 1389.88 1432.07 1389.88 1432.94 1389.52 1433.88 1388.79 1434.82 1388.06 1435.91 1386.98 1437.16 1385.54L1439.97 1388.36C1437.24 1391.09 1434.88 1392.97 1432.9 1394 1430.92 1395.03 1428.84 1395.54 1426.65 1395.54 1424.46 1395.54 1422.73 1394.94 1421.46 1393.73 1420.18 1392.52 1419.54 1390.92 1419.54 1388.94 1419.54 1388.29 1419.62 1387.67 1419.78 1387.07L1419.23 1386.99C1417.33 1389.23 1415.69 1390.92 1414.33 1392.05 1412.96 1393.18 1411.51 1394.05 1409.97 1394.65 1408.44 1395.24 1406.73 1395.54 1404.85 1395.54 1401.73 1395.54 1399.36 1394.48 1397.75 1392.36 1396.13 1390.24 1395.32 1387.15 1395.32 1383.08 1395.32 1379.57 1395.83 1376.08 1396.85 1372.61 1397.86 1369.15 1399.32 1366.16 1401.22 1363.65 1403.12 1361.14 1405.51 1359.16 1408.39 1357.71 1411.27 1356.27 1414.53 1355.54 1418.18 1355.54Z" fill="#FFFFFF" fill-rule="evenodd"/><text fill="#000000" fill-opacity="0" font-family="Arial,Arial_MSFontService,sans-serif" font-size="40" x="1395.32" y="1390.54">洧눅</text><path d="M855.5 1406C855.5 1343.87 905.644 1293.5 967.5 1293.5 1029.36 1293.5 1079.5 1343.87 1079.5 1406 1079.5 1468.13 1029.36 1518.5 967.5 1518.5 905.644 1518.5 855.5 1468.13 855.5 1406Z" stroke="#005EA8" stroke-width="20.625" stroke-miterlimit="8" fill="#FFFFFF" fill-rule="evenodd"/><path d="M905.572 1366.63 932.911 1366.63 932.106 1370.18C930.566 1370.32 929.447 1370.8 928.749 1371.6 928.05 1372.41 927.701 1373.46 927.701 1374.75 927.701 1375.82 927.898 1377.1 928.292 1378.59 928.686 1380.07 929.295 1381.85 930.118 1383.93L933.502 1392.85 940.699 1383.93C942.991 1381.07 944.584 1378.91 945.48 1377.46 946.375 1376.01 946.822 1374.8 946.822 1373.83 946.822 1372.61 946.518 1371.75 945.909 1371.23 945.301 1370.71 944.298 1370.36 942.901 1370.18L943.707 1366.63 966.051 1366.63 965.245 1370.23C964.386 1370.38 963.526 1370.72 962.667 1371.25 961.808 1371.79 960.635 1372.79 959.149 1374.26 957.663 1375.73 955.201 1378.47 951.764 1382.48L936.349 1400.37 945.856 1425.13C947.288 1428.89 948.568 1431.6 949.696 1433.26 950.824 1434.93 952.319 1435.98 954.181 1436.41L953.429 1439.95 926.036 1439.95 926.788 1436.41C929.617 1436.12 931.031 1434.83 931.031 1432.54 931.031 1431.25 930.87 1429.94 930.548 1428.62 930.226 1427.29 929.76 1425.82 929.151 1424.21L924.371 1411.59 913.253 1424.86C911.606 1426.83 910.442 1428.38 909.762 1429.53 909.081 1430.68 908.741 1431.8 908.741 1432.91 908.741 1435.06 910.066 1436.23 912.716 1436.41L911.964 1439.95 889.567 1439.95 890.318 1436.41C891.787 1436.01 893.246 1435.19 894.696 1433.93 896.146 1432.68 898.894 1429.75 902.941 1425.13L921.471 1404.18 913.253 1382.48C912.68 1381.01 911.991 1379.35 911.185 1377.48 910.38 1375.62 909.645 1374.2 908.983 1373.21 908.321 1372.23 907.676 1371.52 907.049 1371.09 906.423 1370.66 905.662 1370.36 904.767 1370.18Z" fill="#005EA8" fill-rule="evenodd"/><text fill="#000000" fill-opacity="0" font-family="Arial,Arial_MSFontService,sans-serif" font-size="73.3154" x="889.567" y="1430.79">洧</text><path d="M1006.19 1409.09 1026.38 1409.09 1025.8 1411.67C1024.65 1411.74 1023.76 1412.03 1023.12 1412.53 1022.48 1413.02 1022.03 1413.68 1021.76 1414.52 1021.48 1415.35 1021.35 1416.6 1021.35 1418.27L1021.35 1419.95C1021.35 1420.52 1021.36 1421.13 1021.38 1421.78L1021.66 1435.49C1021.76 1440.73 1021.81 1445.51 1021.81 1449.83L1022.28 1449.83 1034.9 1426.16C1036.93 1422.36 1038.17 1419.8 1038.63 1418.48 1039.09 1417.17 1039.31 1415.98 1039.31 1414.91 1039.31 1413.03 1038.21 1411.95 1035.99 1411.67L1036.58 1409.09 1053.22 1409.09 1052.63 1411.67C1051.7 1411.87 1050.88 1412.23 1050.19 1412.74 1049.5 1413.25 1048.86 1413.91 1048.26 1414.73 1047.66 1415.55 1046.78 1417 1045.6 1419.09L1021.35 1462.68 1011.54 1462.68 1009.86 1420.92C1009.81 1419.44 1009.7 1418.11 1009.55 1416.92 1009.39 1415.74 1009.15 1414.77 1008.81 1414.01 1008.47 1413.25 1008.04 1412.7 1007.54 1412.35 1007.03 1412 1006.38 1411.77 1005.6 1411.67ZM979.861 1409.09 999.51 1409.09 998.963 1411.67C997.478 1412.08 996.385 1412.81 995.681 1413.85 994.978 1414.9 994.314 1416.82 993.689 1419.64L986.58 1451.86C986.398 1452.7 986.267 1453.42 986.189 1454.03 986.111 1454.64 986.072 1455.44 986.072 1456.43 986.072 1457.53 986.326 1458.33 986.834 1458.83 987.342 1459.34 988.168 1459.67 989.314 1459.83L988.767 1462.41 969.119 1462.41 969.666 1459.83C971.15 1459.41 972.244 1458.68 972.947 1457.64 973.65 1456.6 974.314 1454.67 974.939 1451.86L982.049 1419.64C982.387 1418.1 982.556 1416.58 982.556 1415.06 982.556 1413.97 982.303 1413.17 981.795 1412.66 981.287 1412.15 980.46 1411.82 979.314 1411.67Z" fill="#005EA8" fill-rule="evenodd"/><text fill="#000000" fill-opacity="0" font-family="Arial,Arial_MSFontService,sans-serif" font-size="53.5938" x="969.119" y="1455.98">洧놇洧놓</text><path d="M1079.5 496.042 1261.39 496.042 1261.39 518.959 1079.5 518.958ZM1221.63 469.138 1283.01 507.5 1221.63 545.863C1216.27 549.217 1209.2 547.585 1205.84 542.219 1202.49 536.852 1204.12 529.783 1209.49 526.429L1255.32 497.784 1255.32 517.217 1209.49 488.571C1204.12 485.217 1202.49 478.148 1205.84 472.781 1209.2 467.415 1216.27 465.784 1221.63 469.138Z" fill="#F17900"/><rect x="1283" y="395" width="224" height="224" fill="#F17900"/><path d="M1347.63 467.167 1398.44 467.167 1397.63 470.712 1352.57 534.091 1366.21 534.091C1368.22 534.091 1369.82 533.796 1371.02 533.205 1372.22 532.614 1373.61 531.209 1375.21 528.989 1376.8 526.769 1378.24 523.958 1379.53 520.556L1386.57 520.556 1382.27 540.483 1331.03 540.483 1331.78 536.938 1376.85 473.559 1363.74 473.559C1362.24 473.559 1361.09 473.666 1360.3 473.881 1359.52 474.096 1358.79 474.427 1358.13 474.875 1357.47 475.322 1356.7 476.03 1355.84 476.996 1354.99 477.963 1354.03 479.351 1352.97 481.159 1351.92 482.967 1351.1 484.588 1350.53 486.02L1343.49 486.02Z" fill="#FFFFFF" fill-rule="evenodd"/><text fill="#000000" fill-opacity="0" font-family="Arial,Arial_MSFontService,sans-serif" font-size="73.3154" x="1331.03" y="531.318">洧누</text><path d="M1447.78 513.379 1467.43 513.379 1466.89 515.957C1465.4 516.374 1464.31 517.103 1463.61 518.145 1462.9 519.186 1462.24 521.113 1461.61 523.926L1454.5 556.152C1454.32 556.986 1454.19 557.708 1454.11 558.32 1454.03 558.932 1454 559.733 1454 560.723 1454 561.817 1454.25 562.617 1454.76 563.125 1455.27 563.633 1456.09 563.965 1457.24 564.121L1456.69 566.699 1437.04 566.699 1437.59 564.121C1439.07 563.705 1440.17 562.975 1440.87 561.934 1441.57 560.892 1442.24 558.965 1442.86 556.152L1449.97 523.926C1450.31 522.389 1450.48 520.866 1450.48 519.356 1450.48 518.262 1450.23 517.461 1449.72 516.953 1449.21 516.445 1448.38 516.113 1447.24 515.957ZM1412.78 513.379 1432.43 513.379 1431.89 515.957C1430.4 516.374 1429.31 517.103 1428.61 518.145 1427.9 519.186 1427.24 521.113 1426.61 523.926L1419.5 556.152C1419.32 556.986 1419.19 557.708 1419.11 558.32 1419.03 558.932 1419 559.733 1419 560.723 1419 561.817 1419.25 562.617 1419.76 563.125 1420.27 563.633 1421.09 563.965 1422.24 564.121L1421.69 566.699 1402.04 566.699 1402.59 564.121C1404.07 563.705 1405.17 562.975 1405.87 561.934 1406.57 560.892 1407.24 558.965 1407.86 556.152L1414.97 523.926C1415.31 522.389 1415.48 520.866 1415.48 519.356 1415.48 518.262 1415.23 517.461 1414.72 516.953 1414.21 516.445 1413.38 516.113 1412.24 515.957Z" fill="#FFFFFF" fill-rule="evenodd"/><text fill="#000000" fill-opacity="0" font-family="Arial,Arial_MSFontService,sans-serif" font-size="53.3203" x="1402.04" y="560.034">洧놇洧놇</text><path d="M1427.24 461.147C1424.82 461.147 1422.67 462.365 1420.79 464.8 1418.92 467.235 1417.41 470.509 1416.26 474.624 1415.12 478.738 1414.54 482.423 1414.54 485.679 1414.54 487.58 1414.82 488.999 1415.38 489.936 1415.94 490.874 1416.81 491.343 1417.98 491.343 1419.7 491.343 1421.45 490.503 1423.23 488.823 1425.02 487.143 1426.46 485.171 1427.55 482.905 1428.64 480.639 1429.62 477.54 1430.48 473.608L1430.79 472.163C1431.21 470.236 1431.42 468.309 1431.42 466.382 1431.42 464.663 1431.09 463.361 1430.44 462.475 1429.79 461.59 1428.72 461.147 1427.24 461.147ZM1426.77 457.085C1430.65 457.085 1433.96 458.022 1436.69 459.897L1440.48 457.085 1444.86 457.71 1438.53 484.272C1438.14 485.913 1437.94 487.397 1437.94 488.725 1437.94 489.585 1438.08 490.249 1438.37 490.718 1438.66 491.186 1439.15 491.421 1439.86 491.421 1440.66 491.421 1441.53 491.056 1442.47 490.327 1443.41 489.598 1444.5 488.517 1445.75 487.085L1448.57 489.897C1445.83 492.632 1443.47 494.513 1441.5 495.542 1439.52 496.57 1437.43 497.085 1435.25 497.085 1433.06 497.085 1431.33 496.479 1430.05 495.268 1428.77 494.057 1428.14 492.462 1428.14 490.483 1428.14 489.832 1428.21 489.207 1428.37 488.608L1427.82 488.53C1425.92 490.77 1424.29 492.456 1422.92 493.589 1421.55 494.721 1420.1 495.587 1418.57 496.186 1417.03 496.785 1415.32 497.085 1413.45 497.085 1410.32 497.085 1407.95 496.024 1406.34 493.901 1404.72 491.779 1403.92 488.686 1403.92 484.624 1403.92 481.108 1404.43 477.619 1405.44 474.155 1406.46 470.692 1407.92 467.703 1409.82 465.19 1411.72 462.677 1414.11 460.698 1416.98 459.253 1419.86 457.807 1423.12 457.085 1426.77 457.085Z" fill="#FFFFFF" fill-rule="evenodd"/><text fill="#000000" fill-opacity="0" font-family="Arial,Arial_MSFontService,sans-serif" font-size="40" x="1403.92" y="492.085">洧눅</text><path d="M855.5 507.5C855.5 445.644 905.644 395.5 967.5 395.5 1029.36 395.5 1079.5 445.644 1079.5 507.5 1079.5 569.356 1029.36 619.5 967.5 619.5 905.644 619.5 855.5 569.356 855.5 507.5Z" stroke="#005EA8" stroke-width="20.625" stroke-miterlimit="8" fill="#FFFFFF" fill-rule="evenodd"/><path d="M914.166 468.176 941.505 468.176 940.699 471.721C939.16 471.864 938.041 472.338 937.342 473.144 936.644 473.95 936.295 474.997 936.295 476.286 936.295 477.36 936.492 478.64 936.886 480.126 937.28 481.612 937.888 483.394 938.712 485.471L942.096 494.387 949.293 485.471C951.585 482.606 953.178 480.449 954.073 478.998 954.969 477.548 955.416 476.34 955.416 475.373 955.416 474.155 955.112 473.287 954.503 472.768 953.894 472.249 952.892 471.9 951.495 471.721L952.301 468.176 974.645 468.176 973.839 471.774C972.98 471.917 972.12 472.258 971.261 472.795 970.401 473.332 969.229 474.334 967.743 475.803 966.257 477.271 963.795 480.01 960.358 484.02L944.943 501.906 954.449 526.667C955.882 530.427 957.162 533.139 958.29 534.804 959.418 536.469 960.913 537.516 962.775 537.946L962.023 541.491 934.63 541.491 935.382 537.946C938.211 537.66 939.625 536.371 939.625 534.079 939.625 532.79 939.464 531.483 939.142 530.158 938.819 528.833 938.354 527.365 937.745 525.754L932.965 513.132 921.847 526.398C920.2 528.368 919.036 529.925 918.356 531.071 917.675 532.217 917.335 533.345 917.335 534.455 917.335 536.603 918.66 537.767 921.31 537.946L920.558 541.491 898.16 541.491 898.912 537.946C900.38 537.552 901.839 536.729 903.29 535.475 904.74 534.222 907.488 531.286 911.534 526.667L930.065 505.72 921.847 484.02C921.274 482.552 920.585 480.887 919.779 479.025 918.973 477.163 918.239 475.74 917.577 474.755 916.914 473.771 916.27 473.063 915.643 472.634 915.017 472.204 914.256 471.9 913.36 471.721Z" fill="#005EA8" fill-rule="evenodd"/><text fill="#000000" fill-opacity="0" font-family="Arial,Arial_MSFontService,sans-serif" font-size="73.3154" x="898.16" y="532.327">洧</text><path d="M1023.45 510.629 1043.1 510.629 1042.56 513.207C1041.07 513.624 1039.98 514.353 1039.28 515.395 1038.57 516.436 1037.91 518.363 1037.28 521.176L1030.17 553.402C1029.99 554.236 1029.86 554.958 1029.78 555.57 1029.7 556.182 1029.67 556.983 1029.67 557.973 1029.67 559.067 1029.92 559.867 1030.43 560.375 1030.94 560.883 1031.76 561.215 1032.91 561.371L1032.36 563.949 1012.71 563.949 1013.26 561.371C1014.74 560.955 1015.84 560.225 1016.54 559.184 1017.24 558.142 1017.91 556.215 1018.53 553.402L1025.64 521.176C1025.98 519.639 1026.15 518.116 1026.15 516.606 1026.15 515.512 1025.9 514.711 1025.39 514.203 1024.88 513.695 1024.05 513.363 1022.91 513.207ZM988.455 510.629 1008.1 510.629 1007.56 513.207C1006.07 513.624 1004.98 514.353 1004.28 515.395 1003.57 516.436 1002.91 518.363 1002.28 521.176L995.174 553.402C994.991 554.236 994.861 554.958 994.783 555.57 994.705 556.182 994.666 556.983 994.666 557.973 994.666 559.067 994.92 559.867 995.428 560.375 995.935 560.883 996.762 561.215 997.908 561.371L997.361 563.949 977.713 563.949 978.26 561.371C979.744 560.955 980.838 560.225 981.541 559.184 982.244 558.142 982.908 556.215 983.533 553.402L990.642 521.176C990.981 519.639 991.15 518.116 991.15 516.606 991.15 515.512 990.896 514.711 990.388 514.203 989.881 513.695 989.054 513.363 987.908 513.207Z" fill="#005EA8" fill-rule="evenodd"/><text fill="#000000" fill-opacity="0" font-family="Arial,Arial_MSFontService,sans-serif" font-size="53.3203" x="977.713" y="557.284">洧놇洧놇</text><path d="M1079.5 945.042 1261.39 945.042 1261.39 967.959 1079.5 967.958ZM1221.63 918.138 1283.01 956.501 1221.63 994.863C1216.27 998.217 1209.2 996.586 1205.84 991.219 1202.49 985.853 1204.12 978.784 1209.49 975.43L1255.32 946.784 1255.32 966.217 1209.49 937.571C1204.12 934.217 1202.49 927.148 1205.84 921.782 1209.2 916.415 1216.27 914.784 1221.63 918.138Z" fill="#F17900"/><rect x="1283" y="844" width="224" height="224" fill="#F17900"/><path d="M1330.15 916.397 1380.96 916.397 1380.16 919.942 1335.09 983.321 1348.74 983.321C1350.74 983.321 1352.34 983.026 1353.54 982.435 1354.74 981.844 1356.14 980.438 1357.73 978.218 1359.33 975.998 1360.77 973.187 1362.06 969.786L1369.09 969.786 1364.8 989.713 1313.56 989.713 1314.31 986.168 1359.37 922.789 1346.27 922.789C1344.76 922.789 1343.62 922.896 1342.83 923.111 1342.04 923.326 1341.32 923.657 1340.65 924.105 1339.99 924.552 1339.23 925.259 1338.37 926.226 1337.51 927.193 1336.55 928.581 1335.5 930.389 1334.44 932.197 1333.63 933.817 1333.05 935.25L1326.02 935.25Z" fill="#FFFFFF" fill-rule="evenodd"/><text fill="#000000" fill-opacity="0" font-family="Arial,Arial_MSFontService,sans-serif" font-size="73.3154" x="1313.56" y="980.548">洧누</text><path d="M1465.31 962.609 1484.96 962.609 1484.41 965.187C1482.93 965.604 1481.83 966.333 1481.13 967.374 1480.43 968.416 1479.76 970.343 1479.14 973.156L1472.03 1005.38C1471.85 1006.22 1471.72 1006.94 1471.64 1007.55 1471.56 1008.16 1471.52 1008.96 1471.52 1009.95 1471.52 1011.05 1471.78 1011.85 1472.28 1012.35 1472.79 1012.86 1473.62 1013.19 1474.76 1013.35L1474.22 1015.93 1454.57 1015.93 1455.12 1013.35C1456.6 1012.93 1457.69 1012.21 1458.4 1011.16 1459.1 1010.12 1459.76 1008.19 1460.39 1005.38L1467.5 973.156C1467.84 971.619 1468.01 970.096 1468.01 968.585 1468.01 967.492 1467.75 966.691 1467.24 966.183 1466.74 965.675 1465.91 965.343 1464.76 965.187ZM1430.31 962.609 1449.96 962.609 1449.41 965.187C1447.93 965.604 1446.83 966.333 1446.13 967.374 1445.43 968.416 1444.76 970.343 1444.14 973.156L1437.03 1005.38C1436.85 1006.22 1436.72 1006.94 1436.64 1007.55 1436.56 1008.16 1436.52 1008.96 1436.52 1009.95 1436.52 1011.05 1436.78 1011.85 1437.28 1012.35 1437.79 1012.86 1438.62 1013.19 1439.76 1013.35L1439.22 1015.93 1419.57 1015.93 1420.12 1013.35C1421.6 1012.93 1422.69 1012.21 1423.4 1011.16 1424.1 1010.12 1424.76 1008.19 1425.39 1005.38L1432.5 973.156C1432.84 971.619 1433.01 970.096 1433.01 968.585 1433.01 967.492 1432.75 966.691 1432.24 966.183 1431.74 965.675 1430.91 965.343 1429.76 965.187ZM1395.31 962.609 1414.96 962.609 1414.41 965.187C1412.93 965.604 1411.83 966.333 1411.13 967.374 1410.43 968.416 1409.76 970.343 1409.14 973.156L1402.03 1005.38C1401.85 1006.22 1401.72 1006.94 1401.64 1007.55 1401.56 1008.16 1401.52 1008.96 1401.52 1009.95 1401.52 1011.05 1401.78 1011.85 1402.28 1012.35 1402.79 1012.86 1403.62 1013.19 1404.76 1013.35L1404.22 1015.93 1384.57 1015.93 1385.12 1013.35C1386.6 1012.93 1387.69 1012.21 1388.4 1011.16 1389.1 1010.12 1389.76 1008.19 1390.39 1005.38L1397.5 973.156C1397.84 971.619 1398.01 970.096 1398.01 968.585 1398.01 967.492 1397.75 966.691 1397.24 966.183 1396.74 965.675 1395.91 965.343 1394.76 965.187Z" fill="#FFFFFF" fill-rule="evenodd"/><text fill="#000000" fill-opacity="0" font-family="Arial,Arial_MSFontService,sans-serif" font-size="53.3203" x="1384.57" y="1009.26">洧놇洧놇洧놇</text><path d="M1409.76 910.377C1407.34 910.377 1405.19 911.595 1403.32 914.029 1401.44 916.464 1399.93 919.739 1398.79 923.854 1397.64 927.968 1397.07 931.653 1397.07 934.908 1397.07 936.809 1397.35 938.229 1397.91 939.166 1398.47 940.104 1399.33 940.572 1400.51 940.572 1402.22 940.572 1403.98 939.733 1405.76 938.053 1407.54 936.373 1408.98 934.401 1410.08 932.135 1411.17 929.869 1412.15 926.77 1413.01 922.838L1413.32 921.393C1413.74 919.466 1413.94 917.539 1413.94 915.611 1413.94 913.893 1413.62 912.591 1412.97 911.705 1412.32 910.82 1411.25 910.377 1409.76 910.377ZM1409.3 906.315C1413.18 906.315 1416.48 907.252 1419.22 909.127L1423.01 906.315 1427.38 906.94 1421.05 933.502C1420.66 935.143 1420.47 936.627 1420.47 937.955 1420.47 938.815 1420.61 939.479 1420.9 939.947 1421.18 940.416 1421.68 940.651 1422.38 940.651 1423.19 940.651 1424.06 940.286 1425 939.557 1425.94 938.828 1427.03 937.747 1428.28 936.315L1431.09 939.127C1428.36 941.861 1426 943.743 1424.02 944.772 1422.04 945.8 1419.96 946.315 1417.77 946.315 1415.58 946.315 1413.85 945.709 1412.58 944.498 1411.3 943.287 1410.66 941.692 1410.66 939.713 1410.66 939.062 1410.74 938.437 1410.9 937.838L1410.35 937.76C1408.45 939.999 1406.81 941.686 1405.45 942.818 1404.08 943.951 1402.63 944.817 1401.09 945.416 1399.56 946.015 1397.85 946.315 1395.97 946.315 1392.85 946.315 1390.48 945.253 1388.87 943.131 1387.25 941.009 1386.44 937.916 1386.44 933.854 1386.44 930.338 1386.95 926.848 1387.97 923.385 1388.98 919.921 1390.44 916.933 1392.34 914.42 1394.24 911.907 1396.63 909.928 1399.51 908.483 1402.39 907.037 1405.65 906.315 1409.3 906.315Z" fill="#FFFFFF" fill-rule="evenodd"/><text fill="#000000" fill-opacity="0" font-family="Arial,Arial_MSFontService,sans-serif" font-size="40" x="1386.44" y="941.315">洧눅</text><path d="M855.5 956.5C855.5 894.644 905.644 844.5 967.5 844.5 1029.36 844.5 1079.5 894.644 1079.5 956.5 1079.5 1018.36 1029.36 1068.5 967.5 1068.5 905.644 1068.5 855.5 1018.36 855.5 956.5Z" stroke="#005EA8" stroke-width="20.625" stroke-miterlimit="8" fill="#FFFFFF" fill-rule="evenodd"/><path d="M896.692 917.405 924.031 917.405 923.225 920.95C921.686 921.094 920.567 921.568 919.868 922.374 919.17 923.179 918.821 924.227 918.821 925.516 918.821 926.59 919.018 927.87 919.412 929.356 919.806 930.842 920.414 932.623 921.238 934.7L924.622 943.616 931.819 934.7C934.111 931.836 935.704 929.678 936.599 928.228 937.495 926.778 937.942 925.569 937.942 924.603 937.942 923.385 937.638 922.517 937.029 921.998 936.42 921.479 935.418 921.129 934.021 920.95L934.827 917.405 957.171 917.405 956.365 921.004C955.506 921.147 954.646 921.487 953.787 922.025 952.927 922.562 951.755 923.564 950.269 925.032 948.783 926.5 946.321 929.24 942.883 933.25L927.468 951.136 936.975 975.897C938.408 979.656 939.688 982.369 940.816 984.034 941.944 985.699 943.438 986.746 945.3 987.176L944.549 990.721 917.156 990.721 917.908 987.176C920.737 986.889 922.151 985.6 922.151 983.309 922.151 982.02 921.99 980.713 921.668 979.388 921.345 978.063 920.88 976.595 920.271 974.984L915.491 962.361 904.373 975.628C902.726 977.597 901.562 979.155 900.882 980.301 900.201 981.447 899.861 982.575 899.861 983.685 899.861 985.833 901.186 986.997 903.836 987.176L903.084 990.721 880.686 990.721 881.438 987.176C882.906 986.782 884.365 985.958 885.816 984.705 887.266 983.452 890.014 980.516 894.06 975.897L912.591 954.949 904.373 933.25C903.8 931.782 903.111 930.117 902.305 928.255 901.499 926.393 900.765 924.97 900.103 923.985 899.44 923 898.796 922.293 898.169 921.863 897.542 921.434 896.782 921.129 895.886 920.95Z" fill="#005EA8" fill-rule="evenodd"/><text fill="#000000" fill-opacity="0" font-family="Arial,Arial_MSFontService,sans-serif" font-size="73.3154" x="880.686" y="981.556">洧</text><path d="M1040.98 959.859 1060.63 959.859 1060.08 962.437C1058.6 962.854 1057.5 963.583 1056.8 964.624 1056.1 965.666 1055.43 967.593 1054.81 970.406L1047.7 1002.63C1047.52 1003.47 1047.39 1004.19 1047.31 1004.8 1047.23 1005.41 1047.19 1006.21 1047.19 1007.2 1047.19 1008.3 1047.45 1009.1 1047.95 1009.6 1048.46 1010.11 1049.29 1010.44 1050.43 1010.6L1049.89 1013.18 1030.24 1013.18 1030.79 1010.6C1032.27 1010.18 1033.36 1009.46 1034.07 1008.41 1034.77 1007.37 1035.43 1005.44 1036.06 1002.63L1043.17 970.406C1043.51 968.869 1043.68 967.346 1043.68 965.835 1043.68 964.742 1043.42 963.941 1042.91 963.433 1042.41 962.925 1041.58 962.593 1040.43 962.437ZM1005.98 959.859 1025.63 959.859 1025.08 962.437C1023.6 962.854 1022.5 963.583 1021.8 964.624 1021.1 965.666 1020.43 967.593 1019.81 970.406L1012.7 1002.63C1012.52 1003.47 1012.39 1004.19 1012.31 1004.8 1012.23 1005.41 1012.19 1006.21 1012.19 1007.2 1012.19 1008.3 1012.45 1009.1 1012.95 1009.6 1013.46 1010.11 1014.29 1010.44 1015.43 1010.6L1014.89 1013.18 995.239 1013.18 995.786 1010.6C997.27 1010.18 998.364 1009.46 999.067 1008.41 999.77 1007.37 1000.43 1005.44 1001.06 1002.63L1008.17 970.406C1008.51 968.869 1008.68 967.346 1008.68 965.835 1008.68 964.742 1008.42 963.941 1007.91 963.433 1007.41 962.925 1006.58 962.593 1005.43 962.437ZM970.981 959.859 990.629 959.859 990.082 962.437C988.598 962.854 987.504 963.583 986.801 964.624 986.098 965.666 985.434 967.593 984.809 970.406L977.7 1002.63C977.517 1003.47 977.387 1004.19 977.309 1004.8 977.231 1005.41 977.192 1006.21 977.192 1007.2 977.192 1008.3 977.446 1009.1 977.953 1009.6 978.461 1010.11 979.288 1010.44 980.434 1010.6L979.887 1013.18 960.239 1013.18 960.786 1010.6C962.27 1010.18 963.364 1009.46 964.067 1008.41 964.77 1007.37 965.434 1005.44 966.059 1002.63L973.168 970.406C973.507 968.869 973.676 967.346 973.676 965.835 973.676 964.742 973.422 963.941 972.914 963.433 972.407 962.925 971.58 962.593 970.434 962.437Z" fill="#005EA8" fill-rule="evenodd"/><text fill="#000000" fill-opacity="0" font-family="Arial,Arial_MSFontService,sans-serif" font-size="53.3203" x="960.239" y="1006.51">洧놇洧놇洧놇</text><path d="M679.494 660.562C678.197 660.562 676.92 660.974 675.664 661.798 674.408 662.622 673.009 663.986 671.469 665.891 669.929 667.796 668.673 669.748 667.7 671.747 666.728 673.747 665.904 676.3 665.228 679.407L664.863 681.109C664.458 683.001 664.255 684.838 664.255 686.621 664.255 688.755 664.721 690.295 665.654 691.241 666.586 692.187 668.133 692.66 670.294 692.66 671.402 692.66 672.455 692.477 673.455 692.112 674.455 691.748 675.475 691.147 676.515 690.309 677.555 689.471 678.541 688.37 679.473 687.006 680.406 685.642 681.263 683.96 682.047 681.96 682.83 679.961 683.438 677.82 683.871 675.537 684.303 673.254 684.519 671.072 684.519 668.992 684.519 666.182 684.121 664.074 683.324 662.669 682.526 661.264 681.25 660.562 679.494 660.562ZM672.401 637.259 674.752 637.259 667.619 665.628 668.146 665.79C670.767 662.278 673.225 659.738 675.522 658.171 677.819 656.604 680.115 655.82 682.412 655.82 685.357 655.82 687.646 656.941 689.281 659.184 690.916 661.426 691.733 664.588 691.733 668.667 691.733 673.125 690.835 677.509 689.038 681.818 687.241 686.128 684.749 689.546 681.561 692.072 678.372 694.598 674.806 695.861 670.861 695.861 667.268 695.861 664.08 694.983 661.297 693.227L657.568 695.861 654.975 695.213 665.471 648.89C666.093 646.134 666.403 644.135 666.403 642.892 666.403 641.757 666.059 640.96 665.37 640.501 664.681 640.042 663.445 639.785 661.662 639.731L662.148 637.623Z" fill="#AE0060" fill-rule="evenodd"/><text fill="#000000" fill-opacity="0" font-family="Arial,Arial_MSFontService,sans-serif" font-size="58.6025" x="654.975" y="688.536">洧녪</text><path d="M711.103 673.485C713.168 673.485 714.93 673.718 716.39 674.185 717.849 674.651 719.036 675.282 719.949 676.076 720.862 676.87 721.523 677.823 721.93 678.935 722.337 680.047 722.54 681.249 722.54 682.539 722.54 683.314 722.486 684.034 722.377 684.699 722.267 685.364 722.079 686.019 721.811 686.665 721.543 687.31 721.19 687.96 720.753 688.616 720.316 689.271 719.77 689.966 719.115 690.701 718.619 691.336 717.973 692.071 717.179 692.905 716.385 693.739 715.516 694.632 714.573 695.585 713.63 696.538 712.642 697.531 711.609 698.564 710.577 699.596 709.574 700.619 708.601 701.632 707.628 702.644 706.734 703.627 705.92 704.58 705.106 705.534 704.441 706.407 703.925 707.202L714.945 707.202C715.878 707.202 716.623 707.167 717.179 707.097 717.735 707.028 718.197 706.874 718.564 706.636 718.931 706.397 719.244 706.035 719.502 705.548 719.76 705.062 720.058 704.392 720.396 703.538L723.166 703.538C723.067 704.948 722.972 706.368 722.883 707.797 722.794 709.227 722.699 710.647 722.6 712.057L697.372 712.057 697.372 710.508C697.849 709.435 698.404 708.378 699.04 707.336 699.675 706.293 700.39 705.236 701.184 704.163 701.979 703.091 702.882 701.984 703.895 700.842 704.908 699.701 706.029 698.514 707.261 697.283 709.127 695.417 710.646 693.823 711.818 692.503 712.989 691.182 713.913 690.006 714.588 688.973 715.263 687.94 715.725 686.987 715.973 686.114 716.221 685.24 716.345 684.307 716.345 683.314 716.345 682.301 716.201 681.368 715.913 680.514 715.625 679.66 715.213 678.935 714.677 678.34 714.141 677.744 713.461 677.277 712.637 676.94 711.813 676.602 710.865 676.433 709.792 676.433 707.946 676.433 706.397 676.935 705.146 677.938 703.895 678.94 702.922 680.395 702.227 682.301L698.325 682.301 698.325 676.493C700.867 675.441 703.205 674.676 705.339 674.2 707.474 673.723 709.395 673.485 711.103 673.485Z" fill="#AE0060" fill-rule="evenodd"/><text fill="#000000" fill-opacity="0" font-family="Arial,Arial_MSFontService,sans-serif" font-size="38.5718" x="697.372" y="707.235">2</text><path d="M711.585 884.956C710.288 884.956 709.012 885.368 707.755 886.192 706.499 887.016 705.101 888.38 703.561 890.285 702.021 892.19 700.765 894.142 699.792 896.141 698.819 898.141 697.995 900.694 697.32 903.801L696.955 905.503C696.55 907.394 696.347 909.232 696.347 911.015 696.347 913.149 696.813 914.689 697.745 915.635 698.677 916.581 700.224 917.053 702.386 917.053 703.493 917.053 704.547 916.871 705.547 916.506 706.546 916.142 707.566 915.54 708.607 914.703 709.647 913.865 710.633 912.764 711.565 911.4 712.497 910.035 713.355 908.354 714.139 906.354 714.922 904.355 715.53 902.214 715.962 899.931 716.395 897.648 716.611 895.466 716.611 893.385 716.611 890.576 716.212 888.468 715.415 887.063 714.618 885.658 713.341 884.956 711.585 884.956ZM704.493 861.653 706.844 861.653 699.711 890.022 700.238 890.184C702.858 886.671 705.317 884.132 707.614 882.565 709.91 880.998 712.207 880.214 714.503 880.214 717.448 880.214 719.738 881.335 721.373 883.578 723.007 885.82 723.825 888.981 723.825 893.061 723.825 897.519 722.926 901.903 721.13 906.212 719.333 910.522 716.84 913.94 713.652 916.466 710.464 918.992 706.898 920.255 702.953 920.255 699.36 920.255 696.171 919.377 693.389 917.621L689.66 920.255 687.066 919.607 697.563 873.284C698.184 870.528 698.495 868.529 698.495 867.286 698.495 866.151 698.151 865.354 697.462 864.895 696.773 864.435 695.536 864.179 693.753 864.125L694.24 862.017Z" fill="#AE0060" fill-rule="evenodd"/><text fill="#000000" fill-opacity="0" font-family="Arial,Arial_MSFontService,sans-serif" font-size="58.6025" x="687.066" y="912.93">洧녪</text><path d="M743.135 897.879C744.724 897.879 746.208 898.047 747.588 898.385 748.968 898.723 750.164 899.234 751.177 899.919 752.19 900.604 752.979 901.458 753.545 902.48 754.111 903.503 754.394 904.689 754.394 906.04 754.394 907.311 754.215 908.432 753.858 909.405 753.5 910.378 752.949 911.262 752.205 912.056 751.46 912.851 750.547 913.57 749.464 914.216 748.382 914.861 747.136 915.482 745.726 916.077L745.726 916.435C747.057 916.673 748.298 917.055 749.449 917.581 750.601 918.108 751.609 918.773 752.473 919.577 753.336 920.381 754.016 921.31 754.513 922.362 755.009 923.414 755.258 924.576 755.258 925.847 755.258 927.435 754.96 928.91 754.364 930.27 753.768 931.63 752.875 932.807 751.683 933.799 750.492 934.792 749.022 935.567 747.275 936.123 745.528 936.679 743.482 936.957 741.139 936.957 739.293 936.957 737.416 936.773 735.51 936.406 733.604 936.038 731.797 935.557 730.089 934.961L730.089 928.528 733.931 928.528C734.249 929.52 734.626 930.369 735.063 931.074 735.5 931.779 736.011 932.355 736.597 932.802 737.183 933.248 737.858 933.571 738.622 933.77 739.387 933.968 740.256 934.068 741.229 934.068 743.79 934.068 745.731 933.457 747.052 932.236 748.372 931.015 749.032 929.163 749.032 926.681 749.032 924.04 748.164 922.039 746.426 920.679 744.689 919.319 742.112 918.639 738.697 918.639L736.076 918.639 736.076 915.779C738.161 915.68 739.963 915.387 741.482 914.901 743.001 914.414 744.267 913.784 745.279 913.009 746.292 912.235 747.047 911.332 747.543 910.299 748.04 909.266 748.288 908.164 748.288 906.993 748.288 905.087 747.722 903.582 746.59 902.48 745.458 901.378 743.82 900.827 741.675 900.827 739.869 900.827 738.354 901.324 737.133 902.317 735.912 903.309 734.974 904.789 734.319 906.755L730.536 906.755 730.536 900.887C732.879 899.894 735.088 899.144 737.163 898.638 739.238 898.132 741.229 897.879 743.135 897.879Z" fill="#AE0060" fill-rule="evenodd"/><text fill="#000000" fill-opacity="0" font-family="Arial,Arial_MSFontService,sans-serif" font-size="39.0781" x="730.089" y="932.072">3</text><path d="M679.494 1172.84C678.197 1172.84 676.92 1173.25 675.664 1174.08 674.408 1174.9 673.009 1176.26 671.469 1178.17 669.929 1180.07 668.673 1182.03 667.7 1184.03 666.728 1186.02 665.904 1188.58 665.228 1191.69L664.863 1193.39C664.458 1195.28 664.255 1197.12 664.255 1198.9 664.255 1201.03 664.721 1202.57 665.654 1203.52 666.586 1204.46 668.133 1204.94 670.294 1204.94 671.402 1204.94 672.455 1204.76 673.455 1204.39 674.455 1204.03 675.475 1203.42 676.515 1202.59 677.555 1201.75 678.541 1200.65 679.473 1199.28 680.406 1197.92 681.263 1196.24 682.047 1194.24 682.83 1192.24 683.438 1190.1 683.871 1187.81 684.303 1185.53 684.519 1183.35 684.519 1181.27 684.519 1178.46 684.121 1176.35 683.324 1174.95 682.526 1173.54 681.25 1172.84 679.494 1172.84ZM672.401 1149.54 674.752 1149.54 667.619 1177.91 668.146 1178.07C670.767 1174.56 673.225 1172.02 675.522 1170.45 677.819 1168.88 680.115 1168.1 682.412 1168.1 685.357 1168.1 687.646 1169.22 689.281 1171.46 690.916 1173.7 691.733 1176.87 691.733 1180.95 691.733 1185.4 690.835 1189.79 689.038 1194.1 687.241 1198.41 684.749 1201.82 681.561 1204.35 678.372 1206.88 674.806 1208.14 670.861 1208.14 667.268 1208.14 664.08 1207.26 661.297 1205.51L657.568 1208.14 654.975 1207.49 665.471 1161.17C666.093 1158.41 666.403 1156.41 666.403 1155.17 666.403 1154.04 666.059 1153.24 665.37 1152.78 664.681 1152.32 663.445 1152.06 661.662 1152.01L662.148 1149.9Z" fill="#AE0060" fill-rule="evenodd"/><text fill="#000000" fill-opacity="0" font-family="Arial,Arial_MSFontService,sans-serif" font-size="58.6025" x="654.975" y="1200.81">洧녪</text><path d="M712.503 1193.15C710.597 1195.91 708.695 1198.65 706.799 1201.37 704.903 1204.09 702.991 1206.82 701.065 1209.56L701.065 1209.92 712.503 1209.92 712.503 1203.93C712.503 1203.26 712.513 1202.42 712.533 1201.43 712.552 1200.44 712.577 1199.43 712.607 1198.41 712.637 1197.38 712.672 1196.41 712.711 1195.49 712.751 1194.56 712.791 1193.78 712.83 1193.15ZM713.367 1186.18 718.102 1186.18 718.102 1209.92 718.639 1209.92C719.453 1209.92 720.113 1209.88 720.619 1209.8 721.126 1209.72 721.533 1209.56 721.84 1209.31 722.148 1209.06 722.406 1208.71 722.615 1208.27 722.823 1207.82 723.047 1207.24 723.285 1206.52L725.817 1206.52C725.757 1207.62 725.693 1208.7 725.623 1209.77 725.554 1210.84 725.489 1211.93 725.43 1213.05L718.102 1213.05 718.102 1216.95C718.102 1218.1 718.127 1218.99 718.177 1219.63 718.227 1220.26 718.375 1220.76 718.624 1221.12 718.872 1221.48 719.239 1221.74 719.726 1221.92 720.212 1222.1 720.892 1222.31 721.766 1222.55L721.766 1224.33 708.899 1224.33 708.899 1222.55C709.495 1222.39 710.001 1222.24 710.418 1222.12 710.835 1221.99 711.182 1221.84 711.46 1221.67 711.738 1221.5 711.942 1221.3 712.071 1221.07 712.2 1220.84 712.299 1220.56 712.369 1220.21 712.438 1219.86 712.478 1219.43 712.488 1218.9 712.498 1218.37 712.503 1217.72 712.503 1216.95L712.503 1213.05 695.734 1213.05 695.734 1210.69C698.692 1206.58 701.631 1202.5 704.55 1198.44 707.469 1194.38 710.408 1190.29 713.367 1186.18Z" fill="#AE0060" fill-rule="evenodd"/><text fill="#000000" fill-opacity="0" font-family="Arial,Arial_MSFontService,sans-serif" font-size="38.1548" x="695.734" y="1219.57">4</text><path d="M1020.75 682.617 1026.34 682.617 1024.11 692.628 1036.43 692.628 1035.54 696.721 1023.22 696.721 1019.61 712.445C1018.91 715.498 1018.46 717.694 1018.28 719.031 1018.09 720.368 1017.99 721.442 1017.99 722.253 1017.99 725.603 1019.38 727.278 1022.17 727.278 1023.35 727.278 1024.62 726.826 1025.96 725.921 1027.29 725.016 1028.88 723.469 1030.72 721.28L1033.07 723.712C1030.72 726.549 1028.45 728.643 1026.28 729.994 1024.1 731.345 1021.83 732.02 1019.45 732.02 1013.8 732.02 1010.98 729.17 1010.98 723.469 1010.98 721.659 1011.21 719.754 1011.67 717.754L1016.45 696.721 1009.64 696.721 1010.25 693.924C1011.85 693.897 1013.05 693.776 1013.88 693.56 1014.7 693.344 1015.39 693.046 1015.95 692.668 1016.5 692.29 1017.01 691.749 1017.47 691.047 1017.92 690.344 1018.37 689.446 1018.8 688.352 1019.23 687.258 1019.88 685.346 1020.75 682.617Z" fill="#005EA8" fill-rule="evenodd"/><text fill="#000000" fill-opacity="0" font-family="Arial,Arial_MSFontService,sans-serif" font-size="49.4028" x="1009.64" y="725.845">洧노</text><path d="M1054.12 709.644C1056.19 709.644 1057.95 709.877 1059.41 710.344 1060.87 710.81 1062.06 711.441 1062.97 712.235 1063.88 713.029 1064.54 713.982 1064.95 715.094 1065.36 716.206 1065.56 717.408 1065.56 718.698 1065.56 719.473 1065.51 720.193 1065.4 720.858 1065.29 721.523 1065.1 722.178 1064.83 722.824 1064.56 723.469 1064.21 724.119 1063.78 724.774 1063.34 725.43 1062.79 726.125 1062.14 726.859 1061.64 727.495 1061 728.23 1060.2 729.064 1059.41 729.898 1058.54 730.791 1057.59 731.744 1056.65 732.697 1055.66 733.69 1054.63 734.723 1053.6 735.755 1052.6 736.778 1051.62 737.791 1050.65 738.803 1049.76 739.786 1048.94 740.739 1048.13 741.692 1047.46 742.566 1046.95 743.36L1057.97 743.36C1058.9 743.36 1059.65 743.326 1060.2 743.256 1060.76 743.187 1061.22 743.033 1061.59 742.794 1061.95 742.556 1062.27 742.194 1062.52 741.707 1062.78 741.221 1063.08 740.551 1063.42 739.697L1066.19 739.697C1066.09 741.107 1065.99 742.526 1065.91 743.956 1065.82 745.386 1065.72 746.806 1065.62 748.215L1040.39 748.215 1040.39 746.667C1040.87 745.594 1041.43 744.537 1042.06 743.494 1042.7 742.452 1043.41 741.395 1044.21 740.322 1045 739.25 1045.9 738.143 1046.92 737.001 1047.93 735.859 1049.05 734.673 1050.28 733.442 1052.15 731.575 1053.67 729.982 1054.84 728.661 1056.01 727.341 1056.93 726.164 1057.61 725.132 1058.29 724.099 1058.75 723.146 1058.99 722.273 1059.24 721.399 1059.37 720.466 1059.37 719.473 1059.37 718.46 1059.22 717.527 1058.94 716.673 1058.65 715.819 1058.24 715.094 1057.7 714.499 1057.16 713.903 1056.48 713.436 1055.66 713.099 1054.83 712.761 1053.89 712.592 1052.81 712.592 1050.97 712.592 1049.42 713.094 1048.17 714.096 1046.92 715.099 1045.94 716.554 1045.25 718.46L1041.35 718.46 1041.35 712.652C1043.89 711.599 1046.23 710.835 1048.36 710.358 1050.5 709.882 1052.42 709.644 1054.12 709.644Z" fill="#005EA8" fill-rule="evenodd"/><text fill="#000000" fill-opacity="0" font-family="Arial,Arial_MSFontService,sans-serif" font-size="38.5718" x="1040.39" y="743.394">2</text><path d="M1107.27 718.49 1118.98 729.838 1118.98 731.744 1107.27 743.092 1105.51 741.454 1112.34 732.757 1074.72 732.757 1074.72 728.795 1112.34 728.795 1105.51 720.128Z" fill="#005EA8" fill-rule="evenodd"/><text fill="#000000" fill-opacity="0" font-family="Arial,Arial_MSFontService,sans-serif" font-size="24.6025" x="1074.72" y="740.017"></text><path d="M1139.43 709.644C1141.02 709.644 1142.5 709.812 1143.88 710.15 1145.26 710.488 1146.46 710.999 1147.47 711.684 1148.48 712.369 1149.27 713.223 1149.84 714.245 1150.41 715.268 1150.69 716.454 1150.69 717.805 1150.69 719.076 1150.51 720.198 1150.15 721.17 1149.8 722.143 1149.24 723.027 1148.5 723.821 1147.75 724.616 1146.84 725.335 1145.76 725.981 1144.68 726.626 1143.43 727.247 1142.02 727.842L1142.02 728.2C1143.35 728.438 1144.59 728.82 1145.74 729.346 1146.9 729.873 1147.9 730.538 1148.77 731.342 1149.63 732.146 1150.31 733.075 1150.81 734.127 1151.3 735.179 1151.55 736.341 1151.55 737.612 1151.55 739.2 1151.25 740.675 1150.66 742.035 1150.06 743.395 1149.17 744.572 1147.98 745.565 1146.79 746.557 1145.32 747.332 1143.57 747.888 1141.82 748.444 1139.78 748.722 1137.43 748.722 1135.59 748.722 1133.71 748.538 1131.8 748.171 1129.9 747.803 1128.09 747.322 1126.38 746.726L1126.38 740.293 1130.23 740.293C1130.54 741.285 1130.92 742.134 1131.36 742.839 1131.8 743.544 1132.31 744.12 1132.89 744.567 1133.48 745.013 1134.15 745.336 1134.92 745.535 1135.68 745.733 1136.55 745.833 1137.52 745.833 1140.09 745.833 1142.03 745.222 1143.35 744.001 1144.67 742.78 1145.33 740.928 1145.33 738.446 1145.33 735.805 1144.46 733.804 1142.72 732.444 1140.98 731.084 1138.41 730.404 1134.99 730.404L1132.37 730.404 1132.37 727.544C1134.46 727.445 1136.26 727.152 1137.78 726.666 1139.3 726.179 1140.56 725.549 1141.57 724.774 1142.59 724 1143.34 723.097 1143.84 722.064 1144.33 721.031 1144.58 719.929 1144.58 718.758 1144.58 716.852 1144.02 715.347 1142.89 714.245 1141.75 713.143 1140.11 712.592 1137.97 712.592 1136.16 712.592 1134.65 713.089 1133.43 714.082 1132.21 715.074 1131.27 716.554 1130.61 718.52L1126.83 718.52 1126.83 712.652C1129.17 711.659 1131.38 710.909 1133.46 710.403 1135.53 709.897 1137.52 709.644 1139.43 709.644Z" fill="#005EA8" fill-rule="evenodd"/><text fill="#000000" fill-opacity="0" font-family="Arial,Arial_MSFontService,sans-serif" font-size="39.0781" x="1126.38" y="743.837">3</text><path d="M1020.75 1127.69 1026.34 1127.69 1024.11 1137.7 1036.43 1137.7 1035.54 1141.79 1023.22 1141.79 1019.61 1157.51C1018.91 1160.57 1018.46 1162.76 1018.28 1164.1 1018.09 1165.44 1017.99 1166.51 1017.99 1167.32 1017.99 1170.67 1019.38 1172.35 1022.17 1172.35 1023.35 1172.35 1024.62 1171.89 1025.96 1170.99 1027.29 1170.08 1028.88 1168.54 1030.72 1166.35L1033.07 1168.78C1030.72 1171.62 1028.45 1173.71 1026.28 1175.06 1024.1 1176.41 1021.83 1177.09 1019.45 1177.09 1013.8 1177.09 1010.98 1174.24 1010.98 1168.54 1010.98 1166.73 1011.21 1164.82 1011.67 1162.82L1016.45 1141.79 1009.64 1141.79 1010.25 1138.99C1011.85 1138.97 1013.05 1138.84 1013.88 1138.63 1014.7 1138.41 1015.39 1138.12 1015.95 1137.74 1016.5 1137.36 1017.01 1136.82 1017.47 1136.12 1017.92 1135.41 1018.37 1134.51 1018.8 1133.42 1019.23 1132.33 1019.88 1130.41 1020.75 1127.69Z" fill="#005EA8" fill-rule="evenodd"/><text fill="#000000" fill-opacity="0" font-family="Arial,Arial_MSFontService,sans-serif" font-size="49.4028" x="1009.64" y="1170.91">洧노</text><path d="M1054.07 1154.71C1055.65 1154.71 1057.14 1154.88 1058.52 1155.22 1059.9 1155.56 1061.09 1156.07 1062.11 1156.75 1063.12 1157.44 1063.91 1158.29 1064.48 1159.31 1065.04 1160.34 1065.32 1161.52 1065.32 1162.87 1065.32 1164.14 1065.15 1165.27 1064.79 1166.24 1064.43 1167.21 1063.88 1168.1 1063.14 1168.89 1062.39 1169.68 1061.48 1170.4 1060.39 1171.05 1059.31 1171.69 1058.07 1172.32 1056.66 1172.91L1056.66 1173.27C1057.99 1173.51 1059.23 1173.89 1060.38 1174.42 1061.53 1174.94 1062.54 1175.61 1063.4 1176.41 1064.27 1177.22 1064.95 1178.14 1065.44 1179.2 1065.94 1180.25 1066.19 1181.41 1066.19 1182.68 1066.19 1184.27 1065.89 1185.74 1065.29 1187.1 1064.7 1188.46 1063.81 1189.64 1062.61 1190.63 1061.42 1191.63 1059.95 1192.4 1058.21 1192.96 1056.46 1193.51 1054.41 1193.79 1052.07 1193.79 1050.22 1193.79 1048.35 1193.61 1046.44 1193.24 1044.53 1192.87 1042.73 1192.39 1041.02 1191.79L1041.02 1185.36 1044.86 1185.36C1045.18 1186.35 1045.56 1187.2 1045.99 1187.91 1046.43 1188.61 1046.94 1189.19 1047.53 1189.64 1048.11 1190.08 1048.79 1190.4 1049.55 1190.6 1050.32 1190.8 1051.19 1190.9 1052.16 1190.9 1054.72 1190.9 1056.66 1190.29 1057.98 1189.07 1059.3 1187.85 1059.96 1186 1059.96 1183.51 1059.96 1180.87 1059.09 1178.87 1057.36 1177.51 1055.62 1176.15 1053.04 1175.47 1049.63 1175.47L1047.01 1175.47 1047.01 1172.61C1049.09 1172.51 1050.89 1172.22 1052.41 1171.73 1053.93 1171.25 1055.2 1170.62 1056.21 1169.84 1057.22 1169.07 1057.98 1168.17 1058.47 1167.13 1058.97 1166.1 1059.22 1165 1059.22 1163.83 1059.22 1161.92 1058.65 1160.42 1057.52 1159.31 1056.39 1158.21 1054.75 1157.66 1052.61 1157.66 1050.8 1157.66 1049.28 1158.16 1048.06 1159.15 1046.84 1160.14 1045.9 1161.62 1045.25 1163.59L1041.47 1163.59 1041.47 1157.72C1043.81 1156.73 1046.02 1155.98 1048.09 1155.47 1050.17 1154.97 1052.16 1154.71 1054.07 1154.71Z" fill="#005EA8" fill-rule="evenodd"/><text fill="#000000" fill-opacity="0" font-family="Arial,Arial_MSFontService,sans-serif" font-size="39.0781" x="1041.02" y="1188.91">3</text><path d="M1107.27 1163.56 1118.98 1174.91 1118.98 1176.81 1107.27 1188.16 1105.51 1186.52 1112.34 1177.83 1074.72 1177.83 1074.72 1173.86 1112.34 1173.86 1105.51 1165.2Z" fill="#005EA8" fill-rule="evenodd"/><text fill="#000000" fill-opacity="0" font-family="Arial,Arial_MSFontService,sans-serif" font-size="24.6025" x="1074.72" y="1185.09"></text><path d="M1140.89 1162.1C1138.98 1164.86 1137.08 1167.6 1135.19 1170.32 1133.29 1173.04 1131.38 1175.77 1129.45 1178.51L1129.45 1178.87 1140.89 1178.87 1140.89 1172.88C1140.89 1172.21 1140.9 1171.37 1140.92 1170.38 1140.94 1169.39 1140.96 1168.38 1140.99 1167.36 1141.02 1166.33 1141.06 1165.36 1141.1 1164.44 1141.14 1163.51 1141.18 1162.73 1141.22 1162.1ZM1141.75 1155.13 1146.49 1155.13 1146.49 1178.87 1147.03 1178.87C1147.84 1178.87 1148.5 1178.83 1149.01 1178.75 1149.51 1178.67 1149.92 1178.51 1150.23 1178.26 1150.53 1178.01 1150.79 1177.66 1151 1177.22 1151.21 1176.77 1151.43 1176.19 1151.67 1175.47L1154.2 1175.47C1154.14 1176.56 1154.08 1177.65 1154.01 1178.72 1153.94 1179.79 1153.88 1180.88 1153.82 1182L1146.49 1182 1146.49 1185.9C1146.49 1187.05 1146.51 1187.94 1146.56 1188.58 1146.61 1189.21 1146.76 1189.71 1147.01 1190.07 1147.26 1190.42 1147.63 1190.69 1148.11 1190.87 1148.6 1191.05 1149.28 1191.26 1150.15 1191.5L1150.15 1193.28 1137.29 1193.28 1137.29 1191.5C1137.88 1191.34 1138.39 1191.19 1138.8 1191.07 1139.22 1190.94 1139.57 1190.79 1139.85 1190.62 1140.12 1190.45 1140.33 1190.25 1140.46 1190.02 1140.59 1189.79 1140.69 1189.51 1140.76 1189.16 1140.82 1188.81 1140.86 1188.37 1140.87 1187.85 1140.88 1187.32 1140.89 1186.67 1140.89 1185.9L1140.89 1182 1124.12 1182 1124.12 1179.64C1127.08 1175.53 1130.02 1171.45 1132.94 1167.39 1135.86 1163.33 1138.79 1159.24 1141.75 1155.13Z" fill="#005EA8" fill-rule="evenodd"/><text fill="#000000" fill-opacity="0" font-family="Arial,Arial_MSFontService,sans-serif" font-size="38.1548" x="1124.12" y="1188.51">4</text><path d="M1100.41 1548.44C1102.92 1548.44 1105.21 1548.59 1107.28 1548.89 1109.35 1549.18 1111.41 1549.7 1113.46 1550.43L1111.64 1558.94 1108.35 1558.94C1108.06 1556.53 1107.27 1554.71 1105.98 1553.47 1104.7 1552.22 1102.68 1551.6 1099.92 1551.6 1097.79 1551.6 1096.06 1552.15 1094.74 1553.24 1093.41 1554.34 1092.75 1555.78 1092.75 1557.56 1092.75 1558.53 1092.92 1559.39 1093.26 1560.13 1093.59 1560.88 1094.28 1561.69 1095.3 1562.58 1096.33 1563.48 1097.92 1564.57 1100.09 1565.87 1101.79 1566.89 1103.15 1567.83 1104.18 1568.68 1105.21 1569.53 1106.02 1570.38 1106.61 1571.22 1107.2 1572.05 1107.64 1572.94 1107.91 1573.87 1108.18 1574.8 1108.31 1575.93 1108.31 1577.26 1108.31 1579.66 1107.67 1581.72 1106.39 1583.44 1105.1 1585.15 1103.36 1586.43 1101.16 1587.27 1098.96 1588.1 1096.45 1588.52 1093.64 1588.52 1091.4 1588.52 1089.2 1588.35 1087.04 1588.02 1084.87 1587.68 1082.47 1587.1 1079.82 1586.29L1081.77 1577.46 1084.93 1577.46C1085.04 1580.05 1085.77 1582.01 1087.12 1583.33 1088.47 1584.66 1090.62 1585.32 1093.56 1585.32 1096.13 1585.32 1098.13 1584.75 1099.58 1583.6 1101.02 1582.45 1101.75 1580.82 1101.75 1578.71 1101.75 1577.5 1101.54 1576.45 1101.14 1575.57 1100.73 1574.7 1100.07 1573.85 1099.15 1573.04 1098.23 1572.23 1096.78 1571.22 1094.78 1570 1092.67 1568.73 1091.03 1567.58 1089.85 1566.56 1088.68 1565.53 1087.79 1564.41 1087.2 1563.21 1086.6 1562.01 1086.31 1560.63 1086.31 1559.06 1086.31 1556.92 1086.88 1555.05 1088.03 1553.45 1089.18 1551.84 1090.82 1550.6 1092.95 1549.74 1095.09 1548.87 1097.57 1548.44 1100.41 1548.44Z" fill="#F17900" fill-rule="evenodd"/><text fill="#000000" fill-opacity="0" font-family="Arial,Arial_MSFontService,sans-serif" font-size="40.0815" x="1079.82" y="1583.51">洧</text><path d="M1123.43 1566.05 1133.7 1566.05C1134.64 1568.53 1135.59 1571.02 1136.58 1573.54 1137.56 1576.05 1138.53 1578.55 1139.48 1581.06 1140.43 1583.56 1141.35 1586.03 1142.24 1588.46 1143.12 1590.89 1143.93 1593.27 1144.66 1595.59L1145.05 1595.59C1145.27 1594.32 1145.55 1592.82 1145.89 1591.08 1146.22 1589.34 1146.62 1587.54 1147.08 1585.67 1147.41 1584.26 1147.76 1582.81 1148.1 1581.32 1148.45 1579.84 1148.77 1578.41 1149.07 1577.04 1149.37 1575.67 1149.61 1574.4 1149.8 1573.24 1149.99 1572.08 1150.08 1571.12 1150.08 1570.36 1150.08 1569.49 1149.86 1568.87 1149.41 1568.5 1148.97 1568.14 1148.14 1567.94 1146.93 1567.92L1147.34 1566.05 1158.4 1566.05 1158.01 1567.83C1157.33 1568.03 1156.8 1568.2 1156.4 1568.35 1156 1568.5 1155.66 1568.79 1155.39 1569.22 1155.11 1569.64 1154.85 1570.26 1154.6 1571.08 1154.35 1571.89 1154.06 1573.06 1153.72 1574.59L1146.99 1604.68 1142.49 1604.68C1141.44 1601.98 1140.36 1599.26 1139.26 1596.52 1138.16 1593.78 1137.07 1591.03 1136.01 1588.29 1134.95 1585.55 1133.93 1582.83 1132.96 1580.13 1131.99 1577.43 1131.1 1574.77 1130.31 1572.15L1129.92 1572.15C1129.82 1572.77 1129.7 1573.48 1129.56 1574.3 1129.42 1575.11 1129.27 1575.99 1129.1 1576.93 1128.93 1577.87 1128.75 1578.84 1128.57 1579.84 1128.38 1580.83 1128.18 1581.82 1127.98 1582.81 1127.81 1583.57 1127.59 1584.45 1127.34 1585.45 1127.1 1586.45 1126.84 1587.53 1126.58 1588.67 1126.33 1589.81 1126.06 1590.97 1125.8 1592.14 1125.53 1593.31 1125.28 1594.43 1125.07 1595.49 1124.85 1596.55 1124.67 1597.52 1124.54 1598.39 1124.42 1599.27 1124.35 1599.95 1124.35 1600.45 1124.35 1601.28 1124.59 1601.87 1125.07 1602.22 1125.54 1602.57 1126.36 1602.78 1127.51 1602.86L1127.18 1604.68 1116.07 1604.68 1116.46 1602.86C1117.05 1602.76 1117.55 1602.64 1117.95 1602.5 1118.34 1602.36 1118.69 1602.08 1118.99 1601.65 1119.29 1601.23 1119.57 1600.59 1119.84 1599.73 1120.11 1598.88 1120.41 1597.68 1120.75 1596.13L1125.63 1574.41C1125.81 1573.62 1125.94 1572.88 1126.03 1572.2 1126.12 1571.51 1126.17 1570.9 1126.17 1570.36 1126.17 1569.49 1125.94 1568.87 1125.48 1568.5 1125.03 1568.14 1124.19 1567.94 1122.98 1567.92Z" fill="#F17900" fill-rule="evenodd"/><text fill="#000000" fill-opacity="0" font-family="Arial,Arial_MSFontService,sans-serif" font-size="38.6313" x="1116.07" y="1599.85">洧녜</text><path d="M1169.67 1578.43 1176.76 1578.43C1177.14 1580.32 1177.33 1582.19 1177.33 1584.02 1177.33 1585.91 1177 1587.64 1176.35 1589.21 1175.71 1590.78 1174.67 1592.34 1173.25 1593.89 1171.84 1595.45 1169.88 1597.15 1167.4 1599.02L1165.21 1596.55C1166.59 1595.25 1167.59 1594.08 1168.21 1593.04 1168.83 1592 1169.28 1590.82 1169.55 1589.49 1169.82 1588.17 1169.95 1586.51 1169.95 1584.51 1169.95 1582.46 1169.86 1580.43 1169.67 1578.43Z" fill="#F17900" fill-rule="evenodd"/><text fill="#000000" fill-opacity="0" font-family="Arial,Arial_MSFontService,sans-serif" font-size="20.5879" x="1165.21" y="1596.44">,</text><path d="M1217.79 1548.44C1220.3 1548.44 1222.59 1548.59 1224.66 1548.89 1226.72 1549.18 1228.79 1549.7 1230.84 1550.43L1229.01 1558.94 1225.73 1558.94C1225.43 1556.53 1224.64 1554.71 1223.36 1553.47 1222.08 1552.22 1220.06 1551.6 1217.3 1551.6 1215.17 1551.6 1213.44 1552.15 1212.11 1553.24 1210.79 1554.34 1210.13 1555.78 1210.13 1557.56 1210.13 1558.53 1210.3 1559.39 1210.64 1560.13 1210.97 1560.88 1211.66 1561.69 1212.68 1562.58 1213.71 1563.48 1215.3 1564.57 1217.46 1565.87 1219.17 1566.89 1220.53 1567.83 1221.56 1568.68 1222.58 1569.53 1223.4 1570.38 1223.99 1571.22 1224.58 1572.05 1225.02 1572.94 1225.29 1573.87 1225.56 1574.8 1225.69 1575.93 1225.69 1577.26 1225.69 1579.66 1225.05 1581.72 1223.77 1583.44 1222.48 1585.15 1220.74 1586.43 1218.54 1587.27 1216.34 1588.1 1213.83 1588.52 1211.02 1588.52 1208.78 1588.52 1206.58 1588.35 1204.41 1588.02 1202.25 1587.68 1199.85 1587.1 1197.2 1586.29L1199.15 1577.46 1202.31 1577.46C1202.42 1580.05 1203.14 1582.01 1204.5 1583.33 1205.85 1584.66 1207.99 1585.32 1210.94 1585.32 1213.51 1585.32 1215.51 1584.75 1216.96 1583.6 1218.4 1582.45 1219.13 1580.82 1219.13 1578.71 1219.13 1577.5 1218.92 1576.45 1218.52 1575.57 1218.11 1574.7 1217.45 1573.85 1216.53 1573.04 1215.61 1572.23 1214.15 1571.22 1212.16 1570 1210.05 1568.73 1208.41 1567.58 1207.23 1566.56 1206.06 1565.53 1205.17 1564.41 1204.58 1563.21 1203.98 1562.01 1203.69 1560.63 1203.69 1559.06 1203.69 1556.92 1204.26 1555.05 1205.41 1553.45 1206.56 1551.84 1208.2 1550.6 1210.33 1549.74 1212.47 1548.87 1214.95 1548.44 1217.79 1548.44Z" fill="#F17900" fill-rule="evenodd"/><text fill="#000000" fill-opacity="0" font-family="Arial,Arial_MSFontService,sans-serif" font-size="40.0815" x="1197.2" y="1583.51">洧</text><path d="M1254 1569.2C1253.29 1569.2 1252.6 1569.21 1251.95 1569.23 1251.29 1569.25 1250.65 1569.28 1250.01 1569.32L1246.23 1585.44 1249.8 1585.44C1252.12 1585.47 1254.05 1585.25 1255.58 1584.75 1257.11 1584.25 1258.33 1583.55 1259.26 1582.64 1260.18 1581.72 1260.83 1580.65 1261.21 1579.42 1261.59 1578.19 1261.78 1576.85 1261.78 1575.4 1261.78 1573.23 1261.15 1571.66 1259.9 1570.68 1258.65 1569.69 1256.68 1569.2 1254 1569.2ZM1240.87 1566.05 1254.33 1566.05C1256.47 1566.05 1258.37 1566.21 1260.03 1566.54 1261.69 1566.86 1263.09 1567.39 1264.23 1568.12 1265.37 1568.84 1266.24 1569.78 1266.84 1570.94 1267.43 1572.11 1267.75 1573.53 1267.79 1575.22 1267.79 1577.42 1267.38 1579.36 1266.56 1581.04 1265.73 1582.72 1264.57 1584.11 1263.09 1585.23 1261.6 1586.34 1259.81 1587.18 1257.72 1587.74 1255.64 1588.31 1253.34 1588.58 1250.81 1588.56 1249.72 1588.56 1248.74 1588.55 1247.87 1588.53 1246.99 1588.51 1246.26 1588.48 1245.66 1588.44 1245.44 1589.48 1245.19 1590.6 1244.92 1591.81 1244.64 1593.02 1244.38 1594.19 1244.14 1595.31 1243.9 1596.43 1243.71 1597.45 1243.55 1598.38 1243.39 1599.3 1243.31 1599.99 1243.31 1600.45 1243.31 1600.84 1243.36 1601.19 1243.47 1601.47 1243.58 1601.76 1243.76 1602.01 1244.01 1602.2 1244.26 1602.4 1244.61 1602.55 1245.07 1602.65 1245.52 1602.75 1246.11 1602.82 1246.82 1602.86L1246.41 1604.68 1233.51 1604.68 1233.84 1602.86C1234.45 1602.76 1234.96 1602.64 1235.36 1602.49 1235.75 1602.34 1236.11 1602.05 1236.41 1601.62 1236.72 1601.2 1237 1600.56 1237.25 1599.7 1237.5 1598.85 1237.79 1597.66 1238.13 1596.13L1243.01 1574.41C1243.21 1573.54 1243.36 1572.77 1243.46 1572.09 1243.56 1571.42 1243.61 1570.86 1243.61 1570.42 1243.61 1569.53 1243.38 1568.89 1242.94 1568.52 1242.49 1568.14 1241.65 1567.94 1240.42 1567.92Z" fill="#F17900" fill-rule="evenodd"/><text fill="#000000" fill-opacity="0" font-family="Arial,Arial_MSFontService,sans-serif" font-size="38.6313" x="1233.51" y="1599.85">洧녞</text></g></svg>